<mxfile host="app.diagrams.net" modified="2023-11-19T08:44:14.301Z" agent="Mozilla/5.0 (Windows NT 10.0; Win64; x64) AppleWebKit/537.36 (KHTML, like Gecko) Chrome/119.0.0.0 Safari/537.36" etag="VSikKij-Rz10TbG-TR3A" version="22.1.3" type="device">
  <diagram id="C5RBs43oDa-KdzZeNtuy" name="Page-1">
    <mxGraphModel dx="979" dy="524" grid="1" gridSize="10" guides="1" tooltips="1" connect="1" arrows="1" fold="1" page="1" pageScale="1" pageWidth="827" pageHeight="1169" math="0" shadow="0">
      <root>
        <mxCell id="WIyWlLk6GJQsqaUBKTNV-0" />
        <mxCell id="WIyWlLk6GJQsqaUBKTNV-1" parent="WIyWlLk6GJQsqaUBKTNV-0" />
        <mxCell id="NWTa7s-zidJ6GodgDbmK-4" style="edgeStyle=orthogonalEdgeStyle;rounded=0;orthogonalLoop=1;jettySize=auto;html=1;" parent="WIyWlLk6GJQsqaUBKTNV-1" target="WIyWlLk6GJQsqaUBKTNV-11" edge="1">
          <mxGeometry relative="1" as="geometry">
            <mxPoint x="120" y="196" as="sourcePoint" />
          </mxGeometry>
        </mxCell>
        <mxCell id="WIyWlLk6GJQsqaUBKTNV-3" value="Prepare Data" style="rounded=1;whiteSpace=wrap;html=1;fontSize=12;glass=0;strokeWidth=1;shadow=0;fillColor=#008364;fontColor=#FFFFFF;" parent="WIyWlLk6GJQsqaUBKTNV-1" vertex="1">
          <mxGeometry x="60" y="176" width="90" height="40" as="geometry" />
        </mxCell>
        <mxCell id="NWTa7s-zidJ6GodgDbmK-25" style="edgeStyle=orthogonalEdgeStyle;rounded=0;orthogonalLoop=1;jettySize=auto;html=1;entryX=0;entryY=0.5;entryDx=0;entryDy=0;" parent="WIyWlLk6GJQsqaUBKTNV-1" source="WIyWlLk6GJQsqaUBKTNV-6" target="WIyWlLk6GJQsqaUBKTNV-12" edge="1">
          <mxGeometry relative="1" as="geometry" />
        </mxCell>
        <mxCell id="WIyWlLk6GJQsqaUBKTNV-6" value="SPD-CONV" style="rhombus;whiteSpace=wrap;html=1;shadow=0;fontFamily=Helvetica;fontSize=12;align=center;strokeWidth=1;spacing=6;spacingTop=-4;verticalAlign=middle;fillColor=#008364;fontColor=#FFFFFF;" parent="WIyWlLk6GJQsqaUBKTNV-1" vertex="1">
          <mxGeometry x="430" y="30" width="100" height="80" as="geometry" />
        </mxCell>
        <mxCell id="NWTa7s-zidJ6GodgDbmK-26" style="edgeStyle=orthogonalEdgeStyle;rounded=0;orthogonalLoop=1;jettySize=auto;html=1;exitX=1;exitY=0.5;exitDx=0;exitDy=0;entryX=0;entryY=0.5;entryDx=0;entryDy=0;" parent="WIyWlLk6GJQsqaUBKTNV-1" source="WIyWlLk6GJQsqaUBKTNV-10" target="WIyWlLk6GJQsqaUBKTNV-12" edge="1">
          <mxGeometry relative="1" as="geometry" />
        </mxCell>
        <mxCell id="WIyWlLk6GJQsqaUBKTNV-10" value="&lt;div style=&quot;border-color: var(--border-color);&quot;&gt;Involution&lt;/div&gt;&lt;div style=&quot;border-color: var(--border-color);&quot;&gt;CBAM&lt;/div&gt;&lt;span style=&quot;background-color: initial;&quot;&gt;Block&lt;/span&gt;" style="rhombus;whiteSpace=wrap;html=1;shadow=0;fontFamily=Helvetica;fontSize=12;align=center;strokeWidth=1;spacing=6;spacingTop=-4;verticalAlign=middle;fillColor=default;strokeColor=#FFAB00;" parent="WIyWlLk6GJQsqaUBKTNV-1" vertex="1">
          <mxGeometry x="430" y="120" width="100" height="80" as="geometry" />
        </mxCell>
        <mxCell id="NWTa7s-zidJ6GodgDbmK-15" style="edgeStyle=orthogonalEdgeStyle;rounded=0;orthogonalLoop=1;jettySize=auto;html=1;exitX=1;exitY=0.5;exitDx=0;exitDy=0;" parent="WIyWlLk6GJQsqaUBKTNV-1" source="WIyWlLk6GJQsqaUBKTNV-12" target="NWTa7s-zidJ6GodgDbmK-14" edge="1">
          <mxGeometry relative="1" as="geometry" />
        </mxCell>
        <mxCell id="7nktpoWmSJB2hKpg8rUV-16" style="edgeStyle=orthogonalEdgeStyle;rounded=0;orthogonalLoop=1;jettySize=auto;html=1;exitX=0.5;exitY=1;exitDx=0;exitDy=0;" edge="1" parent="WIyWlLk6GJQsqaUBKTNV-1" source="WIyWlLk6GJQsqaUBKTNV-12">
          <mxGeometry relative="1" as="geometry">
            <mxPoint x="615" y="260" as="targetPoint" />
          </mxGeometry>
        </mxCell>
        <mxCell id="WIyWlLk6GJQsqaUBKTNV-12" value="Analyze the result" style="rounded=1;whiteSpace=wrap;html=1;fontSize=12;glass=0;strokeWidth=1;shadow=0;rotation=0;fillColor=default;strokeColor=#FFAB00;" parent="WIyWlLk6GJQsqaUBKTNV-1" vertex="1">
          <mxGeometry x="570" y="176" width="90" height="40" as="geometry" />
        </mxCell>
        <mxCell id="NWTa7s-zidJ6GodgDbmK-20" style="edgeStyle=orthogonalEdgeStyle;rounded=0;orthogonalLoop=1;jettySize=auto;html=1;entryX=0.5;entryY=1;entryDx=0;entryDy=0;" parent="WIyWlLk6GJQsqaUBKTNV-1" source="WIyWlLk6GJQsqaUBKTNV-11" target="NWTa7s-zidJ6GodgDbmK-16" edge="1">
          <mxGeometry relative="1" as="geometry" />
        </mxCell>
        <mxCell id="NWTa7s-zidJ6GodgDbmK-21" style="edgeStyle=orthogonalEdgeStyle;rounded=0;orthogonalLoop=1;jettySize=auto;html=1;" parent="WIyWlLk6GJQsqaUBKTNV-1" source="WIyWlLk6GJQsqaUBKTNV-11" target="NWTa7s-zidJ6GodgDbmK-19" edge="1">
          <mxGeometry relative="1" as="geometry" />
        </mxCell>
        <mxCell id="WIyWlLk6GJQsqaUBKTNV-11" value="Implement basic YOLO v8" style="rounded=1;whiteSpace=wrap;html=1;fontSize=12;glass=0;strokeWidth=1;shadow=0;fillColor=#008364;fontColor=#FFFFFF;" parent="WIyWlLk6GJQsqaUBKTNV-1" vertex="1">
          <mxGeometry x="190" y="176" width="90" height="40" as="geometry" />
        </mxCell>
        <mxCell id="NWTa7s-zidJ6GodgDbmK-27" style="edgeStyle=orthogonalEdgeStyle;rounded=0;orthogonalLoop=1;jettySize=auto;html=1;entryX=0;entryY=0.5;entryDx=0;entryDy=0;" parent="WIyWlLk6GJQsqaUBKTNV-1" source="NWTa7s-zidJ6GodgDbmK-3" target="WIyWlLk6GJQsqaUBKTNV-12" edge="1">
          <mxGeometry relative="1" as="geometry" />
        </mxCell>
        <mxCell id="NWTa7s-zidJ6GodgDbmK-3" value="&lt;font color=&quot;#ffffff&quot;&gt;&lt;br&gt;&lt;span style=&quot;font-family: Helvetica; font-size: 12px; font-style: normal; font-variant-ligatures: normal; font-variant-caps: normal; font-weight: 400; letter-spacing: normal; orphans: 2; text-align: center; text-indent: 0px; text-transform: none; widows: 2; word-spacing: 0px; -webkit-text-stroke-width: 0px; text-decoration-thickness: initial; text-decoration-style: initial; text-decoration-color: initial; float: none; display: inline !important;&quot;&gt;SAHI Framework&lt;/span&gt;&lt;br&gt;&lt;/font&gt;" style="rhombus;whiteSpace=wrap;html=1;shadow=0;fontFamily=Helvetica;fontSize=12;align=center;strokeWidth=1;spacing=6;spacingTop=-4;verticalAlign=top;fillColor=#008364;" parent="WIyWlLk6GJQsqaUBKTNV-1" vertex="1">
          <mxGeometry x="430" y="240" width="100" height="80" as="geometry" />
        </mxCell>
        <mxCell id="NWTa7s-zidJ6GodgDbmK-14" value="Choose the best method" style="rounded=1;whiteSpace=wrap;html=1;fontSize=12;glass=0;strokeWidth=1;shadow=0;rotation=0;fillColor=default;strokeColor=#FFAB00;" parent="WIyWlLk6GJQsqaUBKTNV-1" vertex="1">
          <mxGeometry x="700" y="176" width="90" height="40" as="geometry" />
        </mxCell>
        <mxCell id="NWTa7s-zidJ6GodgDbmK-22" style="edgeStyle=orthogonalEdgeStyle;rounded=0;orthogonalLoop=1;jettySize=auto;html=1;exitX=1;exitY=0.5;exitDx=0;exitDy=0;" parent="WIyWlLk6GJQsqaUBKTNV-1" source="NWTa7s-zidJ6GodgDbmK-16" target="WIyWlLk6GJQsqaUBKTNV-6" edge="1">
          <mxGeometry relative="1" as="geometry">
            <Array as="points">
              <mxPoint x="410" y="120" />
              <mxPoint x="410" y="70" />
            </Array>
          </mxGeometry>
        </mxCell>
        <mxCell id="NWTa7s-zidJ6GodgDbmK-28" style="edgeStyle=orthogonalEdgeStyle;rounded=0;orthogonalLoop=1;jettySize=auto;html=1;exitX=1;exitY=0.5;exitDx=0;exitDy=0;entryX=0;entryY=0.5;entryDx=0;entryDy=0;" parent="WIyWlLk6GJQsqaUBKTNV-1" source="NWTa7s-zidJ6GodgDbmK-16" target="WIyWlLk6GJQsqaUBKTNV-10" edge="1">
          <mxGeometry relative="1" as="geometry">
            <Array as="points">
              <mxPoint x="410" y="120" />
              <mxPoint x="410" y="160" />
            </Array>
          </mxGeometry>
        </mxCell>
        <mxCell id="NWTa7s-zidJ6GodgDbmK-16" value="Improve net architecture" style="rounded=1;whiteSpace=wrap;html=1;fontSize=12;glass=0;strokeWidth=1;shadow=0;fillColor=#008364;fontColor=#FFFFFF;" parent="WIyWlLk6GJQsqaUBKTNV-1" vertex="1">
          <mxGeometry x="305" y="100" width="90" height="40" as="geometry" />
        </mxCell>
        <mxCell id="NWTa7s-zidJ6GodgDbmK-24" style="edgeStyle=orthogonalEdgeStyle;rounded=0;orthogonalLoop=1;jettySize=auto;html=1;entryX=0;entryY=0.5;entryDx=0;entryDy=0;" parent="WIyWlLk6GJQsqaUBKTNV-1" source="NWTa7s-zidJ6GodgDbmK-19" target="NWTa7s-zidJ6GodgDbmK-3" edge="1">
          <mxGeometry relative="1" as="geometry">
            <Array as="points">
              <mxPoint x="430" y="280" />
            </Array>
          </mxGeometry>
        </mxCell>
        <mxCell id="NWTa7s-zidJ6GodgDbmK-19" value="Introduce the framework" style="rounded=1;whiteSpace=wrap;html=1;fontSize=12;glass=0;strokeWidth=1;shadow=0;fillColor=#008364;fontColor=#FFFFFF;" parent="WIyWlLk6GJQsqaUBKTNV-1" vertex="1">
          <mxGeometry x="305" y="260" width="90" height="40" as="geometry" />
        </mxCell>
        <mxCell id="NWTa7s-zidJ6GodgDbmK-29" value="Complete" style="dashed=0;html=1;rounded=1;fillColor=#008364;strokeColor=#008364;fontSize=12;align=center;fontStyle=1;strokeWidth=2;fontColor=#ffffff" parent="WIyWlLk6GJQsqaUBKTNV-1" vertex="1">
          <mxGeometry x="30" y="10" width="70" height="20" as="geometry" />
        </mxCell>
        <mxCell id="NWTa7s-zidJ6GodgDbmK-30" value="Processing" style="dashed=0;html=1;rounded=1;strokeColor=#FFAB00;fontSize=12;align=center;fontStyle=1;strokeWidth=2;fontColor=#42526E" parent="WIyWlLk6GJQsqaUBKTNV-1" vertex="1">
          <mxGeometry x="30" y="40" width="70" height="20" as="geometry" />
        </mxCell>
        <mxCell id="7nktpoWmSJB2hKpg8rUV-2" value="" style="strokeWidth=2;html=1;shape=mxgraph.flowchart.annotation_2;align=left;labelPosition=right;pointerEvents=1;rotation=90;" vertex="1" parent="WIyWlLk6GJQsqaUBKTNV-1">
          <mxGeometry x="79" y="175" width="50" height="130" as="geometry" />
        </mxCell>
        <mxCell id="7nktpoWmSJB2hKpg8rUV-3" value="Image" style="text;strokeColor=none;fillColor=none;align=left;verticalAlign=middle;spacingLeft=4;spacingRight=4;overflow=hidden;points=[[0,0.5],[1,0.5]];portConstraint=eastwest;rotatable=0;whiteSpace=wrap;html=1;" vertex="1" parent="WIyWlLk6GJQsqaUBKTNV-1">
          <mxGeometry x="50" y="216" width="80" height="30" as="geometry" />
        </mxCell>
        <mxCell id="7nktpoWmSJB2hKpg8rUV-4" value="Label" style="text;strokeColor=none;fillColor=none;align=left;verticalAlign=middle;spacingLeft=4;spacingRight=4;overflow=hidden;points=[[0,0.5],[1,0.5]];portConstraint=eastwest;rotatable=0;whiteSpace=wrap;html=1;" vertex="1" parent="WIyWlLk6GJQsqaUBKTNV-1">
          <mxGeometry x="120" y="216" width="80" height="30" as="geometry" />
        </mxCell>
        <mxCell id="7nktpoWmSJB2hKpg8rUV-5" value="" style="shape=image;verticalLabelPosition=bottom;labelBackgroundColor=default;verticalAlign=top;aspect=fixed;imageAspect=0;image=data:image/jpeg,/9j/4AAQSkZJRgABAQAAAQABAAD/2wBDAAgGBgcGBQgHBwcJCQgKDBQNDAsLDBkSEw8UHRofHh0aHBwgJC4nICIsIxwcKDcpLDAxNDQ0Hyc5PTgyPC4zNDL/2wBDAQkJCQwLDBgNDRgyIRwhMjIyMjIyMjIyMjIyMjIyMjIyMjIyMjIyMjIyMjIyMjIyMjIyMjIyMjIyMjIyMjIyMjL/wAARCAHAAcADASIAAhEBAxEB/8QAHwAAAQUBAQEBAQEAAAAAAAAAAAECAwQFBgcICQoL/8QAtRAAAgEDAwIEAwUFBAQAAAF9AQIDAAQRBRIhMUEGE1FhByJxFDKBkaEII0KxwRVS0fAkM2JyggkKFhcYGRolJicoKSo0NTY3ODk6Q0RFRkdISUpTVFVWV1hZWmNkZWZnaGlqc3R1dnd4eXqDhIWGh4iJipKTlJWWl5iZmqKjpKWmp6ipqrKztLW2t7i5usLDxMXGx8jJytLT1NXW19jZ2uHi4+Tl5ufo6erx8vP09fb3+Pn6/8QAHwEAAwEBAQEBAQEBAQAAAAAAAAECAwQFBgcICQoL/8QAtREAAgECBAQDBAcFBAQAAQJ3AAECAxEEBSExBhJBUQdhcRMiMoEIFEKRobHBCSMzUvAVYnLRChYkNOEl8RcYGRomJygpKjU2Nzg5OkNERUZHSElKU1RVVldYWVpjZGVmZ2hpanN0dXZ3eHl6goOEhYaHiImKkpOUlZaXmJmaoqOkpaanqKmqsrO0tba3uLm6wsPExcbHyMnK0tPU1dbX2Nna4uPk5ebn6Onq8vP09fb3+Pn6/9oADAMBAAIRAxEAPwDx4UuKQUtc53ijrRjmgU6kAAU7HNIKdQAAYp1IKdQAtOHSkpwzigBRTxTRTxQBIByKmRsVEoqVR6igGWI3+b6Va+0NgZA/CqiITyKtRQM/GDj1pmbJo7ght6gFsdx0q6PNlgzn73AHbvz9ait7Bi4Z3AA6ZFdBbx26IDlWYddtBDMb7dPCoR0O4jAIHNXLKSV0ZpHDyAADd0q3LNHuB+zAgHg0k8MG+NolZGAzgAnP+eKCepahnmeMCWPYfVcYqfBWVhsJK5w2Kqo7ROFRN5Odu9cCnLMyxZnyoYbsd/pQBcVy8S9Sx4PHSmzb4mwjKoPPPOaZGWe1DIcAjIp0KugbzFG3H97vQA0gYHI+ZiDgdaXsScrnjJNTmEOw/d5XPBB6Ux8FxGRtTHHXmgBGWKW3JZlUA8bTjB+n51Gkjwx8Sbtp6nk4NWDbhMRkK7nIZv4cilZYgvC5I54XIOKAEzmT5ypyOoHT2pGQM27cMemP5U+FFU+VGeVGMkc1HJg7gH+fB78igCg8ipK8ZQY6ADvTC0ajCls4HParEkPALhUOeG45/WmMRG/yxZ28Nxnr3oAq+U75wMjrn0p8cEeSu07hxu6gf5xUnm4YkHAxnO2k85SzYTGBweRyfUfjQBEyIpZWYKo7+tScxviMBlHOAc/jUzRDYmfLduxUU0ITJwRkjJAP+cUAKqAZPJbOQCBk5680hZZAqsrYU88dKeSGYKThAcAnv7Ugh8pdpZnycjimIbNnCFjk47jqo7U3lmjdggIyOfXtTi0JPOFIySW+tKtujou35mI69gO1ADSSxdg53g5GOlSByXwmwAgrg+uKbsaMngrgAHPQjr/WpUO5vuZ9WAoAZsCoqlNzDg9cYqtMrLKTA6kqeFBPXHr/AJ6VbkkC4ZeQSe9NR40kVpVBz0wMD/PAoAriJ3m27SECYJYA80JGDcDdyEPynFOkupZCoTaFJOQeD+FNdt0a7WI+bBBPNACKFPCyqDninRwKSOruOetIpB3IvBXnpSgsrHc+wt0YUAPeEjcTwAePSmurFSRtIU8HOaefuNG+Acdzn8qVY3IwTt98fpQA5FcAA4II64qOZURcyDkkk55yf6VJFI0YYtIrFOcDuOlMa5Zgd0YyRy3p70AVlAkGOFHoBij5iSgZRtJ6/wCNW3RA3zMM4HIxyKrP5PmbMY+tAEEmxQA+cevX/PaoUX5QxwvPB68VNJ5auN+QD0GR8tS4jkGIj8uMEimB5PThSClFSdQopw6U0dacKAFFLSCnCgA706kFOpAKKcOlJTloAcKcKQCnKOaAJUGasIhJGBUMfWrcSvuHPFAE8MUmflUlfpWrD0H7rP1qCK4RG2N344qwk4iGXZWjHbPNBDLCwPMMsxVAcHFRXkgtGVYG3Njmpm1C1NsUjVgxHXGap2mm3d3ODGCQx+8w4pmbJFvrkpslEhJwRke/StW0tri4cPIWwFwFzg/iatRwWVlOLSWQm4OMbiePpV6GL7KzRnzGU8neM/5FFxWKv2JonRt7kdBnuT61LcW0eWWQny8/KAc1b2K8W2MAgn7xqneGQZKbTkA4IpAQLDEIyik7R6r361PFGwLMJcgHIQ+lV0O4qBIQT94f0HtU6iSGHIiaRs4Yk4oAtrcHy2ijyr7TyR3pgV2QSA/LjPXpio4kDHcUZMDIAPpQjL5wBkK7jtAxTETCQCNWKZJP5cUgI5KoNxPJ6EClYlDtG4jOM4qKeERnzGc4PGQelAEts+NweTqOM8c4qpNIPu4yc9qVd0WFZRtXnPcjPpikYiQIVZ4xyTuHb160AMkK3EQDAMT3btUYikC/vPlBOBmrMqx5J4wPlOCDimoDIg3bMKcZPPuKAKwB8pgPlJPI9alSJZDypXA3HIz7f0q15YjT5Dg57r+dQ2kp3zK+AS2FLA8igB4i4Zo8YHGM9qEEYTJ4PUgdDVjyN2Sy4BGATSNbqpKBlOOTzkUAUvvyEohZT8uT0ANKmyJwdwG7JqyscXJDDaQe/emNEZlZVJ2jGPemIhM0TuVKcgHOV6jIpFkADcA4OAABzinPA4w5yBg8/wBKieKSQJgrlclmQcrQAuVdGbPzK+QrDkeuaUby4y3LAnb0P1FDABCcAgjOWOMVF5oZwVOeApH+TQAgjTzQHJD4PUjmnh92IyAFx2H8vSkIUAbuCTkHpTFKElgrAF/XJ/DpQBJsiKhgoLA4JPamMAzBY+uAeOmPSpF+eJtkfJPORj8KikZochV5BwMd/wAhQAhhbIwjKwzwDgY9qFjjMgO/O05PqeM0ZdOZJBkjBJ7D61CHQB5PMYKMgdh+dABIpiR2k5UksCDjrUyPvklTeRgg468Uu9pLfegUsB0I4NMIkacPIgUMMkg8g0ASzSBIw4QH5dxAXpQJfPQFYyMeoxkURtHJyhwSAuOgPX2pxK46rvAwMmgCpMhcNIR8u7jnjFRRBpLjadxB5BIq4VB2EEYHGDyO9P3jYQyIF/3uhpiIJol3bpB1OPrUSwLCN6ck1dZgVw204PTNR+fHtGO/YDI/OgZ5EKdikxSipOoMU4dKQU6kAopQKQDmnUAKKdim45pwoAdinKKaB608DFADhTlptOUUATxDPWrStgdagiQE1YELN0HFAmJ5jMcKCav2dg1y6szbUPUtUUds6EEjitCKFiEy3HvxQZmilnaqwLSIMcHNaVvdWwi2IyuUP0HHeseWFZABIVAAAzVzTntrZSPlI6jmglmzDHazRm4uI0zkEPjJxUsskfeXBBzjrmqMt/BFCzMSdx6ZzVL7YLgCK3BSRSTjbkn6UCNmSVEcJgkuMnbxUfmiXkMAoxjI/M1BC07O4mc7QMFdoB6YrO1CyuIVDhn2uTjPYUAbKRIgdhsZiflbFTRWsmwhyfmOSD3rBsIbxEPl4cAZIY8VoSS6jHp5laFQQeec5oEWrtTDGGJZQR8g96pyadyZXkdHPRQc81SOt3g2J9niHPygpk1oLINkckzbCOEXJBH1FAEoCLnbI25skg/T0/GlV1lg5VgW+X5hgdcZqjPpk9ymftJQY4GSalS1a0tVVmZ2Xj7x5BoAmdUVQjsrKw5wOvJ6U0RFCNjn7PznJxUf2GaQB1ciPPKk+9WZ/wB1kIqjPBJYmgCO4RkQhgxI5G0d6Nj+UPMYoWPOD7dP1qVfMXO+QFWI+bA4GO1Rx5WcMjs6kZwe+aAH7ogFUPgowzmlmJc43ALk545qECMlt52AHqBgmow8iPEiq8ilSTn5SM9Pr0pgXUINuFXG48Zx6d6jkchHYMuzrgdqbGxBKk4z94il2RugC4UNzk8CgCk+oq7FXixtIG6rkUnmJlQCCeMdqhmgG7946kDAyRimQAOfLztUHseaYi3O37kKW+7g7fWomA2Fs4z29fapgCpy/wAwAwAB1xTJ5F3Lv2rnrjnNAEQi8xAB95untTUt2jl2ggjOSSKVllExZCpU/dwMYoUMlznI3MvXNAENzFLHJ8qjls4znipVjICvnJGeWPX8KjcOGBYAnPU8EfSnFt8GFbLjBA3nqTQA+MyBwGTDZweMc+tRTttjbfHnDfLz1J5GPypwM4ibLgENjnk09Ykb5xs2N99c5Hb9aAK2wrGCcyLjOAeee1LHGqtsyCuDxjI+hqdo3yNq4zzk+nbHvVeT5H2h2XjDbe/saQDFVVkRUA55Bx1+tPYMS7Sc45HrSIEaX+Lk7cZxn3FEMhSMjeXBGDk8gfU0wCKNVJlUhFOAAfWnyKzyMu3AxjIOaRdpfiM4BBz6Ed6sBQNzZx2XBx/OgCuS0SqCvH8O4/h/WnDJRgRz1LtSuN6ySIdxGAAeaYjuwAAHPb1z9aAJNwbLN8oBwSOhqtIvnNiFeo6+tTNEI4wBgkAZJxUZXA+TbuU8jpmgR5KKcKTGKUVJ1ijrS4pB1p1AAKdSDk04UALThxSYpaAHU4U0U4UAOFSJTRUiDmgCzEKuQk565FV4h0FW1UY5/GgTLkUuIsYyQeaaLmR24BAz0pih0B2dTT7GGeSVt4UL6tQjNlskzRgRgBgOT1quqYGRuOOvetO1tfKmG1dwY46f41qTrBDCXdPmA6E/pQSc5Ck804VMdQPpXQwW00Zj2Mj55LDAwc+tYp1NI5Q6RYIPfnirFprMKnDxn5zy4Hf6UxG8HuG8wFwCOnHP1p0AupcC52tGBWZLrpAVo0AOP4jkHFaVpdxyW+QrfMMtkdSO1ADx+7lLIgEaHLEdKvGN2BIfAPAz0PrWe5Yxq0QUOGx8w47f41ZZ5JXAcJtTOSMn5u4pCGXNsxw8KKrA53EfyqlNbF1dyN8mMjbxurSWeNllDAhVwFz0bPpS4hcuUL7kGMHotAGdA5FsJmV1wcBSckj6Vaiu4m3/ALpwy8EelOjhO9mMmY25Qd++RTZUlZTGjBQfmKKM8ehoAsmTcTtIIUEfLzzUHkCZ1YyDa3fHA+tRRmRtrmUfOMHAwQO1StiKEMGJBYLyPXrQBXlhmMvloBsVc9etIMFuHHHHHOenH6GkXeWGG3N0GeOnr71FcMwJRHfzAMnb36dvxpgSxj9y7LGSyt1Yc07cXVHZCjMOd4IxVaGR7rYZDllzjdwasBXJaVJGjHAA6gDHvQASx/uV52sxxwchqiidVYrMdpTBG09KneTyUIZmde4HGTTYEjRigwX25DEZH0oAglRpWaPO4nB3Hoee9JFbrAgyFB9M9KfKitNtiGGAwwA4Pp+tRlQE5XcTyccE0CHy3LMixNuQ4zn2qQQoEDNtK55bPemQRqtszRblDkkhhz0/z+VM3vG43u2RjYCOOaYCTzGOIIoGc8YOaEVkk2FkO7qeuOKcpmAXdk5wOuMj/Oad5SjDEAuwwwB4IoAqSRbgu0jO443nHH41G1rIsavE43E884wen+FTp5M7K5iQFM/KRyD9RSz+ZIAUV2ZSCUbA49aAMy3N89zi5Qso4LDjFau5TgBAQO4I4/xqyLZiC7qCxH3h1H41XWGIKXZd+0Z2k9Dkf40gH7CXLpIGYjI3dqrsSI1AKgZ4Pv3qxEkUhLc4A7Dr7UySVkURphTu4AXjHvQAixI6NIoBdOFwDxUVvHvdxtXZ1xnoalAVPvFlPZQeKFbLO2So6sSOR9KAE3Fd2OiqTk8/j71IF8xBvJGeSCvehhIw2B3G5cAYB/DpQcxwKC4Y5+bAxTAjkh2yM6rsGf4TxihAT8oYDLHB/wBmpPOOOIi+TjIH3v8AOaQv5g27QN3BKscDFAEU0TSSIpP3R820im3EiAElMMFynvSGTdIVQ4AO47f8aPLccl2z2Bbt/k0CPIxSjrSAUo61J1jh1paQdacBQAoHNOxSAc07FABinUAc0tADhTgM0gpw9qAHAVMqkjio1GTVqJD0NADo+v3ulaNuiEhAct1IJqGGJTkYGcVeg2QoWkQE9OBzQSy1Jaxi3BaVY1J+8TUdi1uksg83Macsx4qK4cSQpiM/IeA44NEUm4suYY2k4IOABQZs6LT7u1mR/LmHGOeufpVudYruIx/LvGOPWuaTQxJIoS6wSMYBro7DS4bQKkrO8g4yDzz/AJNAmRQ+H0ngDSEg8gALxmqo0dbV9252UdQU4rbaTyV2wKHKtjDHJUeuaejqxOHV9oxt9/8AOKCTOttHgcEvGCR0IarKxxW6lIwcL755qdsqQzrgnkKp6VB/pDqHeIAd8dPrQA9UyMqNpYcZbv8ArmnM0gjaFUdywwSuMgnvTraELCu2V5FySWb+HPanbCtyNqyZkGAcE7aAEjQAbFJB2EfMvT3/AEx+NTpjyt8gwe/TDGkwnPmEnAwe+DUDwedHvDZIHsCKAI5JjIWjGUKgEE8bgQP0pIy6ghmVRjliOc/UVJMyxkkxblI4J74HSqqSLKA2MnOQMfoaYEsTlFfYrbs9COmPxpJJ5Dw+QVGSuCB0qFs/aC42JjsT1PerKsSFUvknjI44HPJoAiYMSWIIjPBK8Y/SkMTF9ykByMA54Gf8/pTLrzpASVWR05GM5PpzT4DKYmYHY5XBVux4oAb/AKqXao3sTjB6e+O9PmSSJjtjO1Bgc9vx57U6OVisiooLKQd3v6ChgzAu0nTPsQKQDYwzbZHIPT7zDOaVZFAVxh8jHvn060xwY23NucAA7uuelAGXJRhyQwx1Pt+FMBJJEQugjdTtxnPUetCeYTmVY1KgkD+tSOGa4MqAqcH7wyFB65+vFVgjSKTu4APyj09M0AWmniiCmQ9vmVl4A4pXWOVkZX3KwyMevtVa2kdXdXXdGy9Rzg5bj68VHNcKrbURl2tuIJ5yfT2piJREFkYSk9A2T+Wf0p2FVS0ciuFGVA6qcY/rSRSbI2jZiduMMO/0pP3TAvkFx0B4K0AImxJWcbSSANw5AFV5pXid9p+Y85xjH69elDRJJ5jKdjg4PHcegp8JWI7Sx3dT8vTJHOfzoAPtrxj97u2MME5zUo2KMu5xjoBjPPrUDQqdmTkgdeuf8+tEjRIzJkLg5/2QMf8A1qALgMIBJOCAcLn+oqKO7Q7d6rt+6CXHJqEzcLwN/JyOeKV5CSoU8Dv+lAE8/wA0mQduOCvB4+vSoSfNiZTGyj7g3HGR6j8qJZXLqCPMAPBHIP1FIrHmJAWO4jp/WgCbaVjjJcKxHBBzg1DcRFSTJJuV2JGMBR/jT1ILmPft2tg7uSP85pkxjd1jB2L0GB1NAEqOsYIDuUVSSw7E8YxUTmFVVlHyY5C859c4p5liecwJIN+z5R278H8aXyHZCjyFSDlgAGyPTnpQAoSAIpRcZzjd9B/hUOxmIYFWJ4IHNPKkrkjau/5WU4596aeNpABJPy5HX3/nQI8gFKBSCnCpOsUdaUUg608DigAFOpAMU4UAOxzS4pKdQAtPUU0elSoM8UASRLkir8Ue5aqxKARWhCuQO3PNAmTQRqx5JyPSr6IoYknHAxmoYI8ygDnjvx+dW3uIYB85XJXnkfoKRLZYsIRcL50saliMA5yv4VYi0S1lYXBgxJn7g5H1pttDbosaxiTYO/ofatB1U/L5hDH5TtPIxTM2x0dsgbcIUG4jhDnmrKwAiRyDvP3jnBHp+VMgmjUGLkEHPFKvnBm2qNq8sG6D/wCvzQJj5LZ/sMqF5Dv+X5OuD3qlpeitaTs/2gjK5CtwRn2q+jBonQblEg+Y55NJkrMwjLFmGzHXHegQrI0SAyvlguS2OoqZEwWImWQEcDHC1DCgIYMd2SdwPYVIjFCkbLsY/MwPr/jTAcSIo0dUXcHxnpj8KdLMw+c5Xn5hjNQNcIJSXQM2flUHrilacGBZihHJ37jj2waACOZpZN6jKksWBYHuOwFChdzoXO1hyqnBFIqHzJV+VWHIUEVFLaFUjzKwIJLepA5oAVmjkUIzEIDwwbdgjp1+pp9rKmCowQD95lxj+lVIyDbbCGIWQrtCg596f5m0KGjPy5xkHjFMCRtghZ+2N2Omc9AP60pmmaxUlcj+Id8dqhV0t0jRkZkYEdevT+tD7IQskcpbccBclsfhSAXfMFESK6kjI5//AF1PvWViIxucKAXzwD+ppkryxxgRrnd1A6jNRLCjMCjEKow4xzx3/lQA4qn2giJcloywLPgAjtxSpC3kBmB+c4Yk5x26VVm3WriZpG2E8bTx7ZqwI5I0kZ2d2c5HPbPp+NACRxSFwkhRRgjf15zxyDSvGfNEiyfL0IfrnHaiOX7xBG0jLDr0PWmRRiLdtUMrHccn86AIpUmLxiRkBBySpPfIxUCySJctIDi3xh9gzk+5q7KyiRDEd+3kr6dcdKSWKOSB/KBwSO/Gfc0AQwMqsJVJKsxB3YGcDjj/AD1psk0xfPlqNpO8BcnH6GnJHHK6GLA2nc+TnuB/j+lPimUO4fDE8HHVR70xFVv3cm9A33cluTn0GD/OpUDZTHyzYzu5GD/UU6fYXUDbv24UkHPB6U/zCH3AgqH2lgPu45/CgCGNGhbEoVZS2VIOc+mahkkZUYAOspJYDcPw7euKub0dQYCANuQ+PwOKbIisyk7AxYAEHr/nJoApW6GdhKTtbksig4x3B96nmgSZSgBQdWw2CcDt6DBonV3Dx7CI3Iy/Q596lWaZJQwDlI17+39aAFkjCxbdgTauRjkkVE4kKxI+F6gAgc896mjlZH3E4iI+Zn6jPenJGzru80MSmdw/z7UAVZmd4x5ZUNEMnIIJ/wDrVEWaN3iQ71PzKUHJHXrk+pqyYF3B3nIxyUOOaQEMpnwhOduxeh4oARMKpYyKiOQN0mCTwemPp+lG5RtwrHBO4qOv54qNo5ZJYk8mMoDlyDjjjoPzpIZU4KbVcEkqTgH60ASRTLb52eVt2ghXO45696eszybyu+FSDgDn8aaHiV187CyADKtxnpz/AE/GiUyC5JiQKu0tl17UCJNy2zKC2GfO3Az36/rTX3sEZQp65Ppweh61D5bzEMzjzj/AeCg/zik+0FInLKXC907exoFc8nFLikFOFSdgopwpB1pRQA4UoFIKdQA4CnAUgp4oAVRzU6LUSjJq3Eo4zQBJEmR06VpxRsFyiseM4U9aqRYDFRg9zmrsILdMDBxgHtSJbLNu0kn8DLjuTVqKCKeMyNH8wzjJ3Y/CmQLiAPgvu4wOKvWYER8skYPc+p7UyW7iRloSkSRtl+GXHTgd6tMknl+a3CJjlepNKjZdUZJNzA7mA46+tWFLq3zAuBk5yFCjgDjvzQQwjKq2JIw6KBggc596maUSL+7OMpwce46frVQxyq0Z4jckggcj61Kjw70wwJwzKd2eckdB9KCSaGRmmaMxkTNgggjPvSss0M4jQsJGHXA3Z49qS0uQJSBhmA+Y9AP/AK9TSAhPM38EfKCePQdfwpgNuN0jxAOrbSQ4OCCffGeaWZFSJRyAWL8n+LOf61HbSyIMII87gcrzu+p6ZqS8eRZ8SJjJCxlsDJx1Az7+9ABaIGkkmdkwDlQ/JJ6HtxUlpLi5mkk3rySyE7h9R/8AqqKZj5CyKj+cPl+UZ+v8jUPmuCjMzHcxzkcfSgRJcSsk2EdX3HagXtk5PP4CpgXljV3I47A9R9cc1UUtBcIFClVG4cAEH0/I0SyJOYB86/PnevAA9zQBIY1uZ3aOLG4A4z8ucDp79P1prSeVyYldiM7mHGPTrRE7gybDFuQDBRs4GPQdKYC7SRI0Z8okjaVz2pgPB+0KC8RJjBBJ4OfrnpRG84iSMJGodskjj/8AXRxEwhg3MzD/AFjMDn1qWJ4roEFSTEDHuH8Tdf8ADtSGNZcIkMzJux99QAeabmOKLCOxCjDFhkDnge9Rs7rcqskaHcvIUH5fpnrUzFFspGVT1II2Z3fXn680AClbheWO/JDKx4yPSoZyJriSNZTgHJC9cfWpJMm3t5ZLY7GG2P5Tk/X/ABqlJbRvL5hZVfhSwOA3f68A+nWgC3FEhnQuowMhVU9RjpjuaDNG7PkhF2gBUzkk+3QflVe6kWOOJoHJYAsxY7dwA5wTRbSwmIXiq8fQOx5XpgGgCUxMrhos5I+YN1x/KmiVNxifOeVBxnBputW8lpaW8115kXnyBVOcBiQeg64NSW5SUBiE2oDhR1A7UAQ/almnWBJFJI5OOp4/D2xj8ak8tTG5LBpBnZkdMfUUm2CZWeBNrglMnj09AaigWV5yNpwMgsw+X8DQIsRokKjylG3GGwMkHHTP0Gec9arbkdwmXO5c7uMA+vv+VSgrsWBQ3ptU4y2MYye/FVmjbzcSt5TKfLVQcZNMCwqAkb/kb+FSfTjp+FNZRHETLKQX28ge/GO/emTrKkW6YoGThduSTjsPpUYjkCrJLlwqqQoPJUk9KALbbnh3hwU27WXcQ2D6Y7/Wq4mO1oVLFzjc3t+PUf4mpYikUrqFLysRk7h07HFVRPGk7RnbtT5SzHknPJ9aALLSCDzJOFUYJySRxSRQl1cKq84ckfwDHH+FVsyMIyAMFixzypx2qzFKTNuCkRkYKrwM9v0oALgScOSWjPL9Ov8AhSPdCCRVKjB6hQPl44796kkmjzFk9AM5ByTnpjHNV1tiQAsewkbGVuRgehoAmnRvI/eOWZsYYtzg9Bx9OlMC24h8zaTM3KA8HHWmSErAIyyq0fBxyAOcHPb/AOvSsZN7ykZiQDJweN3oKBDsmdFHmSDAX77dcj6dKWJomzMZGC4wsfUE/wCfwqtcytG22ORNrRgOe359jzUXMLR5MjW69iM5+tAXLyJL5ju0haMsACBymOvP1/lTTmWEruYAHJc8gYP55qCe4e1XDSKNp3GPHcnOM/nT7K5S8h3RmQKT93YcjHWgR5OKeKaKdUnYKOtOFItKKAHCnUgpwGaAHCniminqOaAJY19KuIvTb+NV4VzVyAgMDtzjqOlAmy3bRAHLf45q4Iy20bCoBzjANVYl+YyKuM8Y3dPetGF2aMDy+hwSDyaRNyeCNYzjcVBJz7fTPHaplEjW8xQ7WHCseQ3pxSRwGZ3yVYoOBnO38KnVAIzI5Plqu0jGck8D16HvTIuSMu/a2GZD0A6/XFKCEgdYo0fbwBjaTUplCxO8kMi3HTy056cHNRxLFNH9qRipTAxuXI9cg4z096ZNyWIOZm8wOTjcrrx+GBgVdWCThC6kZzgYHb19uaja4ZlEhiAiCZLKOo78UwSW+Ef96hdNobDD5T0yCPpQIkWJVPmpNtK4ycAkVKkWYtzuXiYKSuMdOcj0z/WqkdqlvE8eyTziwy/45xgkUQ3M1vFJIx8zy23Lu44PQH88UAWVCrdFkmAVwBtUZ4z3P6VFCwk3h48EAnnLAnp1PbipgCqFgmF4z8uAO55+uKbLL5XCqTGEwx7Zz60CI5nDmQMBuMeWEY7Af/qxSTu20MyqkRX5sD9D/wDWqRzsjJO3a6/O5AAJ4xyT1+lGUaSJQ4KZKhXPbr9T9RQMpqkcfkMpVVcbcgnnj1+lWfsUaofL3bufmDnIWnTzxonlvHGZDjZHvAzgcH6fWmxyqqLKhBaQEHaPzzQA9ZYrWFp1iJfcB0+YHntTWurgHMkbspGVJOdh+lMVLjak2GLo+XHUyjHGP0/Wmi6h2rEi7sc+XI2GU57j/PSgQk8zox2EMerIwA4PUqfxq1EfvpHJhUHJIyCfX+f5VHdSkKGECFUYllYjJB6kY/rSRypt8l9yoQueAM8569+P60ALLPA20eV5hbBJbkfh9Kq7JDi3E+EB47kE85Oeg46e9QXH7kBUVywkADFwFHPoKmkkiiQASiWZwqu2erEdAP8APSgY65f9wozuaJgVffwx7Yp8t1utlEwwSp3beuMd/XmqT2oZVi8xoIxKGfJzlvQcDitD7GptluTdg735ZlyRxjGB6f1oEV42WeB1IIAi+WRumPcd6jZJDD5EqeZGUwc8nBq0o2KWlfMGCp6c/XHTI7frTpvLljCRFlAO3HAwPxoGUZllme3eSNpmhQhGb5jGOgAz9f51ba2S5Af54EblWz1HamRyw+QxbBzlQjNjOO+c9eCcUpQzIrxSF4yASCQNoH60AIZJNhjXYikMGBY+gPb1z/KmQx8COQEnblWzx/kUj+aLiT9yu6LB3DAyCOo/L0p7LEk6ySk+U2cAN0GMn6UCGoywmSNy5l/2jk4z7050VUMYSN4wQcbhyDxn260xQXUyHlUP7wlsq3C4xnkHpUojSeOMsvlqr7UWMg5yD/n+lMCsfMXGUVEY7kCY2n1qwbkNGZFXzNqfKVb6/wCNQRMsjmGaZy8YHAICr9eAQe/TvS3BUReXC48puRyB1yD09Rn2oAVJ2h2RKheVCAd/Gaq3Udv5e6CHExdsYHGTkY5+gqy6M9wjqy7x8zox6Ej2/lUiyRMzZli2F+C+FYHGTj3/AMaAIY3Cwkv8xTHttHenxyIyPIg3lhtJzzuyf/1UebE04SSJllOUc7jg+/TFOaWGGQxROu/A2rnowHsPegCOPz4OETbsUnoCFBB68dM08vuCMuY1xkoACQfY1FHC8m5XeQqwCkjhW56CrE3nw2xlW3C7MZwc7x3+lAFedmMe8MS8pAbt9c/lUeoOscgBjYELt3AZ4x3qRZLi4bOwBpV+XHRBnv78GnXfm7GdFBU8OG5P4UCKYjAiitpM+WqgljnOfbH4VYhSONViDbo8AFi/Lfj2/CobWYx20lxNMVYAqFAyExngnHXof/10W0kE0rbDu2H5UxtznocjpQFiRFZAQ43ZOSWb2wT+NW4ULwbYiEi3Hbydx9eapP5bQGGVNojyd+/pzjAHepgyWyRRTySFSpBkIwo9KAseUCnCmilHWpOscOtOFNHWnCgBwp4pq08UAOA4qVFyajXrVmIDNAFiGMHGODVxFLjYPx96rp97hecdavQruHygZPUmkS2WFOyMBlxngjPQetW0IkQgxN5YUVXi3bHQAY3dQMn04rUt2At9u4ghTzjHPpmmQ2SBlt0UksU7hQCOTxSzN5/mIjb49oG1T059PrimW9wV2QTRuYgdrEjv26En9K0P3BDmIqNqn5W4Jb/ZHp9aCWV2uwCMpKRtwfTJ5/8ArVNDbOYc7TsfOVbnqOmPTpVjzraVEEkUkbtnDgcH6f8A6qjtbyFppLO3/fSJxub+E9cdPrTJGQH+yUMTOHiY4Rd3arEMzXO9iWEbHYqA8/j/APXqCUMWhMkeUUYcgjrnnJ9O9Nt4cyOglfO4uNuGXBBPX60ATz3cBnDPJF5bqR5R4Dj0NRbA809zsVS8SrtzkDFQyIsbeSY4G2NnKruOPYGrcsSDLRTkOyhdrfxEenIoEEUlzNZCJhkhtpRWIGzj86WJHupJomUrECzBXbGR/ntUcc0TW8ksaMJD8j/NtIbpxnikV2jt1VspIB85IJIP17/lQBOVUxBZGYIF+VV7bfftUO9WHmpHtk+XfkH+frU6mG1jPmRlYXI+fP3jx0zn3prtKDNOiqIMAL8p3fjg4oGR70tnUtCseAI0LMDkH+vFQXstyJvL29Dvyg61ajtZAkAKhYgN8obBJU8YBz65pQHgkjlRUSDG0ISWYH3PfP0oAlt5PK04BlJ4JbHXA6HNVjC1yVcupdcHCvjvz+lOuR58kqqx8t8Z2txyvHHbpTSbcxNEHAQqFU9CSOoBFAirJGIpVMUzGMAx7E64z05/nSeYY5SzxCONhs3lckkd8fjinLfL5qyz7Wk3HzAoXaOwIPXPTipIMXUklw7CKFB8zNy2ewxj6dKYDYUywhZwY0wEUD2pypHFcKW+VfMYNxt+b19wOP8Avqla5CJDHagkA4EhycE+v+FNMtvNOBIjom3KI3R+5JHpjofakBXe6gNy8TJHvPyKVIA3GrEiCKWECTYjj5kY/j+dNV4JLg77VI/Kw29lAGT6U+5Ekl15ktrGFyUhwd276n6A0AQxDz1Pyg7pedpwdvc8UqQ+W3mEuuGO9FJ2nHT6DFSW9usZO7fglt6gDJXHYDHSojIks2Qsi5JJj35wv6CmBY2Wbo8y8bQMFGyVHc1F5sTztICftD/cDHIHFSQyh5GhWa3y7jhE/h6Ac8VEYbZIYYnO4JwQrAsSPXJFICRLQoGdSyPgA4G3IHv9BTMAlh5bbc4VWOQaLl5TEvm+Ym8FY9oztPXnHPTj8aYZGmYxKHjVFJLIm3J7bh160AV7tf38X7sjMe1EYYUH1+vFPilmtm2NhptuW8oYGAMnFRynz0iILPcbCw2ll79MHryPWnxktMGKtG7IdrL7Kc5HPU/SmA9AFmYhVWMnPI7npnNMjVWL2xWNwCWDuOSf5f8A6qtXiObp4UKOjAHeq8IfoOffnpz1oEJf/RpJZF2HIZcDdzjn9aAKy5kmCxMI5BIHLFuPpVi8idI5JYpcLG24AfxNjB/lTIn/AH7BbZg7kAuBx9f881ZNiot/vsN6n/VHIHJwRnvzzQBRN6rJ5giWNSNskpXGMdaXbDJcieWRWV1GwdduO3rT5IGa0it2kTz4RvxwN3sSf8aVpDbDbLFAjui5MfXJ/wAmgDOOIYbiWJ5fLBLnnhep4/KrTrNPbWlzkyxEn93nCn0OPWq9y6pOsE4ZoT8zvuI28Hngc49DUiRG2fy/PQ2+SI1UFdg60APvZ/IZIVlk8xkMapGdykEd/wAeKhVIEeSSOSRVwGIc/wAX09BTnQTXUvlyuz4ONoPyHjH1qRIIHUGNSJJl2sxPGfXp0oEVYrpbmRbdoMKhIZ1UhQCO36c1NNIHmkjW3VztIdFPJGPWlhj2zpBvMTwxkOzL8o6cDnkfhU09usKy3E0QLMDxtCkjH5UAUPNEFvGkTgHB5LZOOw5qbMrxBjGzsowSDkjOOeae0KCHbGrxsULqHOVOeRgfSqrXU+VaRcsnREYAdOcn/GgDzsUo60gpRUnWOHWnAUg604UAOWngU0U9aAJY03EVcEDKQOlV4gQRg81ahO5sHJ9TQJk6DC9cZ496vKWhRHPAXu3GaiiAUg/Lg9N1WWZpGXAIjxlsk8fpSJZdtdioD+73FwSW569qdcLNKroZIyxfcB0Cj/GmQyLLJNEkchK4GScEep/p+NWtiGRAqDCjDSZxtPrg8GmZsntbeSRctKxEZIbbyxHqPyqTAneOCBGihDZkduMHHOc9QahgnhhYxrG6tIo+Vc8nPbHH86vTR2dujLMs6blCNhjyO/f8OlAmRwh5nETKygAsQw4Q9BjNOG1J7jybk5BA2quPmx3J/nUtvMskTSLGitjjccHg4yR2PvVW8KG4LMSJNoAUMWzzk5P4CnYRKkxSfc67EYFFMjfJ7cVPayJGpiCoZUXdlerKD0x256VEd7RJlo0b+GID5SPfpUCSyBg6skSliFVUIyOp6D1x/k0AW40QRB0gLK5LosYOTikEsM12gEiAnDjA+bkY6evFRzXhDLGkartcBwQRzjqD2pWRlM00jKXXBRlQZznJwMdBkUCI454Feado5IkVyoOPvHHpQkdwYsEt9okOH3HIyfT8KWKWO5lUrLLM0QywAPJJ7frSzSbLa4ORsgYtnaQGwcdBjPOfwoALyKFkkQRrvV134bKrj5s/pUMt75EK2qzK6O20tnLLjgYxU8S/aILiVlykil2dMrtHHHB96rTC2ugsNv8AOw54JGB7EEc0DCO6ledo0dTLGAjKxwcgbh7EcmnSxyS26j5Uk2qFfsjD/GhLJbaSBooF80KUklkc9Pb3IA/zmpJbmEsYy7uqt8wUAhPc+1ACRSz26zRrGJmyN3OMHbyfpmqtul3NtLtsK4aNjjGc9B+tS3wt47MeWd0rZPynBJz0P86fGyMGKsqTYAKMeB0wev19KLsCJC0135kpxkFdzLhdw9M+gpTex3UuzduYkIq4GC2ev9KJ5JwB9pO4MoGFJx349qfCYlMKSgICCQqsSMgcE/jTETzXEMU8kMMimPbltvOOOfxqBrMuuXVg4QtuY5LY7e3XNSX9wba4jCum0LlwB+RJz+lQJqwuzIq5kWPJCq4DYOec0gIBdM6STTyhnXGAvYjoMmklLNLEI0MUqx8Evnbx1/SieJ7pEjcrHtcFEXjH1bvS2kH22Rb5pQSqbFXOQh6ZAPTPNMCQC9N7bXUbJMrYXKdBng5PpjNXJrWKUIsQChQQ3OCR14qBXVQ+5HZicJsPDH1J7UycRyTTTy3JQTHdCTnsAMEGgCK3kR3C+QAxl2M4POOu7PpV2SzMshdFRYxyMjr3qlLmPm2ICoRvM0Y2gn0x61LbXC3FtBOwjN0D/EeF/AUgLV9IztE3mLIAPuA8hjzz+Qqu3ktPFDIqrcYIA3HnjjPrU6QlbYNI3nuSXc7j+anOeenPvVC4WBr1FGFSUfMHJ9e5oAnhnZGPmuAEBcR8ZUZ7fpVox2948N9FHtP3ck4B9qolITavIiO8kTLwg5I7YPpxVm6mnNpugJSbG5k+nqOgpgW3mX559heMjAI9aihaaeJ5EjxGQBGpHAycc/rVJZd3lJe7QrNvVgo2kdgPSnTyXAjKwbm+f5VODgdsY96ANMh7S6xsxnHzDJCeufrUM0sYutqIHVTyqnG0k5P8unvTY5L6SBY4mXjg+px603ysLNLJGsczEgKPusRjr+dADZWxOrxqgGfmJHI5qoy5lkYIkirJnLdU/H05HNOdHkMaSJ82cguMLgc4wKfbzTRF0Gw2ToCGbo3FAFeMGZJJFDPNvyNwwKku7qdURYgNkY+bcmWA+nanW9u5cvh0DkMu8Zx2AGPfFQebM7kxs5kU7WJJBPuaANS68PyN4ci1rTbv7UeC8QAHl+ufpmqFvJbbE8mTeJSpYq3KkdagjllsfKvLKUqzMY543JKyqc4Bweaha086WSSMTRSH5mKYK5PXGR1pK9wfkSyyzy5jlDSbd26Rl6DqCfUdfxp8twz2qs9xGXX75zlSO+M1D5KbPK86aOMHPztjP0GenH60ySGQMCkBAR+PIwF2kd6onUsl0eXz3YyblEasykggAY+nBqBp0n/ebEGCdoKckDrzUpjMkEcqz7iNpcN8pPTOcdfx9KhmCG9iEy4jkbd5anGQO+f5igZ50BSikWnCoOoUDmnjpTQOaeKAHCpUHNRrVmNRQBNCoPHerSqqjcFYYPWoUXaccg+1WIVRSJMEnOPpQJsvwqZJF3J8pHBzmrDyGBME4kxk7h0FQIhCPzgBdxUjg1YjWOOOWVA+5G2kjkGk2ZtlrcYLB5mPnFMbQvocZJ/IVZtXlaYSSQPIJMZTGAv0qp8xuJUnunK7GEYPTGe/41ajV3CxoihUXYG4JpklqGeRnuk+yuWiYKm4DIOMjABqs13LLZiVyrKGIfeNzBgQen1xUt1OYLqFFz2URochh0yfTGDT91012bba8SKSTkDDYHTHQ84ouBXkVorl5Y4RChGHJkByx68dantbkgrsj8wkFW+XbwO5J9qcTECWlKLMmQ2QCVJ6EehqKzkNvfBJpDK3lZTchBIPYkd8incRJb6isds4nddw5Db+V/MdKdZJ5sLKGBmOJCvJHPIHH0qvMEd5LiDyizyjy1kOcY6nHalkmvLfzm8iCUtypjTG7jHP4GmIsySTPfmLyM+WmWAIwG+p9PemzOIbhLlZAE3ncGbO49gPfj6VXmDzR/LkA8MBjGcetR2Tx/Z4gsK7y27bk8KxOQBnB7flSGX2k8zMwdo+nzJxkk8Yx1qom6C4aOcFwZCWKnKgHp+napZYwrPvRTuwhIxt2noDxSw220K64MikbX3HdtHGB6cY4oETuqLaCNpise45I+UY/wA+vtVKGKR3aWKLEZwxLcZx259RUd0sX2lQ8uY2cEqJCAvXBwOoqeZHIj+zsPJVtykkED1/SgY67ztijfeg3cr1O3BH4Y61XgWJplngiYbQDKrAgv2J+lS75EklmyGw6FCTgPx1z/npViWWB8SFxjbkhW5POaAKzpGYtxIMJBcFjgjPOB+YqOG5hnkcxWrShBlmI5J7L79KdBAiyebDvcyfeO0A+vX0xirM0CSkRqUJUhioO1j60AZ480yujLI3lhjjkFsnjrx0q1GBJYN50RiAyRsG7jBxz+FOs0i3NIuBHJlCMcjnpj0zVyMvFE6IPOkHGH43DqcUxFeZYJZE3kyjqAi9iOnPWoxFEqCRYImw/lj5SMqeVHv0GaikZdu4o24ZLAJ0Pbn0xUQvBIuJ3mDBiVC8g9cc+v8AhQA0gXkpDDcnzbAmSFbuc9DU/lxQPLEsE2FXEYBxgYwTk8GkFvcW++ZkfzCpIIGCM9Bj1zVe4meOP7QhwrqCzEfMQQDj0/HrQBZt7yN1RUkxCTt+dfvHuoPc0lxGmAb9olUH90wYH5RwPl/DFIxie0YWxm8yVN21hnGOv1qKyLvFJPcXfzIWYIoB5J5wcY59aAL1o8NwuBEjI5DOqZ45IA+uD+lKtnHB+5CsgiXdtAPAPT8agMEbSh2/dgkN5Q7nPH8/0qMTbZJ8ZDSHO/b8o9x/hSAsqkXlOyq2NoBQNgD1/Co1tVimjaVkdMF1fbnaMfqKhjdJZxCdmSFZiGOWOP8AJq5dQxzWxV5HERxhVbnP+e1AEVvKyzTfZ1fbKA4c87sEcD6VZnWZnkEsQjdyB8p5I65OKzY3ntpw9q7om7EiBeEx/wDqFXZY40j+03FwZPNbzW5547gCmBEJpGA5hZd2QccgDgdutI2oQBpN8XlyAc7xgDBByMe2ahku0W+ilt3IjD4LBQQSSeCMfr71PPcLeARyPIZHJKuqjjDDI+n/ANagCxPfC0mUK2Cw5ZCCWOe1PkuZZWUqkcgcgAZB5IPDAen8yKo2scUt3GrhFBJZZGTnPr9TQ7pLM86Mi+WmW2JtbA75755oAlmZZLdnUPLt4G08qe+B1xVaMqPmikZ0bIWEjhhjAx6dB19KgtSIYp2li2hgWQ7c5YjpSC8hjdklWQJkgKE4Jx949+tAE0Fw822BA2WOG3tt2kfy+vvUgklGqKvkrtwUCbgQfQfXmmwRp5JlCoj4O0g4J+uOeaZDMplhkVSiFMqzE7sD+8e9AixdRtC6wIM5UkKq/dbBx9P/AK1SQpbNdSL5mQ0hKclSPUYqMRxFVuC/Pz4k7njjH15qu902InbzHd/uhflPH0oA0HOYyk0aqgy+QRngfyIA4qj9p326xojgyMG44KgHvVqOd/IIkQhWJAVm5zxUGnY+0O86nazZ+U/k31pgNVkjVmc7S64dnQ7dvYnsDzSQgODMpJCLhJGGFQen41NNcZQSMUDPwuQQuf8AINRxyyR53RSlk+YrncD3AANAHmQp4popwqDrHAc04Ug604CgRIgq3F2qCMc1bERC5Xp3oEy1DksoxnccYq3FtVC2CUBwcjmqttCxYYH0Oe9WgyINiHZ8x5Jxz7UEtj0JaWXcyurAKBnoavRWssaIqZEjAscnt9D1qO0yWkUqWJAJx+lWirbY0RcvjBiU44z6UWuSx00bOiKu8Evj7o3BTn8+f0qC3R7dJkaKZkQgMYiP15q4gDySyKrBQwRVHDAjrVqO4dEQMkQRhwpGPxzQSVo2EK4ijVZWYnmX+EcgZ9f8avQ6qqwyu0IjYHbGH43kDPBPJ5rM1F5IJobdYFEW/BkbA3Z68/TFXopbWaPAMciIBtjZPuH1/lQIqxuVdLh42twzHMjr+8GORkHnkdPaleF0C3clw5SU72aRioVQeOgP+TU1pOFcpMieXjBxzjnpVzyhD5hALRPkYKjYB6H0/wD1UwIIILQrFdfLlPubeV5PBOf61Uu7me1uAfLUvI23ercEgj5cenOTT5oTEpeO4Q20hCJgHA/+tUUZsVunV1kEioWBOeMnHH4mgC1BNHNwo8svn5WXCg9MqKZtgt7mUSQYNuFAfBUY659v1pv7u1jmgLTtOgyoJx19/YVLNLPskczCa3Uj5D/EuO3rQAyWWW4QOkBPzLhQcgjOc/gMmnSiWORrWSRRsIOPu9SeQT17UtpeocmM8p8zbSQcdue1U5Fj/wBFkA3rGMBFbJJ6n60ASTSRwRSrKy+WQyjgbiMfrzS2dqxJLKEUpnYxBwex9qZb3l1cs0jRZiQHKHv3/lVuFmO7C+SSBwVxhj2zQAvmxOFtnlXc0e0xheBg56fnUXlQQoY4grOeQCB8vP6U0LPPO7y/NLtADDg5XjBNXIZcwDzEbIGMenvQBRks5ogssM5iVlK7Hzxgf4VNZlATNIjM0w43ZyMDgD+dTzxTzSqoKbCCEI6A9uKikjdQsJKBwrAsTjBPcegouBXh5tHl82VS/wA5dIiNmaje+8mKISROsj5DuchSB39egNJ9rjecR3G+SLO0snQjJwT+VSzWEUDR3MErmTy2VVwMDIJx+lACzpIbaQRTNMkox8rZ57Y96LqGJEjjZm84EAELjbgEl8DPQ4FW4jIsiOGLrIoKq5A2/So9Sdhcx/I4HGJFOAc85+vFAhda1U3vlTTRKkkSKLjymOWx0IHGM1Vubp7iziWKLbECuSWBCDGdpzyT0I46UvlvGZ5tjTFxtlBHCr2/Gorfc5M0sohMYx5eAAMHBGPyH4UwJJEe3eSbzeUQbEA3gk/gMetQJdSzwbBF5UK/McgRk85xg1buII5LaMPsgWdyCzH5gf4TWdC5d1juIVebkSNuPyn/ACKBlqeAyXqOlwqncMoTyR/kD2qW3txbv8zv++dgcsCpPqPSktC7XTOIjLMoO5lxgKRxz7VKvkho2nn2y7dnB5468+tAivcQrPJNskYFCH2rHhiM4yPbA61KLSJol2XDloV3uj45FPnY3EEhCBj91V7gDB5P1B/OoG85Z4QoUySgAonfvzSAsTKZrWQo0nlqcsAwBXIHp2JzVGy05LmR3mkZo1UEJnGCM5/CrCiSG8XySSoAYHGAwJ5z2zThCz3E6PtaV8/OBtIHUcjtQBVaNdOiii4fkn90wIIzjn06VJHM11FiONUePPJ5J+vTjkc+1LfWKNOBEMSx5VNrYwOOcCp7e3vXtfPURhyCu5k++o54Htgim2Ax5CwDXRKeWmAFUEDHfPf8Kk2qzebEiPuUKATjeM56Hjpn8agjWJoXyGaNSC/YAg9PpUAltkkeGBpMjkYb7x6/1oAWXY9pK5DQFGJUZznB4H0NWizpD/pIijkc/IjLhmGOcfnUHktM32gZkEq/vMnGCO/vUk8s0MQ2xiWRcY28lTnnJ9sU2Irx3nkP5rRlFEhXGAPyP+etWmitzYtNu8pckB+SM5+h4qgCuzzJXIdiQpcYJ9qeGEUKRTzAq4bchySPmPAz29qQFyFfPgeaZ4tsQIVYsjJxnn06D8/eqqsLlgTlYSRhmHIPoe9OZJn0yNVVQrOCgTg9eMY+lSL9pdI38pkZG2tz27ZosA28kaOBJpH3BiuVx8w9c+lT+QrmJlk8uNhgsnIPoeKjKIzKBKVLSMWwOAf8OtRTXAjaaKIOXOFUrwQfc9OfamBN9jWNgJZBJg7wCc7SRxkf561ALp45/KmyJDtCPGNw69yMY/OrVm0jBY57hhgbXXAz0/z+VVJnEV6qNK8kYBx1znqPrSA85FPFNFPFSdQo609RSKOatQQeZQA6JeOvWriKQu0Alh+lWLbTw2AWxWnBojFyVlJLdsUCZRhVmTbKp2tnaw45q1Dav5bxlI2AA+/ya2ItBk+QbhheTnvWpB4ffIbzMfUcUrkM5oxSxHciAADO3P3sHPFW7fakiytGwkfOG7j2PU10C+EZZVBS4QSITgdjmrNv4ODzq0k5baMADOM07knOxhkmjSZT5zvnds6gH/PNSRSFmwpdZMFSwXcCewxXTxeF9x3eeSYzhWIzx3/Wrtv4UVOUuVX5ieU9ueaBHIwTQXdpHJOpEsWSrMCoJzyaq2YSOO4Z54mz/HKemT0OOortJfBxYJH5ymINnKjGB9fpiq0vgvykd/OjmYg4VuCfQUAcpdSQhkZLNfLlIYgHHPYdaebuVDJE9v5UK5RolPJJ5HJrXTwlql1NJFJHHHbpzEXO4qfXirr+D7+SEQmaOONOd5JLE+tO4HOmR00vFsgi8pd+1iCJP15P5U2aKHy4bqLzELoMOSMjuCc9O4rrIfCHlQGGRomXGM8nmqo0if8AtJNOSGNkEZY85G3IA57fSi4HNuHWNTJkEL5ZZHyWHZvep7mRpbUIm4SqcgAbMrnjj8ORXSy+Fr+NsR+TyeSTwM+gqr/wiuobMLFApY/PJnlvelcDKNs08UZZIPmPOzOGGDn3z+NUN0pUxxxxodzFRj5gCeecmut/sK8hjCGNSin5ct1NU7jw3NFaQFrYmXd0D5Y8n+mKLiMJE+zQFoJPPBB3xrySe3uP/rU9wZZJQlyoDZCrn5snt74rqLPw1dwh3KLmTkgEZ2+n6VEnhG9WJD5aNIGJDEjH+cUXGco9r9nKmV2VSoL89T6cnrU6SeXb7AQW6CM+mOQa3NQ8NasY/PlCP5YyFUZzjJ6fWqq+HNUkt5byOAiVhgBxjIx6UXEUVuDHagxoyhh8oC529uefrTFVXbMu5SOQSByDweP/AK9WrLRL2W8ZmtLkgMCWx8pJHPt3/Sr8PhzUUkcvAwCglVXoST/Pii6Aw3W2iDliuAc7GHDHpxg9c/8A66sQQmMh5pAWVNwBXhRnn9PxrSPhy7tLdTHDJgtkrjcwqCTStWmgEgt5ZYVfLh48Nj2pgVGd7hhJEQkaoORgjae9VjcyXM4iSYJbQphiqZ3tzgDPrk81YvI7y2dpZrWZYMgoQm0oP61Xlttsam4gkYCNZI+obOT0/OgCKdbmV8+a8Cuc+U2Acjoe9RW19O6m3Gze65UmMHgdmzwCT/KrLMzIkwia5uHwp2NjCjpkVUvLaW1LTrFJEmAHUIRnJP8ALr+NMC3EkzStPeTQgMRsikXgYHGPTmq5hFxZSptWM7wzCJcnA7ZPNT/ZWvYMLiTykyqjqTUlpFKrNJJHKkUilI1kGMc4/ligQy0NxAz2sLRs6lcOSQAP5enao5rWJLxI22Sru+dVBLoT1yRTgqWUqKR+8AKs2Tz1PSkh2R3RcoIXkTdJvyS3sDRcdizHGpgeCCRSTGwK5PGOx4qFbsu6JvKKoKspX7pxyQeaLS0dICiTFBPk7Nn3fUf59aYYYSiwtEsTqxLF85bjrmgAkluPICRSp5LAgb+WPUfTtSF7h4wyxvFEqdc8jIx+HNWo43mdjEh8h+44CY//AF01Qzkq25sYRlI688UAUbaeQRTMqIJSxDnOeSeo6fjWgl1Iixl5GVguz5+Rj/P86hkU+bBLHHtWQlvlHy/n9KUwrKVDjzCWJ3YxtAH+fypWuAQOrLOv2eUxY6uM7lqCA2iGdgxEm8Kq7cMMjj+ff09qYkU8VoWtGaRQxBJ5C5PT6U9ZmeWT5k3EqsrEcEduO/IpiHgs0DTv5rRqeqfxfgKjtLi3mWTcTEzHJQAk565PPHOeKtmbYWgnz3G0cZ9vrWZIpuZmaEqZcgpj+LHuPT0oAu3cKzQuk8LuwAG1/kwD3zyPyqFHSzKRsULElRlTkD0yeg59abcyyTNsOfNOCcHowOf6VVjSQT5kmPkAA5AOcDsaYFiJ7mJgirwoJAU7lIHJ9xUkrSSs5DSO55DtgDHfGKUzxIuyBtvy7txBwQfX86a2pQ4wWZIgoCleefYUCFfy3DBWKIPkDk5yRyacYJJpI5xJgscfNwGP1FNtY4rmDbdHdChwD0APqT6nI/KnlhFK0YeTaoyqk5BwO1AyNkaEOAFMytuygGCpzj5qsRs5t5vN2g/K2FXsO2fWq0Ekc2PIORnDAj5l/wARSXG2YGNVKxbyrnOB0z396APPBTxTRTwOag6R8Yya1rOHODVC2TLjit2yi46UAalpAMit61h2/j7VSsIl6sO1btvECBjp3qbiYkXzSrERuPWt+3KAhWyAOgI6Vn2MGGkdxnI/KtmOAbcbTnsalmZCZVjjbY2Rzk+lX7dFWyDk9qrvar8kHALnOa0dg2LEF64P4U0JkFvG3lRhuWJJx7VpOu1QAMnFV41WW5Lg4CZXFStuPqc1QiNFfb70kkQZgD0zzTkGWzyT6U4ZkVuO5AoAi6RZAOTwAKkETIm48k9Qe1OUE45GBz+NOZyQ278hQBDIODwRxVO2Vf7UuZI8lhEoyfqavkHaSA3TGKq2Mhma4PlmMiXZg9eBQBLK4VGIGcDPIoCNhT0GKViMNwT9R1pwyw+6QD1FAEMiqxTDZ565ps7H7XCVj8zkgg+nrVlIkEnK4UUsO0vI2BuHAP4UgGsoVyxPXrQGfzQ28lSMbewNBYsAScnp0phIBwc49aAJwT5hB5Wo03AbSMmOljAzkfzqGAsPOdjyXI/DtQBIzDcB0Ydu9BkKEYGPrUZx2x/wLrUE0sscbNGhkIGQmQM89s0wLRnjMieY2CRwKa0qAZZlUDv2pBEnLEBifXsfaobuANE2DEgK9+do9aAMjxHqUK2axxyxmfzFbaR1APSt0xxXKozRof4hkZxxnj0rir+LGnXM8kZlAlCCc4I68YOa7a1nSawikhIdcDBA9qGCCCytLZz5VrEjnksiDJpJ4o54pI2QfMP4hxSDzV2szDcc8CpBucKx4zxSAZGkccaIVC8AA44qRIwGYPTXAaMh3CgHOT2qC2uGkVDJ95WZCf7xBxmgBxtYX1COQxgnYygn6inTQwZ814Y2I7lc4qR3XzUHfqKZcjMLtyVVSWoAQWsG/wA3y13eoX1qKaztJVxPCjZ6FlBIqSxuY7jTLeVXBDIOalOwuDkEYxQBAtnaBABaw5UcEp9KrT6ZYedFcC1iVlbBAUYOePTtmtFsbiMfTFNkVXXGOowfagCtLp1kTCxtoSQcZMY4qNtK0+UurWkQIPPyc+1WftKvDskIWQ4A+opyHbcoc5VlwfqOf8aYGZBotmbZonsYFKtjhRkjsTx6VTl8N6dBcIWtVdO2RkD866dhhyVH3hTCAyfPg+1AGB/wjmlPdKfsuQwyGDEHNSt4a0sn5bKNQTk4HP51fvJ47MQMcnMgUKPfirMjMuSmAvqetAGUPD2mQlXFsrdueaRdF063VgLZD5gwwrT3GSJhypA4OOtR+aHtDKQCyA5H0ouI57V9A09bFY7e3xcO4G1DuLL3BzzgjIp0fhTSnjRXssFAOC54NXtCk+1wS30rAs7kD2UdBWm/7uRJAcqxwad2OyMFvCWmu8f7lk2kZ2uSWx6+1TS+G9PuIjG0CEg4OWPT2ravUOwMnB7EVVgufMZZGTodr47UtRWMhvB1lA4kjyDg7TnkA9qr6f4Xt3ie2vGaQox43Y3A8jpx2rqG9emOmT2qncq1vKt4DiJFIkXuR60XYWPmgU9RzTQKljB4xTOgt27hCMqTWzaXxTgQ89jmsaNCW9/StC1BLDDHjqcdqBNnR2+qsrDdDkY65xVyPxM8ZMYhHmY4PQCuftkZm8yZht5KgtTo1jlu1EU2dxwARk8VNiGzr7XWnWJI5IkKEH51JBz1qxD4slQBoo12hchGOT9K5uRJpBvidHXBAXPAI9uppbTYrxq64UkruIJ5HvxgdaLIm53Nl4nkmEjXFptdcYKnipX8YRiVZI7UbQuTz/nNcraatNbQSLbCPdJlXEqjkD0OcDr3qKytoxEkMMm58ELlxjAP6c/Wiwjp08bQpBj7G7yzZYKOAR0qwnip5bZmht189esbN/I1x6W8iny2cSSKxKL0ye598Z9ulPKm5vYpFkbdv+ZEXBP+AqrAdJN4wlc+TBCYJTkMzjOOAeM/U/lTNO8S3kFuiSeXKC5BdztyPwrCuroQ37xLCGOcqZM8jAJxxz9enNVY5JnlVPOxIzbmDLhgOeBj2z159qLCO0l8cWtq7rPCy7V3Ft3BHtTj40s5YPNgjMgJA6428j/GuSvvLngZ2wqlcqGUdO34flTID9q08GyYKpQ7yQFA6YP0GKAOtfx1awRqrW0hkBClQc4z7+lOXxHLFd7RCDHMcglujY4z7VyUckLIwKs7xuB5uRnp144xSrdTyhbRkAZiVjkHz7gMgnjpQB1Mfi+OUvvjZm3YwrDH51JJ4rRLcyLCzOvLKG6GuN0hookkMe0qJdoUjlz+dPkW1u9Qni+1ttkAZ4wR8uPf0osFzcbxfezX8U0UQS1jTe4bB3jvzWlF4pWWyab7MV5AYbx0/KuWuLef7O0SeUdgwixjg8HvUFxbzWMSt5ZcyMF+Vv8APNFkFzq7PxdF/pIuVEaI/wAhQE5GKkm8V2JXeokKlsDj73vXJWts0iXDqSkhyuXYMfxA/lVR7WYOEd45IwNzoCRg/wB3ilYdzuLfxhZEM2yUKrFcfTv/AJ9KzZPEdymqtdxfPZyIMxE4P16VhjRkuIg4diWG5UJ2bP8AHnP50hzp0qQRorqh3EtnBXvg07IVzrLPxhBc5dLOfYAdzY9P/wBVX01+0lRZFhlVW5wy4x+Ga4b7azwmNnCXDSkKvC5BOSB3wBxyPxqe92S2LCWVY4wRv2HcQOnbpRYLnXjxNZphfmVuNu5aH8SWKWxAMpBztOMkn/PFeeGVFeSL7UwhhXaHk5YHP09ePwqK51OS3UG2Bd5CUJwe3O4DHtRYLnUTvZX2j3EKzO87ruJk5+YnORj0p+l+KpbKwSK4t96phRs6446/qaw4bsQSYijuGleLI3KABnpg+vtTYMxSCJkk3Ook2n5Oq88+tOwXPRD4i0gbGa5XLce+aZP4q0y3tS7TZUHn1H1rzMCSKGR2VCH+ZCW3Y59R3qNfOn3TAl7eV1J3DO7GQQcdKOULnpf/AAlGkSAATqd4Jx3rNTxTYRXbKscyorjaAgwAeo/OuKEcI1LzQjs+4jbjouOn6daSXVoY5MYWWQu67RuGVzwcY60uULnpp8UaQZ1i+1JuJA255z19Kz7zxZp8F+1oUkbKj5l5BzXnymJY4fs0bzSs25iz528Eg46itA/Z42LneBIoUuxyAfp2o5QudfoXiG0WBraQmPyXYrkcMuSQf6fhWsviHTicidCPdgMV59BcpAXEsnybgqgIcj/6x5P1rPnVJLtVgfzpfMyUdAF2n3/xo5Queprq1i5wLmJWXOQG6U86pYyowWZTngkEcV51Y2qLBL+4bA53MQM845x05/nTY4UF0Vd2UOTwg3YyKqMLoTlY6jVNatomi+yzhpYnB8sHqKtxeLtHkWN3lZHyTt7A9MfUZNcJqEEaNcBEEUqjLM3BwOv61WtWS6jjWaMKvBUoeXJHX0J4pcttAueupqFq4G25QsecBgaBfWwJ/eKfXGK8xMcEbRMJMYG3buxnHXn1/GqcNxPNNstS6xAZYtkHbkjGSeTwaOUdz0nUtTtigkZwRAwkByOx6Vbi1myuY0kWYbHzsbd1/wA8V5hJcJO9wse5EUEElT6cFfWqh3Q6dbSNMm/JC4fhuOvHTpRyhc9gW6hyNkqEjkgHpVfdBLJc2uRtkUkEHnOK8ys79ljXBIk2F2kVztX6g8+lNiuDb3DSiaQEYbcZdw9CBg0coXO+0zUo7FjpuoFEkjBZJBwrr05PrWpJcRTQN5UyYI7mvMZpjdwyRhVlwN3mO+V65wD60201NRasspkiYZGFJYAZ+tHKFz1W0uI5LJufM2gg4Oc0se1vMUuiK3O09s15jbare2SubaZyVHzYwOgyTjJz0/nUEus31zMks80weQBlkBwrAdsDv/nFHKFz1V1DohJJK9wajkKurBiNp4xXmia1qkVmkQaeOUoSxJDLtPRgfp2qv9s1B0LrdytKADtVvlweD9PxqeULnmyjmrMKgHmoUXNWUTcAACPemdBdgUAHBy3pVgFgBEq5B6knpVaCF0yRjGM5NaEZj8lZC4MoIG0jrn/9VBLJo4yFQOApJwB1q9FbRPgKq74+FOOSKz2h2XCSKzM5I4Bzn8K07e8VLlI4lZ2DbXPHB+p/CkQSvFKUib7QQihiz+p7A0iStBFJFGUYjc3zdF5zTbp7cq0c/mAy555J206SxXyrVt6o0jnzRIwAHoeTj0poTHSRR3AjVCyN5e7KHncc5x+XNSW9pIt4baNFkcgESkZyvpUYt0S4MDTSB92UZYwflAJJGKtxKLRLVo2eUt8+JOGBPpxz+NMksRoqGNisbmOQmSQcDGRwffipoYXWTck6lUDNuJzuz0I+lV5tMmaBw8yvI5z5cZwMZJOOmeAKfbNBZNHEEYyMh2lxyg9Dg/pQBSWGI3EDW908txsZmIbofT2qVbI20sU0qEbwSEz1PqDTbJZ1vZrqSJBEwAi8nClxxzjrj8K05hPdWxICyBnVWiJOMZ6jv+tAGf8A6XuWXZG1vKQY1jYZA7HP6fhUwMNvZeTdyKskjkMinJYfypmy505JEjhjmuEwEfBIAPYDn9BSx2iT3c6yqqttJYKAMnaemf8AOaQCSCWFCFZpbU7iRnG0diP8KlszN5CPDKBHuKgufmY5weT7VKssFrcW8LBsoN0oJ+UA9efrSx3KzwTQrlS7HDbchQDwR70AULW1m3E+YF2TL5aqPuj3q3dCO1m8yG0DyEZ3RgA4z/n9aHuwrm3updpxlCB82PXHTrVeaWOzu2e6jd40wySRsANgAwOfr0oAsySySCNUTEbnEmByTj1pZ4IpFRYCYUSXChDyaRWtNUm6SFJF3tFu2k4PbmoZlmCfZ5JPKhXL4OQTk8HI6n8aAK8cBW6uC9w/2gyKFUHbt6E/XNRq3kXrR3andGoBVOQVI6/Wp4rRCqXLSzrGvBJPzHBz1+uKrxtJcRNDMnm5n2NlCCMHqG/z9aYGnbzxrGiQEhVyRvHJHb9aWS4dLmGK5SIxfx7mByM9KgtoILSQTNgoAQuAd3PXPv0H4065SGe1mN38uwcgYIP5c0gILx47mTb5CGGSUPFLHwzcEc+gx/SoRaX1vI0iGP52wVcgqVA7CnzXU1xADG7wwZw5jAyo656/h+PNU4LyV7h7yaBpLaMMIgThuP4se4zTEWrtobi6VHJ8pxyjfKNv+NUrQQG4nuGjdrdZeI8cqBjGD6EZrRgS3TdGqRRDYJWOGJ74/wD1VWCXEPmrcTSS+Yyn9wwAVc9G9KANGaaC4hg8mXEQOFbdjkHp+NMvI4H23NxxNnZG+SQBycf0pqmH7O0TmHcJAUwBggnow9aqperpyyJPMs4kctHFHnEffkdiDx+NAEEthKHw8qwA8xqF4P1qR3kRG8gt867ZBG3AIO0N9eSfxqtcrPf7mdzsYh/mf/Vt6YqzbQxJLIZNgLxKWUx447Edc8/rTuGpWSIRWS29zO7QtkNK3GO3P50kKJ5KQ25aOW3OWc/8tMDDYFS3MPyzXN6jNEmGCQjk8gZxn+dW7aSFIElkUK7ARxqULHH/AOqgCK3WcWrXGGjKfJtA+ZywOM/oPxqeZjNazXCGMTRYXIHOR2zVeTzYtR+zhpJ/NlByjYCYG4DGPanQ6hayNubdITyNqjYQeu7Pf8KHsFrD72+EKmXUVKOyIu1GzvBz8w+h4qoupWIjnQzoI1XcjADKH0qG9WODxBiR/PVlBjbkgE+uRU82lwLcolxFbF2z8sP8QI75oEzU02eGaNT5iCJySXTlW/yefxqxNCy3sYgBKsMFyODis/S4fLjlto3ZEUgR7s9AAPbjufetNZWJKtIvmpwhY5BPfGM9q0V1sQ2JeoYkEsse0OTGW3dT3/CsOae3dbd0idgpfDFR8mOmPXnFb9xCl1E0VwHZ+gCMOfwrGe2ktnNuUKkKQNwxz14/KlJdSogbSOONZZXk+6CGZzzx2qOKJZZjZsziDPmsxPzZxxg9+tXbJp7eLy/NWRhx5jgkE+w6frTJTJOsEYAjZWYyHZy3Pp2/WpKKTMLV3MjuqnBDEkHdnhfpmm28yeaDJHBC7KP3aDoDjB/WrxuWkhYzRM0Mf3ZJV+9+PeobK1tnuo3tpGkWUGMhWIfjkdfb+lAGikEkcZbcZAzfMB2GOw+uOPesgRyCQNMm6c5BcHaFycmp7Yy+bKjbvlfOF4JXPVj7VLcL5+niOU/vAQS4QEgkce/5elIGZEdzLGs0eIgGOQzDgDIwMdOavRrJHExMgSBl4YryfX9aqxRRWtjLaujNLFxuVchj/wAC6Yx2qdZrlori1mmT5VDgoOx5x7D8KYkOtQrCVY1LLn5t38R7j9RVeV5rWL99JEf7i7OFWlmaGR4rfa1u64Ockrk5JGccn8OxpgEs91HayuVGCEUsFycdMkUDJ45Fu7Ykkrc7yzDcCFUgY46dAKQRTRRMyoJJ5T8vPLevX2qBLZlkYFWgJfa2xxhsdun4Yp9zdzW1uIIlMbplhsAyBgklQT1wKAOJiXJx1q9AjHOOMGq8Qxgd6uQFg3IIHU5qDoZbEQyGfdgdgMjn1qWG2RrtSzbd2Qq+pFMWWQykR/OMAY9Kv2gnMyvInydOTnBxQQyaSON1XJCTJwoHXGaeZfMma3ii2Mnzu4HIOOP6VHqCxWU6zONySdVRuRj+lTWypNILhZCjTNu8vdkEZP6UEhYqbmVlmlYuoG3C/eBPNWrlBcRz2z2zlgpJk25Iwf1NL9lBuWuoVBRcjpntz6VpRK0tikaKqybCM9G3UxM5xLArDb3O+Rf3gQ5GSM56/XHSuknOy4tk/wBXs+c8HGMdCaqxE2lrCwlljKyiPbgfM5Bznnp1qBdUmuJ54LmFgRJlDjDAA8fhigkvQ3ir5ci2xSBiPKJbJJ5yP8+tTakiQSo0MJd24A7+2QajiexMcZsoHUbwhcKVOep6npmoJbq+gnbfDE6/eDuf0xQMl0+znhhFu/7yRUI3sex7H0qxC7JJ5UMsQG5WOeeB2FVYbE2ySXjMscch+QLnjPQ8fn+NTr5ekwIf3s5kfO48nHf8KAINQeMX4kuGkiDZ8p8YIYKPX60ts8d3YNN5qyyoArvIcEjnk/yrNvHN1qKMdl1CX+VCvOD7+vFaUdoY0aTzI1t7hQnlhPlB5GP50AY9vLJeTPcNEfLf5Tn+MdAAPSr+nyxz3P8Ao8ii5iQxG3JPOOQTj1P86RdHEqIItokjXaGGQB29faq9tor3Mkl3BOsTIzbvL+YuOMfTpQBc1CXCrLPExnc7duBx/wDqpivJHbytJxmPKxEdexLfitBjuDLFC5luTENsnzbQCeo9+O+KSaJLKK2gRyQ2Ucsofj0z2x+FAFezup7GL54zIZlPyqp6dePrU3nzXxIulMRUs8YxwBgY3GkmEeoXEcVqTIkEgZ3PRgOo6du1Wo7KFwbq6mSVuq7SNwTrjjrQAaYkd3AUuDtlbltmcMQRg0y+fdLm3lEcJBaRAOh6CoZrqIapbyWAVQT5km7gbVHTH40s1zDZyyQsBJIYvNKjjJx1oERk+VYt9ocsjBflbhi2Mgfz5+lMgvZJbgiVUin6Lu5yOwNTS3BtrJZyPvgeWipuz6gn/PSmm1i1HN2Y3ScgbVL5XeOQfxxQgESaKFfLt0eWOVCpdGBWNhyQabj7RpJu5URhtwQuARj+tTBIkt5WbykVPmdQCAX6enpg/jTLSyAgtN28ls7iAT/wLPY46UALG8V5FFO1yQVYjBXkjHcf196glnNhALUgyrKQzsvVhk45749Kkso4L1pIraKRQuSZJGwVxyOOlVGu3GotFueW2dA2Sv3Xye9AFi4E8l4hm/0eORs7l6E9i3vT7Syh8y4ZrdijIE3Iu4sP4iPxJp4DwKTBcEyLuCK2SG57k807TpwYrhYIhBK7bWXOccgEc9DQwGeXBGslsjtHFbDlnHUen1xVS+uUjZj5xkiCIsezLHPHX0/+vVlLU6ospmd0TcAysSAR3wBVZLKNWZpQ8aRsGIOSG+XqQaBhJKINPN04idGJWVGbOR2I/HFXY0i1UQQ2sjxrbFvOUfMSM8AmqNrbm6tJHh8uW3Ut8kq8PyDj6cHpSqZbKUSoUt0iG9nVR8x9voT6UxMYLC4fUJ0yBOSTG2SSo6YJ/EfnUtogt3u7SNVkkjfJjjGAq9xmnQakkU0NzeAyrISAw4B6c9aj1ESfaJUtjGqO4zKpIJ784zxSKlK6tYZe6W8XlPa/M8RDZOSw6Age3Sqst5I0yASGNRgfNyDnnr2rbvLiWTTECurKCquUxnHIPUZPJ9q5i3uFt7t1CTYMhXavy4HbjvTsSzpYJCgJuLnckYJDY4O7nJ/l+FXlKTNDPbFXxIPkC8++KzoszWTREGRpDhj0yR+ORxzVi0IDOis0UkAyMHC/hVKTSsJRUpKLO80vRrK9uWFyzeYuGEacYHXn3o8UeH7a3sTqNt5geIbnB53L3/LrVTSrlo7i3nhkZxwHxzn6mu3ae0mgMUjqVkG1l68VvyrlMbvmZ4xc6i1xsEaYjbrgZAGP51T+0PbTRzIzEYHzNyDhen168VrapZW2j6vc28Ft5sfXoDkduvQVmahMPJSNSYh99EZsKMY4xWDVmbLYq3c066fcT+YZDLJsKkcL6cU4LNFbW5tUSNgw8w9enBz+n5VM8itYwFJDE5YHyjGDn2PTio7fU7by441lQ7mKv5i8+5qRijyfOfdIhZk2sg9O3tSXCIbaGVpeAvADD74J+X8qRwizvJZoTEOQHAIXBycHrzT7yyN/aq9nsV5MSyqW+Qke3rigCaRHfT2lmk8qVVDYI42EjkHp061m3LojtMRK8YQKHH3mOOmPStBZp4rSXf5giER2xryGA4xzyeveoY4luraNHiKQJ+7VUY4Y9mzTAreXKoMro+/ZuHqwA5H86tR6itwEcIyCL+AjnjkZPakSZIfLtSkjTYLAZwCQRn69aYYgt3JHMXheRioc8gL16igCoZhc3Mlu8Xk3A+fDNjb64HepGZ0scko8sbBV6MGyDySO3b8aSe1lR5kdgWllOJnPIB5xnqDUpKQW7Wj7BsQjcvJGQeg70gOUgwACwPtVuJXfBCfeOOnSkjjQ8HIFXLSWNSRvYn09ak2Yojjjbc2WIGRs6GtW3gQxvGWdWIztB6dKovDB50BO9XZTjHTNWoFjjdEkVmmX52IJxtIPWkySnJFA06szlwBtIPQ+9aFkscvmCRmY7cK7YUjKj046CrUUUT4ji3ICmFHQHFWYNNQIjzJgooGN3yknOKEJlO1jv0kcQ7UiiGY45DnzD65qaaSR43lMzhn2mOBVPJHYHtxjNJctc2000piYWqKMkcf5OavW0qTabBI/loxIyQ5ByB6daokx73UDHEHa3Fvcv/q1Jxux3OT71sPFImnxXMzqZThmOQOD2qhJZzX8wN25lty/AUDHHv1HpQqyw26pHeBRIpEe5iAoHHfmgCSCNjqE+LplQxDDN9wBvQ+uf5VLM9wl3AS/yyExoWTjA7iltFW8s8+dFPHuxyD64x+VQNrK3BiD2AjEcuEkZu46GgDUha7ttNmW9YF41BchSAVJ4I9arM13LahCpZjgx7V3EofUUaXe+fHKFjZC+fLErFmA5PP40lrDeS2zmWUGU7w7jOVBHY0AJLa29rbM8imJUZRGS2eT696qS3o8iWD5k5LYY4yB6e3Oa10s4bGDc8zygKCQPmPHf61l2kUFy0tzOkztuaMRuSN3OQPTtQMuaWkK2cY87iTgAN82e9Q27GyWQM5FsHK4UjcccgfU81ct54wyeYgiIJdec4B9KhMtpqk0u+Mm3R98cq8Bjg49+B/OgQ3zjHI0BldPMIYA4O1iO9FhFF5N0Ip1aHq07/P8+OeB05BqGS/tIbnyyjhT94rxxj1pjWtosvn2bk2Wz/VKc8n+L1PSgBmmzNb3SRzyJFG4JiCqfm9z6fjWgIbO7n82z2iTydsRUY57EfgfTtWVMhN0S9yJ4tikEkjbGOenbkCrGg2ywXckrqkm9iIXVshscc/y/CgCNLeaC5a3BR5/LZSWX7zcHP0oNvdJcorC2YFScjljkelWb1ZIHvp45TuKFFKMDjA6Y9eKo3VwJFhufMj3nEkKngE4xgkc0gLsDSTWhXbHv2NGVY4IOQBj8OaLSKa2Zk8wkFQeMYRR39zVdpIj5SwoZJIzvIXgH6e2XNOhuHvtVl+z3AE6LsaMr8oH1piJSkt9eL5zboZHG1RwJFUKM/UcfnWmlxMohSKHEL55Y9AP/wBVU4lknRnVdrId3zMSrZ4OOfWq1zaywQyyI4jkjIZcEHB7ckdKAJ7gwJpkkkTqLiT5niz8zEgA1k6bNFFA0aqzDKhwecHOOfrV2+RPthMYRI1IdZPXP3ufrVVGjtvtc00PmIXVQRx5pJ4YD8OtAGnBCtuPOgYTOVDSbVyGJ7+1VLS3P2hXucbpWWQ5PDAA49s5NRS6gLWWNbWJcyDlwmA2eeR3NXbm5T7HFOA0DH5WaTkHrzjtgj9aBpXdkQSSRpPIiTAeZJubn5R9Kg1K8todECQztJdJJh1JyMe5obToJZwgRpJtpeRySAfoBVeSF7V7gwxqMjJkHRs47fh/OkNqzsyW2DajEi25WF+RsJwWUjHT05OK0Jb9LqKSL7LbxquYmgByVxjGfrWREr3U20yEzKolU4Axwcf/AKqZsvIf3s1wTJubMjjIOOBj8hxVE3L0cVterJFLEqpAVARsryTjI/GoTI0DP9itmjDZQlgSDg9earwPc2srSiMgvHiaQseR6D8SB+NaM9vFNAk6usAQD5ScED696QXKssqR2Ls8wVJCB6MTjO4A/UnFcvrJvIXS5VmAI+8Od3HBP1rr7iAzLa3MkNvGiow3YBbI6MB35/nTdZ0q81DwzuDLIgO4bRjLZ4x+FVElq5583iPUiRm7b5hkKowM8Dn8BWpoGuXLa3bR3MzMkrbG3ds1zhgaNwwjchuQdvQURR3AySrbEbJcDoe1aOxOp9C2to1iHsixUo2cg9sVs6ZOu/YPmI5Gay/D09hrOkWupS3qJNIv75JOz98fjTb3VrSy1AIlysjEHlOiitY2SIlJtlbxZtjuXZHRZvLHzMPeuQuZGk1LyXaN1eFTsfGCTjgZ9f6113iG6t9Qs/3W9J0jBZ1b73rXGi5lvraZvKDeREAVJ+8wzg/ln8qyqrU0i9B8cKyrLdrOpKLgoPmBHpxnBFOc28dqsLRKs7xDMoTPyjg59OlVUt3S5iEf7u3dAZlRR368jmpp5hbXge3JETfMMjgdjn8cdazLJNOeK2haNJPJRnKKzEEckD+opGR47pdpZgqBv3Z4U9x05pw0m5dwJJYSk0ZEmQMjsDgd+atyzNBI0gZXxGuxvU45z6d6QFa7ullMXmz4kgBRgOCc4IP58VC08luZbWSUSwxnIdcDaCODzUMkjzxxNCVRldlZ2GCO4/DNEEAtN0TuzeYm5njbdknp+NMCLzP7OijgcvNKhBRiDwOp579f51PPK5spHiQpMAGkRjng9MVRu4zFEjRRXAjgO7cwz1ycfmDVyXVIvItY2UmYwkADlST60CLZuBcxGCUhZBtbdnqCM5Ax6VUuYYI0EcJR5pPlVi2O3c/TJpqXFq0gW5coXh3Luj7EEcfjmi1iEc7lQjsw+ZvQDkEj8O9AzCEG1fMZyzZ6j/CrEcbRIGMo2E/NgciqkSv8skPKk4O7rWjbKfN8yeXbCgICnpuP8/8A61Qastzxyl4BbKpCnd5j9ePqakS+cgpIrGRzucqB06df6U+LfBHEhUshbBLDIH/66crKpK+U2M4xjqAB/U0EsdaXEBmEyswZ5MqzYBAHpntUtyt9LuhCly6tlsgdDgAc8dDRcwQTKFjjO6GPaYk7jr+NVrjUpkIsVtsF0AC9DHngjPWmSasFnJPo8ltIcoCpx95iOuc555qa3t4lZY48b0+hYHrjp7ms9EuLK9gjjleR5AGMOBjbg857CmR3F6t19rdCg80FADyAeu4fp+FAGvcRLdL9mScJ5+Anlr0OQecdDWe1nPdPNbFIQYDiFy+4nnpxnvVqa8ke7kiydseJUK8dsnH16VjJMLfUYJYG+QpteccKcf1pgalzp5to4UiJivFYMqJkIRwG69cYH5mo5LW5F4/nfJDuARlYfe9hziq+r6het5UkSK8TJ5YZjuI54/UnH41bXc0scP2dY1jQOsjtjLeo/lSAZBfxIZczALFKVRh1wQePrweahbWJbRzHEouFkBzukG5gPUD6+valuGaKOVZIQbh4/klC8tg/1BqtKf7QjihihdZ4UOVjHzbvQ0wJtM1B3EljJkRsQUKn5/1rWjaSSXByECkHzOAAB0Oe5Pf0HasOForFo1VZJJg2dmzop9fetmOD7RFcJO6LNPIIuOSoA9u9IBsohuLuKQp+6KEAbwOBwNo78e9Ura3hab7PGlxJG5C787VjOMke/X9atnT/APTXE0nyocKoHKp2/WpbKa2VXt96hIk2IxycPn/P5UCK7hEu0toocwyna0rnoRznp+mKrSTxxNBZCT/WOVUoNjKp6Cr94sC2cdoLlkMh2kxjlSe/49KzLuRbtYZBabmQlt5HIyNoz65x/nNADkgiiMsFtOZtjbJPlzIq5/XnBp2gzxvZtFbW5/dg7ULhWZ/qffNRW1jJHeSxxA24iTeZAMrux0I71buLkrp8ElxEwuJdykJ8rBuhP5YpjIdsURFzdKiyq2XR36kjn6//AF6asEME/l3J2p5eI8oNoGMjGevvVyG3uL6wka+x5PCxN1dgBn+lVJYYY53ZYvMjUFXB5V/b2pIC+n2eOWOSdFaWNcgRgHg5wPfpVK9aV5Wu9Nttr3KMWBcA59gf5VXOsu+jzTCy+feEUAYCjjPTqelWUMFw0MtzvVV+cnqFNAgsnf7NbxxPG8cZHmjJBz757c/pVu4tUv7OeNFBMjBWZGJx+dVkZU0uOaLAV5NoKDHybiAf06VEizS3aurRqsmWBYckZAxxTAnW4toYbe18qZnY5feu4Akng01knupmKuEVU2RDGQrDnPQevvUk0W65F1eQqnknKqrEkdh9al/tFreycOhlBVtm04IOD2HrQBBBGIo0ilUOnX5xgrxz9KrGWIzTWzvuiIKBmBIDN1yD278etQjTw+tLIJZjb+WTwMiMketWIrEizTyQzOCF25x+J+vNA07O6ILm5kh8mO2mBlIG9kO4DB6Y602ESx3uLpwgIEiK3BxjBH4EH/Jpss1pDdvviaKVCSoDHaeKi0+EXN9LJbRP5kT7gX5AO3BA9uv50mF23dltbktcm8gWOQKSqiPAyQpOOfeq6RIkKSbpZHWQx7CwARiSc579cY9qBbS2GnXDyCN4p5+SvVQSNx/Dp+NSzaaZtHuDFMSk0u+Ev/s/5x+FCfcGuxPdJJ5VtMpJt1YrIj84GM84+n61ZCwS6W8br5ccbEoGBLE9cZqhb3sSW5hnjDcBm3HcCeh/nV5IQ90UmtwgRiVCH7ykcEimIht4lnmtYZbYlWUmHa/PfnH4jvWjDqZt0urRAVwTw2MBsc/nVKSxKSPJDJNEA2YiecA9fw4/WmPJbudtyh2O/wC7lXqcdAR7daAKZsP7OedkjEiOpdMjcIxnkH86jbTWfS/Os1iDSZZ4z/n6VrRwyeY32T50mkPmnj5R1P8ASqkyDRoy0rN9kdhnJwRz6UCZPb3ccdo9qirHHkY29sdxzyPeo0uIHMjHaiJkmR8nafb681z8mp2xuYYFkZ1QEAkdR/nirlnardW5khbKRyhyh6bOf6mt6S5nyszltoagupLqyGxJY45XCGXHBNPjjhtre6VDCuQVkIbI6ccduvWntBd3Pm27h0KsCqRnGfQ1UljMU0si2ih2OQCBgYyM/UdfxrTFezuuQVHmavIvQ2wtLIPFFlZo8qxPBwOuc9KpmNpIUjlBM0h3MrAtnnIHH49qsRXKpbzPbthnO1wQDuUD5iKW6EUMUd3LI7JztUZJB6Y9q5TYbdX8UVxbNGyLITskY4Hy9xg46VVumF66WxhENxsDs4J2kg9P/wBdRtbJqDrPKQBu4fup7/pkVqmGON4GTcW3HKZ6nPbt6UgKEmnXFlKsclyPLI24KkkEnJ6dRxiprSGGGIGWMjDZ27cNk9P1/CnTIrTRSgFbgtny9/ynqPyzimDUbm9aRQEYqwV0z0OMZ/A0AKtykMgjkhkWaT7scp3Dgnk/mfaoZTDJIkKOjyO5yroV49sU67uttmblAHmgkKNEMDOAMkevQflVTZBezxXPEbbhlWbkA9cZ7UwIxFHG1xBIVd5FADbyyx4zkjIJANMFrOL+1B/csFOSc/NkcA8YIq0tuY7SOWYfvInfYFGTgdCf1pple7d5Y1IeF9yyEY3r3FAGdBaA7mD4BGM+n0p9vaB42BcOI33Db14/T1pVmaXd5YL+Wm7K9KRrqa1iyiKI2AY+rZ61Boy/Z3EryPbbFVTgCWQ9CO3vTtUuZbSdJFYSKSEdSn8R7j2+WmwNHPCMIQhAKv6tjkD3q5bxStJIqqjtgY35+UZ659eaaJYLYXoi+0Ryqrr8rx4woUjgHj86khjvk/fXaN57jcz4BVVB4A/WmGaZCkEcJjlkYhi7bgB3NWL65urqwMNhMCGJB+TGAowaBFW/Wd545rSLNw3yswHG09j6Ad6SSHdq0ciOJQ8RWWNjtGV7ioLGeV7Py5w0KDKszDbjbznPvjFakFraTt5pUNtQgSMwO7/61MRnorvBbqzFYWmJBx+8wOSDxyOMD8asX6QmEyeT5qsQ8MRG3HOckU6O8t3ilSO2kiIOFDAAHH90dv8A69adpp6tEhuAqmNck52k496AM9Xj+zqz4DOF2hRgHngZ5xSmCK8lhkuIZR5ch24bgY4ORirZ82S4KEqYI4DJnAwQMjGfpmqcxuprOWRV3RyR7VDHbj396QytqVxG00DWYZpGGSDnkZHJGeP1qK2u47eeWN4vKaRmYyMCCCBkkenH+TVuwsprDyEYKMgl5eMgcYx7c/pT/sccz3MZY7Cm9jn5Tk4P+RTAjtUg+x27iUsxbJk37s57cDt70wQ3dmY5VIa1YnZ1yeTknvn8aSZJrZIksYUjsov3kcm4Fn9c0I66rp4uy8qGMnMAOCRzz9Of1pCLT3JuBFMZGRjneisPlyODtA9aqw20r3LtbOX3wku8hxluOoGMAcnNOm04JKzl8TeVuKLxk9gPWj7WhSG28qRHuYyzMvG3qMfp0oAz7RrhwJZ2CXG9o1MhwhI6FuOma17qGf7SxLtFKFXeYcYc9x246/lUMSRx2lvD5a+WWLK8g2898k0G6L4aF45CQfMLH7q5U4B6HqfzoAj1XUpDC8VoGViVjYr/ABL3I4qK5s7hIoswtOOV3bjhCBnPv6daZaSQ3l1IltcSE8MdyEqOelXpLaS6nFvLczJDbkvuC/ePXFMCO1u/Oja4iRjDDAQc/wABPHIzxioZzLciOKeFVSc7nZCACw9D79akM83mG2h2rExBkDLgZPbPcnj86sQ2Nube2uRN89soG0Z2g9xjvSAWB4LWzOIlMO5ic5OOxI9asWflpK1xbIAoUYSZgxI75HbP1qtLBLCjfOec/K5zsBU4OB0PT8qjlgm+wGFroeaVx8p5x7j1oAbekos58soEGVAIJ+995e+PpVyLbLatJaLuuHj+UyE4JwccCo5444rWVgQwZBGrHnHUY/lUK3C6VJbpEu84Csq/KT3yKAK+ntc34NxcNNE0P8D8hjjgqOKvxSxyPcSyRK2Iv3a55c+4PTn+VQXLG8vWUGS3igGUVTggnmkhjtrzyZ2DMEk27xwM59vemBXhPm2Ru5bmaFEU7oYlHXOOucVfs5Zri3YrAi5OwKTj5fXn2wfwpXRbXTJwISWcksq4O0HuQarLMbafzWh86JQoXB6YXnA9eP0oAlbS3XaZoY3x907ec9B0HSq90txp0/lxbBC43MinknHcemPfvTrXWWhun82eTMpwsbjjB6fQ1UaF21SRlldo/NIJJ3BUJ5Oe3b8qQwjuIVsEt5XlAuJD8rx7ifocj/PeptSuUFkkbW7ukbuVEb8pk5OcY9ulT37WZ1CBVjCpGv7pBnrjrVa0WCVnlfJaZmTax+UnqPp2oAqwW7vZFnSQrPIpYL97pxjPb8a0ZZZrtEkkhmWWKMCORjuHHZsc1VxqF5ZPDE4gaN/LKqPQckex4/OrWlXG1JoLlxHtbHmA9G/z2piJWvL2WFIGZV3E7mA5LHnrjp1zx6VLL5SeQgdZJRIflkXHJHTjNVlk/fNNZMGjTG4seVIznGfYirhkivbSHfvBkfCMRtJPrQA2yiOms6yOzAKcAN9xmGdvoece9UzYLrlpJ9sXKoDuXuWHcfn0qaK523KDZIbVYwjCT7wAyOT681PdrDawvNBKDGwwF3EHdj5f/rmi9gOMs/DFwZEmkmVOApz1Hr7V02kaQtpY31tNOXWQqehz16D2/wDrVJcXTW+GRChkUFVUZX8MfWpby+NxZQi3JScOocYwQAP60+ZhYhg1D7HNGGmabdHhgoPHPHJP6Gp7WAl3u3YNC5JBwFKZzxx1NPcG5w8qIjFRuIXIJ7Y9Kgkubi54hDxNEwAQjhuMH+f6UNt7glYnmsoJbWRIpVhYt5oZOQR3GD3rJ1Bb2Z4oEuVB3MrFM4fkfePbp+VWraSWWdrVmaMxvvEiAcD0NC/aIb0ylld5SV6jG3u34UXAmiTyJIkYHLKVKD0x1+nuar2d6lxGYbmU287Md6qm4nk9Py5qS9vYNPxcTSyIhjMZcdQCRyP8feqGptsu4r2zyH3+UzyYIbPO7680rXYFiSSS+s5bqCVEuVkVVVjjKhs5H5Cm22y306TMnmMyhnIOOO/TrS29sl/C9o2BK2DFKpPz/N0P8qZZTmUkzjEMbbXXHzD8OuM07AVrVVkuPtkcKT252kqWwU5wRg/UVdvJhDcrcPbPJaH5PLCgkDsTjBFJJdQl5Y7e3X7OYzhlGS3Pp68/ypADcWjH7SI4YwPlI3ce5FAFDAdnvhvkO4lYlbjjsePenWFyZ4XmuY4/NjyqAKcJkHg+3uTV2Az+UEiVPlXLpjDZxyV9aiEJnsJJHTy4kO4sT8w4PXHX6UAVLXZJCyIo2E7SwJBP5dakhVYLpi65EceFYtwoPUGoYCEK+YSO4A6E1fjtpZUzsQRtjeD+uagu4t20cMUc9qNoMgVYwowD3ojmSVpIdjgvjYUIBGM7s9vXt6VStdTM15Jb+SSme3RewNbkNhHbSi4v9gfBfeDjZwOD69vzpiY+Oa1jjE7yostuPn3oDuJ4wPeoJmulZrmBxDCYh5rOc9zwB0JORTbWzjvr8SySq8LP5pVR+VT30VzKqxs0Ufllt3lHCdQe/fFCEVczanYtazqYCXyhAwMDnBA/DpinpAXeWCI/ZrdRlC/JK5zzzwB+FKQZo0eGUGcOEALfKR7eppLho7OR4YrWRp2j2ySZJABPQ/lTYhYJJLeG1kihW6neV3jlPqBwOeQKeElmiZr+R4jEPLRVYnjqOTzSvC1hFa+TGFkycRMejEg5H4A08JJcyRGN0ktDgFz1THUH1pAWonk+wRIj7pk3P85zxnGM+mKp3sdxMiXEMMUUnmZZh94nqDx27VYtNOeC8ubuR0cONgy2Ag9PrV1EPmSiOBzHu5LDluPagZkXTfarQJcvK0IiYDyztLHPGOOnFHmrbzRRrBOkcgw48zJQY64/LirkkMMkaSOXZIcplBnnvx9e9Zoe8iE8MgKRsAEmcbWyff6UxBNNejUo4hIUtIY1C568jn361FJeCya9/wBXNNFGOAMnJ4yfbkelatxotxFp4ijKtdwLuTfng9MfpWd9hETSz7TJeT4jIU55I6cccEUARy2Nw2rQ31zeoWZV3Kvy546cVee8jWFolWRTJJs8yMYG7G7H0/KqMdsotXN3FIZQQ7DPz8fyFWn1GC38lFYytMQ7xxj5U46lueRQMhuHvg8S3NtFJZgbZyAAPUgccZFILmB4Lae1iMUWcOhGQRgdfyq8L6G3jNmZI5ZnbzPvB9wA6e1Q27tqkVzD5RjNuxQFP4unt6Y/OpTBoghiaBpLmO4VkAUiNht2c+vp1qP+2buXWLfYyvbSLuPlpxk8ck9M46UsYZrmVb1ysMhComAAxGf5VJBaC2RolXbKcMwZsEHHb9adxEhjDK+bqNR56BVChSuSPzFRXVxPaSTKQsabvlVDnp3/AMioJLtY5v8ASLNj5so2yqeijGR/n0qRhdPBHGEMsZlOyUDnHf8AKmBoz3Ugt97wCTbHtZSMNyeWyPT0+tEULS+fEzgL8pVjzlc/Nkn29qrrdyrezWohfyQBliPXGCP1qRkVXi3TOCr4dc9OepPTFAFRL5kWO0t50ltnlYE8qe54/OqM93G93Ml3NJHsOVMQDbQOgPHWrttbwxyiHylkkhkkMbA/eXj/AAqGSeFJvtMNrIyzMYpTgY9859KACKVZb+K4EDMyoRnHG3qCT681PdGCLybmGaZZXVtkPJG7B5xn36+1Qaf9ot794jA0lsF8tt5wN2O3+FSX0s1xZNDBE0U6kRpu4JGeo/AmgBljN9ltWupP3lzIQJIwN24H+L2/Cr91HEbOCSeXYiNgggggnoBzyMVQt4Lm2RImRgEjDELg9Oc8VrmGN4lON4QCVg4xt6DK569DQwMyRop08y2kUSyny1WVTjj+netCIRrpzrI0crxfLNJGSQ2TjOMDnrzTZNP815JJYtyRKCiLwOe7H/Co7iaGzhhFurRNMjYjbp24BGRU9SkUru2LX0L+cyxheAPmII78/hRc2ccMX2tZJJGVxL5Q9OPxzVNLtdvmvE0nkfuyBxktx+eSKfaiSzea+lWUiMhPnP3lBwDj0xTEaETzXULiXy1lklBjizghcj0+gzSyXXkmSI2Sv5m0vjGFbocD6U/UIIXSNrGQC5kDGNlHBOBkZqGJrkbZbgossiAAMu05x2HU0IByPb+fcRxs0Cqj4jPIYHBHUUyzaPUIPOjEkTKGxIGG0cdgR19zRp0Q8qR5C8rEFt5/hIAyOeeMfpTbuGKC3S4dH2jmRYh8uMYyRTEXR5flB1nCmNiWYjHAz275p8E1rPGLiRlFvsI37MHPv2xjPasWO9VI7lbqJmABhjwNuOgyc9Dj+da1rFay6PHbQlxgEbjyPr+WaAJbS3tYoy6ouN7B8tlVPYge9Z19NBNdNbmFGBxuJGBnnkdP1p7vPZxxRXUa4nO4MvIIPp79KUWpE7T3aBjEw2qHDb1PXIHPemBZiZTaAblhO1VTIycgYHJzVF2uZrKOM7kO4sZY+34ex9u9MlmaIxQyeV5Bby2PJZTjjGOlPjhuLd2jiBdtoKNndu7EcfTNIBssa2cW6Y+as5ALPnJXvkj9Kst5CWkM/wBqw2DnjG1QOBn3GDUFy4uJkt5ZhFGjBVVhyMe/erYtUhikwjTojMZDt+8McYH6UAQvEuobLfaXhmXhwgI3dcevQVTvltwbTDDM7b5dh4BxgdvrzU0Cxra/amka1hiBdIlGRn0z6+1DQ2jasqwzSfZbkA/OuFGBgAUARCBY4zbwbk8srIZEkKvtz0/nT4EvZ9YLTRGOVyGeXBIOBUsD2/2wKkZmZiyEcrhRxzxzzj9ae63rOoMqp85wucnbimIhjkNlrUzhfMDA7ShypU5wCD0PGKp3sl2bWHDyIJTg7QMEZ6E9q0PsEsN2iSqzCRy3yZ6Z4/XFOuzM+nKvlvEBJ5hBAyv/ANagYq2l0AkKxhbkx4Drg7R0z+IH6VSL6jp9zBE6zyovWXOBnPtVxbmWdFFsrskZwRIOSCAevsc/nTIXDrdm6R1cPmOINkHjoaVwKflSxwKzsZGU/MwAAUHpk0Ry+bCbWPdHJvKn5id3rx+VLDb4uQj3DlM/OkfIzirdlpzSXLzlyRGAhPcLnn6nkflUlEiW0CXqCQmK4RM+X1D8dfan3KWr3EkN48mZVVhGTwFAPJI68ir1xbJcSfaoiomkUIshPH0IqrNdlL02jWcrqiiFmK5LZHY9AACaYh0d1HKY3tpt8any2jPy4GfXvVq8WO6USXTJ9kCjejt94jggd+gH6U2G2s7UQwJGGQuMnd94modQjdgI7YRly4B+cfLHnng9aAJU8tbm3ewgV4icxlugOOnr24Naun6jJHK9zNCvm9QjgYGfT05qitn5jJGtwY0LD50ORtHZcd/wrLsZ72SLdcKgKyspnLAqoB6HFMRoanHjUIppgzBnLblwCG9B371VujHIm+2QrLctsYnjYB6Vo397p1zDFFcuV+zZlBjUgkjknJ68fyrDiN/qKNdxur27KzRICBj24HWgC5cTva2UEJl8uUjpJzg8jP4gmkLExsY0c/Yvundw7EcnFUbi28kQyvcs82cjerYwBjpjtmtWJWgDyNukhlPMbL8yf/roAi/tWW1TyBbuQE3M0g6MSeh/rVSztjaw5eYMZJRIpY8rgimX2vB4Ht3jZmjkVGOMBhz19P1qWOSO7meHynRo2AJ2dcjoOlFgJryW4uXMtsDKsjc5fGB25/On3OnJaLbS2G9Ljy8sT8wBznocjrTbY7LKGd4pgEB/dY79vfH+NSLq0c1wkDrJA+MqqYP4HPfJ/wD1UAVkvI0YM6FpGLOkoOcNjpj+lZ0Ms4tw086SS7g5XHCZ3Zzjua1dLiF5YN+6lQxhmOWAPX161BbWElo8l3dRrHNLEQka4K447c5PUdc80gKt5apbuLhIMjaJAS3OTyRkc49qlW8u5GjVoPJd1IbAH7zvkfr+dSSXwgnijaIKXVfNJYEKB/Wq8ci6kI5txjwp2MD2PbFNAxPt3mNA7Q7WEnyLt7dD+Nad5NGXuZZZlRn++qjHtj+n4VnWcE+nCJnZZzIcIPr1/lTrKBUhee/xN5ifvIwclWOTxjknmiwE1tp7m8iukmRrWOMhV3dW7j8v5VYkmhhspJLeRpGQ7xGBghCcgEc9uKqWDmBFht1kbYGcCVSowBgc9Sev6VNZ2qWtpPdsmZFT94itgrjtx1oAhn22sU00b5kMJJZgCAMjGPzqhDumMUZRoo5WxIB0bI/SmQvHdxSTysfLkk2KpHqM5/DmtTa8dwBCRlAAQTwPfFAE1jbLAYkiVChU/eyCDnn3/wD1UtzYxRsZFZypJEsascYyDnr7Up3QXAlyWjMQUYPJYnrn04/WsuU+RNJcxtPvddrAHeowR+lIDWQFnlWYMrlyQG6H0NQ3kgjjt/NZuW2mRQOO2CPTk0l672ZuZxtnjkm+Vh/Cvp+FILgXls0TwlLcEFJGPVu27PbimgFh+1RWULWZZufuuAGVe9SwmV49vmp5TFTF5Yx5a56+5J4qtbk2sl432kXBU4ZQDkEfXHFLpmpXtxZvFBbQeYqAByMbTkEDH596GAanaOuqRSo5kilcLIAOSfWjULoIWBdn8sbGUcHIIH5YI/KnohjtvJEhR0zl1y2WPOQRmmMsFzbtdSHy2ki3BZT8zc9c4A4PpSAn3xRacxjIaaSM4ZRnnOM57+lWo2/0AiSQyeWgikkZsEevH44rG0xWhvJXnmQWwBGzcSD9P5/hXQJp8FwXsUZZZGhLM0p+aUDp0+nWmwRhwXMjvfCBF8hECRBsk+h/Q5/Cg2cVjbpLGzM6qcEDo3XH41Q04uzxpFIEWEuzAt8rc/dz39K0JI71JpGVBKjMP3rcJz3x7UAOnfzbqSQNJDm3DA8EBe+fx4+hqS1kS7855Y1G75lByFcH+tNa1gS1zPIS8jKpz2BYggc8jH8qW5S5hu0eKOJNPt1wu59uT+PJPagB0MMVv5qwoBLPnBwCA3XPT0/nTbuXYqoZxEJF2sIyM7s9QfSrFxEblUuraba8uQ0arhugzx+XPv71RWyS1lmWe2Jij5XceVyOwPUZoAdcuxvkSF2V4yGEoPHPUN6n/wCvTob6WO8uZpAoEgVPkxw2f6jP6VIsTR20KNBhnQIxCknIHB9+KgtS1xLL5SRogYGWQngkZA469v0pgQIftdy8NgFjdSVKSLuB77smryW8dtcvPIZPMUbP7qgk8H2Gc/nUN7EItt1BiOaZiu7OO/X8KvwBbWzjTUZXkmdlcgSBdyjvz1H+FIDLkES20bxQLOFfcck4HuCOasyQ31tM8jxFrcjYVkO5mX1x2P0qW42W6RtuEQ4ZRCA2QexAohv/ACbGNpZsNGDgls7gSSPfpzQBFqyLNosgt/kO4b8ng54wRRcy2UdlaxlQs7rukxztYcdPwqhdiae4xHIfKuDvDNwrj09jWhNZhrxbi4kbfDFgSHC+Z3Bx2/rTEZtjdXM2pQwkElJCVudvQY6fpSajeCCdgJC+5iGTOSvvk9q1bW482PzB5cJ25TL8MT9PTr+VU/sFs+rySSqdojCsPf3H9aB9CWVmlhQyxuvyAh26k9sevBqrFcEW8IeUPJE2eOoUn9TUt6scsQCXPmSB8xlTkJxjHtT7mKSCCNoIS0u9CGCYUj0PWgEipIrzQxJLcSC2ZjjdyV+vtyPyq7bRwW1ndG5YyxgqjuBy+egxU9jFc3XmG6hMKoxxG7Z+nIGBnB+lMZpGZRLaSpCefnUcMDwfegChOTG4DlhCBkugwT6ZqxaxSm0iuIbmIKJNskhbGV7CnFY5VjtyzgSZfeD90d/X3q2YBbQPbpbrIpCgoG+VueD/ADPvUlXILPzDqThGASVc4fgD29q077zTcpZzMnkvySOuM5GP8ahu2tbm5S1nLeafnUjgKB1z7enFMtjDe3QnTfLLAnlRrI2UI+oNJp3EW7bbI8RtYMl2O93/AISop0dvMIJp7izVrk7vLYYGDnjJ9gadbSyXPmT3iC0hgfKg8lvc981BFrsk7ZikItnX5kblh07j+VVYCvfi5k0ZWF2sE0bMWCccY6ZrLkFm8UUKqzyKm/cuQGJ9cdc1f1O2F7E0CRMIQ27g7Vb1H171FpFlFeX0yzpJ+4+REiyEUD/0KgRT1Ce5sImlX95DNwQQCVBGCAe3AFE+qrFCsaRtFC0QKr3b19utbnly3Kn9whtVPKyKfMIBzjGcY4/Suf1GWS6vYy8ARhkbAuB+A/pT0Bjbe4TWGkihjMZRdwKkAu3cfQ4zj2rRhv1a7tfMhZfKORkdveqml2NvFPIS7RnyycKOS2cZHtjP51px2Vynmt8zBOEGeufX3oAzLCO3Eu9ofO3TMxl2j5cjPT8av3Fl5GoterKEs9u0xquCMAc8VZt1mmK24x5ajcXUDdt6AY9cAc0kkRnkEd4FaJwyEB9v7v1Hv9cUrgVnukj0y41SJfMywRYpM5Cn+vWmwWckkwubTarXUGADwEfd3z2HP40xGSa4vEh5ZgoUOo2hcDBAqYzT2l2IY1dy7qFK54G3k/mD+dAGhdW8EPmrISF4DPv4/wA5rnlsbi9DymYqBPxuBO1QB0+oxVm2jsrzT1tfnMsm4kMzPwec4/rVi3TybdYYdxZNpIYYyMHLfoBj1FIZFHp8YljbG3coM5YZU+3tV+LT4oAb8fOuwiNBg7TkZx+QP41TS9/tG4js5YZdjKzMxO3p93P41bt7uyt4pmMLrslcKi4Hy454+vpQBSVNQZ3wwDJIGXAzkfSoLmwSJlhhuTkurnJ6k89fxrYF2ypDdw7cbhhTwTgcVRmWCbUAIeJIlyyk5+mM4oCxW0wy/wBoCEJwilnLAY6/d/HA/OrRlQo11lRlmQxhvlUemKqmWW11BpHOY4gGYE8licnOOo6VVa7/AHMn2aFhK05byxjDYPBI61VhXL0EtrDA9usZCuAUXHfJBNS6fa3EFntkVWlyyZHXbmhLv7XZQreoIZywU4XaSG9KvAy2cDSQoGkA2j0LdO/b3pAQAlyxWHZHAiwxd93HP169abst7JRO4EcCLvdGXqe1QtqB+0QxvHgqBvUH5Cx561dmWMK64d/OwpWQfd+ntSAqxRRSZgtZNqdC7c7sgEf/AK6o28WqQWcjyqs7M5T94chh0z9Bz+dOtLNFjE0g8iG3JcsHPIzhQfXpWrvEsbTFiqbdyAEHLcHj/wDVTAxnaGPUrhZZZY7WWNSg3ZAb0q9p8Yis90WMMW4XA3DP/wBb9aorbJdalJPIJVYSncsmAMduP/r08m8s3MqRCS1bczRq3zZB/TOD+RoAvWgniYzth7baQ6E9T7VDd6hbXcRju5I2hRVKBEwe5/rmkS5mmurSJHjii2BiN2Rn3qV2ihaNLu3R2XITaAdvfb7Dpg+1AFFow8MQhOFLjYW9M5J9+KnjKxXEklrOkm+Lyzufklcjp6Uskyzx+ZGsPmRjMcSj5gR19ulR2libOTzNTt0WdxlVOdoPvQxjLC3huICt1FDGM5Hlvjfg8/jnH51oNZRJbzFXYDkLE54OO/51Uvre3gsIDCrRn7TnCqeh9AT71At7cf27cCZXjUriAseCPoenvQIszLLJaxrbkSW+0DzEGPmGc8ehyfypmqwXM1lbqACsTgsc8ue49qvJLcizlSFI3iZF2Zf58k4z0wBzS21vHDZiS4kLxMpLJJjjtuzQMiheQ2sNxMT5qkxts5AHGTj14H5VPfl52ZFy7yKsZC4HHTn65qS3uoLIxxsiPOVJcRggHJP5ZwTz3rNurt47w3tsNsC7WkVjkkDg8+2RQILW7aO6hju9y7Sdp3fKccg/rUwjldpJ7JhsLAy54JBPX6c1F5ZubuJUgRUt0BiIDBWAHIz3+tQrI91cC7SByqblAVgRt7A56j/GmBZ1MtdW0URhYRLLgyLwQfTHfNQGGQWeATtlXEqtwFAP8+v5UQSuiBvPiMTnO2RSSMdj1/OrF1JJcqd0RRWcrkLkD0xz0xmgRTjdwYpoZmlXdtyqYOz3qW6mjubXE0Mn2VQVWRBzgHoR2NUoSxtpbYP5bQlQNzYBGeoIHU9OavgC6glMU7xtGrRlGx8x6HH4gY9jQBJHEgtGj85hEy7l3denH6VBBdB520/Pnbg20OMkL/Dg+mKmQ28sMB3RK0eQX3chsc8f/WpskP2i+F4kawyKoAZcfLnnHsKT8hogj1GFtqXFqUCHyUbGApHv+tPivZbZpY5E2S42mRV+/n1NOvp7GK0ts28jec5LOr4wy/TufwzUKX1uIw7xztuOzPXYRwOD1pgJa+T9vgVZDAGGJIiNwfJ5P0P+FWL/AFJA0VvDbMY9jbvfiolZIkW5dllCkNHKp2OGOMqR16dvepTC91a3E0e2BA2yMliQxPXAGcfTigCSefzQlxbjYwJLDeeQOoA+mDn3psOrxzqoKyeSyEOuTlG7GooJG+y7oyYXnYoAGyCBjJB+uBVHa1k7FgZI1Uu5jbj3oA1rEx2g8udJBFECoLLzg89e/JqlfSXd/MWt97RxABViXGPQk/nVvUpBKosppShbHf8A1hIzwe30p8zXlpMljZnaXhBaQ9E6cD86kZHqEUsdjAXIlNwoFxOpHyY4wKktYbFRbwiRyRJ5qKgAyo6k+gJ7+1M1WDdqSWf28wWzgSbM/Mze/YfrUFiG1pphcSJHb2QZFRcqxbPBJ9MDoKegrlw6gby8kiuEJhEgRQ0e0H1x3/GnNa2i30K2U7I0K/vI0Hylu5P0x+lLfXEEWqWlvJAieWhHThSOh3A+nPSqUup2dtJsjEibyWZwuPMbJAx1yD+FAE19fHUNcjsoQ8kEYV2aNcYI5OanggeyuikLqVKfJIW5JHWk/wBFmQxB2Rg25/JJVz061LoFrP8A2dbakXTykZ1Eb8kA8Dnv0pALNfqk0ceftEkybmCnIQjvmq1t9ikuriSad5WLBB1JBP8A9erUUUwaWQ2kMZ3ZWTcU3YyR+FUYo2srAvJFC87SmQZO1SxPQY6UwY6CYxWlzIXB+c+WCP4Qeo/Hini5ktlWOVWEr4y+OHbrwfalt2jllvG+zxR3BhDDsASMde/r+dVLiWA25tidzIwkI8wuW9QM9BTuBe02WY2skzKJJo4x86MMsdoPT15H5VRtZbmOZLvVUBVmY4f/AJZgDOMe9JcXThIri2AZCAnzZYRnp0GfQ1b8pfKm3kSKUErK5yc9eO2OKQBfw29zbW8QHlowyTEeQPTjt71PbpIrKqOBG0amJyecKeo9OM8+9Z0Yig+1xqyBMbIVL5AUgdB35zUFvd3kNyiGN2gCZ3MByTwODxgGgC9eg2uFCGJDEq+ay8ufaq29rC2iBjklWQby47t6fTnNOupJZbxpinzOhZ5G6oBwBijTY7iGKO8uHE6M+DuGSDjgDPQcg0hi3k1zb2qyll3ySEIYhztx60+G+gv7pYIrdyFXa5PJB7/TnP60ksl2HnSVU3GTKBudo/2fQ+9VoIZ7PUZpWjCoSQip04PLHHanYDo3nspbQ2rLEzpgh+gj6/8A1qyUimeJGkIjuC4aXaOtQQRG4mnlaHmUBQCQAcHr7fSoJpVgmWG6uJgjruUIMcg5OTSAtR6rayX0liykSENIZMcbgD29MAVStMXLmbzw93LjcrcbfpV1v9ItYLyJoYpt2d7R7srg8Z+lSW6R7DLDDBuD4JZs/IeoGKonqTXNv9suFVICsfmq0fP3155/Ak1RXULuYC1mUwS72UMRkBc5wfWrEEs1zq9w++OMABVicZ+QZzgZ45Hak1ZXtDM0CRSF5NwVOrEjk+uaQx62kSyfaJMAeWBkHjI7/liql3DNHfkb3MSETB8H7vYVcj+z3NvDEFcGfciRqcbH4JJ/MYqO4uX0+zlRWaZ55fJIeQkIQOGH0oAgnvJZC+5S4V2UxgY9MH3qzc3k/k23lpvlwWaLO04AOcevakRJBdIPLH7olJCjdCPTuRTJJCNTQJH5rPneH48vpjBPPNAEGnGW8NxPctvjfcVGcfNj7tQ2rT3ECEzAXEMREkT99uduPrux+dWLSEIPmh2yuxZog5yCTzk/rUs7ot559qFe5OIFPTJznk/nQBXRp9Ot3vjAFeRP3iMucEdAKntm+0NBJO8YSbIeLPzIclh/n3p+oTPcQPFKSI4wWZUIwT3Ge1UIYzpuqJdyyNNGwGAOcAjgc9aAJb1NPiuIzAHaSNSzgHgFuPpVq/vC1vL5kLSLjfGA2cEgHafpUF5DFdRRXUkggCnAG0EkZ4PrnrV2SyiWeC+kyQyLsIO7cMckn05oAgs5Zr20BndWJGGGfmB4I/UCq2pW140pTyzGMAxzh849h7mr8KrdTSW9sioAxXzc43bgQRj2/pVOC2vGSO3nyfIYSwOX6YHHtz+tAFeFrlLre8ioEjC/P169Prn+dTazcQR2kcdu2WlQI+/IwCeeKtG5ii0p7yeJUuC2Qm7Bc44H86zbWYXAaaaI5aVZFdzjyz0wTRYCW4uLhbmOVY0VixjQgZB56Y+oNS2lyl3ZSQwwyB0yXjA5Yk4OBWjYqInle+YNJkhyGOMnn1/DiqkDxJc/aY1aCME7XGeRgnn3oAklujDK6wuoEmSFk9Tzgegp1tHOkZMaiPIKMD90MTwfoP5U6aGOW4kkmlVJgnDyDAyT04PbH8qp2UEiyTrLscpGXfYc4xzwPU4piKsVt9uuXd5VilgkMbKQSrY4/CrzpO/klpcpHlIto6qehPrg96ZNatFNMoAkhXDmOM4Zye5z0+lSBZbSQpcTOyuALd85KNuJK5+negaI7e6cajbi7IO/5HCpx7mmw2FxEs4t0CSK/wAjNwpXpyO/UitGd1trRTcmNiDg464PaoxPHEkbqHMYBCIcFuvXOPXFAGfLphn02aRJAL62JdSnIYHAIpyXaWt6lkiybjGvmluSDgcD2HFW3kt5g0U0ZtpIyBuU7ec5z9MZqre4vrwCaJ44SV2TYJ7Dn2oENvbhbItaTbZosbnLrgpjkfn0pHnaaSMNafLIArKD0OeCR6mmrpinVgRdLcRqxd9yFdy54Xr/AJyKnit7eG7d1WQbhgENj8/f6UAF7ELS/iQLlpSJgAc5OCowPTk0hmuWnhg3o0aOMqJAOfUiq2vJLcrDcA8oflYKAQeOuOTk5q5ZyDdFcX+QGO15FHbp/OgZnXy3Vnxar9oMTl2Cn7uePx6fpTvtk91pcwVuWG0jbjB64/nV6e0maSVPPePduY7gPunsfcY/WmLItrZtBDCWaML5jtk7lz1/pSAZH/ptzFdyxZt4l/dcHcwBx/8ArrctgMpudTu+YIE5C8D8f/r1nzuI47eOJXjUsIkLOcHjk8HpTZrJ4dQ824u48KNu88HAH3fx9fai1x3NGazje5e8uYfKkXCB9pKuO35VkND5mpy21vtCOxfIG0lFHzM2f0rQ1e6hkt7cETGON8sxOAKfLJas/wBqmVQqRsXZm5I4AXPpyfzFIT8jJbW7VY5ZreITvb8DIIB+vFXoA1y9vL5Of4mO0AKemR7cn8qydTsoJDanTpk2eZ0JPJPoK31jjsbH7CUkeObPI5KkHGSfxpjMvWrl9OvI0s7bCyH97Ltya0knWykW0jkjCyrkxk84xkAL+dFi32e4S2MhkIJZvM6EdB/n2ou3S2aSWK3EzbfmXOD+GOgouIqz6nNNY3ME0QNvE4KtyCeOn8qp2l+mp33ltGY7a043bs5PYVet0kOkuUjOZyCqYHy9eM/T+VR39mo0grbDYsb/AD4XacZ5PvQBJM0TqIbYo0k7BcZ5I74PoP8AGna5pdpbCOGPYt464dywG0+nWqFjDFH5t1aYURttUsx5AGDjHTJJ/OpU1H+1EklurfEaSbS5/h+tAyrpLS2CTK8TwxqGZ2bkt2BA/E1IqsvkMsMptpGAiPOXyeQaZie1uLi8mlJTbjAOcpj5Rj3P8qeupXdrZGTyzIxTISU8pnngenFAhn9nLDYRyRgloJDvkIyKllmN5LDHaxM0flhmHUgrnJx+FLB9sutM+0SzCGRs5hKDl8n5qs2i3JsZRLOBICBv29SQQR9PmFK4ysYIYi0k8jPK2WKE8uT0xWfayTpPMA2yI/LukIxwcAgZ59KsLcBU326RyTwH96xbH48U6S3TVJ4ZJmyzJt2BuC3b8OTz7UxFm1gZ7qICRVVY2BDfekx3xVa0ndJp5TISRIURAM+ZySD+QJNWZoYdLxBKrrcvJhSo/wBYMdM9hVeO93XcCGQLFC5SRyMHJ6EfTP8AKgC9c3bSogPlIucH5sH646+lJttJ5mSSKRoYiWV24BXnH/16yNTSP+0FltrlbqYDaHDEYx/+utS4hktLPyY0X7RKoR/lB2YP+RQBTuNSS0spLe3j2o4yjjkAseoz/nijTZzaQqJdrPKSykdB7k9s1c2Lbo4nkZYX+Xax5Q8dcepyapqqRzySlJGSBeGKAFs+9AGhqQNrBJeiFo5ZE2hhglRkY/MH8qrRquxb9lZ5TjIU8j3Aoi1GGRLdTcKPKjAUkkjaOen6U97m2W4nPn5H3mAGDzQBJcaxb29yrLEWEeTtReV+v5UyJTNZC9zGyOd5t2xuXaeSO/PT8ait7SCXUJZwz7jgcEEMoxkirM5up5t9usrxxADfwNwPBGPX/CgCOLUUvLV7yF1gaMEb8ffUHoM+2KpzSsfss73DI8m50Up8x5Ax9OlXbbT7VJzbSnyzGxAVxwR3/PipP9Ce6nhcL5ka44OM5GePwFADZ5TFdyK0bkSRMyvGvocHPvUVrYu9ibjJkdWLJIOm7AxmoTeF7mdXl86BVMmM44ParFlcKdJilsYvLjkcRBSx+VuCSf1x9aALf2Z3WKF9peZj5uzouKzb+S2mEFzG+JI/l8sLkk57jt0q3fXccM9uqQthfl9h6/WoL0r/AGu0qFDHGm48chiO/wBcA8UBcgngJaSGWQMzjzH3H7uBnj/CryNqSwS2/lhLTySsLD+EA9/eq8kiTraz2kSPJv5mb76n3/WrOm3D2+mywl3aKMMEAGGGCeo/Km2CKNpEIwkH3zEfOmdc7jkHGKDqFl9qSATXD+S5T7vUjt7+1ammobpUurgKFIPzlMHPofXqKyJraC4tp57S3W3uvO3eavJPPYUgHXuni5tooUulBaUyoGGGK4wQfQ5rQSMR2ctk8EkzgKu5VyDmkj0iEwpu3qY3MhbdkOxABqxLqlqdRVLcN5lsu2QLjB9h6UAVreBTYu11I0UiriRiOV/xzkfnURntbU3FvazsyPG0gJ5HCnkVJNcMWVQytNMp3K/J2nP5VSt7e00+OaSaWObySM4XLKCRx78Z60wLdvFBd2SpPdNLcFAywBcEHk8/41VeBIJEihWXE+JAmfmBUYP14zxUkzJc6lLdRJhIioRo+WGevOeQDVgyzQSwwtlgrsJFcA7gc8n3zigB8Vt/pG9LgNKjEsX7H0NOknRpbayklVdg8wqynIJHQ/r+VQSXj2uqu0BR44wDKxXpx/nmrMs8Zv4bj5LhJmxuJ6NnP9TS9Q0KlwVfU5o7gq1icDkgbSPrTrBkUG1Vw3kru8s8k8dfpQlk0cd8ZCjySsTkjJBqUf6Pp0YeOGRghU8YC++fzpiKsk9sIi9w3mRyfJGFILE9Np9Dz3pj/aLyeQRNttoCEMbZ3Bexz3+tDPcWlwrkkTEBo5A2VG05BKmtAvPA1rKl22wodygZP4frQA0zRRWErxW7uEHllsg4J/8Ar1zdxfXZuI5JmxkjjoCfWugtgNksEO25tZJTJ5bLwDxn8ufzqs62V6beGVFXyyys5GDx0ouA8Ss1squA0Uuc7QWKkZJIx2/+t61NbwRRgW6v+4lTcCT8ue4Pp7VHCwsPOWJJGiaPcgXjbkkZ/A5pkM0UVm4k2vD5ZKsg5Y+gFAyaR4re03XbtggJnBJBJOMn/PSoCginRD5hRkOXV+DjpTIiz28weQEn95HESepwc596uWqBI18xtkj8KnXIPJ/QUgJpdO/tCxjWC4jYxknfHkqx6dRmoo4Y7mV11WJVeBVJff8AxDv79axrhdRhjFvbB44FcAnGC3r+HWr97qbWKLI1tF5hiO1MZ3gkKAT+tFgbRJGr61cKz7pLRXwJPugtngn2qTUxYWby/bGLidEhWGPkA7s5x7cfnUlvZ3LstxNNmHylKwp8oyOaqRKZ7mTULuFDIrERRtwQV6H3zmgCSy0y3srhNqPLLJIXAYEAccVZ/tKcXEtnFFuOACWbgH73PHcEdfSqNzczHUoSR5chjGXUnB/CpLed5ZQYwZFZWO49z/kD8KANN4pJpIrh2iyONnc/SoZrcgyTNGY5psjAJJH9MVklDbPDE0zSS4YJnJC55J98Ut1HefbVJkka1Rm3EN91fQfpQBs26SW9usDoS4k+ZjyMYPI/z3qBLlbmKWFSGtyzRuxPIJ9Pai31KZBFKI2wAcJL2CjofrVM3jhZ7tz5bDO5YwMDJ6UANuri207S4UtefmxtYcZ5yQe/SpLKeE6dP5CeaHBCgjBZjWVIsubhXVX8tg8ag52qT2/U0yNfszOYZ9zgcoT3z2oAuXks15GoeMKEmO0q3XpycVHHJN9uvGmCAFAoeQ4/DH4UlreSW0rSOgw4X58dMdvf/wCtSXkP26BWYrtMuSoHLGgDSaWT+z4ZsMG+UHccgZ6t7ntWetxO+rOfLm+zQJuYM21Oucnt0q5czrJpiNAivGRztb16n+VU4pZZrREHzKgHyg8EHI/E9KkY3T9NWHzvLlSWCYcFm24Hr06Va02NLS+WV7uEsSclm6Z5UAfgaitOYHiaRUZxhQwyEH0qaVSLqOGV43Lf6vdyNwA7dh/gaoRHJdzXl3LNLIxRGKoo6x+lULm4tpVCRhyMkSzFeB1yAMduKuXcz2iP5cJaSXgtt4OO/wCFQ/ZAkMs63G2WZh8oHBbpz9cGhATaHaww3FusxRo45CqSkZ3k9OB25rVl2G+YyLMbjaWZQOBzkk1UuLm7SytvssCZkYRmMjgEdGx9cfpVu9kltpFEKiQu2HIOD7nHvSGK7QvdZi3/ACIZHZhuGcZGfx/nUR+06gqSW8e6J3BZAeueCRnt7GrMULytufJTJfBGPUFT+dZc002k2cNvFuljabdjHT60CK0tu7au6W7RGPfjaBjYMYH1PWtOW0ieO7kXyjMF2GQLkZ7dKqMQ97esuAwkGxUGMggcfr+lV7eG8hvJYEj2xsGBG7gn3pgXbGEW6RIdpd5DHhc52jPv/SpLuN7SAW/mSL8yZT+/83HTp3p1ozTCP7NHIkKISAx5Y7vX14P51ZkjlnZU+1PIOoaVeoz0+g/pQMx0yxe5jWSaecluWBA5zkd6bc20l1AZ1CtdBt578gc9PY1pRyQtFPDJIgjDbV29h2Bp0BuzeZuYEjijG75AMlB0498CgRHcfZNsV06LEPLxKwHysvaoYk/0yNbVgLTHDIeAff17UakrERxCcxW8ihdg6n0ye9TRXi6UZIBCsvnD90T2HC5/P+dMBsTXs0wiQxnnDK4wc+nNSyaZNPchfJwzEtkt904zgn26fjVQ6h9kAyzSrOdoUtyDjkGtu6ka0e0dnLRywFSAcgHjP8j+VJ+QIy7GwisYriOWdcJyTggDuT71HpUskOv3jEq0bIGBVt6j/ZyO9bEt9axWbSyeXhhtRGXBY4rJsrWJpWsYbhjOm0kDoFxwOfagbJ9RjuZZbSWxctANyMqHhWzuGfTt1/8A1UY5byERyzKgeSUKRwo9+P1zV+4muVQRI+2FZwJM8svbjP1qWBYYInhWQOZ8tubpx2J7Gi9hCfamhj2sd6Rozgn+9kcdfQn8jWa6yJcC5NugeSXazB8Er71ctpIdTsbnzlCrHLhCD2xsOPb7x/Gs+OKNNOMFnN9onK568deOvSncC1fzS288LJbx7nbYrycsqjJ4weRz+lV449mqF3gVVRSWIUsspxnAx1IqBrNr9HSSUIsLBhGU+83Q8/Un8q05NOkbUIokVV8sAjHK54HP60ANmhEdsPJtmA2ZBjbOTgfyOaghje6MV1eHbMoXc0eQrDOOR37/AJip7xlsrzdI7Q27EgYOdpyfXvgipkubOGCGdrd2SchAV4245z+lIViC4t5WtQBERtzucEYeP3PrWZMbYiAWzOucSRqx5XHB4H0ravmBaXd8w3B1XJ6dyKrS3mnXax+WrJdZ2iTAyByMfTOD+NMZdkvLaDT3mkDGYgMy7Duz/KsxpEazkETskE8imR3B3BuMKB3FXUFr/aP72USIy4cMcgnpx/h3rOu9Ln3s0LBxE574V1ByMe/WiwGjNGPMt1YNJsQ7Sqcg59emMZ/GqMt6ltdSmNXlGRLCB178/SrCag81xDBbxkmSMnepPDDj+vNPsLZ4BGbki4l6LKEyAMng/SgRQtp7ia1MkkexpNyjZwpPXOavsYFjZ44MgDjjdyBg496jkljiubi2libyxEZIVjJypzzge+amMy2rST2yvJbOQSof7uO+PfvRcY1ZpItjxo7v5ZkMbdcZ5GD7Go5UjnEc8EbKgxKR02np+GfSltjJef6QsiICXABUALggjPfpmnXM32WFG8lCZjjOflz70AKbWzmgW4+0IZIVKn3A7GoVmFwipBPFJIFDhicDr0NQwJmzkdYUR1JDIH689/0otLNLe2eS6YQSKPunJUj/AA5FIC9DFeahJ5VyD5GMR5A/d4/i9jU2oeVH5EhRZAp3OxUHoMVz2v3d82sRw2zsIXVSnln727nP55rQsBcte3W4giKH5EbkO3T+Zoa6gmi1c6mzWcEphLBiMlOME9BTNTtzLFb3RlKzlwgbaCGAxx+v6U0QXkF3HY3LL5Rw7Ip+856fT6U3W95vEnXCRRKCQDjHOAMfSkkFys1vcXEkb6jchJCSkadfYVPo7oLR47eN1iVsB5O578dhwfzqPS0Sa4Y3UHmZcSDB/LH1qeQCKHyw7RBQOO59B9abAc0M0OpwSRSqERhtdskBT16jpT9MMqlrtvKmhldmOCSVycjH51lyXAtpLkOzO0oAGTwi/wD66s2fmxaXIAyhpJsM+cBQcnj86ALsmq3MmoKoaNLBE+f5frzWHNdSpeSiPfLESR0yGP09K3TDapZm2hRWlkAzJIQeAc8DtUBs40s/LctvznJII5+lILGcsj26CbaTHINgcr908cfln86qwabdPfPcoSYlcMG4+UH1rTa3SSbyrdWDRLvyehP+f5VoTXtnDdG2RCvmP8xznJA/lSuOxhTSvFOqyoBuY528kH6VZaxa4VPKmk4JLggKVzx6mn3RtHuo12+ZKzlkOcDPbn2qG0uWtbyWK5mcqx2sQOpPpTSAq710/T1ht/MkuNx3AqcMPUCrtqGl0yWQg5Qh5FaTbwPalsjFfW+6GVWmCbX3KQAQMjH61EL1hbuXjHlbf3gcZ3HODn8/5U2InfT7ufMkc1vhgFHmNyOOBxTrfTneLzZj5cyvgludhA7ZI4p8cVvPG94JhCykMqsPlz/+qmzzW14ySqTO3CnbwcseDSAmuI47W7jM0rEsxEak7kAI5z6Zp+qQ2sdlBOrs0krlnAOAGBwAB15/xqrGsAgvg8krOCJGAHII7elPEbarHDdMnOSm1htC4JOc9+9AD3Z4poLoOG+cII8YCZByevOKmtIbgBBKuJHIlOVyqZ7dfxx2qBLdNPkn80pIZVZYnJ/iPAH6inwPcGedJ5CZHmG0N0Ixyf5UwLMkzos4ikElzIVWNApwTyMkZ9P6U3Ml00Alkkgkh/eMccP65p6TG3LzzGMXKv5K5HzMCcjA+n86LD7Rd2rtbxooHCK7fMAeuf8ACkBXcLcTFbVijWPLF8Kpzn09vr1oaPzjulZGY/Ku05ycZOPWmwH7NqTILbzVCkzoOpYnn69KWaC1eUTQSqkhUmBTjbuz29AKALhke3gCygxxbl2gAYII4/kfzprSJdSIjK0flbsqmPn4+vvTr9mvE+zhg3mYYeuAAcj2wKjaKFLe4aOR2ZwJcD+I9MCgYXOj272SRWfEiOGZT64/lTbTUJvsKu0YVxIVbjDEY9+gqGyLwW32NGaWR/vOnY9TmpkiJUrJxAyMpLcMCSBj86oRDcSWupaezwhpigI3If6dRV6yeKziie4ePC7lXz1GCTgn6DAAGfSs21tBo0TxcuJ2ykq9gfSppNJsrWxMl1P5sgXzYYmO0n6H146e1K9h2FtrPT7m6E1tGdxVmaGQ8A+o96q3s8k2pG5jZjDDt2bjwg5zx79fxrWV1RINUjtlczDbtQ4Jx2qmE8rT7uf5Rayv8oYdQWyPw54/CgRPJH9okjItVmUpvCDPzcgkrnpjiprezjglWe3WNriYDzS5JAwAOnpUUDTWvkyzylrYLhXA+6p4wfxIP0FQWV5LJb3FtPIqs8pwxHJVumPfGKAZHdaU9tqU95D5rLjc2MMjc4xjGR69alvIVDvbwlWiYKGTABX3IqnbXk2kw3EESmSAMVJcEnBB+b8xVmW5WW58+K1DMjqkjE4O3HXFG4LQfHYCytwschDuuXU8BTtwSePf9ayLKeDSLydEAkeQjbzgAemec/hW5qawSQ3jBioeMBSvXHt/ntWbpskd7aJHIkcjKNryMMEr0/Okhshlnlurp2kURiN8TRo2MliSGGc8+3Na9pfmytmld2e3RgJGADH/AGTx6d/pT7qC2cGZrfb5mwM209uB+IFQR/Z5La40goyEHkHO456Ef570xEOq2sWrarD5UjB4cOCWGPc+nTA/Cn2cpntWSchowxjwmeOeT39unetFInMpV5Q5khVQoHfHIHvWXDALXTpYr3fGQw2uO7A5UHvznH5UICwy2rTtp8bStJbsGZt3UdTzUK6Zb+WiwM52KWxIPmJPGCc+u3FU722u4b+2kiWVgFyZAOWB5qS0ukubGxuFmkWd3eKTjkHk4+uaYDLeYO7pKY4WztPy42kHg9eTRdSRLYR+VfyLkhkZVO0AADnnqTmrMWnpKDd3pZG3b9z8CoorT7LbCwndQjts4OdyMcgg/UUAPtROjLeI8SsIydpYAsw9vf61Y+0gWoia5kSSZ8v12q55IB5xn61XurN4JYopFI+zjlgc4/8Arc5qGKEmFonaTY5LkHufUfzoEie9hkBeS1G+YKBg57dcEdKq2oNzcTbA0O6XY0chGeewPQ1Y1CV7fT5Aj7pZE4lU5yAORj2H86S2KhLWLzN00QChB1bvk0hlqAxW8ElrdR4cHnHH0NRSyPdfZg4yjS4VEjypx3NOhvB50017BJ8jE7XGD7AfjmpVilLjJSOTBljCnCkY6GmBBHpbQwO0sq5J+XAIx05YenHTP8qdFPbTXQtnVpXHzEhsL9Of5UzU7mSKCZkkZHUFDjkE8dKp28SWd1HcReY6TkbgV53Y7flSA15I7awtITFkz7fLjZTuK471n3Es9jdNNOo/0iRVhITdswOSeBj71XmgMt3byB8YYkluMD0qtqWyG9eS4uvOYFRGAwABJ4GPwOaALdzcxPf7wYd+VCuDzgenGTVO/idblY2c/ZnQmYsBukLN93+VQXsKfaA9tD5c5weTlBgdPYUt3fussFu1qSzN5nPIUMCB+RzQAMRbxLhhEVXYuxOgxxz6iqyyurW7CZSXP+sIyc57fkKRpmiuUWTcDI3yj0PoasaeVmEcV/CY0MnynG0AdMikBLLZx3i+c9uQHYid89AOQR+VWLO3F5p+6ZYmkJVgAcduCKqC5ePzUtZFkikcRou0n+LBz+FWhNNbWgkRUeZUHyx9M9v0pgUTNBpkUs37zcWOIw3zMxyOTWppGlXesve31u6yW0C7Zlz0Pt74qnfWebOO6kt1lmkZSxBBAx6YPbNV/B/iR/DmvNauCum6i2G/2WqZu0W+w4pykol+Dy7ed3ZgGKEHacjHbP8A9asDTBGJJJpXOWJ+Zudpz1rY8T6TJo+sAQOPstyd6Pn7oJ5rFvbeOK8t7cbSWkySDnK9qVOSlFNDkuWTQ9rKJLeUiUyMDmOTPQgn2561IswQ5KhQGEhDZJBA4PtUnlLBbyuJSZDh4oynbOMn8qWWWIXsBkkjZ50yWweuDwaske8EP2YS2KnfO+ZFj42jP+eKkLSQai8BVXUkHb0yABwPxpsc7XqubMFMKp2xpk8cfhjvU0cEUUAuAS82WRnU5ZRg5Jz68D8aAM/VU+1yJ5LR74n2MoGAwPX8a2IpBHEv2KIJccknGMDg849dtYUM9rNJIwziNgc9yR1/A1oE3lw3nQEALGM5bn738qAI9PZraUoThpcsW6jHpntWgYllE91cvJbi3YbH3Z3JgcY75I/Wq0F5s82K4j80KnVAOPXmrdtfWsdpJJdwkpt8uMnn5uvT6fypDKbRLd3lnJNLK8ckqjaUG1fTntV5ZVieS4vLlfO39F5GR6Y45qCKTzYUAICMzbSDnjtx2OTTbxLC01LdG6MhALxlh8hPJ/pQIkus3Nssl3IqsJASVyCCfu/8C4q4uow2gAcH7TLkKFX/AFj9cU2WO3u0RXiJSRlZXU4UMPX0H+NJNaB7tZJjJ5UXEYCkndjimBj3t1JcahHE0Lxybx5u3gLnP61LfyWcMawwoJhCMHZwQCep9s1PpiyXLhpZVCSFwAR97HXJ7YBqv5CR393JGqsroYsBuAcdaEBbj22FlJeS73MgMaEH5skDt0xVq2j8jZBPLiVYwVRvmLKCG4HrWEuoTRGFYwXKbt4fpj5egq7HJdvqazPscqqhA33ipOT/ACp2Fc0VvYbe2mlMKtLg5I4cYI5FVri/mS2t2ZC6E5UHGW3N36+lV33BvNO0x4ZWJYbmIOBj14xV3y2dYncbSq7dgGeeCPx5/nSGDO93IkXkCOOIjYx6nHVT/kUtzaPNIiXVs0oWTdExYYiOMbc9Txn8qsqkTw25VzujwZOPuj396rahM1zfrFAoRo3wCW6gHGT6feFAEcvnNBNaxyf6xX8pi2CCRjg9KX5fm+0v5e3cgikG4MQR8w/SsedFjnt3eYrJuC7Sp249q171ljslm2SiQKoTcPU/e/T+VMLkkmrxXUaWlpGHJYbo17+vX8Kz7TTTewxT3MvlT2z7C3Rcg85Hv60n9lpbiO9tpzHKzGQmQ4Xjn8KuXivc6kk9uxhgLs0g4OSeeQT70MC5Pb41KKRiI4TlFLcZLHPH/fNUNVgkW6VraRmuSY1lG8+g4pt7cz30Vu6bvs8LnchPP4fkKfbXmVjnS2NwnV2QZJx3zUoBjSIl0Lefh5U28NnYp4798k1Sj0qSw1BEt2UW8B3/ADHkkjjnHNW5BBe3cmplSjuB8pX5VA68/nVVLG6v7lniuudylMggbfWjW4y3Jdm7tlniSVJElAnjYYZxyOB36D/CrNxPaTWktzb2ZN2iFdx+U4A5HpnH1p40+5OkSf8ALYxN8x3AMTycZ9eaIFkjfc6gJEgYp0OTzj36UagSafrEV5LLHcO8Ksnmov3sn2Pp1plgy3kEizjzUMh8oZBzxx29qrT2cF1PJHbFI/KjXaQfmXn7p/SkvbhLQQCSIq8AUZBwj7m2kZHfkc1W4jUknfy447WNSQMKrKMiqUWlWaQrNv2bVLMwHPXB5/AcdOPaq8+sfa9RZGHkwxAq8vfPTkioLtJhZBLMGRIyDgP6n/H+dAmW54nnszBA5aB1bJdRl2HIHt9apw2pe6S51CEmIIVVGJ3Ljj9cZ/Gr8F21tp8ZmidCG+dGGCOOtRz3cgka3P7zkypIx+Ugk5A/p+NMYxZbqG+S2ibMQQyb5V5ZcH5eODj3q80Nw4D3EQCliGiBALHt0PHGKxdMmczSyiTeW+UFuCPmHb861pr1opvszoTIJSZJif0qQILXyr0SRTr5TKGXaDjaB6+/PWnukMGqJOJEiWIAeZ13gjA/Ee9UP7Rge+k3QSmSMncy4xtIAO79PyqxLAINPklLZVDjOcgimwHT3Nxb3UlrgSxzrvD4yuAcc/lmmwyzNA8906qbfcgCqBuBHTHeoIrqI6XIEjbyzn5jnKnjkVYuJBFYyyu7Osm1doAzg9aSQEc04m05y0kc0MwBEshyAwOMDJyDipEguLZwrRoyAbonMmcntjHPFV1OmS28cX3EnAUq38DAYPT6VeRITLBEsgLohVWz8pODx9cU2I//2Q==;" vertex="1" parent="WIyWlLk6GJQsqaUBKTNV-1">
          <mxGeometry x="11" y="265" width="108" height="108" as="geometry" />
        </mxCell>
        <mxCell id="7nktpoWmSJB2hKpg8rUV-6" value="6 0.1796875 0.9866071428571429 0.022321428571428572 0.022321428571428572&#xa;1 0.7589285714285714 0.5982142857142857 0.08482142857142858 0.1640625&#xa;6 0.5747767857142857 0.39732142857142855 0.011160714285714286 0.012276785714285714" style="text;whiteSpace=wrap;fontSize=7;" vertex="1" parent="WIyWlLk6GJQsqaUBKTNV-1">
          <mxGeometry x="130" y="260" width="70" height="30" as="geometry" />
        </mxCell>
        <mxCell id="7nktpoWmSJB2hKpg8rUV-20" value="" style="edgeStyle=orthogonalEdgeStyle;rounded=0;orthogonalLoop=1;jettySize=auto;html=1;" edge="1" parent="WIyWlLk6GJQsqaUBKTNV-1" source="7nktpoWmSJB2hKpg8rUV-12" target="7nktpoWmSJB2hKpg8rUV-5">
          <mxGeometry relative="1" as="geometry" />
        </mxCell>
        <mxCell id="7nktpoWmSJB2hKpg8rUV-22" style="edgeStyle=orthogonalEdgeStyle;rounded=0;orthogonalLoop=1;jettySize=auto;html=1;exitX=0.5;exitY=0;exitDx=0;exitDy=0;" edge="1" parent="WIyWlLk6GJQsqaUBKTNV-1" source="7nktpoWmSJB2hKpg8rUV-12">
          <mxGeometry relative="1" as="geometry">
            <mxPoint x="170" y="370" as="targetPoint" />
          </mxGeometry>
        </mxCell>
        <mxCell id="7nktpoWmSJB2hKpg8rUV-12" value="Input" style="rounded=1;whiteSpace=wrap;html=1;strokeWidth=2;fillWeight=4;hachureGap=8;hachureAngle=45;fillColor=#1ba1e2;sketch=1;labelBackgroundColor=default;" vertex="1" parent="WIyWlLk6GJQsqaUBKTNV-1">
          <mxGeometry x="70" y="410" width="90" height="30" as="geometry" />
        </mxCell>
        <mxCell id="7nktpoWmSJB2hKpg8rUV-18" style="edgeStyle=orthogonalEdgeStyle;rounded=0;orthogonalLoop=1;jettySize=auto;html=1;entryX=0.5;entryY=1;entryDx=0;entryDy=0;" edge="1" parent="WIyWlLk6GJQsqaUBKTNV-1" source="7nktpoWmSJB2hKpg8rUV-14" target="7nktpoWmSJB2hKpg8rUV-17">
          <mxGeometry relative="1" as="geometry" />
        </mxCell>
        <mxCell id="7nktpoWmSJB2hKpg8rUV-14" value="Output" style="rounded=1;whiteSpace=wrap;html=1;strokeWidth=2;fillWeight=4;hachureGap=8;hachureAngle=45;fillColor=#1ba1e2;sketch=1;labelBackgroundColor=default;" vertex="1" parent="WIyWlLk6GJQsqaUBKTNV-1">
          <mxGeometry x="570" y="410" width="90" height="30" as="geometry" />
        </mxCell>
        <mxCell id="7nktpoWmSJB2hKpg8rUV-17" value="" style="shape=image;verticalLabelPosition=bottom;labelBackgroundColor=default;verticalAlign=top;aspect=fixed;imageAspect=0;image=data:image/jpeg,/9j/4AAQSkZJRgABAQAAAQABAAD/2wBDAAIBAQEBAQIBAQECAgICAgQDAgICAgUEBAMEBgUGBgYFBgYGBwkIBgcJBwYGCAsICQoKCgoKBggLDAsKDAkKCgr/2wBDAQICAgICAgUDAwUKBwYHCgoKCgoKCgoKCgoKCgoKCgoKCgoKCgoKCgoKCgoKCgoKCgoKCgoKCgoKCgoKCgoKCgr/wAARCAHAAcADASIAAhEBAxEB/8QAHwAAAQUBAQEBAQEAAAAAAAAAAAECAwQFBgcICQoL/8QAtRAAAgEDAwIEAwUFBAQAAAF9AQIDAAQRBRIhMUEGE1FhByJxFDKBkaEII0KxwRVS0fAkM2JyggkKFhcYGRolJicoKSo0NTY3ODk6Q0RFRkdISUpTVFVWV1hZWmNkZWZnaGlqc3R1dnd4eXqDhIWGh4iJipKTlJWWl5iZmqKjpKWmp6ipqrKztLW2t7i5usLDxMXGx8jJytLT1NXW19jZ2uHi4+Tl5ufo6erx8vP09fb3+Pn6/8QAHwEAAwEBAQEBAQEBAQAAAAAAAAECAwQFBgcICQoL/8QAtREAAgECBAQDBAcFBAQAAQJ3AAECAxEEBSExBhJBUQdhcRMiMoEIFEKRobHBCSMzUvAVYnLRChYkNOEl8RcYGRomJygpKjU2Nzg5OkNERUZHSElKU1RVVldYWVpjZGVmZ2hpanN0dXZ3eHl6goOEhYaHiImKkpOUlZaXmJmaoqOkpaanqKmqsrO0tba3uLm6wsPExcbHyMnK0tPU1dbX2Nna4uPk5ebn6Onq8vP09fb3+Pn6/9oADAMBAAIRAxEAPwD8e4O9SeR71HB3qSvmz9EHw/678aXyf3tEHerFZgEMNWPJ/e1HB3qxQAQw+VVio4O9WKAJKsQ/6n8KjqxD5/lUASQd6uQd6rwd6uQd6ANCGHMsdbGm3nk9Ky7OHtWpZw/8/EH0oCpsdBo+pf6V/wBcq6j/AITC+8qMTwR/9sa5PTNNnm/fwV1Gg+Fb7Uj5H2eTy/8AntWh5tU2NH8YTw3X9q2MEctx5P8Ay1h/1VdpD/wkeveHPPM//H1+7hh/5Zf8tf3v/XWsvwf8Jb6bUI77VdViiji/1PnQ19AeD9H8D6bYRz+fbXNxF/rvslBw1Txv/havjHw3ax6VqulS/aJYfLhlhh/e12Hwx1jxHqVhcX2uarFe6hFDFHD9r/1VdZr3iTQ/tUc//CARSxxTfuZqj8VeG/Bv2/T7/wAOWNzZXEUPmeVDDLL5v+f3VBz/APL46jw34q8ValpccHiPQ/sUn/Pa08ryq3PJns9ZuIP7KkkktfN8m78muX0zUr7Qb+Ox0rSvt0kvm/Y/7Qs/KiqxZeJL6z0bz/GXm20d1D9p8r/lr/1yoA7Cz1KfUtGt/wDWy3Ev7ub9z/qqr+JP7V0G68jSr22to5f3n77955tU9HmvtT8Gx3+lT+VHLD5kNWPDdnqumxXB1yxi+z+T/wA/n/LWgCvNDB5UY8+L/SryWObyYf8AW1If9VJPP5tt5v7vzpZq3JvDcGpXUf8AxI/Nt/O/cyxTf6qqep+RNfx6HPB9ms/J/c/6397QBHeWfhvXvC8k99fW1tHFN+5+yTeX5Uv/AFy/7+1n6brGq+GtL/c659p+yzf62b97L5UtdBN4Pg03y9Dngtr28l82O8u/+XXzYqkvLPw5Da/uLHzZIv3n7qz8yKXyqAI/O83VP+JrPbS+bD/rYYf9V/0yqO80yC8uvt326Py/+ePk/wDoqrnhrTbGzl/4RzQ5/wB5aw+X500P72s/WPIm+0QQar/pnky/8tv3sVAHB6lrFjpus3mhz6VH5f8Aq4Yof+WtU5rzQ7OLyLGe58zyYv3v/LKug1jw3+6jn1WC2sZPO/c3f7r97/5FqneTQaNf/wCg+HPN+y/u7z9z5n+t/wCWtAHL/wBg6rqXmeRB5kf+s83/AJ5Vc0fwrofmyWP2GX7RF+7+1/62KL/PlVof295N3JPbz+VH5Pmed9jqP/hJLGa6uPI0vyvKh/czfvYv3sv/AD1i/wC2tAGXeabpVnNcWN9fR21vF/y1/wCetaH7/R7/AOz6HBFc28X7zyopvN/7a1sXmgwHT7P7R/Zt9cf8sZrSGq8Omzzap+4ni8yWHzJoYpv8+VQBJZ6bBD5k/wC9kuPO8yGGaGLzZfN/1v72o5ryx1iK3sb6xufLtZv337n/AFVXJpre8uo7CefyrOKby4ZZf+Wv/TKo4fDf9g2v2Ga+ub3zZvMh/c1oZlfxJ5/lWc99P5snk/8ALaH/AFtrF/yyqv8Av7y50/Vb6Cxjki82P97/AM9f+WVWJrzwrPL/AKR5VtJF5sk013/11qSz8H6VqVhb/Yf9JuJYf9b/AMsoov8AllQBXmnnvJby+g1aX7ZFN5kPk/6qtCHUp5r7yNK+xRRywy23lTf89fKqv/Zt9o8sn7iW28qGKObzv9VLF/rf/atammzfbLr/AJBXm/8APa7hhoAp/wBmwWdhb2NxpX2m4i/dTf63yvKrm/ElnfWesyT+DdVtpZLWb9zaRTS/63yv+ev+f9VXWaxrMFn5d9ZfvY5Zpf8AltVfTdS0PTdUt77xHYxS+b/qfJh8qL/P7qKgDn4dC1XUte+xfYZY7OLTfLmlu4YpP3tGm6PBN4oj+3fvY7Cb/Q5vJqxrHjzxHrEtvBpP2aK3lml86Kb91L/2yqvqV59s0u3+w30kf+meXNDNN+9oAjs4bCb9xY+I7aOTzv3NWNH8K2M0sePMvryL95/rqjs5oJ/tGlWP7uS1/ef6mpIZr6zu5Pt2q/YpLr/U3cNAFzUvDc8JuJ5z5UcU37n/AJ5VX1Kzvp7WSeD7NJHazfuZvO82rk3/AB4XGh6r5UUnk/8ALabzf+/VSWej6rNF5E9x9m/6beT/AOQqALGmWeqwxRwT+XLHLD/rvJrP8SWelaba+frkP7yWaWSbzv3nmy/+0q0NB1i+0aG4nvtctrmSw/eeVF/y1i/1VU7zxtfXkUn27Q4vMlh/fXf/ADy/6a0Ac3ZQwaxF5A8u2j/54xQ+VR/p00smlQX1tH9lml/13/x2us1LTdKhuv8ATr6LzPJi/fQ+V+9irm9S/wCEV/tT+yfI8r/rrQBh6x/ZVnFHBqvm+X/z1/1n+f8AllWPptp/osd9P5dt++/czf6z91WxrH9h2d/H/awkjjl/1MPnRf6LWoIdD1iLyPDk/wDo/k+XNNFWgH5P1Yg71HB3qSDvXOfWEkHerEP+p/Cq0P8ArvxqzB3oAkg71JUcHerEHegA/wCWtWKjg71YrMCSDvViH/U/hUdWLOgCxB3qxB3qOGGrFnCfNoA1NMh86ug03TZ5pY/It6x9H/1xrrNBs9V+1R4n/d0AbnhvQdd83/QbCWS3/wCuNeqeG/8AVR/8U35v/XWsPQfGGlabdf2Ve/8ALX93+5roNN8VQaDF5+q31tc6fF/yy8797QcNQ6Cz8K6r4ki8++vpbazim8ubyqy/iRrEHw9urex8HX32m48n99Wxd/GD4czeEpNK0OxuY7iWH/XeT5tcf8Pfgn8TfiF4jjn0OCWWO6m/4+7uH91Wh5tU0LP4qeP5rD+yvEcGpSyS+VJD50P/AE1/1VeqfD3wT448YX8eq67Nc+XFZ+XDaed5cv8A21lrqNH8K/CP4Y+I4/hl4j1ySXxBL5Xk/a5pf3X/AFyruPDegf8ACB3Vxoc/9pXNvL+8m/tGHzf8xUe1M/Zo5f8A4VjfaDf2d9/at7LH/q4fO/5ayy/89a1PGHgrRPNuLHXJ5f7P87/Q4opvMrrP7NsdS0X7DocEcscs3/H3NXH/ABIm1yHzJ9K+zS+bDFJ5M0NZgYdn4b8OQ6XJpVjPJ9ni/wCetn/y1/1tbmg6PfQy3F9B4j82OKbzIdPm/wCeVc/ps32yW3gh1yWOSX/j8h/9pRf9Mq3LOHXPDeg+fB4cudSuPO8u8lmm8qgDrLPxhcf2XceHND822vPscv76aH/lrVOGy1W8sI9dgn/0fyfM/wBd/qvKrP0HTYLyX7dPpVzZeVD5kMMU3/PKjTbux/t6OCfXJbb7VN9mhi8mtDM2IdYgh0u3vp9K8ySWb/v1+6qOGaD95PY6VF9olm/fTf6uWKKpLyafTZfsUBuZY/O8vzfJrL8VeG4NHl/ty+1WXy5f3fnRTf6qgDU8E6n5P2iDVdc/1sP7nzv3f73yq5PxJrEH/Hj5Hmyed/yxqSz+3aD5dhf2Mf2e1/eeb/y1li83/nl5VR3k0GsRWc9jfXumx/vZJvtcP/LL/nr/AK2gCnrE1j4w0aOC+gjuZJf+Wt3/AMsqz4dB1yG1/wCJ5/o0cs3lw+dXSa9Z6GZZJ/3flxf6NN5U0UvlVX02GfWLCP7d9i8u1m8vzZf3v/TWKgDm4YZ/7GuIIP8ARpJZv30P/PWtTTdBsdYl/f2Mlt5UP2mbzYfN/wCmX/tKuo/seDR7DGlT+VJ53/LWz/7+1j/D3Xp/t+sWOq+VHJLeeXZzXcMv72KgC5DoI8q4vtD8ry4v3fled/yyo02HQodP8+f91J/rJooT+6lroP8AhFftnmTX1j5ccsPlwzTVHeeD7Gzlk0qC9tpfK/eTfvvNioA4sf8AEy1SSfStJkubeX/RvOl/1UUUtSaaNK0G+jn+2xRfavNkrpLPR/Dn7yeC+i+zywy/8tv+WtU7zQZ/ElrcWNjPL9ni8ryf+mtaGZjzeJPDmpX8lhPpX7yKGXzvNs/9bF5sVR2esW8MVx+4jl8qby4YoYYv3vlVY1LwrqsHl6rP5sUfky/vf/aVZepaDrmsRWfkT23mWvmyXl3p8P721oAk86x1OwuL7z/9ItdS8yG0u4f3sX/PXzakh/tWa/j8++/eXUMsv2T/AFcv/XWKi8hghsJJ/Jikjlh8zzrubyvKrL/t6C8v47ixn8z9zFbTQ/5loAjh0fSv7Zjg1WeWO88mX/XTRfvauQ6l9sEeh3EEUdv5P/LGH/0V/wA8qjmhsYYY/t37qSWbzIZv9VVOzm0qaaS+gsbmOOXUv+e3mS/9sv8AVUAaH9m+HJrSO+t7CKW4im8uaab/AJZVTvIYLy6jsdD/ANZ5MUn7n/VeV/zyrQs/+Jlo1x/Zeh/vJZv33nQ+V/2yrL1i7vvDfmQWNh+8im8uHyf+Wv8A36ioAjm8N3wljEGlXNtcReb+6hm8qLyv+mVFno+hzapHP/avm/ZZvMm/56y/uvNoE2raaPP1zXIvMlh8uaab/llF/wBdax4dS0qGK81z+3LmO3i82OH/AJZxf9/aADV7OfQbC8vtc/eW8s0tzDNFN5X+trY03Uv7R1TVNK/tWSPypopPJ/1v7qpBqV9rHhf+1dKgtpbiKH/UzQ/upapzQ65eeJI9V1zSoraO6h8yaaGb97FLQBqeJNYh03S49Vg0qKT/AEP7TNFFZ/6qiHXv+EqsI57HQ5YvK/57Q+X5sVGj3mh6x+/0qfy5JYYrbyv9XFL/AK3/AKZVYmmsTF/r7b7ZFD5cPnTUAcn4k02fUo7jXJ4P9H+2fuf337ryqy9Bhv8AV/FH2Gf7TLHL+8hmmhrsJrOCb7HPBPF5cX7vyZv3sX/LWrn9pQfYJIL7SrGO3/6/P9VLWhmYfiTQbH7V9v1yD/WzeX/11rLs/Ctj4bi/tXSv3sktdpe3kE1r5F99ml8qb/VedWf/AMJXof2WPyP+Wv8Ayxhh82L/AL+0Gh+RcHerHke9R+R71JB3rnPrA8j3qxD/AKn8Kjg71YrMCSDvUkMNRww/vasUASQd6seR71X8n97ViDvQBY8j3qxZw9qrxQ/896uQw+VQBYg71Ys6r1Ys4e1AG5oMJm/19dRZ3nkxcT1h6DpsE0vNdBD4cvrz/UQfu6DKqR/2xfXkv2exgllrvPhv8Jb7xtf299e332azl/10t3WXo/gnVdNmjnng/d16BoPhu/lis/Pvv3f/AE1/d0HmHommfDf4c2d3HPfa5YxeV+6m86vSPB/j3wBDo39laTfW19JYTf8AXKL91/y1rx/XvDdjrEUcGuT20ccUMUfm12HwZ1LwB4JtZIM20kf+sh/fUHPVPZPDej/DnxJpcnjjxxoVj5nnRSQ6j5Pmy+VWpr2saH/y38R+VJFN5nk/63za4fXvi14O0HQbi+vriSX7VN/qvO8yuLPxIg8YRR+HfA8EllqFrNLJ5X2PzZZf+uVBmeyazr2labfx6T5Eskl/D5k32T91Wf8A29Br37+C+iit4vK8nzYf+/stYfhu88Y3l/eQeKtVl+zxQ+XNafY4o5f9V5Ved/GD4Y+OPDdrHqsF9ffZ7+aXyfO/5ZRUAeyaboOlabDeX0H2G5uJZv8AQ7vya2NB8B64bCSDVZ5f9Km8yaKb/lrXg/wl8N/FTTbCT+wxHfRxQ+ZNDdzfuq9A1jXvjvo/wvk8RX3hW2ikim/ffvvN82gzOo+IVnP4b0uO+nuLm2jlh/4lsP8A01rj9Y+DP72TxHquuXtjeS/6m0hm8z97XFzftR/FSD7HpP8Awg+kRfvv9Dhm03zZa9As9Yg+wafrniq++xSRfu9NtPOljli/66xUAakMOlWfmfYtcuftF15sk0Mv/XL/AJ5f9taks9Ssde8Ofv7G5ikuv9G/0uHyov8AW+V5tcP4q+BvjHxtYef/AMJ/JZR+T+5h86WStTTvAd98PfBtvY319c31xa/u/wDj8l/exS0AbGpWek2drHpWq31tc291D++8qH/W/vZf9VVeHQZ9Nlj/ALK1WX/hH/3vnedN5VZ//Cq/FWsRR6tY6tLHp/nfvrSWb/prXSeKv+JD5kGk2NtF5v7uaWa8lkoAz/GGmX2m2EkF9BcyyRfvIfskP/LWj+zdV/saP+3L6Wxkupv33kzf9Mv9V/5FrUs/7cs/MOq65FLb3U0X+l+TF+6i8r/llWfo/n2fiOO+0rVbm+t5YfN8qX/lr5tAFz7Z4chit7GDVfKksLyLzvOqTxJNPqUvkfbo4rfzpfO/c/vax4YdDmluP7Vn+xRxTf66GHy5Zaz4dS1zTb/S9KsbG91K3ls5ZJjN/o0sXm/6r/rr/qq0A7TTZ4JvC8djY+X9ol/d+d5P/PL/AJa1n6xqU8NheX0F9bfY/wDWeTD/AMsqr6ReTwyyWM9x5Xm/8fk0NSf2boepWEcFiY7aO6/eebN+7ioA4vUvjNY6ldyWOq+HPL+yzRR/a67DQdY/tiw8+xt45I5Zv3Plf8sqx/EnhWD7V/xPNVtpI4vKj86WHyqp+FYYNSl/sPz/ALNbxTf8sZv3taGZ1niq8/4kMdjNff8AHr5Un2T/AJ61l3sMH2CS+M/leb/yx/56/wDTKtiGGezm8/Vf9Jjih8uGGGH/AFvlVT8VaxY/arc6t9mtvN/13lfvPNoAy4dB/tiwjgg/4+Lr/U/9Mqr6b4OvtH1n7Db3EUkfneZNLNDUl5Z+I4NekvtKntpLeX/jz8qHyvKos4b7TfFvnieL7RdWf+u86gDH8baD4j0fVMWNjF+9vPM8rzvM/dVqWejzwxW+q+f5skXm/vrub/W/9sqz9Sh1WG6jnvoIpZPO/wBdL+7li/65VYmvDqXhzyLG+8y8i8qSGL+0pf8AWyy0AXNGm1yG/jgvtK8u487y5v3Pl/vf+etZfim8+x6Xcf2pofmeVef6H++/1ssv72Lyv+/VWIZfGMGjXHn6rHHJFeeX++/ey1cs9B0u8/4mtv8AYfsd1/yErTzvNi/5Zf8AkWgDm/7Nns9Ljnn8zUrfyfM8mGb97+9/5ZVJo+j2Nnd/2V58ctv5Mv7nyfNi/wCuUtbl5o+q+bH9hsfK83955s3/ADy/5ZeV/wBNa5/WM6bf/YYNVubb9z5d59k/5a/9MpazAp2dnY2eqWdjpVvH+9/eQzeT/rf+utXLyG+mlvL7XP3nlfvIf+etR6bDpV5rP/Lz+9m+zeV53l+b/wBNYqPDesXGm6XJB/ast7HLD5c3nTfvYov+ustaAGg6PY2csniOxnisbeXyo4YZv+etXNYs77UtUuLH7D5Ufk+X50U3mVHZ/YZr/EOhS+XFNFJ53/PKWL/lrXQQ2cEP2i/8/wAr/lnZ+TN5f/o2gDn5pr7QbW3gnsf3f/Ln9rm/7Zf+1asQieawuIJ7f95/rJtRu6k1KH+0rXUNc0mf7TJF5UcMU37yqem6lqt5FHbwQRfvf+WP/PXzf+utAGh9st7wSX19/o0cU3lzTQ/6qWub1iz/AOEkufI8K2P+th/1v/PWti80GDR9Ljgt/Kkkihi86abyqz5rPyYv+JV9m+0Ws376H/V+bQZn5Lwd6sQd6j8nyqkg71zn2A+H/XfjUvke9RQ/678as0AEHerFRw/vpc1Yg70ASVYh/dVH5HvUlAFirEHeq8HerEHegCxB3rQ0zvVeDvWhpsJ83mgDpNBh7muw8NzT+b/r/Njrn9Bg/wBXBXWWdlb+V+//AO21BlVOw0HXvK0byPI82SKb99VeHxtrmpXX7iCWKPzv9TVOzg1XTYpP7K/1ktXPhX4b8Y6xrNx/asNtFb/89ruimedVOsmmn8SaXHBodvFHcRQ/vpv9ZXP2emmCLz4PtMvlf67/AJa16Z4D8B/2Dr0f2Gx+0x3U3l/6n/47XqHiqz8HeG9Bk1XVdK/0iKH/AFM03/kKg5T5z8N6b4x8SeI47HSvK/10Uf8A1yr6E8K+CvFWjy6f/ZV9ZXvm/vJruLyovKl83/nrXi83xy0rR9Zj1XSvDnlyRTf8tf3v7qug+Hv7S3hWzl+z6rocv+nzfvtRhh/5a/8AXKtDM94h1Hxzef2hbz6rFHJF/qf3P73/AK61Y8Kw/EbXvLg8fi2udPihrzPXv2rp4Yre+0PSo45PJ/5e5vMil8qvSPh78QtD1jwv58Fjc/6VD5l550P+tli/5ZUAXIf+JPrMl9pWlxxafYTeZeTQ/wCqruJtH1W8ikng1Xy45f3cPnf6qX/nrXn+pTX02l2994cgtoryK88v/S4f3X/LL/47XSXupa5r1/HBqsFl9nsPN86aLzZP9K/5axVmZlPxv4Jvp/L1XwrpVtbXEU3m/a5Yf/RVcX4k8Ez6ja3mqTwfbtQ8nzIfsn7v7VXpFn4q0K8tdUgvYJI7e18qOz83/VXXm/8APKpDD4V1Ka8n0qe++0WEPl+VN/qrWgDzvwrqU8HhKPxVfWN7beVN5cNpNN5sssX/AFyrqNA+IXhy8F5/xTl9FcWv7uaL/nlVjR/Dc/2+4vp9c83T7r95psX/AC1/5a+bFVfXtN8R3lrJoelX0dtHL/pM2nWkPmfuv+eUtAHSTax9slkFjPHLHawyx/6J+9/e1h/8IrB4kv7e/uNci+z3X/LXyf3UX/XWsvR5tcvPs+qz+I4/9Ph8ubyofLlii/5ZVqXvkaBoMd9BfSSRy3kVt++h/wCev+toA5/XvDfiqbWf7D0uCL7Ha2fm/wCu/wBbUcPkTXf+j6rF+6/d/uf3vm/6r91/5ClqOz/tWa6j8i++03H+rh8391/qv+ev/TWsvxheX0MsmlaVqt9/aEUPmTfZP+Wv+q/5Zf8AbWtANTR4P+JDeX1jocslxa3n+tu4f3tWPtk+pWtnqt9pUljcXUP77+0IZY/Krm/Desar48NnPrk/m3Fr5vk/a/3UtdBDZ6rNLceI9K1y502P91HDF/rYoovK/wCmtABr2j/8SG3/AH/2a4upvL/czeZFdVl6DqVjaXUlj4qn+zSWHlSQ/ZJv9VW5qWsf8I3YSQX19c3tv/y2hh/debLVfwrpuh6ZcyaVB5Ul59j8yG7mh82L/rlQBh69pt9r11caH5/2mSXypPtcv+ql/e/8taj0HwfY+FdPj8+C2ik/55ed/qqua9ptjea/9i8OW/lXEUPl3kMMP7qX/nl/5FrPmsoIbD9/Y/aZJf3s3lfupZaDMua942vrywt/Dl99psZPJ8zzf+mVaEPhvSobCO+vvs0tv5376787/lrVPwro9jZ+Eri+8OfabaO/mlkmhu4f3v8Aqv8AP/fqqY1LVdHv4/7V1W58yLyv7Nhlh/dfva0Aj8VeJJ9H0aPSrGCLzPO/c+TN5tGm2d9puqf2VNfWUv2r/XTf6zyv3VWLObxVDFb/AG8yy+b5Uf8ArvK82L/Pm1YOg2MPl308EUl5dQ+XeRQzfupYqAOT1jQftkVv9hni8z7ZL5P9ozeV+6/7a1n3ngPXLPS7fVfDmqxfaJZv3377yvKl/wBV/wDGq3NN/wCEV8VXVvqs/hyyiksPN/0SWH97FL/11iqTxV/bmsRR3GlWN9c3FrNFJNp135UX7r/nrQB5n4Qm+MWpeLfI8f6VJc28X7ua7i/d+VXqn22wm8uCDSo5Y4v+W0U0X7r/AOO10kHgm+mik1XVbGOS4lh/4+4v9bF/21rn7Pw34chtZNVvrH7d9lh8z7JNN/qpfNi/+O1mBc/s24mv5NV0rXIrm4lh8yH7X/yyrn7yaeHS7eCCe2ij879zN/01/wCWtdBoOm+HNYlkvv3vlxQ/8sYf9b/0yqnrGvX2mWseh6V5VtJ9s/cww2f7ryv+mtAEdnoOlanYXGuWMEct5Yfu7PyoZf3VZfg/RxqV/eQfYbb7H/rPK87/AFUtakMNjpv/AB/XFzbSf8sbSGb91RZ3nnXV5fefJbR/6y8mmh/exf8AXKgCP7ZPZm48j/V2tnLJ50v7z/tr/wBNa0IbP+2NPj/tWeWPzf3k0M1n/wAtaLyHXLyL+yoNVvYvtVn5cMPkxS/9sv8AVUT+fo/hu3t59ViuZPO/0zyYfKrQDP1jw39j1S41SxsfsUfnf8uk37ryqNNhnm/0GC+ii828l8mX/p1rQ/4SS48r9x4ckvvNm8vzYYf+Pr/Pm1HNqX9sRfYPsMcX2r93NNaXkvlReVQBl+JNBvtY1SzsZ5/+PWH/AEz7JNFVfxhrGlQxSTz6X5dxFZ+Zpv8A01qObWPtmqSWGlT+VHFN9pm+yf8Ax2g6PqsP7+fVbnzP+WMMt5/yy/zLQZn5Hwd6fD/rvxpkMNPh/wBd+Nc59gWIf9d+NS1FD/rvxqzDDQBJDD+9qx5HvUcMP72rHke9AB5HvViiGH97UlAFiDvViGHzajg71Yh/6YfhQBYhhrYs7OeaL9xWfZw+dLkV1Gg6bP8A6iegCxo+fN/4/v8AVV6J4P03SppY9KguPNuP9ZNFLNWP4b0Gxm8yDyIvM8mu48K/2V4b0+S+1zSopZP9X+5h/e0HNVOo1jwHocPheOe+8R22m28s3/H3NNWf8K7zwPpus6hB/wAJF5mn2H7y8u5f3dZfjDUoNY0Cz8jQ5f8AQJv3MWow/upaNB1j7ZLcWPn6Jptxqn7uaGbyoooqDzam59EfB/4h/DnxJYXn9h+K4v3Xlfvv9b5v/XKus8VWfhz4haNJof8Ao32yLyv3P/PWvmvTf2V4NY1W3g0r4jeVJLD5fkxTV9GfCX4D+FPh7Fb6V4jvr6+1CL935sM37397/mWgyqmX4a/Y/wBK8VeG477XJ5YpP3scMMNn+682uXh/ZvsfAd/9u+3X1zbxf66GXTf3Ve2Xmsf8I3a/YfB1jFfSWt55fk3c3my2sX/PXzauabqVjeSyCDVba++yw+X9k/6a/wCfKoOc878E/s3+DtShkn1XQ4pZIv8AUyw3ldJZ6P4c8H2smlaHBJ5dr/028397W5eefZyx32qWPlSS/vIbS0m/1VYY/wCE41K1j1XVfDkUcf8Ay28n/Vf9daALlnpvnRefYQ/ZpLqH9z515/y1/wDIvm1YvLzXIdLuPCtjpV7fSXUPlzTWnlebFLL/AMtaseCfDcFnoNuLHxHfalb+dLJNd3f/AC6+b/yyqwNNns/F0f2Cx1LzNUh8uGbyZZfstAEej6ZBDF/ZVjPLFJ/Zssf+l2f+q/6a/wDkLyv+2tbmm+R/Y39q65B5cn/Lb/VeVdS1H5OlfvP7cnlk8qHy5v8Alr5UtYepeFf+Ek0v+1YL7zZIof8AplHLFQBn6x4ln1ia40ODzLKS1hikhml/d/aopYov/IVR6PPqlnFJBfX1tbR+T++u5of3vm/9dYq0PEl5Y6PLJPP4c+028sP7mab/AJa+VF/qq5fTdYsdeijvvI8yTzvMhh8n/wAhS1oBqaDqU+m2t4dKsbn7R53+pmh/1Xlf9taj1jxVrk/7jVfNjktYfMmtPJlii/1VY94J/wDhKJNVg+xWXlf8sZpv9bL/AMta6SzvJ5o7exn1XzJJf3fnQ/uv3UX7397LQBl3kN9NLJfTwSRafL+7mmtP3flf+Qqjm0G+mv8A7dYTxxXksPlwy+d+6i83/P8A5Cqn49/4SvWYpJ57G21K8sP3kPk+b5sv/PL97VzwrN4jm0a4voJ/sV5LZ+XNaXf/ACyl/dUAV/8AkA6z9gsbf7bcSzeX5U3+q/6a+V/y1q54k07XdBupPsOhyfZ7CHy4f33/ACy/7a/vf+WVWNH16+mtdQsdKsYpbi1mik+1/wDTX/nlFReQ315FJqt9rn+q83/plLFFWYFfRob68+z65qs8Uv8Aqv8Aj7vIvN82pLPWLGGK31W38u+82Hy/+mvm/wDPL/W1T1KCfR7r7dffab6OKGKT7X/rfN/1VEMPnX8k+lX0X72aK5h8r/Wy/wDTL/tlWgEesaxpWmy3mlQaHfW0n2PyvN87/Wxf89aNNGuTy+f4jsdNtpLWGWSGH/2rWhqUN9e+KJPEelQSW0nky/8AH3D5sVrFL/rfN/66/uq5uHTb7WLWSf7d+7ihl/0SL/nl/wA8vNoA6i88VeHNBit59cn/AOWP+mWl3Z/uoov3VSalZ6Hr11Z31jq32m3uofMh8n/nr/0yrm/BOsarZ395Y6rY/adPurP/AFsP73ypfNuv3X/XX91Wf4k8YWNndfYdK0q5tvst59pmhlm/e+bL/wA8v+mVaGZqQ6DBZ6pcQeI55f8AUxXPnTf9+vN/8hVY8mxs7WS+0PXLa+jtYfNs4Yf9bay+V5X/ALVqPQdY/s3S7jQ76+kl+y+V5N3D/wAtf+uVR/8AFOXkUmqefFLeRf6mKb93La0AR6b/AGVpus3Gq2/2aWSWGKP7XF+9iiirn/EmvaroN/efYZ/9Il/eed5PleV/5F/1v+qovNB0rWP7QvrGf7DeRTeVN+5/5axf88oqueG5rHQZfsM99J9o/wBZN/of+q82WL975v8A39oAP+Fnaro8WPEf2n7HdQ+XNN53m1qQf2VZxefquqyeX5P+pih8rzf3v/PWsO88N2Mws/Pn8ySKH/Xf6zzf8/8APWjWLzw5pt1caV58Vt5U3mf9OsUXlf8A2qgDsIZvCsMUk88/lSRQy+Taed/7VirL0f4haVN9n/tWytvs/wDx7QyzalF+9lrHm8Sfubf9xH9s/eyebF+9/dVJqWsTzS28FhP+7i/5bf8AkKgDc8Vf6ZqnnwT/AGbyv3U1p+6k/df9df8AVVjzTf29o1xYz6Hc20f/AB5Q/a5vK82L/nrF/wB+qNe17VZr+3hng/tKOKb9zND+9il/66xVHZ3k/wC88OaTBJcyfbJY/wDU/wDtWgDYFnPZ6Xp89xqsVtcSw/uZoZvN8qWsfxhoM9nLJPrmufabe/vJZIfK8qO1i/8AjtXLOaCa/k0Mar9m+y3nlzfa/wB5LF/nzap+JJtD1K/t9DguPsNv/q4fJh/1stAGppupWOjwyQQarfSWdrZyyTXcX/LKWX915XlVl6lN4VsrW3vrGD/Q/J/fRWn73zf+evm+VVybXvDmpeI5PB2la5F9s/s3/Q4f+WX/AC1/dS/9tak/4RXVb2wk0rVdcltpIpvMvIYoYrnzYv8Anl+9/wBVQBJDpvg6HT7efSrHyvN83yftf/XKL/41WP8A2bfXksd/BPbXMkv7uaKL95VyaznmtfPng+zW/wDaX+h3dpN5X73/AKa1Xm/c/Z54II5ZJZv9D82H/W/9Nf8A0bQZn5Bwd6khhqODvViDvXOfYD4f9d+NSwd6ih/1341dhh/dUAEHerFRww+VViDvQBY8n97Unke9R1YoAkq5Zw9qrw/88MVqabCZv3FAGhoNn50sdd5oGj/bLWuX0Kzt4ZY69A8N2Ymij/5Zfvv31BlVNjwro9jeS/v55PMi/wCeNd5pum2MN1JPPP5f7mLyfNrH8K6P52sxwQfvf3P/AC2/d/8Af2us1Lxh4V8Kxf8AE1ntvMls/wB9++i/8hRVmc1WodB8JfDcHjC0/wCEq8R6FbS3EsPlwzed5tt/2yroNB/Zd+HOvXUfjifwd5Woed/yDof3kX/XWq/gnw34H0210+x0ODUvscX/AC1/55S/9Mq9A1KzsZh9h/tyWK4l/wBGm+yTfvYvKrQ82pULGj+CdJhuvt1v4VsovtU0X7nTpvN/e10ln4Vgmi1DVZ4Jftkv/H5N53lyxf8APL/v1VPwr4k0Ozik8OfvY5IpvM/c1JZnxVDdXH2Gxi+z2v7y8hu/9VF/9t/e0GVTYuax4J1X/hXOqaVPqupSfb/9G/4l3+t8qX/lrXF/Af8AZjvvh74juNV/4TiWPzbPzIbS7/dSxeb/ANMq7zTbyC80a80mH7TbR6pD/pkvnfvZaj86ez164g0Ke5luLqH7F5P+s8r/AJa0EEl5pt9oNhHP4j1XzbiKz8ya78n/AFsVbGm6b5MtxPb+KrbUo5Yf3MXk/urWsfw3psE0VxBfT/afNml+2RTf8soq0NNvJ9Nls9DvrH7DcS/6TeQzf89f/jtaAWJpoNB0uz1Wx0q2+0Ral5fm/wCr8r/tlVjXvEl9D/xNZ/Ntv33+mQ+T5tYd54x0qHWZLjVdKiubjzv9DtIZv9b5VSXniqCbw5b+Kp9Kli/fS/2l9rm8r/pl5UtABo/iS+17VP7VsbfzbeWa6kvIZryKT/lrF/yyiiosobH7VeaVPqkn2e6h/fWlpN5UsVR2emz/ANqapY/6NbXEX7yG0hmirL174ez2dhp/n+I7mKSKaWS8/wCessUX72gCS8vND1i1j0q+vpY7OKb9zdw3n2nypYv9V/rf+ustXPAevaV5UljAYpY4pv8Aj7u7Py/K/wDaVcno80E3hL+yp4LmSO11iW2+yQ2cUnm/9Nauf2z9jit4L7Q5f9F83yfOhl/deVWgGhef2VDoNxqv/LPyftPk/wCr83zf9VFF/wC1akm8SeKr34c2889j5kf/AC+Q/wDLXyv+WVY9nqWleD7DT9KvtKubmzuoZY/9d/rf9V/7Vo1L+yvDcVvrmheI5bn7VN5cNp50tz5X/bKswJBqXiqG1j8OaXY3ttJLD5kP77/97W5/aVjr11JBocH2m8is4o5tQ8791FL/AORZap69qXiPR9Ljg0Ox8z7V/roof9bF5tZdn4b0q8u459KvpI7e1h8vUofJ/e/uv+Wv/oqgCxNZ6V/wlEkHhyx82S60eW5hlu9S8uKKWL/ll+6qTTvDV9/wjcd9fQSf6fN5d5NNN5nlf8sv9VXL+JPt3gPUI/FV7rlz9jlm/c/ZJv3X/TLza6CHR9c0ew1C+1a+vb64v5vMh/ff8svN/wCeX/bWgCPR9B1ya/j0rXJ7K2j8mWP+0f8AWfvfN/dfvYpak1LR5/7Zj1yx1z/R/wDVzQ6h/rfN8r/llRo+vH/SJ4J4vs8sPmXkX+t/1Uv+tqnoOjQaD9o+w2MVzb3U32mbzZv+/tAGXr2m+KptQ0+DXL6xjkim8yaa0ml/5a+bF5VYdnrGuab4tuNcguPK8P8Ak+XqX9nQ+b5sv/TWWu0168sYdUs5/Dk/237L+8mtP+eX+t8r/VVHr2g6FrHhy8/4RyCXy5Zov+W37rzf+mstAGP4VvLGzuo/EdjcSyW91eSxzfa/Ki83yov3X7r/AD/rar6x4k8VTX/nnQ7aL7LNL/aUMNn5svlf+Qpasabo+ha9qFnP4c8qP7LN9p1LzpvM/wCWsUX/AMd/8hVc0HxJYw395Bqvl3Mkv7ubyv8AW2sX/TWtDM5e8/4k+qf2rpUFz/x5+ZNd/vZfN/55ReVL/wCja1NNhvvNs/I/0bWPJ8z7X+9i8qX/ANqxVY8Vf2VNf28MH2b7Z9j8uzmlhl8391L/AKqrn9sTw3/263nikt4tS+zTXcMP/Hr5X73/ALZUAY+j6bfeG7ryPEcFtbapLeeZZzRTeZ5v/PLzax9Z1i+s7C4gggvrbVJZpbmGL7ZF/wBsv+WX/PXyq7D+0tK1K1jn8Gzxxx/Y/Mh1Hyf+2UvlVX1jTbC8ureec2MVxLeRRwzQzf63/Pmy0AcX4P02fxVdR+I55/s1x+9kvNOtIZfK8r/lrFL/ANNa3PEfhXSvElrJpUEEllH/AKy88q88qWXyov8All/zyi8qWjxVZ6rqUV5of9lSxaffzRedqP8AqpfN/wCmtaln4l8VabrMd9BBfSWel2f/AC2/6Zf+1aAJNY0i3s9G+w/2VHY/ZbPzIfK/eSyxVl6lDrk1rpelar5Vt/rY4YpoYv3v73/lrWxo+vX2m3/26efytLlh/wBMu9R/1sXm/wDLWrGm6Pfalafbv+EjjuZJdN8z7XD/AJ/6ZUAcv4kvNV1LS4/7Dnto7jRofMm86GWKWX/7VWXNeX2j3954c0qf7dby/wCk2cunQ/vZYv8AW/63zZf+estdJN4VsftUeq6r4xki8r95Np8vlfvajhmgvLWTxj5FjLJ532b+zrT/AFUv7qgCPTPJs7WS+n1y2srO/mij+16t5Uksv7qX/VeV/wBcv/IVBvLGH7P5Fjcy+VNL9smtIf8AW/8Af3yqz7zR/EesazpelHwrpstnFN5mpTQzeV+6/df6qL/v7UfhvXtKHlz6V9mtryKaWSa0mm8uKX/rrQBoaD4ksPB/mf2V/ZH2f7HFJDaajN9pl83/AFv/AC1q5Z+JNV1j7ZPY/btEt5YZfJhi/ef9tarxal4cs9Qt/wDhKvKttQihi860u/3Xm/6r97/7S/7a0a9NrkPi2Sfw5pUdtb/Y5bnztQs/+WVBmaH2yx8E3VvBPfeVcX/m/Y/Jh8z/AJa/63/yLVfUv7VvIrO+sYLaT/W+dL/zy/dS/wCql/1tY/8AY+q+JJY76+1WP+2Jf+YfN+6lsIv8+VUf/CYT6bo15PfWMt9Ha/8ALbTv+WX/AEyloMfaH5Pwd6k8j3qODvViDvXOfbEkHerEHeoof9d+NSwd6ALEHepIYajg71YoAsQw1YhhqODvVyDvQBJZwnza3NNs/f61l2cPnS5FdZoNnB+7E9AGhoOm+dF/qP8AVV6ZoOj30Nr5+lWNzJ+58zyrSb/W1yeg+RDcyWMHlSf8tJvOrtPDcM95/qPLi8qby/Jhm/5ZVmc1SodJ4PvNc1jrpVzbeV/y2mmrqNA8KeHPFWlSa5faH/pEXm+T5032nyv+2VU/Ctn5Ph2PVTBJffav3flRfuq7j4bwwaDL/Yc88Xly/wDLWb/nrL/yyrQ5alT2pHo8194bls/DmlaHc+Zf/u7y08n/AFX7qL/lrXUXmma5/Zf/AAkd8fLs7Dyv31p/rZZak0y886/t9KvtK1L7RdQy/bLuKH91/rf+etdBZzarZ3X+nQS30cXmyed50VtFaxfuoov3X/LX97QcVUNHmsbO78jXNDivbO1hi8maGH975v8A01rYvNeg1i1/4kc/l+bpv7mXyf8AprF/qv8AyLXJzaP4js7rT58xabeSzSxzRRfvYv8ArrWppupeFTf2fkX0csnk3VzZzfbPN/e+bLF/qov+uVBzmx4b1i+vNeuNDn0OWPWLrypIZopovN/6a1JeWfivw34jj0PSp7mLULqH/XeTF9p8391/0yqP4e+NoIdZkggEdzcRQ/6ZN/qoov8A7bWxrEM8Nh/bf9q/u5Yf9Dhmm/df88ov9b/2yrQCv4w+3axf6XBDqttc/ZZpY9Shm8qWKWX/AKa+V5v72pPEmm2Om6NbwfvI45byW9/ezf8AL15vm/8AtWs/wTr+uabF5GlQab5n2yKTzrT979q/66y/6rza0PiTqWuWfiPyNc0ry/NmittHmu/Ki82Xyv8AWxReb/01/wCmtAB8PdNgvNU1DxVq19Y+XFN5lnFqH72WWX/VS/8ALL91Wh8Pde8nxbrGua59ttv30sl5p8032mL/AK6xf/uqy/El5P8A8I5b65Y6Vff2xF/o3+iQ+b/11/8ARUtY/wDb2qwy2d9fX1zL9qvJfO86H91/1yoMzQ8Ya9faZr3kaVqttffapvs2mw2n/LLzZfNl/e/9soq2IZtW17SrfVdVnj/df8sYZv8AWxf9dfK/e1ydnNfeFfFFnBYwW0tvaw/aYf3MUcsUv/PL/v1LRr+saV4ql0OD/Tbb/iZeZ/aNp+6iii/6ay0AaE2j2PjfxHeX2h+HPK+1QxSeV53+i+b5UX+q/wCmv+q/8i1XvNYOg/v5/Dlte3EsPmfa7uH915X/ADy/1tGg6lqsEuof2VPpP2iwhi8mXTrzzPKi8r/nlF/qqpwzareappelX2hyf2XLNLH9kms/M/5ZVoBchm/4TC1jn1bw5LLJpcMsc00v7uXzf+uvm/6qjR9S8Yw6NZ6FBpWm20d/eeZNLF+6/wD3tH7jQbqPwr4O+03NxdQ/8ha7vIpfN/561qaDqXhzx5FJBPYyyyaNDLp32uH/AJerr/W//Gv+WVZmhXvLPybCz8K+Kr6x+0eT/wAhG0hiil/e1X87QtB0byNK1S5kjtYfLvJruHzYov3v7qL/AKa1n3mparZ+Lbey1zQ7KX7VZ/vorSGX/Rf+uXm/62ti8m0qy+HuoX1jYy/66WOaH+zfN+1f9df3v/XX97QAWU1j4xtcz30n2zzpY7y0u5v3Xmxf88qx/FU0HiTxRqGh2PiOTy4pvMmitP8AW+V/11rQ1gzzeF/D/iPXPAEv2O6h+zaP/ocvmy/9df8A47XF6x4J0PUtZ/tye+tra8/dW013DN5UV1/y1/66/uopf+eX+toA6zQdB0qbxHZz6rYxeXF5sdnaWk3+ti8r/VeV/wAtZaJvEeh6ldXnnzxWVv8AY4o4bTTvN82WWX/pl/qov+/Vc/481ex0fS9LvvB2qyy3EUMtzeS3c32b7VFFF+98qWWjwTr3hWbRo/irY2N7pv8Aqo9Su5v3lt/qvKiloA1JtBvrO/jvvDhl8yWH/TIrv/W+V/6KqvDr2lfapPDmq+Z5n722hm8nzfKlqv8AtO+D9c+Hvgjw/wCKviP/AGlpP/CR6xFbWc3neVFdSyxS/wCqi/1vlS1oeD5tK16KO+ngsfs9hDL5NpD/AK2KL/llQBj/APCeWPiTxHb+DtK1y2lklh/fTeT/AK2X91/2y/6ZeV5X/bWtD+x7GbTLyee+iudQi83+zfOh/wBV5X/XWKo/sfg7xJa3Gq+DtK+zXkU0tl5sv7r/AJ5f88opay/Cln4j1LxHJB9hk8uLzY5ru7h/0X/tlLQZnQaPpuleG7WP/hHLGL7P5Pl3nlQ+ZLFL5X+q83/rlF5v73zf9bXN/bdK1K/j0nz76X7VZ+Z9r/deVFL/AM9f+mv/AH6rUhmsfsFv4OsYLn/nn9ktJvL8268ryvK82X/lr+6rm7zR77+2fI8R339kXFrN/Z1naRTeV5staAdBZ6bBPLH/AGr/AKDcf8udpNN/zy/df6r/ALZVXvLODR9Gkn8R+I5Y5L/7L+9ih/6a/uvK/wCWv/LWqfiuz8R6bo327xVPZR3Fh+7s/snmyyy+V/yyi/65Vnw6PrkNrb654j829jtbO1khtIpv3strLLL/AKqgDrLz7dqeg/2rBqsUln9j+zXlp9sljufKl/55eV/y1/661z8PiSf7LceFbGa5kvJfK+2Xf/TL/tr/AK2L/wCOy1qaBNpWg6zeWMFjLe6pdTRedN9si/1X/LKXyq5eHxVoeneI7jQ5/s32ew/0aa7u5v3ssvm/vZf+etAHSXmsQeFf7Q1z93bW8XlSTebNLLF+6qPQfDc+pWt5BY2Nt+98q9mmi/5cIvK/df8AxqubE2u3kWnzwQR+XLeS3M3nfvbaXyv+WVdJoOvTza99vgsZYtPlh8ua0tP3cXm/8sv/ACFQAeMIdc/d6rPPLc6fL+81L/Vf63/41UepePYPCuqW9jPYxeXL/robSGL/AEX91+6/5a/8ta0NY8SaH5ul+fP/AKqGLzvOhl82WXzf9V5Xlfva5+z8EzzRRwWOh/YZJYfsV5aXf72Lyov+eUtAGx4q02+/4Rz/AInmqy3NxdeV5N3NefvfKl/1UX7r/rl/qqpwWfgeHQf7c+wyy6xdfvNNhm/dy+V/rap6xNPZ+HI9Dnvra2uNL/dzeV+8iii/e+VL5v8Ayy/+21JeTa59vvPEc8Hm6XYQxedL5Mv7r7V/zyioMyx50/iqwt4P7c1KLyobX/kI3n+t82L/AK5f6qpNBvPDl55niqfXLmK38ny7PSf9bFLL/n/tlXN+NtevtHuvsOh67Y/Z7rR4o9Sm/wCWX/f3/llL+9rL/f8Ahu60/wA+fUrnw/a/8sZYfM83/rrQT7Q7jTNN8SDVLzVb7XJbnT5byKOGaKH97YeV/rf3v/XX/wBFVXm8/XtBksft1zFHFN5k2ozfvYovKl/7++bWH4q8Yar4DtfIvtctovss32mbSfJ/5ayy+b5Xm/8Af2rnwx8baV8SNB+3aHPqUVvLN/x6f2bL5sXlf62gxPyfg71cg71Xg71YrnPuB8P+u/GrMHeo7OpIO9AFiDvVio4O9WIYfNoAsQd6uQd6rwd6uWcJ82gDU0ez/wCeFdhptp/q/sP/AG2rn/Ddn51dh4Vmghuo5/sHmeV/rov9XQZVKh1ngnQYIZfPvv8A475tdhDo8959nh/sqW2jim8zyfJilrl9Bsx9qk1yysfK83935X2z/Vf9Na9E8N6lf3mlxwf2H/qpvLmmim/ey1mc3tDc8K6PY6PL5Av5baOWaXzv+mX/AFy8391/yyrYs4dcvPC+sT6VP9muIv3dndzfvIrr/nl+6qPR/Cs/iS/vPPntrmSwh/cw+d5v2X/tlW5Z6bBDpUmuarPJ/Z9rZ/ZpovJ83zZZf3UX/PX/AFUv/LWtDi9ozQvLP+0vs995Fzc2cv8AqYof9b/118qpIZoNN8OXlj4c0Oxvfsv7uGHyfs0stak2vQWejXmq654V1K28Qf6v+ydO/e/6r91L5tZ+g2fhzxJpf/CxdKvpbaSw8qPyvtlr5sX/AD182KXyvN/1X/TWtDm9ojU0GHVZ9euP7dgvpJPJ+02eo2n7v/tl5UXlRV2ln4V1z93pU+q20kXneZ5UPlR/8sv+ev8A0y/e1n3njC+vLaPXJ/DkUelxab5k13aQ/wCti/5a/uqpw6x4H8qz1b/ib2Ul/pv2aG78m6j/ANFl/wBV5sUsX/XKgzNCz0Gxs5f+Ej0rxX9mktfK86XyYpZYq1NN0HztG+3arqst9pd1DayTWnk+V/qv3vmxf88vN/8Aatcno/gTSvB+jXmh/wBlal/bEt5F52o/9tfN8rypZYqPDfjbxV4P0bUNcvp/7S/su8+02f2v91+6l/1UUv8A398qgDpLOGxs/GUl9pXiqKO3v4Yo/slpD5n7rzf+Wsv/AJCrL8N3kGsfbINV0Py5IoZZP33m3MUsv+q/1sv/ACy/dVsQQz2dhJfQaV5dv+687/Q/Kii/5ay/vf8Arr5VV9e1/wDsH9xY2Msmnxab5V5N/wAsvN83/nrQZmf4k1ODUpdQgvYI/tEuj+ZeRaTD/wAsoov/AN15VR+KtSvvssd7fWNtY6XLZ/6Z5MP/AJCl/wDtVaGpTf2bpck8/wBm+z39n/xMtRmhiiill/deV+9ll/1v/XKjztKvNU0uxg1WOWz86W2htNRm/wCWX+t/66y/9dYqDQ4+z03Q9H/sO+sZ7a2t7+H7N5sM0v7391/z1/65V0n/AArHQ7Owk/sP7T9o/e/6XDqUvmxWtWPFXirQ9NsP7D1XQ9Nk1CXyv7N0n+0oovN8qL91L/1y/wCutV9H16xsrC38R6TPFJcapDLHN9kh/wC/vm0AXLPXvDngPQbjxjY+HJZbz7ZFH/qf9Kil/e/8sqr3vjzxxDL5+uaFfXNvLD5lnNLN5v2CX/rlVOz03xwbWz8VeRcy3lhqXmalD/rJdZi8r915X/kL/wAi1Xh8eeFfstv4c0qx+0+V+9/snVrzyrq1l83/AJaxf5/1VBmR+KvEmrabdSf2VPHcyf6y8067hii/dS/62W2l/wC2tdRoM3/H5pWh655VvYQ/vppYfMill/56/wDo3/v1Wf4816eG1jvoPB1lLb2F5LJeWl3NF5ssUv8ArZYvK/8AatR6Pr2lfZf+EV1X7TbWcsNr537mKPzf3vm/63/lr+6/9q0ASa94q8HXn2eD/hHP7SkuvKkmmu/3kX/bL/rlXL/2Zrk3l+B4PGPl2cU37n/lpLFLL+982Xzf9VF+6/1X/TWsPxhjw3FHY6VY3slxFrEUcN3LqUUdtF+9/wCeUVbGsax4c0Gwjgg8Rx6trF/Da22pXfnf626li/1UUX+f9VQaFjxvqX/FOW8Hn/abjRryKSz1D+0v3V1L/wAsvKq5r3j37Z4St4PFUHlSS2cv2z7J/rfK8r/lr/z1/e1xepeBILy1t/Dg1y58P6fFr0VzqXnTeZ5t1/zyi/dRfuq9A/4VvYTeErfx/P8AE2OX7fqX767u7PzJYv3XleV5UX/PL/2rQZnP6PeWPirw5eWM8EkUcWg/6Hq13/qvK/6axf8ALWs+803XJtB/4Q7xHpX9pafLpvlzeb+9l8qWuos4f7NtZL7xHqvm6H5MttN/qv3v/XXyv9V5sX/LL/yLVjxJ/YevaXHpXhye5to4pvs3k/uo/Ki/7a0Ghw/iSz8R+JL/AMP6rruhXOt3Gg6bLHpt3d/6TLpcX+qiii83/rr/AOja6y88E6V41ij1X/TfD9ndfvLO787/AFsX/LKqej694V/4Ry4nvfKl83zbaHTru88rzfK/5a+b5v8Arf3UsvlVJPps/iSwt9V8Oa5LfafLDFJNDNNFF9lii/8AItAEc2sa59gk0Ox+w2VvLDdR3kM15L/zyil/5Zf89fN/9FVT8N6P+6j0PXIJJZPsfmWd3537r/MVR6l/wkcPinUP+KVtvtGjeVJ9rh8qLzYpYv8AWxf9+v8AnlVy8s/Dmm+JLfXPEk8v9l3Xm+TDFef6qLyvNl/65UGZX028sfDcuoaHqs99Lqn/AE9zeZL5Xm/9NasalptjZ2EmhwaTpt7p8U0Unk/bIv3sUv7rzf8Apl/rap2cNxqVrJrk/wC8t7Cb/icTTXnmW11+6tfK8rzf3sUv+qrUh0fSvFWl6fPfWP8AZtva6l9m0200maKXzfNil/z/AO0q0A5ub+3LPy/P0q2srO6m+06bDp/lfZZf+etdBN42gvNLk1yxsf7S+y6b/oc1pef9df8A47WHoN5Y6xfyeFfFXiq9lvNLhi/cwzRRW1r/ANdf3UUsUv8Ay1/1X/LWpPGE1jDo39h+FdVi/su6/eQ/voov9b5sUv8Aqv8AnrF5v/TKgCTTfFV94b+x+HLHSpL7VLCaKOb+0f3fm1y/jzR/A40v7d4O8K+VrEupXXk+TD+682XzYvK/e/8AXKKuk1LTb7UvFFnqtjfW32yL/SdS067m/wBVLLF/0y/9FVoWeseHLy7uPP8AEek/Y5dS/cy6h5VtdRS+V5svlf8ATX/47QBj6PqcFnoMk+q/6TJYeV/0y+yxf8tauaPrGlXlhea5pUH22S6h+zTS+d+9+1ebL/8AuqP7f8OXfiSPStc8OXNtqkvm2WpS/bJfKl/6a/6ryqsXmveFfDeqSeHPDmq232zyYvsdp53+quoov+mUX/TWgDP0c+MfCv8Ao+laV9m+wWcsn+pikitYpYpf9b+6/wBV5tXJ9S+2RWd9Y+Zptv5PmTafFDFJLFL/ANMpay9H8N6prH2ix1XVdSlt7qGK2mli/dWt1+9/1UVdB4k/4THw34Sk8R2PgeO2+weV53kzeZ9vi/5a/wDXKgDn/FV5fTaX/asF9LJeazNFHef8sv8Arr5v/fqs/wCMGpWOj6pHBPodzFJFZ/ZvtcMPmfuvK/5a1oWeseOPGF15/wDZUcVxrNn/AKH5P+qsIvN/5a/9Nf3UtWPiEfEf2C41XSrGOW3l/d6lDd/vZf8AtlQZnHw6NBDo2l+ANc83+z7Wzikmu5vN83zf+mXlf9sq6Dw3puh6Pa2/hyC++06f5MUc13NqX726/wC2v/LL/tlWP4E8ST6P4S1Dxz4q8VS21xFDLbQ2kMPmRWHleb+6ll8r/W/6qX/97R4J1jwd4k1m4/sqf7T9gm/0PT/J+zeb5v8AqpfNi/1VBPszQ02zvtNikg1WD7T5s3mTTXd5/wBMvKll/wC2tdZ4b02fUvDn2Hw5PFZaX9sl+x/vpftUv/PX97XF6l/Yd54ck8K+I9K+zR6X5sn9of2l/qv3vleVFF/y1rYhvNK8E2Gl+G/GOualJby2csc2rSw+VbRf88qA9mflHB3qxB3qvB3p8P8ArvxrnPsixD/rvxqzB3qtD/rvxqzB3oAsQd6uQd6r2dXIO9AFiGH91Wpptn50vWs+z/1p+tdJoMMHm0AdB4b0eCby/I/dSV2GnWc+oxf2VAP+u3/TWuf0z/j7/cWP7zyf9dXceG7P7ZFixgi8yX/XSy1mctSodBZzf2bpccF/Y+V5v7uaHzv9VF/z1rrNNmg1ixkgn8OXP9nxWcVc/oP277BeaVBBH5f2z/Www+bL/wA8v3VeoeD7yCHwv9hN9LHJFZy/vvJ8r97/AM8vNrQ4qlQ0Ibyx8H2FvPPPcyWf/LaG0hiki/ey/uqk8S3n/CVf2hpWlX323T/scUf2S0m/1X73/nl/118qqfg/xjPZ/Y/B3irQ76TS4pvs15NND/y1/wCWX+qlll/8hV6B/wAUdNFeT+HJ7aL7LZy/6Jd/upZbr/p2i/55f9daDmqnP3nxCghmj8/SdWkj+x+XN/zy82X97/8Aaq2PDfgnVZtB882Mn2O/83zrS7/ef62L/VeV/wA8v9VXQf8ACSfD/XrCzg1zw5qWm3l15vk6hDD+6l/65f8A7qs/wH8SPCt5r2ofCvwP/wATvULD939ru/8Al1l/1vlf6r/rrWhzlPwrMP2e9Pk8OX2qx32l3U3l6bafbP8AllXQeG/El942N5fTz3Men3U32Kz06Gb97/21/wDttYevQ3011o8+uaH5lnaw+XqU0U0X+t83975sv/PL/lrVfwf4b87VLzSoPEd75n2yW9h+yeVc23lSxSy/63/rrQBueKviF4Om8Rx32q65pP8AZ9/Zyx/2JN+6iv4v+eUtZf8AZsGpa9rnj/8Asq2tpL/QbW2+yed5sUXlVj6xptjpF1/witxoegXP2C88zzbSz+0y+V/0yilrrNe0HSofMvfDnjGSK8urOK2+yXf/AC9Sxf8APL97FQZhoOseP/Enw+j8OX0HmyRXn2abT7S8lii+wfuv+/tSaDpurePNV1jw5fWMttpcU11cw2mo3nlebF/n/llWfo/iTw5eeF9Q8R6HpNzFqEv+hal/pn2aWK6/1X7rzf3VR2WpX2j+F7exvvNstQih/wCJlLLDLLLFL/11/wCWv/fqgDcms7GbRo7HXL65is4rP/Q7S0/5ZfZf+mv/ACyrH/tKxvIv+Ej0rQ/s2of6L/aXnQy/+jf+etblnN4V8B6XJ/bmhy22j380X/Ex87/j6l/df6rzfN/6a1X1K88Rwy6x4x0qxtotD8mKOz/0OX7T/wBtfKl8qg0M/wDtPSvBN/bz33hW203yoYtO02W7vIpPNil/9q/uqw/idr3j+HXv7DNj/qpvtvnadD/ra6jR/Aetw2GhwXFjHbaXFD9t16G78qWWW1l/deVFL5v/AD182pIYdV8K6pp/iPSrGysdD8n7NDp8s0tzdRS/9NZf+Wvm/wDXKgDU8H6x/YPwqjgvrGST9zLJeeT/AK3yov8AVS+bXNzeG77xtLb6rPqttLeWvlSeTaal5f8Ay1/e/wDkKrHjeH/hK9U1Sxsb6X+z7/yvO+yXn7r97a/uv3X/ACy/1VV5pvA02jXHhy31WKKzls4razm/1csssX+tiilioMzl9Y0eDQdZt5/Dniu5k0+KGXTv7O07/W+V5v8Aqv3v/o2o/wC2J9H1mS/1Xw5Hpun3UP2L+0JbPzJZZYv+Wvlf9tfKqxZ/FSx/tm38R+Mfs1zqH2yX+2IbSG1+zRf8sopYpf8AW+b/AKr91Wh4V8jx5qmoeOdVvo9I0ewh/wBMu7v97deb/wAsovK8r/rl/qq0Ar+G9N866j8K32qxy6fYeVHptpFD/wBMqsWem6HoPii3uL7/AEa3/ti6jvP3P2b/AEr/AJ6/9NYov3X/AIFVJeeNoNNsNH0P4cwSyxxTeXDq0vmy+VLL/wA9f/jVV5de8D+JPEccGuaVe2Nn9j8zTdPu/wDVX/8Ay1llli/55eV/qpf+mVZgc/qfjzwdN4tvPDl9pWm/bJf9Cs5bSaKKL7VLXQaxpsGg6zo8EGufYbO/h/0zTrub/tr/AN/ar2WpeDtZ8USf2r8ObHTf7G8q5/tG7s4oovNl/wCeVXPG0Ouax4y/t3xH8OdNjt/OlsvDfkzfaftX/XWX/rlFLQBj6DCPFVrIDYxy/ate/ffZJvLl+y/8tZf3VSab4a/sa6/tyee+tvKvJf7S060ml+yy+V/qv+uUXlVoeD/B9jpE0n277d5cs11/aVpDDF5str5X/LKKLyv9VWXNrGla9r3nwWOpW3mzSyTaT/aXmeVa/wDkKKtAOg/s34V6lYXniqx/dfZYYvJl0+882W1i/wCWstZf9v8AhzUvEdxrkE8v/CQX/wDyDYbubzIov3VaHhvXoNS1W48K2Pirw35l/qUX7nT9N/5df9VFF+9/dVlzeG/AGm6Do/hzVZ/tMdh+6mhtLyKS5lli/wCevmyxVmBoab8PZ9NiuNVsZ7mxvPJijm8qH7N5sUX/AE1/65RVT8mGaW4g/sO5+z+d5VnaXc3mxS0eNtS8STaNb/8ACR/2lY/b4ZbbR/skPmfZZf8AW/vfK/e/6r91/wBtapzaxfeJLmTw5YwX2m29hZyyTXenab9m82X/AJZfaYv9b/raAOf+IVnnxHpf/Ejli83R/s2m6ddw+XaxS/8APX/rr+6q5oOveKfBN1/ZV95VzrH2PzLz+w4fKi8qKLzZfKrP16Y+KrDS54J7m+8Qf2bLcw/ZJrq2/wCWv+q8qX/W/vYv+etXNHmnvNejvp7G5028utNl+x3dp/0ytZfN82L97/rZf+uVaAXNNhgs9euJ4LG2ttPlm8z97D/y1l/1Xm+bVPR7OxvJbzwBPY6bfRxTS3MOoahD+9ll/wDRX/7quo+JGm6pN4yvPCulT2N9Z3UMUn9o2ln+6sJf+uUX73/pr+9/1X73/W0Q+G59S/4oDXPEepW32CbzIbu08qL7V+98r97/AORaAObs/P1jXo7Hw5fRabqEWsRXs13Lefuv+uVdB8SNA1XTdL1DxH4c8R+Vb6XefaYYYf8Al6uvK8qX/wBFVT0DUh/wkdxBY/D+5jvL+aKObUIYf3X/AF1/z+9rpJvhXYw+F/8AkK3MX2+zl/5Ac3mxRfvZfKli83/lr+9/e0AcPL8TrG8sP7cg8OW2m28sP2bWNcms/K8ryv8AW1J9j8K6x4tj8Y+I9ctrm3v7OL+zYf8AWfZfK/5Zf89auax4VvrzwPpfga+1yy/tzQYftvk/uovtX/TKWWX/AOO1JeaxP4Ii+w+I/Dnh+yvL/TbXzpdJ/wBb5sv+ZaAPO5vI8NaD4g8R+HNV1f8As+KaW9m/ffurX/Wy/uv+/VdRqVn4q8VeEvCfxA+0Savpcs0v/Ep87y7aX/nlL5X/AD1rn/G2pWOm+I7fwd4ygubnR5f9J1LUftksX2X91L+9/dRfvfK/55S1oadoM/gq/wD7D/4TGxl8P+dLHo9paQy232CL/W0AXPid4q/4RW6s/Ctj4j1L+0LrTZdOs9P0mb7TbSxSxf8ALX/tr+6rHs9N8Habf6hrmh65qVtb+TFczRahN/y9f9cv+eUVWNS02DxJ4y1T+w/Ed9c3nky+T9khl/0CX915X/XWtDTfCvg7UrWOfQ7GWLUNes/s15dzTfuvN/56/wCq/wBVQZnL6D48sfG2qW/ge+8HeVb2E0sd5qNpZyx2sUUsX/LL/wAhfva2PEmswalr2oaHY+B7a9k+xyx6lp9pN+9li8r/AJ61J4b0f7H4js/B39qyaTeaDo8sepXd3Z/6LF/qv3UX7397F/2yrY8VeD7Hw3a6p448VeHI5Li6hl/c/Y4raWWLyv8Av1QBwf8Ab0HhXwvp+leHNVijk8mX99LeeZL5X/LKL97Wx53iPUtGjv59Dub64tYfLmlhm8yWLzfK/e/vauXnhvSodA+w6HY3um3Eumy3tnDqE3mWsvm/vYvKi/65Vy95488YiW3vtcsfNuLD/U6fp95FFF/qv3vmy/8Ax2gD874O9Ph/1340yDvUkHeuc+wJ4f8AXfjVmGGoof8AXfjVmDvQBYs6uQw1Xg71cs6ANTR9N+1yxiuwg8K31nLHCf3Vc/oMM0MsfkT/ALyuo8NzfbLryJzLJ/z2moMqpuabCYbX/X+X5v7v/prXcWc194bsLPVZ/wB1Ha/8trv915tZegwwWksc+bby5f8AU/a66S8vL/WLq3EEEsen+T5l55s0v7r/AMhVmc1Q7TwH/ZVnp8c//Et+0S6lFJNNd/vP9b/yyqx4ws/FWu2t5pU+uabJcS6l9phh/wBXFaxf/Hap+G9Ysde1TWPDmlaHqUslr5UfmzTeVLF/z1l/9pf9ta6j+zdKm1SzgsdKj8u1h8u81bzvL+yy/wDPXypf3UtaHm1Tc8B+D9c1m08++8R3MkelzSx3n2T95dSxf89Yv+/VaAhg8VX+n+DvB2lXOkaPFeeZrGo3f7vypfK/e+b5v+tilrH8K+KfCvhu6k0Ox0O9trjVLOL/AES08397L5v/ACy8r91/6NruPEmj/CvwfYXFj4qsdfsftVnFZXnk3kv72L/lr/y1/wC2X+qoM6mxn+G4dV8SX8fhy+sbm2jihluZobuH91YS/wCqi8rzasQ/YdN8R+ID4V8fyeZFNFH9ktLPyv8ASvK/5ayy/wDo2tTwd4ksdY0a41yx0Oytrjyf3P2uby5f3UvlebLF/wAspf8AprXL/EibSpvFMl9fTyx6h9jijhtIbyW583975svmy/8AbKKtPZGZqab4kn03xH9u1Wy+xWd1DLZWc2rXn+g/9Mv3VbngPV9K0e1k8OQWNjLqlhZ/afNtP9bdWsUv+q8r/ll+9/1VZc39q3mjWfn32m2Vx/y56JDD/o0sX/TX/VVh6br2uQ3ceq2N9Y6Rby3ksdnaWmmyx+bF/rZf9VF/z18r/MtAHWaPpulQ6NHqul+Dpbm3v5pb3TbTSYZfNl8qo4de8K+JPG9nBBrllFJL5V7D5MP+lfvYvK/1X/PX91Wf4k+JE8N1b6Hpeh21t9l1KKPUopYZYv3vlf62KX/llUl7pt9Zy6x4q1y+tpLy18qTTbu002LzfN83zZfKi8r/AFUXmxUGZn6R4r8HWd/rHjK+0PUtIs7XUpbaGXyf+PqXyv8AnlRpuj+OJtG8mee5/wCEg1Sby9S+1zeZF5sv/PL/ALZVJoOvaH421m3nsfEer63caND5l5DDDL+9lll/5Zf+Rak8Sax/ZvhLxBP58X2Pw5eS3PnfY5YorrypfK/1UXleb+983/tlQAfEjQfCt5YahpUGh232y11K1/tLyrzzbW18r/SvN/8AIVY+vfE7/hFdBt/hzY+Kra9s7+8+zTXfneZdWvlfuovK8qtzQbL/AITDw54g8R31j5lnqlnLe3mo6f5tt9li/dfuv3Uv/TWub8SQ+APHkVv4V8D/AOm3EX739zNLF5UX/TKWKWL97QaBo/jzxHqPiO40TStVtpdU0uGKyvLS7m8qXzYovtUX/TKWL97LVjXtH1zXvC9vB/o1lqH2O1js9R/5ZWF1F/8AHaNN+GNj4J1TQ77w34Otv7Uis5bLWNb1bUpf9V/0y/6ayxRRf582tDX/ABt4VmupNDn1W+vre1vP9MitIYpIrD/prL/0yoAj0HXvGPg+11jQ7HQ4tbuPOi+2fvvK8qX7L+9l/wCuXm1y/g/Tfib4k+zz6rffYpLXyrnR7ubyvK83zf8AVRf+Ra1PirD4H0fwHH/Yc/2nVLrzZP8ARJvKlll83/VS/wDo2rmj3mlXkVxPY31tY6x5MUc2nXc37qL/AFXlS/63/rr/AM8qPaVQMvTJr7xJ43/t3xHP5fmwy232u7s/LtftUX/PLzf+eUVSTfE7Q/Hms/2UL77TcSzRWVnaeTF5Ut15v+t/9pUeKtY8YwxR/wDCfz/aY7qzij8m0ml8r/lr+6/6ZVc8NzeHLOXR9K8RwR2UcsMskNpaXkskXmxRfupZf+2taGZueJPF/hXQfEeoeFfCuuW0mn/Y/MvPsn73yv3X73/trWHe/DefUrXz9VsbmK8i02W5+13c3my3Xlf8sv8Apl/rfNrQ+LXjCfwR4o0+Cx1Wx+zxWfmalDDD/wB+pZZfN/8AIVYem/tCQfEKXULGx83UrfS/NkhtLTUoornypfN/e+bWYGHD48vtTsNQ8VeMfEcVzeWvleTDaf8ALKWL/VRebLUevTX15rOlwaHpUmkapa6P+5lm1Lzfsv7r/W/+QqPFeg6r480+z0PVZ7bTfsupRSabp1p+78r/AK63P/LWpPh74VPxO1W3+MV94jikktdN+xWdp53mxWEv+q82KKX/AFXm/va0A0IYfi1N8QfDfxG0O+stbt7ryrbzdP8A9VF5v7qXzZf+eXlebXYeJPAXhzXorOx8OQR20drDLHefvvLlli/1v7qsOz1Kxs4rz7dpV7c3Es3l6b/Z037q6l/56yy/8sqp+KodD1jXtY8Y+I/H8tlHr032nw3NL5v/ACyiii8qWKWgDL8H6zpWp38difBsUVxLr32K81GKb975X+t+1eb/AM8q7TWfhvca/qkmq6VY2Vtp8X7yHzYf9b/y1ri9e8/Rv3/w/njit7CaL+0pvEOjxfZopZf+eXlf89a1PBHjCx8YeEtD8Y30GmyeKIpv+Xub91a/9soqzA6j4qaxfaldaXe/25balHFD/wAg+Kb97FdS/vf3v/fqKufvP+EVvPEel+Fdcsba28QeTLHDF9sl/e/uv3Xm/wDPWtzTfDc9n4Sjvtcvv7fvJZpb3Upftkv/AH9tpfN8397/AKr97/01rg/GFn4PvPiDZ2MHlW1nrMP+mQ6jNL/z1/5ay0AbnhvxVfabdSf8JHqsUcdhDLew6T+6821i83/ll/5CrqJtH8D/ABIv9H+MXhzQ/s0n/Ht5003lRS/9Mq4efTfCs/g281zStKvb3UNGvLX9zp8P72WL/ll5Uv8Azy/dV0njzxJ4xm8EfbvB08llrHk/abzTv+uX/PWL/VRVoB1mpeJLH/TPGP8AZUt7p8sPlwyw/wDPWsvw3e+KvFWjXmuaXoflafLDFHo9pND+6i82Xyv3v/kWuLs9e+2f2XpXxa+zR291efbbO7is4vsssX/LKKL/AJ5VY8Vaz44h0uSx8Hfabn/iZf6HaTeVL5UX/LLyvK/6a0AemTQ6r8PfGXkf2V5Xm+V/pcPmyRWH/PXzf+utY/iTXtDh8ZfYdK0qK+t7Wb99aWk3lfZZZZfNl/8ARX+q/wCmtV9H1f4xax4ct9D8OX1t+6/dzf8APWXyv+etV/7BENprHiPXNDttN1i6mljhtIf+PW6li8r/AFv/AH9oAr69eeT4jt9V0Oxso4/O/wBMmlh/exfva5O8s/O1nUL6DSrHUre11jzfNu/9bYf9tf8Anl+9i/e1Y1LTdV1iXT9K1zSv9I87zIZtRh8u28qL975XlRVc8H+JPFegy3mlQfYZfBd/psUkN3d/6q6/dUAc/o8M/iSw1DXLGC5vtY/tLzIftcPlRVofELx54xs7CzsfDlvH9j0uH/TPtem+bcxRf9cv+WVWPB/g/VZr+TVfIvrKO/miubP+0YfN8r/llFFF5X/TXyqw/wC3vFWpX8k+h319JqFrN9mvJpppYpZf+mstAHqHjz9j/XLz9lDS/wBrb4A/E7/hLZP3UmpaJFDFF/Zf/PXzf+uXm1wfg/WPAAsLP/hFdc+3R6zNayXk1pefvbWWL/W1h6Pr3iP4V/2X8VPhJ4jltri6vJdO8VaTqM0sltrNrL5vlRS+VL+9rHvPh7/wkms6hrmhwa3pGoS/6TeS6d5Utr5sv+t8rzYv9bWdP2vtSam37s1Ne17xjr3maH4jgudS+y/avtmrXdn/AKqL/WxSy/8APWL/AFv/AG1q5rvjC+1Lwbb32q+ONNlvLX/kJS+d5trLF/y18rzax/8AhG9K+wf8I5/wlOt6bp8U3m/8TG88rzf+uUXm/wCq/df+Rap6x4b1yG6jn0rwdLFHYal+5/4Rjyo7X7LLF/y1roOb98dJNqWlalrP/CY6rfS6l9qs4tOs7u7s5ZIpYooovK/65fupaw7zxVpXir/ief2VYxeVNL9jhl0397LFF/rf3tak2jz6x4c0/wAR2PjH7TJF9lk1KK7/ANGll/1Xm+b5X+t/7a/88qx/EkOlTfEHS4PFVj5Wn6pefaP7JtJvK82KL/lr5v8A6NioNz864Yakg71HZ1Yg71xn1hJDD+9q5D/qfwqvDD+9q5B3oAsQd61NNhPm81n2ddJo9nBQBseG7OCb9x/y0rqLOzsbOL7dBY3MXlTf66sfTLP7HL5H7yKT/pjXQeHLPSrOWPXPIklk87y/+uVBjUqHeeG7OfWNUt/t2lf6PLD+5m87za6DUtYn8K2HkTz+VqHk+ZN9rh/1UVYem6bcQ2F5+/8AKjis/tM1pLD+6lroNHs9D0bS9U8R6VBffaLC8+zTTRfvYpayqVDzqtQ6j7ZP4V+Gd54qvp/7bksPK+xw2n/PKXyvNll/79RV0ngPUvEd7r0eua54OvtSj1TyvO07yfKitf8ArlXJ/wCnTeKNU0rxj8Rr6W3/ALNuo9Hhm/1Xleb/AMtf+2tdRo9nqupRW+h6VpVtHb2Fn9ihu/3UktanMdR4b8Va5eX/AIo0r/hXN9LcaNeRW2m/a4YvNil8rzYvKiilrm7z4heI9e8Bx+I9Vntrm3ivJY9S/tGH7TdRXUUsUv8Aqv8Arr5VanjzxVP4V8ZaPpVh5n/LK2h0nT5vNiuov9V5sv8Azy8rypaufbPiNeeN5PAH2G90iztZpZJvNhi8q68qL/VeV/qpf3vlUe0QHP6xZ32g+LbzxHonhWPRLOWHy9Smm1iKXzbqX/W/uv8AW1ueBPG08Mtv/ZWh/wBpSSwy215/of2b91F/y1lll/6ZVYmm8OQyyX3iSeyttYsPNjvPOhikltZZf9VLF/zylrL+G+sT+D/iNHpXirXJdXuP7B8zTftemyxSyxS/8spZYv8Alr5sVae1MzQ8H/Gax0fwjeQeMdVtvtEX7yG7/tL97a/9/Yv9VVj4Y6b/AG9oNxYwX0UmsS+VqM1p+9ki/e/vYov3X/XKuf8AEkOl6lf6h448Hf2TLcX+vRf2PaatN5nleV/rZfK/5ZVJrPiT4qeD/wC2L/8A4Q7QNXkuv3lnNpOm+V9q/deV+9/7ZS1oZnSaxrHirUviXJ4c/wCEO83+y9N8y8hhmi8qK6/66y/88v8AprVfxJqcHhvxRZ+P7DXIorP+0pftkN3eeZ9ql/5ZRRf9Nf3X/XKuf8SQ6r4k0v8A0HzYo5f3V5FD5Xleb5X/AD1rP+GOpaH/AMIxpcFj4Vtvtkt59p+yedL+6tbqWXzYoovN8qX/AJZf9+qzNDvL3WP7Y8zxVBq1zpv+q/0vTv3Xmyyy/uvK8r/W1yem/bvCvii40PxjBJexy6xLJeS2k3m2sUUv+q/8hf8ALKtTXtHgsrq8Oq6VbSfavKsppovK+y/ZZf8AVRS/uqk8N+CfscVvq1j5cuoWs0X2PUftkv2n7LF+68qL/nl+68r91QZm5qVnpNn4Ij0O/wDFUttp/wBsl86WL/RovK/z/wA9f+mVcX4b0HXNTvrjxH4c8OeVp8vlXM013+683yv+WX73/nrFWf48s/Dn/CW28Gq+IvM0+61KKSa0i1iWKK1/1vlS+VF/rYq3PEmm6rNFp/8Awg97H/Y9refabOaWaKSKL/nr/wCQqDQsfEP7R9l0vQ9V+22Uf2z99af62X7L5UsX/bLyv9bXP+FbPw5ea/b+MfB3hy5i+ywxSa9aXcMsUt//AMspZf8ArlWp/aWuabqmqeKvPiufK1Kwk02aWbyor/8Adf63zf8AP+qroNe17wdqQj1yfVYvL+x+ZNDaXn72X975tAHN6lpuhzaN9unnil0eWGW9hmu5vLli83975UX/AH9irP8ADfjbwr4q1S8n8OfDi51eOwh8y8u5of3ssv8AyytP+mv+qqx4V8K6TZ6p/wAJH4V+230mqf8AH5N9jijl/wCev+t/55eV5VdJ4k8K6Vr0seh2M9lLJazRXM1pFN9mupf+etAHn8P/AAkc2tXmlX1jqVz/AGXDdSeT+9iluvNl/df6391/qq6jR4YNZ+Glx/wlXhyXSY4vNkh/s+H7T+68qXyv3v8A2yqx8N9N8OfabjXLHyo9P1TzbKaLyf3sX73/AFXlf88vNrsNHm1XQdGvNK0qD+29Qi/d+TqP7v7VF/rZfKrQzOf8SWfg3XtUs/7Vnl1eP/WQxafZ/wDLKWL/AFX73/W1nw6D4cs7CPXLHwdpFz5Wpf2dD/ocsXm2sv721i/6a/6qLzay9YvLH7N9uuNKuftEXmyXkUOm/wCql/5Zfvf+eXlVlw/EiHWLX7P4x1bW4riK8lks4bT95FL/AK3yv3v/AD1/+NUAV5YYPiRrMkF9B9ps/wDSv7Nh0/zZIrW6/wCWsvm/6qWtz+x/DnhW/wBU8OWPg7W/LtbPy9Hhhm8ryovK8qWXzZf3UtRw+D/HHg/7Z4qvtKvv7Qls5ZIZoYfKli83/VReV/z182uf8YeJNV0fSv8AhONKn8q3v7OKS8u5Yf8ASpYpYopfK/55f9tf9bQB0ng/4kaHqVrZ2Ok655WjyzfZv+JhZ/8AH1L/AMtbSKX/AJay1H4w0fSvKjn+NN9pFtbxTf8AEhu4byKX/RYv3UX+jf8AbLyqjvJvDmpeCLiDwBPrf9oazpv2n7Jdw+Z5Xlf63/rrWX8MZtV1LRtQ8Y+OPib/AKRYTXVzDp9pDFJ+9ll/e+VL5Xlfvf8AnrQB3Hw81Lwr4wtfs8Hh2xubO/miudStNP8AN/dfvZYoov8Arr5Uv/kKpLP4baH4V/4pWCwubGPRrP7T9kihl/dRS/6r/trWHN4V0O81mPVb7/iWxyzRXP8AYcP/AC1l8391/wCjf/IVZ8PiUWep655BljuNUm8z+0fsf+ixf9NYv/jVZgdJZ6b4c/sa8vrGxufL+xxRzafDeeXFF/z1/wC2VZ9n4DsdB1/T77xHfWV9Z+TLe2eo/Y/N+yxeV/5FirH0fUtK17xHH4VnNl5ksNrc3ksN5L5t1L5X+Za7Dx54b0PxJ4SksdV1y9i0uXyvJtLS8/e+b/n/AJZUAZfg/Xr6z17WP+EHsb77PrMMV7DqE3737V5UsX7qL/rlXSeKrPxVeX+oQeI/Dkem3l/NFH/ok372WL/W+bL5Veb6PqXjHwT4jj1X4c6rfWNn9s8vWNPhs/3Vh5X/AO6irtNe0fQtN0v/AIT/AMceOJNS/tm8/ta8/ffvf3X/AC1iiirQDLh8Sa5exR/vtEubf7Z5kM3k/vYoov3UX/LL/W1HefGDwdDdah/avhz+zdQih/ff2jD5UUXlSxS+bF5X/TLzax9Y+IWlWfxG0vxH4H1WWLT4tS8ua7is4pIpZZZZf3UsXlf+Rf8AprW54q8YWPxIij0PXNV1KTUL+aWSz1G0s4v3XlXUXmxf9cv/ALVQB0Hir4qQfD3XreCxv/Lkuof313p00Ust1L5v/LKrmseNvEevXVvPY6VpupR380UcMPnRSfvZYpf3VzFF/wA8v/RssVcP4D0fw5r3jjT7HVYLK2jlmlubPVrvTf3vm/8APX/rrLRqWpaVr2vXnjHSr6ytv7L03zLz+ztN+zXPlRf8tfN/5a+b+9oA1PEl5Y6x4XuNVsYb3Vvsv7uH7JN+9tZf+WvlRf63yq5vR5rGH/TvDmuXN7Z3Xmx2fh6WH91dReV5UXlf88v9VF/rf+eVYfgOaDw1o2uX3iPw59mjuoZbjTZvsfmebdSxf6qo4fiR4V0e+uNK8R2OpRWfnSxw2kOm/upZfK/4+pf+Wv8AraANjwt4w1XxJ9n8H6Vb3PmXU3l3n9o3n2b7LLF/6K/66/8ATWtCHWPEcPxkt7H/AIRW2+z+TLZQ6d9sikil/wCeUX/XX97Vfwro+lf2DJ4jgsbGxvPJl+xywzeVLL/118r97+9qn4a8SWM2s6PrljYyWVnLpvm2d3dzS/avKi/5+Zf+WtBmdB480e+8N39v4O0qDzPNs5ZIbS0s/wDj1uvKl8r/AK5f/aq0PDem+ALzxlqFj/bnmR3WsSyab++ltpYv+esXlVnw6P4cmtbfxxPqv7z/AE/ydW/5ay/uv3Xlf9df3tc/qXjy+8rS9Vvv7Svry/8A+POK0/0aX91/1yoA9A1KbztLk0rxVoVtbWcXm3vnRTReb+6i/wDRUsUUX7quH/4Tb+0vC9voelaVfRyapeRXP7r93LaxRS/8ta6jR/FWq/8ACOSQ65pUkVvdTyxw2l3efvfN/dVh/BnyP+EovNV8Y2Mv2e6vPN/0Sb/v1d/9da0Ar2d5pWj2txfarP8AZpL+z8vUrvUdNl+zfZf+WUsv/LKKX97UfhuGDUopPFVjPJLHYWfl6bq13D5VrYRf88v+2tbHiTxh51hHrt9PYxXF/wDu7PzYZYrbzf8AMUtZ+j69rmj+Z9u8OavLcWH+kzWnnfaYpf8AlrFFFFLQB+ZcHerkHeq8HerEHeuM+wLEMP72rEHeoof9d+NWYYaDM0NNh9K6zQv4Kw9Hh/e11kGgzwW3n2J/d/8ALagyqnUeG/PmureHyfM+1TeX5NdZoP2GzsJL7yJJbOKbypvOh/e1y/gnw3ez3Uf2eD/rjL53/LWuohvNK02L+ytKn+w/6ZL+9mm8r97/ANMqDmqVC5ps817rOqfbr62vre6hitoYvO/1UtdxoPgPxHo9hZ2OlGSPULqGW5m86b/ll/1yl/1tZ/w9M811qFjPYyXMksMUk3k/+Qq6iazvvsun6VpVj5l55PlzaHaTeX+683/nlR7P2py1Nyx4k0a+1Gws7Gx+2xSS6l5f/HnF9pitZfN/7+/vf/IVYfg/TtV8H2GsaVfeHNbubOwmijvJtDmi/wDIv72uw02GDUtU1TXLGxuY7eK8isrO0i/d3MUsX+trqNH8Y6rpthZwX2laRFZ3UP7m0lh8r/tr5tBznN6PeQeG7XyPDmh21tql1eSyfvde/wCXWL97FF5v/PX/AOO13Hhv4/WNnoOqarfeFY9NuIpvs2jw6j+6+3yxReb+6ll/ey/va8z+M2pa74U17R/A9j4OtotL/tLy5tWu/Kj+1eb/AK397/1y8qu40HXvhz4k0vyIJ9N1KzsIYvsek3em/wDHhL/z1/8ARVBmcvo+pTWeoWfjjVdDufDcd1eS+dq2oWf/ABM4vK/exebFL+9/exf6r/plUmpeG9V02K3+JuueOL2Wz1mb7beXerXkttFa2sUv7r/VRS/5lrY+HviqCzv5NK8VaVY/2f5PlzeV+88r97/qq7D+wYPDf9oTwQS3Ol3/AJsflTWcX2GKL/nlL/zy/wD3VaAYfhXwr8MprXS/iN/o3mWH/IN+yfvbb97L+6ll83/2rXJ/ELxv4x8BeKI5/wCw7aW81S8+zf2haXn7qWWKWL/RfK/55fvfNlq54k8Nz6Dayarofjixl8N6pNFZab5UMvlRf/aqy9Hm+Dtn4zvLHVbHUotQtdNluYZpvN/debL5X7r/ALay0AdR4V8SaH4k/cWMH9myX/m/6Jd2fl20Uv8AqvNtoqp/Y/B3g/xbqkGueDvLk8Lw2scOo+TLbReV/rfN/wCmX/kWq+ND8B6XrHg6e+1+51ywh82zimm8r/W/9Nf+mUVaniTXvGP2DUNVn8VRa34ftZov+JdN/wAvVr5X/LL/AJ60AU9e17xH4wsI9V0rwdJL/plr5NpDN5sUsXm+b5v/AGyi82WrGvQ+I9H1S4+HGua5bRfYJopPJ/49v9bLL+9ill/1v/LKpPh78TtKmMk+hz/vLD/Sbz7JNLFL5X/LL97/AMsq4/WLPQ8+F9cgg+3W+lw+XDp1peeZLLL/AK2X/rrQBoeJNY0Pwro2qWPiO/tv7PlhuraH9zF9qli8r/yL+9qT4ceA76aWSe+sYrK3l03zP7Ou5opfKl/5ZS/9Mqp+D/iR8RvG11ca5feG/N0uwhl87Tpf+Wv/AC1/9FV1nhu7vpvtHkWP9iSSwxfuZrPyvKupf+WXm0ASf294b1KK38Aar4jtvtF1o/2abSYbP91F5Uvm/wCq/wC/tZf9g+DvDdhJofhyC2ubyX95DDLDF/ov73/yFVeGy8Y+KvEd5qviP/SdU+xxRw3cX7qXzbX915Ustdh4b17zvDkf9t6Vc+ZFD5flf88v+mtAHD6x8N/FWgxW/iLwr4xk0m3urOW2/s7UfN/deVF/8arY+G82lQyyeKtc0q5ubjXof3P2vzfNi8qL91FF/wCja3PFWg+MfEms29jBPY/Y5YZY9Nlh/wBVFL/yy/dVl6xo+q2cVv4Vnnso7yKzuo5ruWbyvKll/wCWsX/PKKj2oHP+Gz53gi88R/8ACR6tbSX/APps2o6doMsX2Dzaz9S+Kn/CN6NpcGueG7621C/82PUtRl82O1lii/5a/wDPX/VRS1H/AMLB0PUvEceh+OPt2paX532aa707/VSxebL5Usv/AH6rU8SfCXw54VutP8f+DvEd7LqH9j3VtZ2nkxeVF5sUsvlf+QqAJPFWm65N4S1CDw74qudbs9Zh8v8A0S88z97/AMsvK/6a0ePPDfhzTbDT9Dvr65/tiKaKOGaKz8r7L5UUssuoeVF5v+ql8qKus0GbXLPVLPVYL6S+t9Us4pLO01GaKL7L/wBcqz/jZqV9D4t0/wD4lV9FH+68nVrSby4pfN/e+b/11/dUGZJ+058fp/id/ZfirxX4ctrHUNG021j8Yf2JeS+bdeV/qpYov3XlebXL+NvHmqeMPAel2Phzw59m0uKa186aW8ikisIvK837LL5v72WX/VSxfuv9VUn9j6ro8uueKv7Kudbkv4fs2vRTQ/urW1/5Zf8AbWsvwf8AbtSlk8VeI/EceiSaXD5f9k+TFFFF5UvlSxeV/wB+ov8AtlWgGhrOnar4P1DUPFX/AAkn7yw02L+zdOhh+2xSyy/9sovK/wCetYem+PPEfirw5/ZUHhz+yNHtf9Jm82GLTZZf3vm+V5UtdZ4w8K6JrHhLT4NV+xaBb+I9Sljmu7ub/Sopf+XWWvO/DepT6lf2+heOPCttfax+9j1i7+2S/wCiy/5ioNDqPFXhWfWPiDZ6rpXji2tpPtkXnadNN+9li/zFF/0yrU8H+D4PB9/i+1S+/wCJ9qV1HN515FLbSy/89Yv+eVR/D2bVbzxlcarB4ck1bWLWGX7Zd2nleVFayxfuv3v/AEyrUs/+EUhutPvvGPjL7Nqn2P7F+5m/e/uv9b+9/wCetBmc/wCMfDdj4q1TWP7K1y5jksJor37JaaP5VzLF5vlebF/0y8qL/W1qQ/D3w3eaLb/2V45vpLjQbP7bqWnaj5X72Krniq8n8YeHNQng0qO5k/49rO0/5axRReVL+9l/66xS/wDf2sO8Piqz8R6PBYwW0moazDFFNp2n/wDLX/lr+9rMDoPElnP4j8G6hPpV9qX9n2s3m3kMV5FFLa+bFF/zy/5ZSy+bXD/DH4M6V431S81XxVrlzc6fa2cUkOn+d5XlSxeb5v8A2yroLOHXPDnjy3/4RWeWW3ihiuYZvJ8uK6ill/e+b/yy82rEPhu+1LxRrmk6sba51S/83/iYQw/ZpYov9bF+9i/5ZUAcveaPY/BnRtL8Ofu7399LJ/xJLyKWKWLzfK/e/wDPL/VVoaP4kvvHmjeRoeh21jeaX5v76b97LL/11/1X7r97F+9/6ZVJ8VPhXpV54jjg8OQeXqml+bbab9kvPK8qL91+98qKtzwf4Q+LepeDf+ExsYNNivJYZbb7Xd6b/wAf9rF+9/dRf9MvKlirSpUAp6lrE15FHffEaeWx/svTfLhitLOKWKLyv+Wvm/8ALX/tlWh9jsby6/4SPw5pVjffarOK2hilm8v7fF5vm/6qX91/qvN/7a1h6PZ+HLzQbzz4Lm50+1mik1L/AJZRRSxS/wCq/wCuVYcOveANN1S88K+Dr7UvMi/eQ+Vef8fUv+t/9q0LcCTXv7K1LwRqmq3EFzoElheSyWcPneb5vlS/uov+uUtdRNearpug/wDFfwaRpuoX83/Et0+7s/KurqLyv3vlf9/awx4bvvEd1/wnEBk1KPWbP/icebN5XlSxf8tf+mtaHirXvFfhvRo/sOhx6vqFr5Xk/ZP3strL5v73zZf+mXlVrUMzn9I+JH/CK3//AAkd9octjbxaxLbeT5MUX/fqX/P+trqLzQPA83w5uPFX27+ybfzpY4dR/eyxeb5v/XKX91XBwzWP2D+3PEeqyRXl1NLHZzajD5Usv/TKrkN5BoGhWfh3xj4qjlt7+G6+2afN5sssX+lS/uovN/5Zf9MqyA7Dw3Z/8JV4cvPFXirVdJ+z6NDLHZ2miebF5svleb+9/wCeX+qi/wC/v/TWuXs72DxtdRzz+ZbaPLNF5N3dw/vYpf8AnlL/AMtasXmm+KtS+D+n2NjY20dvdalFJpsWn/u5f9b+68ryv+uVaFn/AMJ/qVhp+q/8I5c2NxYXn2a8/ff8sv8All5tHs2BX+JGsX2j+HLPxVrmq/aY7qa18608n/SYv+evm/8APKtz/hFbDUpdLvrHW/7N0+6h8ua70/8AexS/88pf3VZ82m6VeXVvbweJJLaS61i6kvPJh/dRS/8Axr/W1l+JPGEGj3WseHPDkF7JeS+VbWc1p+6lil/6ay/6r97/ANMq0A2P+Fb2Wj3Udv4j1yLUvKm+2wxSzeZ9llli/debF/n/AFtYcPjzVdH8R/8ACOeKvNj1CX7LHpuoaTD9pi/1v/LWWLyvK/7+11Hw3vNcvIrfQ/GPji5j8qH7NqVp5MXm/wCq/wA/9+q5PxJqdvoPxBt9KvvEd9qWnxQy+T/rfN83/Wxf9dazA/OeDvVyDvVeDvVyDvXOfWD4f9d+NXbOHtUdnCfNrqPCvhT+2KALGg2f7r/X/wCtrsNNs54bX7DBBLLcRf8AkKug8E/B+C88uCe+8qvTPCv7Lt/NfyT2PiOSWS6/5Y+TQZVTh/DdnfXlh9h8R2Mv2e6837Hdxfuv3tdR4b8B6r/Zd5oc+labcxxQxf8AIR/ey17BoP7Jeuf6HB9uj8u1/eTed/y1r1Dwr+x/qpljvjrnl/8AXaH91WPtThqnzXNoPiPQZft+k6VHFHFD5n2Tzv8Aj68qXzf3VdZ4P+w6bqlv4jvtCuY9Qv8AzfJu/wDlrF/0yl/1stfQFn/wTr8R69aRz6V44sYtQsJpfJi/5ZS+bXSeD/8AgmzBqXiO3vtc8YyXP2WHy4YovN8rza19ojmPnfR4b7Tde0/SvFVjL/bF/qXmfa/7N/1sUUv+f3taGg6xPeXXkWM97bah5MttNdw2f2mKWX/llF5VfTmg/sH/AGyX7cPGMssmlzeXZ3csPm/uv+Wv/kWu08H/APBP2x039/pXj+2tv9Mlk/fab/0y/e/vaZmfI/hXxJ4O+IXgjT9c8ZWMkeqaN5stnd3cMttFLL5v72WuX+G8OlaPpfiC+1XxjpFz5v8AzEdcm/1Xmy/6qXyv9bFX2hr3/BNm4vIrPQx4qtpNLivPM820h8ryov8Arr/1y8qub17/AIJjf2DYXmq/8JVput3EsMvk2l3+6ll/55RUAfKfjzWPCsN3Z32lfCu2/s/WZormaGKby/3v/LKL/W1cn+IXiPTZdQ8Oar4H/sjR7XzbK80O0m/eyyy/vYv3steuab/wTx/aM8ea9qHhzXND03TfD9h+80GXUZvtMtrL/wA9f3VdpqX/AATf+NOsaDH4Vn8Vabpun2H7z+0ZZpZLqWX/AJ61p7UD53m1jVdN+DfkeAdJi0n+xrP7b9ku5opItU/8i/vZf+/VV/Emg+Ff7L0f4jeHP7SsZL/TYvJ1GWaLzYv+WsUsvm/6r/lrFX1h4b/4Jy/2B4ck8K65faRc2/k+X5v72T97XLw/s6+Mf+FtWfwI0rwrptzZxaPLczfvvNi+y+bFFF+9/wCWX/XKj2oHzfqUGq2el28+uebHJFZ/2dNd6dqXmS3UX/LK6/6a1ueN9Yvte8Gx6XpX2mLVLWbzIYYofsXm2vm/uv3X/bL97FX0pr37BPxp0e68jQ/7E/ezfvppZv3UXm/88oq5f/hgP44fYPIsfDmgW0l1N/xMtW8797df9Nay9ogPK5vBN94q0XT57/SfD/8ApU377+zvN8q6i8qXzf8Apr5v/bWuD+2eI5rWTRND0PTbKT7ZdSWcXk/6VFFLL+9/e+bLX1p/wyh8VPDelx6VPodtLZ2s3+h+def62WuP8YfsT+K9B8EaHPfeAJZdU+2f6qLUvMupf3sv/tLyqPaIzPC9N0z/AIQnw5JfeDtc/wCEgjlhl/tLSbT95LLL/wAsv+msX/2qrmpQz69qmqQaT4/too7rzY7O087/AErzZf8All/018qvqD4b/sQ/E3w3FearPpVt5mqfvJoYZovN+y/88v8AyFWXpv8AwTq+Ldno1nONDsbnUIryWSG7mmi8r/PlUe0RofKepeA/+EPlt5vEerXNtby2cUmpfvv9bL/zy/ey/wCtrc0zWP7H8L/2XbzxyXH+rh0mX/nl5X72KWvcPjB+xD+01Npf/CY+I4LG9/suHzIbS0h83zfK82X/AFX/AF1rl7P9i39o3WPC+qfFTQ/B0seqXUPlww6hD5fmxeV/zyo9ojM4ez8YT6P4NjuND0q5to7qH/Q4YbPzPsv/ACy/e/vf+utU7OysdSuvO8R/abaSL95DNNDF+9il/dS/uv8A7bXUfDH9l34t6948uL+/+GXiiWOK8ikmu/J/0WWWWL97/wBMv+Wv/kKu88N/sXfHfTdUvJ9W8HXMcdrDLJZ2lp/qpZZZf/Rv7qmp0QPD9Ss/AGgxXk99PbeXFN5n9n3cP7q6l/1X7rypf9b5v/72ug8K+G59Hlj1XxVrkctxa6b9phhms/3VrF5v73/yF/21r0ib9i34m/D3wvbz6F4V1Ly5bzzJrTyftN1FWHrHwB/aa8SeHI9cg8D6vq2j2upeZqUWo6P5V15X/TKtAOTvNS1XxfdR654cuIrLT7XTYv3sXlSRfZZf+Wtc3N431zxt4jj8OaT4qisfDeg6b5d5Laab5v2+6/e+VFF5v/PXzZf3tdB8SNH+Kngm/uPEfir4c63baH50UmmzQ6b9mlsIv/atc/r/AII+x6Xbz+N/BupXMcWj2uo6P/rY7nzfNl/1X/f2gDL8VWfj/Xr/AM//AISO+0C3v5vM/sO78qKXzYv9VL/y1rL8E/FTxjqVrJ4Hg+w/bL+z8yzml0eKX91F/wAsrnzf3UUssv8A6KrpLy8vryws/FUHhu58UeIL/wAq2m/s688ryrWL/VebFXJ/EjwT4j8By3HjGx8OalpFn5MUepWkWmyx+b5ssv8A6K/1v/bWtAOs0HTfFV5rNx4x+KnirRI47qaL+zdD1az/AHUXlRfuvK/55fva5+bw3B4w+H2qaV9httNk/tKK5vIdEs/Ml8qL/ll5sv72tweA774neHPIsfL1L+xtN8yztIv9bLLWh8PdB8R2d1ca5rmh6tY6XqlnLZaPaatD5XlfvfK/9FeVQZlP4ezeOfCt1efDnwrfabc3lrNa+TqM00sUUUX/AKK/55f8sqz/ABJ4D8Oab48s9DvvsOrW/wBs/wCJlaWkMst9YSy/63zZYqsQ2elfDHWbOxng/wCJhFDLbXl350v73/Wy/wCqqPw3/ZWj+MpNVm0qLRLzVNN+06x/aPmyy3X/AEyilo9oX7I6TR9HsZ/Dd54O8Ha5bSyS6PdRzWnnS/uvK/5ZS/uqx7P4hT6lfWelf2rLZW9rDLbXlpNZ/wDHrL5X72WKX97R8Pfh7qum+HJNK0vxVLYx+I/Nk/s/+zf+PX/nrF/n/nrVObw34VmsbfwpfeHLbSLy1vJZLybUfN826/df63zaBhrGveOP+Ecj0rw54ksf7HuoZY4f7R/e3Uv+ti/65f8ALKo5tS8calpcd9Y6JfaRpdrpv+u8797F5sXlf9sv3tdRo+j6r4kv7ifw5pUn9h3/APy1i/dRWHlf/var2cF/qUsljffabnyvKsry0mh/1v7391QBw/gnxVrsOjaxfWOlWUeqS3ksepTed5v72WX/AFsX+q/7a16BpvjzXNNtdPn1XXLm2uIrP7F/xMf3kXlf5/8ARtY+sWc/9s6H4j0PQ/s1vqk0tz/okP8Ao3/f3/rlUk3huw16W3g1W3/tKSW8lk+1+T5f2WKKL/P/AH6rP2ftQDwrqVjeWuuWP/CD6tLpfk/67UYfM+1WtYfhWb4Y6bLrl7BfSxah/aUVtZ2n2PyrmLzYv3X/AKN/5a/88v8AplVPTdA8Y6D4Ikvvhle3OpW8V5LHNNL+8itfNl/1X/XKrln4lvtS1nUP9OsvtEs1rba9dzQ/upYv+WX7r/lr+9irQzLkM19e+HLjxjqo1e50+1m/12nf8vX/AGyirP8Ah74w8D+JLXUPt08uk3F1N5k2nQwyyS+b/rfNl/e/uv3vm/uq6yXxJ/Zstx4O8Y+b/wAtY/skX7rzf+mX/XWvM9Ys5/G2vXF94VntpNU86KTTfK/5evK/6axf88v+eVAHafEPw3Y+JNBvNK8ZeFL6+uIoYo/smo/6F5UUv/LXzf3sX/fqsfTdS0r4by2eh309lLcSzS20PnWcvmxRf88vNl/1UX73/nrVfxtr+ueI7r+yp/M/tSXypJvKm/1V1FL5v/tKuX0fTdch8R+frniqX+w4oYpPNhhl83yov+WUtaAdBoOpeP8AQbuPSrGx/d2sMskMVpN9ptpYov3sv/TWKtDXrzXNeuryeC+1K9vJf3sOo3flRReV/wAtfK8qpJvFXhzTbX+yvB199m/0P7T9rlhl8qWKX/nr/wB/ar3nxs8K+V5E99c2OlxWcUdnNafvf3v/AEyioMyTU/7D1KK4gsb6Wxs4v9Ch1CabzfNli/ey1Ym8K654k1TT/GMGueXJdTeX/pf7uK6l/wCusVV/Aej+HPG3hz7D8RZ/tOj2E3lwzf6qKKX/AJ6yy/8APWXzYv8Av1Vya8g0DWbjQ4NV1L7Paw+ZZ2k03mxS+VF/yyoNDPvdOvvDcN5BBBbSaxa3n2nztOhi8qW1l83yv9JroNHvNVm8L6x/wkf2aKT/AEW58m0s/wDllF/yy83/AJ61zfhTWND8SeX/AMIdP5sfneXeQzQ/6Va//HYqj8YfYfEcUmh2NjLbaX/aUttqU3neVF/qvN/5a/8ATWgD884O9XIO9V4O9XIYf3tcZ9QXNHh86WvWPhv4b87y5xXB+CdN86/jHkV7p8MdB/df6igD1D4feFYPOjwK948B+G/sf/bX/pjXF/CXQbD/AF99B/yxr3TwfoME0Ufkf6v/AJbVy+1MqpHoQ+2azb+HZ4PtMn+sr3zwfNpUMsdjfGWKOL/UxSw/6qvP/hX4V8m61DVdVg8zzYf+/VeyaP4Wg+y+R9hk8z/ljNXPVPMMebXbHR9LuP7KvvMj/e+dL/zyrvPB+m2Nn8Po9Vnn/wCWNc/qXgOx/wBD8Hfu4pL+bzPNr0T+zYPsFv4cgsf9b5Un/bKtKZnVMPwfo97/AGNp9vfDzbiWaWTyf+mVekalZ/Y7WO3gg82Tya5/R7Ow17xbJqsE/lR2Hm2/lVqXn26b/nrL5tdRmZ+m2eq/ZQf+WlR6xoMF5dRwT/6vzv31WNNh8668/wDeyyf88qsQ+frFrcfuP+W0scNAGWMw6N58EEnmS/u4YYq0IdBv9NsPt1x+8kl/10Mv/LKrFnDPL5f7+Ly4v3n/AG1qxealPNFcfbv+/MNAGPrEP7qT9xJF+5rj/BNnY/8AC5fEmuaH5stxFoNrF5s3/XWWu8mhn+yyT28Fz/qfL8muX+FesT+JLrxBP/YcmmyRa99i8mb/AFv7qKgDU17UoLOwuJ4IPM8qHzP30NEOnX3lW84/dx+TUl5NB5Vx+4ll/wCu0P8ArasQefeRf8eMkccv+uhoAx9YtLG8lszBfeZ++/13nVX8VXk//Cb6PPY6J/aX76WOaGb/AJ5f89a6TTdB0qHVP39j5dvFUnhv7DNf6hfCCL7RF+7hm/7ZVmBXvLOCzv5L6e4/1v8ArqIbzVv7Zjvv7Vllt5YfL+yf8sopaJrye8ijnnuPMk/1X+pqnNNBDL5E/m+X/wA9qANyGaf+1JIJ/wB7b1n6b9uhi+wzwebJpdSaPDb+b58H/o6sfwrNfQ/2xqt9P+8l1KWP/tl/yyoA0Ly8g+1Rwf6u4i/5Zf8ALWibWJ9Nlj8iDy/+u1Z83kZ/ceX/ANvf+trD8Sa94j0fS7i+0PSZNSkih8yHT/Oij8397/yy82tAOom8VaHNqlmNbvvKklh/cw1XvNe0qGHz76+traOL/lr/AMsqjh0HSsyX08EVzJL/AM9v+WUv/TKsf4heFYLzRrgwT6TYxy2f/Lb979li/wCetAHkf7aXxs8K2XgO30PQ/Eemy65/bFrc/ZJof9bFFL/qq90m0fw343tbO+v9DsZP+XmHzofM8r915v7r/nlXxX8WtB8n4VeJPGOuaHJq8cWvRWUPieXypIv9b+68qXza+2PAfirSvEnw00vXPCs8V7b+TF5M0UP/AEypVQp7B4V+GPwy8E38n/COfDnSLG8l/eTXenabF5stR+KtB0PxVo2oaHfaVF/pUP8Ay9w/uqji/wCEjs/s99fX0f2iXzf3MVaEP27Uore+n/deb+7qAKej6boej6XZ6TPYx237mKOGXyf3VaGm6NBDc3EGq1X1KGC80uSDVdVjto4pvM86b/llWH4J8YX2sWtnPrn/AB8Wt5dWU0v/AD9SxS+V5tAFibwH4V1L4oafrk+hxySf2bdW0M0v/XWKrHiTw34O83/hI9V8K6bcyRf8tprPzPKrQ1LUrH+2bOD/AJaf6yGqfjaHztBvL795Lb2tnLJeUARxeA/B39of8JH/AGHbfaP+esVn/wA9ayvE/wAOvhfrVkU8a+GLGdZBmOe8tIpJIRWj8K/G2heMPhB4f8R2GrRyx3Wmxfvqf4zOnSaPd3MNxHIBp7xrj1waUm1Fs3wtJYjEwpN25ml97sYlpoXwOgsY7eHwt4a821ixDLLaDr+7/wAD+Vc/4k+Fv7PVz4i0zxlYeDtBhu7O5xPb28EJjkWUGPOPK6RByfwNdvrWo+LvDPhvwzb+C/BdnNDdeHop7ib/AIRyK4Z5i8gJLtGxzgL3rA+Jml7dC0jXNa8OxaRrl68y3enwW/k+ZCu0RzmH/lmWJYdAG25A6k4TrTjFtdEm9NNbbP5n3+H4Ny+vVjF1JJSbSs4t6X3VlZaPZvoM1rwD8AbyfSLtvDfhqeWCTa0kmmwkwj1+lULz4U/s2a6LiO/8HeHo/wB6SZPsi73A/wBXg55xViT4O+Mo7IylbI3qw+a+irfIb5ExkkwZ3AheSv3gO3Wr/wAKfAdp4s8L+KL26vNKjkttMUWraheLG0MnnRfvOeg27l3erY70o18TKajyWbv+GpvV4NyGnQdZYmUknFO3K/iaS+Wvz6HD+F/gb8Bn8HyaDq/w68K2pivDFG8UUHmXEYOI5ZD5XOI+PrXJ6j+yL+zbo/iq1lHg/TtUtE/1akCaOH8Ja9m+F/w+tPE3h3xVPdX+kLJZ6eq2sl5eqnlSefFmQE9FK7l3dMtjvWdoWh6a/wANPFGo3VrDLdWN7Yx29wpzsDPKG2n0OB+Qo+sV+VOy1Tf3X/yB8GZOp1IKtNuEoRekft8tn6e9+B59L+yX+yjd+L47ybwfbtDJD5gvY9RkikSX39Kv3v7J37JksuLLwHoVtHLN5kwiK+b/AN/M11Xh/wCGfiDX9LTWTd6dp9vMxWzfVb9Lf7Uw4Plhz8wB4LfdzxnIOMXVdK1HQ9Rm0jV7OS3ubeQpNDKuGVhWcsZXjFScNGdVPgLJqtWVOGJk5Lde7/WnXsxlt+zD+yv4fuINQtvDemXTKNhWaYSED1o034Afs3+FrO5isvCelzjU4fLvYhIOKirqLP4QeMb3T47pRZR3U8QktdJnv40vJ0IyCkJO45GSB1YdAcjLhjsRUfuwuKvwBk2GSdXEyjfvyo8b/aA/ZQ+Ax+FiW3w98Hour3GoxxzLptwLkz2ox50UzTfvBFJEZIuvcUukfsO/soajpFja6t8O7aNrOCMpHLrEmEkHXHrXp3hvwjrnim/ksNMt1XyEL3dxcSCOK2QHBeR2wEGeOepwBkkCrvif4aeJvCulL4guzaXOnPcCCLUNPvEmheQhjtDKeo2nIOD07EE2sfi3DmUdCJcAZDCsqMsS1J7L3bnlt7+wx+y/qF3p8r6f9gS1nhEz2usSSSXRj6CQ/wDPOtrxB+yR+zn4s0N9H1HQ9Kdkm8uVp9Qkx5X/AEyr0aD4K+MpLeCS6m0y0lvIEm0+0vdUiimu1dQVMasec5wM4ycgdK5W7tLvT7qSxv7WSCeFyksMqFWRgcFSDyCD2qJ4zFU0nKNiaHh/keJbVLFOTXblZwcv7An7P/h7UV1rw3rsKyrFMLWVbwGWGKTrFWP8J/2JPhpP4bufB3xe1uW+W0vJ9ge+8kXcTkSJ/qv3XBQA/UV6rZWkt/ew2MAy80qxoB3JOB/Ou78U+NLDwD4mufBHh7wnot1pmmTG1uPtunpNJfOvyvI8pG4EtuI2kbeMdKqnj6souUmktu5GI8PcDSqxpUqk5Sab+ytFbrbd3Vl111Vj+YuDvVyzhPm1XhhrU0aGf92YK9I+ROs8H6lBpssfn2MkleyfDz4qT6b+4g8K/vP+WMvnV43o+mzTXWf+Wn/PKvQPAUM811H5F9J+6/10vk/8sqDGpUPozwf8fr6zuo/tvhXzI/J/13neVXYaP+3JqujySaHB4Vi/tDyf3M3+qiir5/8ABOm315df254qvovs/wC9ks4ZryrGj2Wh6/43t4PDnirzftU3lwxTQ+ZL+6rl9kcVSqfXngP9pzVbPRrPQ9c8OWMtnLDL/wATC0mljl83/W10Hhv/AIKE+I9NijvvDmh232eKz8yHT7ubzZf+uVfN+sab4q1iL+1fDmq2N9b+TLHDaed+6ili/wCmX+tlqT4e/wBlWd/p9jqth5VvLNLbfa5YZZP3sX/TX915UX+tp+zpHN7U+5Phh+3VrniSLUL7xz8Mvs15a+V5M1pN+6rU1L/gpBoUOs2+uaH8OY/s8Vn5k377/Pm18r/D39oTxV4J8OahY+AINN+0ap5ttqUOt2cX72KL/nlL5vlRf63/AJa1l/DHwTocOjWfhXwrrn2m88mWOz87UovK8qKX/wAhfvf+utHsjM+nNN/4KieFdO8OeR/wqu9vtU17zbmG0i/dRSxf6qug039v3Vde8JXF94V8D239uWo/faTd3n/oqWvj/TfB+uWcv9h3+qx6lqFreSyabaf6rzZf+Wsv/TXyvN/6Zf6qrk1nP43+IWl65Za5c/aP7S/0zTtOs/Lll/8AjUVdHs0B9IeJP+CkHiPUpf8AhFfB3hWXw/qkvmxXl3qMPm+V+6il/deb/wBdZf8Av1VP4NftvfFTwr4Xs9K1z+zdWjl1KWObUdRm+zebF/2yrwvx548g8N/Eu88OWPhSK5k87zLObVvN/exeVFLL5X7r97/11/1X72uX0fWPFWpazb6V/wAJV5WoXV59pvIruz8q6ii/e/uovK/6Zeb/AK397/0yp+zRmfaGvf8ABVD4c+A768sfGPhW5tvstn9pmu/tn7qWL/plVib/AIKcfCvXvDn/AAkfg7Q5dSjlmij/ANd5X2X97F/8dr5L+Ko0PxV4cuNVvvKtreWz8yzhu7OL/Vf8sv8Atl/36qn4Vm/4Tz4Xxz/CS+itreXTZf7Smmhitoov9V5Uv/XKLyqAPrTUv+Crnw58K6Zb2N94A1KXUIporaa0hm83yvN/6a/88qsWf7aXiPQfG/2GDwrHLp+vTeZDLNef6q68r915v/TKvkvR9Y8KXlhcQT2Nze3ml6lFH/bnnReb/qv9b+6/deVUll488Y69Fb/DK+0qOO4uppbbR9Wi/wBN+1RRebFLL+6/1VAH1Jo//BRrQ9elvP7V0O5ubj7Z5flWl5F5X/f2tDWP+CgWlab4Xk1ux8K3NzeWv7y8tIrz/VS18b/s63nhzQbDUJ9D+zSW8WvfZobSWH97fy/9/auaxZ/Dn4hfFDXPDn/Czbn7PqkMVzqWkwzRf6L5X/TX/nlS9mhe1PcLz/go18W/EnxL0vxV4c8Ox2PhfS9N+26lFd+VL9vi/wCWv72vSNB/b2sde+H1x4qPgCW2/fRR3kP9pRf6r/v1Xy34w8H+Mf8AhF7jw5pX9ky/YIfL0200mH91L+6l/wCWtYfjDwf4q+FejW99/Ycl9Jql5Fbf6Jef5/e0/Z0A9qfVnw3/AOCivhz/AIqSDx/YxabZ2Gpf8S2XToZZfNi8qtDxJ/wUC+Ds1r/atjBqUlvLeeXD+5/4+v8AprXyX4D8E32sWHiDVbG4lstQl82287UbyK5l/wC2sUX/AKKrk9S8B+Kob+PStV1XTdS0+KH7TqWnQzSx+VL/AM+v7qsvZGvtEfcHg/8A4KQfCSeG4vv7K1aK3tbyW28r/rl/y1/z/wA8q831j9tLx/pvxpuPib4c/wBN8H6ppsXnaHNN5Uv/AF1/1VeHw/s06V4w0aPVYNWuZZLqH7RZ6fLN9i+wf/Hf3vm/9/ajm8/4M61Z+DtD0q2vrewm+0zTXfm+VLa/8tfKlrVU6Jl7U+sPhv8A8FIPB3jbzNV0r4V6/wDY4oZftl35P/PL/wDdV3mm/tdfDPXrC31yx8K6tbW91+88m7s/L8r/ALZebXw2PidfaloMmh32qxWXiC616WOztP3Vt5sUsvmyxRf8tfKii/dfvYv+2tbnxO/srXvhzcQeI/EdtpunxTRf2l/Z832mWKL/AFX/ACy/1VL2aD2p9eQ/tyfCvTfLsf8ASba4/dfY/tdnRqX7bHwd03wlJBBPq8scvm/Y5fJ8yWWX/P7qvzzm17SrO/1Dw5/wsa5i0fQbP7NDqOrfvbqKXzf+uX/PX91/2yrL8bfHLXPB9rHP4AgkvrzVJpbKaXyZf+WX737VFF5X/TKj2aD2p9QeKtS+EnxU+A/iDwrY+Kr6+1y/s/tM02rfvf8ASpZfN82Lyv8AnlVz4D/t+eI/hj8NLPw5448D/brew8q2h/s7/W+V+6/1v/kWWvD/AA38QofCuqeR4b0PxJc6pf6D5kP2uzijii83/VeVL/z1/wCmVV/Cvn6Dqkfhy+0nUvtF/Zxaj9km/wBB/wBba/vf3v8Az1rX2Qe1P0Qm/bM/Zeg+x3194/tvMuv3f/TXzap+Kv2/P2evB/g2TVb/AMVebbxTfvv+esX/AF1r8z4Ydc0HQdQ1W+sbGSO//wBJ02aW8+0+V+9/56xf8taz7P8A4SrxV9o8VQTSXvh/WdStZJvtcPmfavK82KWKXyv9VR9VD2h+ln/DeH7LusRRwQeMbaX7fDLJ5X/LWvN9N/b2+C2g+N7ixsdD1u2s7XUovscUWmxeVFFL/rYv+/tfFcOj+FYfi1/wkcGlX1zefbJY/snk/wCqtfK/1X/kL/W1Hr37QvhXR9U8jyLbVtQl1K/tvskX2qLzbXzf3UvleV/raz+qh7U/TSf9vD9l6bxHb+HP+FjWX2iWaKP7J5373zf9b/zyrz/4kf8ABQj4H+FfiXcfDKfStSufNs4v9LtP3kUvm1+fdnP4cs9L0f8A4QDQ77W9Uurz7TeTXepeZ9l/dSyxS+V/rYq9Am/4QfR7qTVZ/t0ceqWcVtNqN3N5sUUv/XL/AJZUfVhe1Prz9lH9sb4Z2fhy48Aa5PLpv9g6ldSWfnQ/urq182WWKX/2l/2yr1C7/ap+DXi6wuND0DxTaXU99C0FtEbiNWV2GAAByTk9K+A/CvjfSvCs15B4j1z/AEP7ZFbWcUOmy+bF/wDapf3sv/XWrn7ONv4O1H9qPSo9P8QS6neQ3N7cyQXGkRrFDC9vIyOkg+bcHC/f59KyrUOSjKXZM9LJv3+b4emtLziv/JkfpR4htvjRdeGPCsnw8PiBrFfDMIlOlSS+WJBJJkHYcbsbfwxVLVtZm0HVPCGp/FKZpddsdV87UTM3mXCWQaNovOIySwO8hT82MA8EV8s3X7SHxH07W/EOk2fhaOO00e5dLS6a7ISRRMYQZNrHy/3m0ZI/jHFc9p37WPiuTxNHo/iDStOjE8mAbK2muXXKbhuxIM81FPB42vDnpx3tvJW0t0+R+jVOIuHMHWdGvVtyuabjTak78yacrvTXtq0j660/4e+MdP8AiFF4yvJSmkw6kL9/Eu9TbtAJd/mhs4ZiOiD5ix24zxTPCd1B4q1jxvp/h+3Hna1YTNpdpnBkxdRy7FHdtinC98V8bfEL9tH4j+FDq2iWnh3S7eTSY2nlg1ZpkUJGMSNtDjkPxXN/DX/goJ8RPFLwXeteCdGtYrjyWsjZyyu9x5iMw8s79rNlDwGrGWDxNOaiod7691Y1fF2QVYt1K7crRUWqbSXLJSV1fXVK9mlba1z7j+Gumai8XirwZ9kddUvNEMVvZyDa7yRzxSNGAer7UbC9Tim6HFJpfws8X6TqSGC6W+05Wt5vlcEPLkbTzxXyffftj63Ym1uGi0XzZZWBWSWRGZo/9YquX2bx2G+r/wAffjF8XtP8MeCfE/wvuILSPXLc3msm7t42ZYfLhcInmnAk+dsDnOD6Vn9VrwlCDWr5kte6fl5neuJMnxWHxGJp1G4wdOckoO91KK0u0rPlWm61d3sfaF3qmreK9J0W98E/CrRPEVtDpNtZyyy2ckk1pMiBWikxINozlgxAUhupwa88+Jer6hrXi+4u9UfTjMkccLJpTFoI9iBQisSd20DBIJBI4JGDXxLL+218WNU1PXLbwr4ql0+1sY5Y5p5tEHzjy8xyQfL+/BPY1z93+2N+0NoXwz0XxNqnxK0J7+9lkiQrb2zxXgEbMJP3aHyhlDx710VsDi60baeeun5fqzx8Bxlw9gazmozaSaXuq9m76t1GunRK/U+49Jubez1S2vLuDzYorhHliP8AGoYEj8RXceN/hz4x8XeNr/xZoEQvdJ1K6ku7fXPNVLZIWJbMjk4iKAEFWwwK4x0r89/CX7cXxb1jRoLfUtTsmvTpcl5eanaW8a2toBnAkikQSjqn51LH+2t8ZNPnuYLzxpCtpGkU7s8VnPC/zbJI08g/MQcHJ9KyhlldQcZWa30dv0Z1Yjj/ACedaNWjzqSTWsE1ZtP+da6d7d1tb778OwXPirwTrfgrR9RW71mTV4r1FEh3alEiSKwQvgsylg4U/MwJOMg1a1nwzrvg/wCBUum+Jbc2N1c+J4ZY7CdwJjGIJF3snVRkEDOM44r4GP7Yfxs1OzvIfB2qafNNaw/aF1eQw/ZD827yY3VQDLt45rP8Kft+/ETWdAubvx3q7WGpRyOGNvpcdyiIH2gkhueK0WAxHLqlezW+n5fqc0+Nsldb3XNQ5lNrkje6SVk+dKzsujt00tb9Fvil8M/HfijxFp+raHo0l7bT6Fp4N3HIpSMrax7vNYn9165fHBz0rlfi3rGm6344nu9Lv1vI47a3gkvVBAuJI4UR5BnsWU89+vevj74nft9fGLxVqMuqeEJnMNhoNlaX9u1vbIxktbFftE4RXcyKzRMQo6DeP4RXA2v7cHx7kWxi1HUPsw1GEXNhqP8AZcBt7iJfvRBQrN5p9c5/6ZU8Rl9ablyW1d3d/wDA8/P/ADnLeOMpw8abr87cI8qSglva925u/wAKtZJbu21vuHTL6TTNSt9Si+9bzpKv1Vgf6V3XjX4YeKvGXjS78T+C9Ka90nWbh7y11BJR5Uav87CR2I8soSQwbBG09a/PCX9sn9pJfC9laXmm3Fjrb2Lz3k72NrNaG2dt0N3G6gA/u+fKPNRW/wC1z+1Bc6BO2l+Oobi/EdvNJZ2umW5t2jZtjknZmLB5/e1z08BVUXGaTW+9v0Z14jj/ACedaNajzxkk1rBNNOz2U1qmtNe/e6/KqzhPm10nhuzggl/f1j6bZ+d0rpNN037ZFHBBbyxf9Nq9I+HO08K2cEMUggn824/55V0EM19DFH4csbHzI5f9dLNN/qq5vwr4b1XTfMng8vy/J8zzpq9A0ebQ/wCwbfXJ9Vik1SKaKP7JND/rfN//AHVBy1DY0fR54bWzg1WCK2klm8uGH/W13Gg+CfDmpeXBY2Nt9s0v93ZzeT+9lirz+88N/wBm+KbPXLG+ubm8lmi/cwzeZ5v/AGyr0zwf8SLHTfFtnofhyxub64ivPs2pS/uv3Uv/AF1l/wC2VZnCampaD4jmsNLvv+E4kis7WG6kvNR/56y/8sopaj03Xr7wro2oeHNDnsrmSL7Vc/6X/qrX975tV/HmpeB57W40Pxj/AGlHJrPm/vv3skv2WrGsfCux/sbwvfDVbaxuNU1KX+3odWvIooov+eUv72Xyv+eVXT2M6pY1jQdD8YRafY6VPc2Nx/Y/2nztOm/e/apfN83yv+/X72tDwd8Pdcs/HkngDQ9KttSvJYYpIdbmh8zzbX/nlWfD4P0rTfFMng6+8ValFefbPM027tNHil/0WKKWWWWLyq6zQbOD4e2Hhe+0O/vtXkuv9N8nVv3VzFLL/wA8v3X73/trWpznQaPpljpsun301jpt7JpesSyaxq0P7uLyvNi/dS/9Nf3VbHhvw3qtnqn27SvGNtLb2EN1c/a5pvN+1eb/AKqWL/rlXP8AiX4G+Krzw5eW+q+Kra+1C/m8z+ydJm8uLyvNlll8r/Veb+6iiq54JvPB3wwutP8ADkGlXMuoXWmy/Y5dRh/e2EX/ADyl8qX/AMhUAcXZ+G/Dk3ijQ77wP8Rr7VvEH9m3VzeTQ3n+ql/55f8ATKtSz+GM/gnWdL8VeI9Kki+3wyyQ6f53+tl/56xS1X+GNn4xs/iDrHxG13w5YxaXdQxR6D/wj3lW0t/F+6/e+V/rfK/7ZV6Z4kh8Y+PPCUk0FvbalHdala215ok00vleV5v+ti/5a/8AkWgDz/8A4ub9qt/Ef9labc+H9Zmik0e00m8i82KL/llL5v8A5C/7ZVsQzeFfB/w+/wCEV+JuuW1tqGqalLHeafaTeZLdRf8Aoqqf9m+P/gzYahpWh+FdN1vxBYeVFpuoeTLJFFFL/wAsoov3v/kKKpNH+HuleKvG2uWPiOxtra4+xyyXkVpDFH5sv2WX/Veb/nzazAj1iHxH4b0+SCwvrnV/C8v2qSaHzvL+yxf8spYv/jVanw3m8Vf8I5Z6r4V8Rxxaf9sltoZtRm/0m6l83ypf3sv/AEyrUs9f8HeAvFHh/wAK30Fz5lhD9p16GWb/AEWKKX/W/vf+utSaP42sfFXhzWPCtj5ttJf3kvk3f2PzIrWKKX91LF/01oA4PwH4D8VfapJ/7cjtvsHiS1/se0tIf+PWL/prXWePIdD8B69/bnhX4ZRX2oSw+Z9r0mGKOXyvN/z/AORaNS+IcFnfyeB/iN4j+zSeT5mmzRQ/6V5X/PXyv9V/ra5/xJr+h/Dfxvcar8RdDvr3T7DyrnTdW0m8iii+wRRReVF+9/66/wCqoA6TWNe1zWYtPsdK0ry9Pv5vL1jyof3ssvlf89ak8VeFfDmsWtnY+DppdEs7DXvLs4tOm/ey1HZ3nwy+PGvcQalLZ6pZ/bbzQ/tn2aWXypf+WX72sfxJZ+KobD/hB9c1z+yNHtfNvfJl82KWXzZf3Uvmxf62X/trQBz+j+FZ7Pxl4gn1Xxxe/wDCQS6xax2dpFN9m+y/6qWX/rr5tZ9neDwp8QrjQ/ibYy/aNLs4o5rTT/3sUtrLF/rf+utbmg/DzSprWz8f33iPxBbafa/upppZv9Kl8qXzf9b/ANdfKrn9HvNc8YaNceFvFWlf2v5vir7FeedpssUsXlS/62K5/wA/9da0A9M8HeKtDs9Ls9K8HTyRW9r5skP9oQ/vZYv+WX/kWpNY8Yarpvi3R/Dnj/StIl0v/mJfa7yKTzYvN/1VYfgnwr4O+Huqx+Kr7y5LOKGWOz8mGX7V+9/1vm/9Nf8AVRf9taseNtO8K+KvB2sT/E3/AEb7BD++hh8qSKX/AL9fvazAw/iRqWh+NtU+w/8ACHWUmj6pr0V7oOuaT+7urr91LF+9/wCeUXlf+0qx4fh78YvB+qXGuaVPpv8Ap955c1pqM0UttLaxRf8ALKKrniTx54q8YeHI59D1W+0TQ/O8vUptJhi821i/1vm/63/tl/21/e1x/hX4keI9S8UXnxU8VeDrnUvDelw3UegxSzeVc/uv+Xryv+msXm1oZnUfEK88K+MPGdvpWqzy/wBl38P77T7v/Rovsv8A8dri/h7D4On8Ua544vtDvrnw/a69+50nyf3trFF5XleVL/zyli82vRPCum+B9N+0aHY6VpOkx/2bFq15L5N1JL/y18r/APdVzcOm+OPDf9qWPjjxVqWrf2peWsn/ABTN5FFFa2vm/wCquf8AnlQB6J4k8SeDfGGg6H/wiviPytLim8uzu/tnlfvYpf8AVf8AbWqfxI0bwdqX2fx/44Pl6x532LR9Q86WSKKL97L5X/tKq9nN4V/4Re48OarPon2iLWIpNN8qGLypYpZf9Vcxf89a5fTfidY/Bm11DSvGPiq28QR6pqUtzo+h6T5vlaX/AMtf3sX/ACylil/df9taAMPXvhL4jhv/ACNV8R22gRy/vNHtIrP91L/11rQ1LUtc02wuP+EOnuf9Ps/s2sQ6TefuopYpfssV1/11/eyy/wDbWub8bWfjH4tfaL7VdVk+x3U0V7/pepf8gu6/55eVXSeCfDfhzTdZ1CfXPsUcl/oNrJeWk2j+V+6/5ZSxf63zf3v/AJFrT2jJtVOb03QYNA+H1v4H8f8AjG9udHuvNjvNcu/3Xlf8sv3v/f2o/Dem6V/YNn4V8DT3Om6p4Xm8y81Gb/mKeVF5V15UVanjbw3/AKLrHj/4t6Vc3Ol2HlXMOneHof3sv72KLzfK83/0bXWeCdY8K6b4cs/EeuWMVteXUMWnaPaTabLcy+V/+6oKMvwfZ+MYfB1x44MFzpslh/oX2SKH/Sb+W6il8rzf/IUX/bWtzxJeT+JPBuseONKn02LWNG8q286GH975sX/LLza5/WP+Ej0H4qf8IPBfal4g/tnXopPN0688uKw8qL7VFF5Xlf8ATKrHhv4wfDnWLr7dffadSkl/eQ/ZLOL7DLFL/rftPm/8tf8AtlTqfwxez9kXPid8U4PDdrJ4j+O1jLZXl1pthbfZNOvPM+3xS+b/AKVF/wBcpf3VdN+xH8UPh/r3x6i8IeHdYsbyJbaafTBFFGJLVvKffCcc/dyfwrxX4nWeh+Ff2oPI1zVf7ft7qzik0e7/AHssUUsv/PXzYq9q/Zj+E+k+CP2pfD95q1h4YttY8i9ki/4R3dmWOS1b5pN/Oa58R/u0/R/kepkP/I/wv/XyH/pSOvvdW0C4+KniHTL++isLGTxFei6njXfHIVkI2OOzLKPMPvJVLxJ4bvrP4g6fB4Ogkkt7qHy5tRlh/dS+VVC8g1O/+L/xC0VdWlsvP8Tyy2Xm+ZswBGrbcGMeRkmWTk/vMc1t2WvX00kljfa5bf2pYfu9Nlu5vNill/5a+V5Xm/8ALKvVwntqdGLp9kePnNS2ZV/8cv8A0pkfxO02fQbCPxH4j0P7NHfzS6dNd/bP9bL/AMtf+2VeH+JPFXgfUrXw/q2leHL25jtZr/ybuazi/wBA8r/VeV/z1/e+VXvnjHw3pXjzRrjw544gvrm8/wBXDDp15F+9/wC2VeN6l4J1zwTfyeB59KltpIrOWKH7XD5f73/W/uv+/VGIp/8ALwxw4TfD3Q9H0u38R+I9V1L/AI84pIbu71KX97+6/wCWVe2/tJ+HbHxf8Nvhp4O1W+mh0htNN3dXCXX+kBorWFYijfxtmU59etebfDG88Y+ENG/sL/hI7bUriL93/a2owyyRSy/9Mov9V/5Fr039qTTfEOueBfhxZw6gLZvs/m6gTp253Ahh3KE3Hy+T6PjGMHrXlV/94per/I+wyj/kSZh/hp/+nEfOV5eQeA7+8n13Vb22t5fKkhu5ZpYpftXm/urX/rl5tV/B/iTSv7Zjn1zQ9A0S8urOL/iU6fD/AKqKXyvKl/8AItdxN42vtY0G4n8V+HLm50fS/wDjz1bXLP8A4+v+2v8Ay1rH+GPgPwDqXjLT9V8Aa5c6lb6zDLp00VpeSx337r97F/rf+mX/ALSrrPmj0TTfCuuaPpcl99uk1KO6vP8ATIov+WUXlf8ALKL/AK6+V+6/6a15HDo+uQ6pHfeKtK+065L5sc2oRTfZorXzZfNlrc8EzeI/7Z1TSr77T/oupeZ5Vp+6lltfN/1tzL/0yrU8YWf/AAlXwvj0PxJP/wATCKaKSbUIdNillilli/df9Nf+/X/PKsyap5Ho/jXxHo9rrGh/Z9IjjupvMhu7uH91FF5sXlReV/qv3tdxo9nrmj6NcTz65FY6HdWf7m7ms/3sv/PX/wAi1y+gaD4c8B/DnVPhzqulXNzqmjfu/tdpZ+ZFdS/9vf8AqvK8r/llW5Z+JPH95o3iD4c+KvFVj/otnFewy6fD/wAspf3vlf8ATKL/ALZVoZ0yx4DhsbyLVLHQ7GW5t/O/0z7X/wAvUv8Ay1i/8ixVz+val4q8B6N/xVWuaRJ/0DbT+zf3Vra1J4kvPCusX+l+BvsNz4bvLXypPO86WS282XzZZYvN8r97L/2y/wCWUtU4YfEfirxlp/w58R6rJbR+TLHptpLeRW3my+V/qvNlioNjc0fV7H4heEpJ555bbxJ/aUtxeRfbIpYrW1lii8r91/qv9VFFUcOg+KtB0a4vrHSotS1zWZv9D/ffvbr/AJ6/63/plWHpvgm+stUuIJ7G50CSXUvs15/Z2pReVdeV/wAsv9V/2y8qrnjb4heKvBPhePwd4bsZdNvLDzbmH+zoYvNii8qWWWW2ill/1vlRUAfE+g2fnS/Z/wDWV3HhXTb6bzPI/deVNXP6DD5Plwf8tK7DwrLfw3X7+CWKP/WTedXGfR1TrIdBgEsd9qv2ny4v+WUUPmRfvf8AnrWp4b8E6VeeN7ee+vvs32rzY7O0/wCessVU7PXtcm1qSDQx9uj8mKPyf+eVd58PYfGM2vW+q65pX+h/6v8Aezeb5UvlUHFVNjWNH0PU7W3+0TxWOsWH7uzih/1vlebVybXf7Y1648D+HPDf2G4sP9N1LUIYf3sUvlfuv/aVZ/xgtPDnwx8R2/irVYPtNnqn+utNOvP3sXlf+0q2PBNnpXiTVI/HFjrkljca9efaf7J+2eZFLF5sv/kKg5Q+FdnP421m4sfFXiO5kvLWGL7H5Vn/AMfUUsv72uo8babB4w0vXPAGq+AL2W4is5ZZtW+x+ZLF5Uv/AJFlqT/hA4JvFtx8R/CtjFJZ2vmx/wCp8z/ll+9/55V6RoFnf698ObPQ9Ksba21D+zZY/O/1V19qrQzqbHznpvwkns9B8P8Aj8arqVt/xOIrKbzofMli83zf9b/118r/AFVfSHiqb+zfFHhvSf8AkG/YP9Nm/cy+V5Xlf6qWWuX0Gaf4e+DdHvoPEer6bJa69Fp32TyYv9Kv5YpfN8397/qv9bWHZ/HjxV4w8R654O8f+FbmKSLWPM02byfLuooopf3X/bLyqDnO48N/Eixs/wCz9csfAEljod1NF/YM0155kssv73zYv8/89a2PjZpuleFdZs77wr4Vlvry6/dwxf8ALX/pl5sUtZ+g6l8HZtL0+f4SeDr22j/tKKym1GKzltpfN/1sv+tl/wBV5tYev+PPjH4V8R3H9q+FdJvbf/j5h1HUJv8AyF5VBoanwf8Ahv4x8N6DH4H1X/iZaha6bLH/AGjdzf8ALKX/AJZS/wDPKug8N6lfabqn/COeFfEekxR/bLW5m8797+6i/wCWUVcv4b+Fc/gmw1D4qX1/babp+qTf8S2K083915v+ql/df9/f+2tbln/YX7Pfhyzn/wCJv4gk1TUvM+1zfvZfK/5a/wDbKgDD+MGpaHD8S49c8c3+paRHdeb/AGDqPk+VLFdRWsX/AD1/661J4J1LQviF8NLjxV/wkltq2qWEMVtqWoatN5cssX7397L/AOiq83+JGpT+PPirZ30/2Hxbo8upf6Hp81n+98qX/pr/AM9f3VekaP8AD2bR7C41z+3NNtvD/iizisv7Jh03/Ropf3sXlf8Ao2gDx/wfr2ufEjXrzxxfeHJf7Pv/APRpvO/5f4v9VFFFF/zyrvPg/r2h+KvFv/FD65bR+JNG02XSZvCcs0v73yv3sUsvlf8APWX/ANG1HZ/s3wa9YWdv4c+zR6hpdn9mhu4vNjii/wCWX/PX/plXP+Cf2ZNV8bapqHxN8HeMrbSbiwvLr7Z/ZP8ApMt/F+68r/rl/qqAOw+MGveTa2/iPxj4cuZdcv5vs32TyYv3X/7qqdnqWuaR4Y1S+10+V5uj+bZ6JLD/AK3/AJZSy3P/AG1tqJtH8cTazpfhXVZ9X8UyaND9m1j/AEz7NFFLL/rYv+mv7r/lr5VR+JNB0r4Y6N4b8HaVqsssd15tlqUt3ZxX37r/AJ5eb/yy8r/tlQBz/wAN/HnjH4V6L/xNdDl1KTXrOX/RLSzl/wBV/rf3X/XWtj/hKvFXxUlkh+I1hJpElrNdXujw+T+6ii8qLyvtMtR+JYdD+MHijT/Dnw5nl1Kz8OaxFc6lqM3+quoov9bF/qv+WX/LKuo0f4Y+FdSik+I3xG8VWOrXH+ss/sk0X2qKw/1vlfuv9bQAfA3TdD+IXhuTSvHE/wBm1S6/eXn9n+b5V1LFLF5UtU/ipqX2zWfP8D+I4tN0eWGW51jToYf9VL/qoqx/Enjzw5D8ZPD+ufBaC2to5Zv7R1j7X+6i+y2sX+q8r/trUniTxt4W+G+s6h4VvoI9S1CXQf7WmtIv3fmy+V/raDMz55v7B+HNx/wnGqy3NndQ2v8Aol3+7upbryvNii/9G/vf+uVU/CvxO1zXvFEkHiOxstI1z/V2f2v975sX/LKKWtjXvGFx4J+H1v4xnt/+P+GL+x9OtNN+0+b/AM9YpZf8/wCqqvN4C8OfGbzPibcaHfWOuSwxfY7SbUvNtvt8X72KX/tr5VFICPTfEnhzw3a/2H4H0q91fT9Z02W2m1DTryKW20u6i/eyxS1X8keMPgjJ8TfEelWNzH9j8uaK08qKWLyv/atbEOm+HNN8L6pfX39kWNvYf6TqVpFDLFFLf/6r/nl/zy8qX/trVP4e/DGCHw54T+3fbZZLrzftk0MMsv8A29eb/wAspfK/1VAEmj6l4c+JGjaX4xvvH8kclreSx+TNZ/vZYvK/5axf+1f+mtYeveKp/hL4cj+HM8Eur2+szRXOpXdp/rbqLzZfK/e/8tfK/wCeVaHwx0fwd8TrrUPDngDw5qVtHa+bJNq2rXnlS2vlfvYv3X+qrk7z4hatD8Vbjw59uvtX8N3+mxXPnS2f/Hrf+bL/AMtaAOg8YQ+MdY8e2c3ir/im9P1S88z7Xaf6qWX/AJZS3P8A01q58Pfhj4V/tTxBfXvge5ks7rTYrL7Xp9n9pluov+XqWL/trLLVyGLVfCtrJP4O8cSy6ha/ao9NtLvzZYrr97/y1ll/e1Y+DPiqCbRvEFj4O8OR6Bql/efZ7y087zfK/exRSxfvf9VLRUAp/wBj+DtHtdQ8AaTqtzpul+Eof313qMP+ti/55f8AXXyq5P4qeNdK0e6uJ/8AhKpdS0uLTbC20f8As/zbmXzf3X+t/wCeX/22uk03wHN8eLbVJ/FWq31jZ/bIory0u5pYopYv+WvlRRVzem/DDQ7O6uL7xHBe6bZ6XeRXM0UvmyxXX+i/62WKWg0DWNeg8K/C+T4j6rBpN7Z3U0ttr2n3d55nmxf8spYv+2vlV2mj6Z4c+P8AFofhX4c65fabb+Eprr/hJLSL/SZZYvN/dRSy1w/gPwfP488Eahq3hU6bq3h+1muv+Jfrln+6v/3sUvlf9cv3Uv8Aqqks5vEfwx1mPxHpU9l4bs9Gh+23mo2lnF/pUv8A0y/65Sy/88q0MqhTh+EvjjUvihrmlefFFrks0smj3fnSyy2sX+q8qWX/ALaxf9/a1Ph7psHg+/8AFnwy0OxttS1DS9S8ybSdJh8qK1tf+WsXm1Y8K/GzStA17R/H/wAVIJdWt9Umljhu4v3cUv8Aqv3v+trP+M0Ouf8ACUappXgCfTbazv8AUovO1u0mlill/wCWv73yvN/dVmdOIxPtaPs/ZlP4nfAfVdB/svVfhz/pN5o00Vz503my3UX+qilii/6Zf6qu5/Yx8catr/7V/h7Tzc3MFrFp90nkSjzlmMlrLMCH/wCWeOuO9W/iR4w8R6x8ILOCx1W2ubeKa1ttSl07yvN8r97FL/rYvNl/ey/9Mq4L/gnPq1tp37YltoNlZ6hCstzqcXkOv2eKGJLaRo8x/wDLTgHntU4mDWHn6P8AI78i/wCR9hP+vkP/AEpHr/xG1f8Asv4ueKn8X+K/K0/SNUvWth5WYgLhzJvk+mPK/wC2VXrObSvEl1o/jHwBPbXvlaxF/wAS+Gz/AHv/AE18qsr4wRrr/izxl4Zh0yS6bU/EdzHOokC/PFIcJuWQSR4i/eZAAOKofD2aCG6vNKsb+50nUPDkPmQ+VN5Vt/2yrsw2Jq08NGHkjz8woUcVns6M/wCeX5s+8PgP+zT8JPid4tuIPiBfXP8AaFr5VzDpOn/u/Ki/1v73/prR+3h+x/4A8H/DmT47+AP7SivNGh+0alDN+9+1Wv8Ay1/79f62uT+APja+0fxR4f8AGPhXW7m+j/dRal5P73zf+ustfbl74q+GfiTw5J4c1vVbaW31SH7PeWn+s/dV9F9XpPCHzHPWWMqI/GPxt8Zb7xh9jg0PSvK0+6/13kw+bFFF5X/o2u//AGl/GeqeBvht8K9e0y7IEWnl2kuY8iXbZxnaR/E7KGwnfB9KyPjx8MfAH7N/xz8SeB/B3gD+19P/ANZ/qYpfNi/5Zf63/VRVc/bb1K1h+DXgKzsp49LL2QubO2nn8qEeVHbsImX+LAOAO2DXyuMp+yxtL1f5H32Rf8k9mH+Gn/6cR8//ABC8S+MbP4X+IPGP9uS6lJrOsfYprSaH91a/88v3VWIbPxVoPhHw/N8OdKsdNuIryL+2Jv8AW/6r91L5v/kL/v1WxqWs2N58OdDn0rXJNJvJbyKT+xJtHik83/plL/qv3VZ/g/45eAP7L0/Q7HxHZS/aryW21L+1rP8Ae/8ATWWqPBJIf+EV/t68+3a5ZS3F1pv2a80+L/nl/wAsv+mVR+MNM0qfwlo/iO+8R/u4rP8Acww3kX/H/FLL/ov/AH6qPUodKs/Ed5rnwr0qSTS4v3kMWowxSxWvlS+bL5Uv+t/e1c+JPwxn+LXg231X4V/Yba81TytW160lvP8AQZZYv+mX/PXyqANjWNN1XUvhfceI/FWuf2TqlrZxXPkyw/uvsEssX72KX/Vf6r/W15v421LStNv7jxVPBq97p8WmxW0Oow/8fV1L5X+q8r/nlXoFn4k8Y6D4I1T+1f7Si0uLQZfsek2n72K6ii/deV+9/ey/63/lrWPo+g2Pjzwlp+lar4blsdDsP+JdZ2mn3kvlXUv/ACyuvNrQDm/7H8R2cMniLVdKvvtn9m/aYf8AnrdRRRfvYv8A0bXUaP8AGax8YRWeqwaVc2Mejf8AMPlh/e/uv3sXmy/8sqj03xJpXhv+z/hzcaVqVzrHky3MMPneVFLLFLF5v/XX/W1Tn0GCz8b6hofiqe+0S81S8ltodQm/exRWv+t/1sVAHJzeJLfxt4t1DwPqvhz+xPEEX+m+Vd3nlfZf+evlRf8ALWtC8vNV0z4c+fPPZXuqaXeRW1n/AKq5iuvNil/eyyxf8sv+WX/bWo/FXgPxFpt/rGlarfRS3Gs69L5PiHUZv3sUUv73yvN/1sUtak02leFfC9x8MtV+wxfYNNlj+12n72WLzYpf9VF/y1rMD5T8K+RDFHPfQS/9Ma6zQbLVdS8u4g0n/j6m8v8A1P8Aqqj0fR9Km/cT+ZFHXYfD3XtCs5ZIDqtzJJ/zx/561zntVSSHR9D0e6+3X/mXMkUPmQ/2d/qpa9U8H+FdKm0u80Oe+vra4lh8z7JFN/qv9VXD6n4b8HHXtDuJ/t1teXVnL5Pk/wCq82uo8K2eh6Pf2ela5Y3NzrFr/pt5NDNL5X2WWKX/AFtZVTlOP1jQfB154jt76+1aW9jih+zTQzf6qX/prXoHwxs9D17+0INcvrm5k+x+XZ6jd+VbSxebaxf88v3X+qirqNB0Hw5qXl6H4c+02Mcum+VZxf6qKXyq6Twr8E9KhsLPVfFWleVJYWcUfk/bP9Glll83yqKRnVOP8B6P8atN1S8g8K/ZrHS9Gh8zR9J1abzf7Ul/56+bWx4k1jXdS0u88Rz+Kr6O4v8A7LJo/hi0s5f3ssX/ACyil/5ZfuvK82o/G154/wDBOvax4jn8OXMfhews4vOmh/df5l82u48E69pXiT4S6Hrmq/2bY3Es0XnSxalLFL5sUX/PL/W10nOeP/E74wT6Po0eq33gePw34kv/APkD2ks3l/avK/5ay+bL/wBNa9g1LQdc034X6X4/8VarbSapL5VzeTedFH+6l/5ZVwesfDfxV8Wtejm+Juqy6v4fl1L9zDaQxeV+6/6a/wCti/55UWdn4i8N+F7fStD+KkVtHqlnLFo/2u8ljitYov3X/LX97QBoeFdHv5vihrnkfEa5trOXQYvJu7v/AI8Yorr/AJ5S/wDPXzf/AEVWp4k1LxxpvjfQ559V/wBH1SaXTtNlu9N/deVF/wAtYqk+HtnY/EjwH5//AAlWka/p/wBs8r97DL/z18ryv+/VYd5+0tY+MJdLh1X4LRabHpeveXpurXd5/wAtYv8AVS0AeoeG7z4m+CfhLrFj8W76OW80uzik1KaKzljiltZZf3UsX/PWubvbz4m694Nj0qeylubiXypNH+yWf2mWWwl/56xUfAf4nf8ACVaXqkFhodzYyX/m/wBjxa5eS3N1FF+9l/e/9taj8B+G/inrvhK8n8R+I4pNUl+3x6lqEPm+baxSxf8ALKWgCPXvAfgfwH4SuNV1yxk0i3sLy1j0eWa88z97L/z1/wCWtcnr3xOg/wCEc1Twd/pNj++lufKu5vK82KL/AJ5f9Mv3vm165pvw38K/Cvw59u1XxVe6tHFZxSTRRf6TL+6/5a/9da8v+Hug+DvG11qnj/xlpWt31x9sutOh0nUZpYvtX73zYov+eX/LKg0Ow+A+m+FbPwFp8H/CVfu9U/dwww3n+leb/wAtax/B95P8MbXUIL7VpI/DcWpS23k2k0X2qXyv3sUX/XWX97XYeD/FWhQ3Nn/bmlR6TJFNLe2f77zPKil/55Vjza98Mvjxr2qf2rocsnh+w1L7bo+uWn7qK6l8qXyv+mv7qL/0bQZlf/hJJ9H1S48HXHiS9sv7UmiuYYZfKk+y3UsX/LWj4S6D4cOg+KLfw54xtrnR/wDWXnifUP8ATf8AT/K/e/uov9V+9ilrH1j4tfDLw34t/sOfSr2K3l/4/JbT91+68r/nrVO88B/DKz1n/hMfhXqssngv+zf+QHaTeb+9l/5ev+esv+qoAp/BPxJfeD/GVnofjHXLHSNPv4ZZNBhtLOX/AEr/AKay/wDPL/trXoEPhv4V/ELxH/wkfwr+zR6h/wAI39m0Ga0h8r97/wAspYv+2Uv/ADy/5ZV5X4k02efxlJPqvj+LxBpf9m2skM000sX2XS4v3v8Aqv8All+9iiroP2S/BNj4V8b6h4j1WxstS+33ksfhvUbS882K68r91+9/9Ff9sqAM/TfB/irwp4tuPA8E9je65/Y91bTTXdn/AMfV1+6l83/rlRN4P+I2m+LbOxvoPC9zHLZyyedF+8upfNi/55V0nxNs9c8K6h448Y6H4jl+0S6bLZWcun3kUvleVF/qvK/56/uq4fx54wg1i10fx/8A25pv2yXytS8N2kv7qKWXyvK8qWWL97WYHaeFbzXPEngiSx+w6b9s/s2606a0u5vKlil82KKLyv8Atl+9o+Hug+KvBN1caV/bkkkctnFJ+68ryrC1i/5a/wDTWWufvNY8OTf2XY+FdJk1LUNLm+2zRWn7qKX/AK5f9MvNvpaseG/GGq/FX406oPA/jiKPXLCz+xXmky2f+jRRf9da0MzUm03xH8VPHlv/AMJVffadH1TUovsdpF+6i1S1tYrWLzf+usX7r/v7Xpmm+MPFNnFo+k+HPCvlaPf+b++u5v8AVRRf/uq4/QbPXPFVhcarY2P2a4sJvtP+l3kslrdeb+6l8r97/wA9a5vxt4D8R+FdA1TXNK1aPTdQ0uaK5s/Jmil8qX/ll+9li/1VAG54wm8Hab8INQ13w5qttF4g1T/SdS0Pzv8ASrqWWKKKWvJ/gn4k8O6D4cuNDsLG5uY/OtY9Shl/eeVL5vlfvf8ArrXafFTTtK/4TySfQ4LGx0+1mivbPVv+evm/8fX73/rrXL6beaH4J/4SzxV4q8K/2lZy6la20MsX7v8AtmWWX91dRRf9sv8AW0AemeFfDdj4Pi/4SvwdfRa3eS2cVzrH2Sz8yK6ll/5a/wDTKuT+Hvg+f/hKLfVfH5i+0azeWuozebN+6uooopfK/wCmXm+bLWXr3xgg8B6zp9j8OfDlt5mqQ/vtQi03y4rrzf3v72L/AJay12njbxtpX/CB6X4xhgufD9xL/o15d6t+8il/1v73yv8All5UsX/kWgunT9tV9nTMPWNY0PTfEeoaVpXiqKL+1NY+03n77/RYv+uVYfxt+JHw/wDDf7PEeleFfGNzqXiiw1jy9StJpvMi8r/prLRefBnwdr3iOPSoNKudS1j7HLe6xqE00scUv/XKKKuf1jw3qvgO/wDEE/hXQ7aPzYfMm1aL/VXXm+V/yy/7Zf8Ao2szWpT9jW9nUNTwTDffGbRrOx8Dz22iXn72P+zppvLlurWWLyv9V/zy/ey+VXoGvfFrSvHmjah4cPw58N6bb2vm6TeeGIZvMltfK8ryvN/6615HoNnqvjzXvsM+uSyaxa2cWrWc3kxReV+6l8r/APdVT/s34qeG/wDio/FXjiWXUPtl152rahD5sUvlfuovK/79Rfuq6Dm9odxo+geAPida6h4c8R+HLa2s/Dk1rHDp135tt+9ll8rzYv8AtrWPLrF94Uurz/hUngC502O682ymlu4ZZIpfKl/1v72uf8K6l4+8B6zceJINDkikv9H8vxJq015L+9i/55Rf9tZYov8AtrXonirwd4b8R+HLPxjY6rbaBHYQxf6JNN5UsUX/AF1/5a1mHtTl9e17StH+HN5far4qitrPVJoo/wDnlcyy+V5v2qKKX/rrLL5VU/2KNK8eL+314I8Sai0z2F7p+oLNcK+/7SP7OlMc8h9XxuH0rqPGHhWfxJa+F/iBrnhXw3ptna6bdR/a/JikufNi/wBVdRRf8tf3v/o2vc/2X/APj/UtX8IePtV1i0vNItJr2QywQeWr3EkEyRlPbymoqf7pU9H+R6GQR5+IMI/+nkP/AEpH5pft0/tXfGrwr+2L8R/Cul/EW6itIfF+opYWFqmyJWWdIQJT3/dRdab+yL+1R8QLz9ofw3ofj/xVc3NnrN59ivPtf/LLza439vnw1qWm/twfE7Uxot5MLvxzqMiTpa5EcfntnB7815LoOj+OIfMnuLG5+x2F55k2oQw/6qX/AJZV6tP2P1eHovyPLzT2yzSu1/PL/wBKZ/Qp4D+Ht98K4bz4ST30ttJYXnmebDN/yy8qvZPgb4qsft/9lQf6TJF+8h86vL/2OfFXwW/aW+Bnhf4/eJPi3Y2OsapZ/wDFSadq3/LK/wD+Wvlf9tar/E79oT4Z/DH4oR6VpXj+21K4lhl/faf/AKq1ir3MN7GlR1PDxGIrVapzf/BQj7Do/i28vtK1WyttY/seL/S7uH/prXmv7XNx/a3gT4b6XfrpV0uqaNKsltf+Vsu3KWeIk83jL5KfR69G/bG8eeBvjB4D/wCKc+3WWuWGjxSXmoWl5/x9f89a83/autNa1j9mjwZqkWkx6h9l8L/azayyYElyLWAr9cKZm/4DXzuew/26l8/yPuOHp34ezH/DT/8ATiPC9H8OWOvWuqfE2x8Y20klhZ+XNp8P+kxSxf8APL915vlSxVY1KbwRo/g238K33hy2ttcv9Bi87XIdN8z/AEWL91L5v/PL/VVy+m+D9V03xbpcGh/8S3w/f6bFJ4ktNPs4v+Wv+t/exfva2PFXiSDwR48j1XwPPJFpd1/pMPnQ/uov+WUvm/8AbXyv9bWB5BofBnUvDngnQbjQ9J1z+xLO61KWys7u7miki/eyxRf+1YqjvNN1XR/Gdv8AYZ7m5jtdNiuf+JTN+6tZf+WsX+q/e1Yg/Z78f6lfxwa54j0SWz17R5Y9Y86GLzYv+WUUvlRf8tf3tdZr3iS+8K6pca5BfW195Wj2v9m3f/PWXyv3vm/88v8AlrWYHN/ELx5Y69Lpf/CR+MfK1Dw5DLZXkMP7qWXzfKlil/7+/uqx73xVrng+XVPhzrviSPVtH0ubzIdQtPKj+yxSxfupf3tY+saxqvirS9LvvCs9tY3FrqV1bXmoXcPlyxf8tYv+2Xm0eFfCsHw9+0eHNV1W5uf7U037TeahpN59p82WX/Vf9ta0Ay/7Y/4Uzo2n+DtVuL7W9UsJopdNu5oZf3UX+tl/e/8ALX/W/wDo2tzxVr2qz/D7UNV8N6VJY6xFDFc6xp93N5v7qX/VeVXD/ELRp9B0WzvvDnhzxJHp/hyb7T9ru4fM/wBb5svlf9/Ypa7DXvjx4cHhzwvod9Yyy6xL4bljhhh/eWsssv8Az1oMzrJvGEHjbRpPB3iOeO21CL7Lc/a/O/1sUsXm+bFF5X/PKuT8b+G/B2j2Eeh+FbixvtY1T/RrO7mvPL/5Zf8ALWX/AK5ebLVfTfGHw5vNUjsfH+qy2Ul/4b+02f2vR/8AllLFLF+6/wC2vm0eA9Bg0fxHeT2MFjfXF1D/AKZd/wDPKKL97FLLF/2y/wCWtBoeFw+Ffsdr/bl9qslzced/rov/AI1XQaPo99oNhHfT+I4/scs3+meTD+9irk9Bs9V/0fXPCv7y3lm8ub7X/ra9E8E2c/8AbP8AbnjHxH9m0ewhljhtJv8AVfapf/Rv/wBqrjPWqnWeKtG8RzX+hweALG2ljtZvtP8Aa2o/6391/wBdZa0NN+KuqzRSaVrljcy6hfzfadSltIYv9V/qv9b/AO0quaD/AGr4V0vS9KnsZbmzlvPLmlu4fMii/wD3tWLO8sbOWSx/4Ry58vzvL8ryf9bFFFF/7VloOWqWPh74w8HTa9H4qsb65juL/WPMs7u78qKWKKL/AJ5eb/yyrU8bWfxi177R4VgsJb2S/s7rzrvzoov9VL5UUUX7391/qpaPGvhXwd4ktY7HQ9Dl+0aDo/2abQ9O/wCWsX+t/wC2tc34w+NnirTZY/g7Y+APKkv9NijhtP8AVS6X5v7qWLzf9bWhznqnhT4b654q+A+oeANcn82zimtZPJ/4+bmWL/W+b5vm/vf3tbHg/wAH+G7O6t9C0Pyvtlh/1yluYpf9b5X+q/6ay15/pum+OPhj8QdD0PQ/Ed9qV5qkMVzN4e8mLyvsvlS/vfN/5ZRVT0fxh8W7Pxl/ws3VdKlso/7eik02GGb97FFL/rftMX/kL/tlQB654w0Gx8eWv/CAaV4wisv+Ej8qPTf7Js/9VL5sUv73yv8AVS15/efDfxj48v8AWPAE+laJFJ4cm8vw3qM2pfaZZf3v+q/deb/y1rqPEnxI1zU/G+oeHPPk+z6X5WrabNafuv8All5svlf9df8AVV43pviSDwf8VdD8R+Dr7/Q5dN+zal4mi/dW0vlf+1a0A9Q8bfB+fwRpej6V4cnl0nxha3kVzZ6fp/mxWMsX7qK6/wBb/rfK8qL/AL+y1n6x4D8fxePLz/hKv9B0f7ZFHpt3aXkX/H1/0yi/e+VXP/tFfGD4t3h0vXfDmlW19pd1pv8AZ0N3dzfaZYv3v7r/AMiyy+V/21rrLMX15rOn+Ff+EHttNt9L02K9s9W1G88vzbr/AJ6xf+iqzAp+Ffi14c02XVPP8VRR2+ja9Lbabdxf63ypYpf3X/XX91L+9rHvP2kPEfw9v5ND8OWMXiS31SGXzvtesRfabqKL/nrFF/11/wCev/LKpPGF5faDpeqWOueFYpPEF/o//Et1uGz/AHt15Uv/ALVilrm9em/4XBpel+FPDnhW9ttc0HTZfOtNJh/0r7V/zylrQDY+Bvxh1XUotQ+DuuebHp91NFJpstpN/p3/AJFr1jR7zXNY1nyJ/Mjs4rOWOb+1v3UUUUUX+ql83/lrLL/y1/55Rf8ALKvD/Dd54c+Fd1p9hY2OpalrEV55n9nf2b/qrWX/AJ6/9Na9k0fwr/wmOi+INK8Y6tY22seI9Yi0n91+8ltYoov+mX/LWswK+vQ+FvGHjfS9cn0r/iVy6bLHDD/aUUf7qL91F9mi/wCWv7r/AKa1xfgnwf4VvNe/4QfQ9K8Salp9/NFbf2h532a10uXyvNli/wCmv+t/8i11k3wg/wCLg3kHirXP9HsJvLs7SKH97a2H/LL/AMi1qfDDxJ4As7W88D/2rbRWejab9i027m82Tyr/AM3/AD/36oMzn9Sh0rTfG9n4A8OeFfM0fWZvs95reozf6qWL975v+q/8heVXN6x4q0PQbrQ/hJBrn/IU1KW2s5dOh+w3Nray/wCqirvPiRZ+DrPwHp/wyg8f3NjJqk32aabSYf3trLL/AMtf+2v+qrzP4g6vY/EK10fXIPhl9puLCaW5/tGaH97F5sX2WLzf+evm+V/nzaALGm+FfDmgy6p4P8AeMZNb+wXn2LWP9D8zU7W183/yL+98qWrH7JfirQ9S8B3HhzwB4Hl/4lcMv2PTpdSitrq6v/8ArrL/ANNfNrL8E/CrXNH8eapofhyCXw3Ho2m/bZtWhh8y1+1eV/qpYv8AlrXWeMPG09l8L9D1zxx4buY/EGs/araaHT/9GuYrr/VSy/8Afryq0NDH+x+HNBlj8f8AxGsbK21S1vPM1LT9Q1L/AFsssX73/rr/APbar2fhXwr4V8Rf2F8QJ/s1n/Y/l6P5umxfZYovK82LyvN/1v8A01rsPDfg/wAb/FT4aahffGLy/wCx/wB1baDd/wCtvrqKKLzf/aVcnr3hvwrpHiO8vrHw5/aWn2sMttqUMv7y1v8A/pl/0yrOkB3mm/8ACEaPrOn654x0q2udU0uz8yGHSYYpf3Uvm+VF/wBNf9VXF/E688R6lrNx8TfgD4A+zXni3TbqS8hm1KKOXzf+mUUv/oqufm/aW1XUfgPrHiqD4S/6Z/aUVlZwww+XFaxfuvN/1X+tl/1VdJps3g7xhdaP4j8f/bba3tf9Nml/1kVrLQZh8MdS1X/hEvD+h+HdV02+0/S5ov7ei86WKXzf+mvm/wDLL97/AOQq6zxh4D0r4teA9c0PSrGOWTVLyK3vLvT7yWXyv+/tc3pt5Y6b8G9P8VeHPKit7/WPs0MunQ+X/oH2qWKKX/yF/qqy9Ns/FWveN7fVbG+022t9U825hlu4f3ssXmxReV+6rQDcs/GHgDw3oPh/4cjw5rdzeXU3mal/aFn9piillll/dS1XvNN8Y+PNeuJ7HVY7G3tdN+xaDD5PmRWt1F+983/VRf8APX/prWh4k0H7Z4tj+I3xU8K21j/YM3mWdpaXksksX/LKL/rrWp/wua+8H/D68g1XSpdXjls7r+zfsk3lSxS+VL/yyi/560AYfhXR4NB0uz8OeI7GK+s/9Z/xMYfKltf3X73/AK5Vzc2veHZte1jwBquq/adLlhlsobu7hlkiiurr/W+bFL/yy/5a/uv+etY8Pwfg1L9oK31yDxHrcnh/+x5ZP3MPmxaXLLF/z1roNB+Fk8PgOz/4RWC5ubyKaK2+yed5X/bWX/rr+9oLp1PZVfaUzD8beNtc8N/2PofgDxVHLqksMX9pXenTfaYovKl/1Xlf62q/huHxHo/xB8j4jatHYxywxajptpd/upfK8rypYv8AtlLFL/mWq+veJPhl4b8b3n9q+HLnSdUsJpZLOGG8l+yy/uqy/g/4bg8bfEbVNc8AeHL7+0NG1L7TDNqP7yKKX7L5UsUX/TL/AFv/AH9rOoDqVqtb2lQ6yz8bT3ni2T4qeDrHTdSjtZpbazi0nyovNlitZZfK/e/9Na5/TdB0rTdBs9cN9q+pXlrrEum/2dLeRRxWF1LLLL5vm/8ALX/W+V5X/TKiHwT4j+Evwq8QatrkGm32l+I/FX76a0/1trFLLF9ql/7Zf6r/ALa1qeJPgnP4k+A/iCfw54qkks9e177b4bm1D/p1/wA+V/2yopVP+fgVKf8Az7Nzx5puuf2N4b8VWM8knh+1vJbbWNO1H955UXleb+98r/rl/wCRa6SGz8Ha98G7zQ9Vsf7N0/S7yWTTYbuGWW6ll/1vlebXB+Dvid4c07wvJ4V8Y6HHc/uYrm8+1zfaYpZf9VL/AOja7jTfDcGpeMpNL8U+B47GOwvJZLOHT5v+Pq1li/dSyxVoQY/g/QbHxVr3hfwp4j8ASS291ZyyeG/smpfvf+Wv73yv+2sX/LWvdv2W/ilHa/EzUPg7b2VzDFHfSvJBL5e2G5WEmVhjn95jd+FeM6x8K59N1S81zwrrmt6RHFeeboMs373yopf9b/2y/df+Ra779l3X9Pufjpp0N9pQLXk12dG1mN9r3EcdvIBbyp2KIWf6tWOJ/wB3n6P8j2OH/wDke4X/AK+Q/wDSkeXfHT4e33w5+Nnj/wAULpUWsR6vd3eoWk0lt58Wnr5/75JB2yZM4964a8+Cd/qXwb/4Sr4V2OkR3Gqebc6lpM3+f+uVe8ePvC3iSH4ueIoPh5H9rt9a8UXKeIZP3f8AokYPmS9ee0VeZ+JNNg/Zp0uS+8R31z/wid/eRed5s3lSxfvf+eVXSv7KPojzs2/5GNb/ABy/Nm54O+IWh6P4IvPhzpVjbabp/nReT9k/5ZeV/wAtYv3v72L/AKa1n6b4w8HalNqF9P8AZrKzsPNkm1bUfNl+yy/9Mv8Arr+9r5/1j44+AJvFuj+DrHXLm+t7CGWKGaaH/Wxf5/dV2Hw38B2PjzwvJrvhW+8yz0vXor2bTpv9V9g/e/8AtWWvo8ogsTW9hVPAxK/c/uz1CHx5rnjz4fR/2VpWr6bp+s6lFZTa55P7qWWvoH9piSHw/wDAPw1pkl3YQWY8NSW00so3RBfs0SLt/ujJGJP4R9a8WvPCvxN8bf2p4H1WC+sZLW9iks9O0mby/N/55S16l+2ZJc2Xwp8BS2HheC6uoLN2gtLqNCtoRbRAzDPAaLORj0NbcZLK1jsN9T21v9x9Hwa8VU4dzGVf+Wn/AOnEec+G/BMHw9+H0eq+HPDnm2+vaP5lndzTfupfKi/1vm+b/qq4+bR77WNBs9D8RwSS6xqk32m8tLuGW583975sUX7r/tr/AMsq6DQfG1jpvhfWNV8D33lXF/N9m1KGaGKT7VaxRf6VLFUnjyHw54b0bT/ib4j1y9ubP979jtIfNklil/1Xlf8ATKvnTkK/jv4teHNB8UeG77Q76xttQlm+xaxdzeVF/ov/AC1i8qXyv9VXL+PLyD4nX9n4An8Kx6J4g/s2K9vNRhml+yyyxS/6r/8Ae1n3ngnSvjBf2/jHxHPFFH9s/c6j/wAtbWX/AJa/+QvNir1Sbw3oej3+h32l/aZbj7ZL52ned/rZfN/5Zf8ALL/nlWYHB6x8GfHHww1m30PXPH8X9nyw/ZvJms5ZJYpZZfNl/wBV/rYv3XlVsfD3w34V8N6NHP4j0OSPyrzzPsn2Py7nzZf9V/5F/wC2VWPEmm2N5r2l+I4IZbbxBLeeb/ZP9pf6NL/rYv8Av15vlVTh+M3j/wCJ91qFjb29lcyWt5Fbalp/nf6qXyvK83/tlLQBJZ+NtK8N6pHoet+FdSttY1T/AI89J1yb7TF+6ll/ey/9/Zf+mVY+vT+FdZ1Sz8K6Vqtlfahf6lL51pqOmy237r/pl5VWPiF48+x+BJPH+lQR3useHNYlsrzQ4fKi83yoovNli/56/wCqi/79Vyf9m+Dvid4j0v4gfutNuPtkXnWl3efvYopf9b5Xm/8ALKtAM+HQdD0e68QeDtcntr681Szijhu/7SlubbS/K83zZYvNilliilqnD4D8Yw/EvwvBOf7EuIrOXzpZfN/0rzYv3UUv7rypYq6iz8Hz6P4I0/xH4rg/4mGjalf/ANmxWkPmS+VF/qpZf/ItV5te1X4hX954j0OxljvNB1L7TZ6tND5X2+1/5axUAed+Ffh7BN9ov4NU8uOWHy/N/wCeX/XKrng/4ewalpVxBPqsV7HpepfaYfsn+t/df+Qv+etSWfiW+177R/YcEl9/Zem/afNtP9VUd5488VeA9G+0aVpVtHp91DFczf8APW683/W1xno1NzvPhv4w8R6lql54A/sq2treXyoodc1ab/VSxf8ALL/prVj48eNvEfw98R2et2N9FqVvLNFZalaS6b/y9S/8tYv+mX+jVX8K3uh+KtBj8jSpIrOWGKSz1D/nrdeV+9ii/wCmtdh4P0LxHeapqFjY2NlfXHkxeT/aPm/6LF5v+t83/nr+9rSkc1TYLP4SfFuHRv8AhONC8R21teWv+jalpPk+XbRWssX7qKX91/39rQ8N6P8AGPTf+Kq+JulXP9uX8P2m81DyYpbW1tYpf3UUX/kWqc3iTxXpstn4O0PwrLpuqapeSx3k2oXn2mKKL/lrLXQfFTxt8RvHnw0k8K/BbxVHJHdTSxzf8S3y/KitYvKloMzl/i3Z+MdS8R6f4q+GXhzzfEF1/o15dxQ/uvssv/LKX/nlFF/y1qPWPDZvPjdp+uaVqsWrR3+gy22vaTdzfZovNtf+WsVYfwr8VeI9S8B/2H4xgudEs4vNtry7u4fs3lfZf3vm+b/018ryq9Q8K+A/hl4quv8AhI57GK5+y6bLHDq13eRSfav/ALVWhmef6bZ6rqPhzw/Y319JbaPdeJJZYZvJ/wCJn5UX72WKX91+9i/deVF/21roPi1pvhWbQZNc/wCEV/ta3upor3w3oc0P2byv3vm+bLFVjR/iR4H1LRtU0rQ/AGpaTJFN5dnDdwxRRS+V/wA+0X/LL/7bXpnw9+D9je6NZz+OILa2k0uz8yabzvs0svlf9NaAPP7PUtD/AOEXt77VfLiuL+G1+xxWkPlRS/vf3UXm/vfKqSXwr4c+JGs6Prnjjwrq8X9l6xL9j8m8/dReV+6l82Lyq6yb/hI9Y8USaVPPbSaHpfhWXUfN8mLypYovNi8rzf8Arl5tcf4km+I3iXwHqmt2Nj9p0/VNH+zWcN3N9m8r/pr/ANNazNDm/jZ4w0K817Q774VwXNzqF1D5k0Mvm/vYvNi/eyxeb+6/8i1l+CfiFofg/wAR6poeq+HP7JuNUvLq5m1a7hlililii82WWL/nl+6/zLXWfCX4Y+KvhIND0q+gto/Nhlk1LW/3XmxRfuvK8r/pl+9/8hVc/wCFb6H4kv8AxJoc99L9jl037beTed/osvmy+VL/AJirQDP8B6b4O/4QPw/qsHiOS5uJbzzJtW/tL7T5vm/8sv3UX/LL/prVOHw38TfhvLp/iSxniufC91NL/Zv+t82X97L5ssv/AC183/trUfiTTfFXgmw0vSvg74VstN8F6N/xMdH1b7ZFLdX/APz182jTdRsfj98L4/ibPqur2MmlzS+d4Zhm8uWWL97+9/65fvf/ACLWZmdRqfjafxhFpfimfXLmxuJfN/tLTrS8i/0XzYv3Uv2aKL/nrXL+G/BPiPUfFt5feANWlvvt/huWTUtR1abyvNuv3X+tii8ryoov3svm1Y8SfBmDTdZuNVn1XytY/sH7TNp1p+682X/llFF/z1o/4WFpU1ho/gD/AIRzUrG88W6PLc3l3afuvsv+ti8r/wAhf6qgDz/4e3njjUoY/EfjG+isfEH9pXWnWc2rTeVYyyxf6qW5/df6rza9c8eeG/GH/CW3E8+q3Ok6pFZ2v9pS+HvK8q/l/wCWsX/LL91/rf8Av1WPoOm6Ho/gjw/4V/sO2/s+W8lubPUNWh+zfvf+Wvmyy0TePJ9S8u+8K6rpupSSwy/2xLdzf8etr5trL5UUv+ql/wBbL/39oAz/AI/fGzXJtBvPDnwyguba4lmtdOvJrT/l6tf+WssX7qsvxt8N/HGm6Npfn+FbnxBH+9tvtf2yXyrCWKLzfN/6a/8APL/W1T+HuseFfiR4y1DS/AHjfUpZP3VzN9r02WW2i/e/6qu41jwTrnjzxHH4H8R+P9bsdH8LzS3v2uGz/wCPqX/W+VWgGf4D+IX/AAkml3Hjjw5pVzJo+g+FZY5vO/5cJZf3X72Lzf3XlVj+KZ/EfjaHT/DnjHwtbW1n4jm+06ld6fNFFFLdRf8APKX/AKa/62tCbxV4q/tSTwB4V+zW2l3U0UmsQ3dn5UXmy/8ALLzf+Wssv7r/AL+10Hhv4V+BpvC/hvx/B4q/0zwlZxR/ZIfN+yxS/wDLWLyv+WtZgSeFdS8HeA/AcnkeHLaTR/tl1JN53my+V/yylli/5610Hw3/ALD03Wbjxx4A0qOK3is4vJ0/xDeRXMssX/LXzYv+WXm/9da5vXvCviPw3YXH/E1k/e+b/omozeb9giltZfKl8qL/AFUv+q/79Vn6/wCFfFX/AArSTwrf/EaL+1JbPy/9Em/e+V/01i/560AV/idNPptrrk/9hy2UdhD5lnDFNFLL/wAfX/H1bf8ALXyv+uVdhoP2LXvBtxrnwysftPiC/wBH/wBDl1aaXypZfKl8r91FWf4q0fQ9B8G6pfQTxXMd1psWnWd3L+98r/WxeV/6KrHs/GFh8AdU8P6V4csftsnkxW15aWn+jSy/8tfNioA5/wCD954/+LUUnjjxxfa3pNxoP/MO1H95FdS+V+6ltov3Vd5oOvaHrF/4g8R654ctrnytB/4k9p5372/l/wCmsUv+q/e/+iqw/G15P8SPiDcWME+peG9L8OQ+ZptpaTeXLFLL+9qPw3o/gD4kf2P4xvoLm5jsNY+zf2jD+7i83zf+mX/TWtAOf8Nzf298PpPib4j8f63olnYWcv2zw9odnF/rfN8r/W+b5Vd58N9e8VeMPC9xPY+DrK282b7FDaTTeV/ov/PX97/0y8qX/tlUmpabY+A/hBrkEHhWWW4v5pZLy0tPKk+yxS/8tZYpa5uz8ST+CfEf/CR33hT+29LtYbWOz8mb/VeVa/vfKi/56/uv/IVAGpefAfVbP7PP4q8K6bfeV/x5zfY/3vm/6qL/AFUX+qrn/Hln44+DXiP+w/Dn2GLR7+H7TeafaTfvZZfK/wCWsX/PLyv+mv8Ay1qx4D/aWvvDfjK8/wCEj8Y6l5mszeXZ6TqMP7rypf8AVf8AXKWuTvPDeq3nxk1C+sfEd9c6f/b0sc00032mK1sJZf3svm/8sv8All/36rM0DR/GHhWz+Gln4H8R6rq0UfijWJf9E1DR/tMsv/XKXzYv8/8ALWtj42eNtKh+H1nod94Hvr2z0vUr+Szh0nUv3th5svmy+b5Xlf8ATL/VVufFq8+Fc3xQ0OxsdDjtrPS7P/iQ6fD5v+t8r/W1zfw9s/B2vXd54j1XzJLjXry6svsl3N/ossv+ti/65f8ALKgDl/Cvg/VdS+H0l9qulalLb+I9YtZLyK0/4+v9V+68rzf+WX/bWvRNe17xV8QrCz13XPCut22qaNo8Uej6tdzfaYv3X/LK58r97XL+T8cPiR8Przwr4c1aPw/caXqX9nTWlpD/AM8ov3ssX/TKX91/39rqPgD4w+x2GseDvH+qx6b9lvPL/taKb/VXX+f+WVaGZqXnxI+LevaDZ+Dr6+trb7VNL9su4Yf3st1L+9/1vlf6r/W+b+6/55V3XgHxj4K+GfjnwzeX+sSX93BqtxHNDLaCOaN54CpRRGZAxGehK59RXmtnrP8AxPrjxV8JL6O50+w8r7ZLdzfvbWWLzfN8rzf+mUsVdhNrHh34neCNHOq/bY5NU1Ly9Nu5ofs0ssv/AD1qZxU4uL2ZvhcTVweJhXp/FBpr1Tuj2W+8c/s5eGvEF7q9x4X1OK+aR2vtk7lBNdbZnjwJvL81m2/IvzA4wBXKaro/7E37SXhXUn8ZfBm91OzsZpJLi01MSK7vHjOwLPkn9590HPPSvJdB8bfY/FtnB/ZWpS+F7XR4rK8i1b/j5iii82L97L/z1/e1ufEKz8K+A9BvPFXg7xHFJp91D5cNp9sljl+1eV/ov/22WuZ4aFNW5pfez35cU4mcnKWHotv/AKdRHeHPg1/wTGuJ4fE1t+zTqFjcBfIDXl3cL5YPVT/phQY7816H4M8G/sQ+HvC2v+EvDfwwvbTT7pof7TspZbtzdZf5AhaZm2gheFIXlPavFvGHjy+8H+XfaVpUtlJqlnFJZ2lpD5tr/wBsvK/661qfEj4qT+MPh9o8HgeeWx1yLUrWPUovJ8qWKKKL/wBq1Soy6Tl/4Exf6x1/+gah/wCConp6ftJfse+D9RgsdJ0LX557iyQboTPLiLfhI5GlnwOeiOc+1W/ib8RvB/xW0jQfEPh/RJ4dD0y3lVr65uFieBpYygiRFLFnAj6Z715rqUM/jby9V8R6VY2NxLZxfbJorPzIpZf+WXlf88qw9Y8beOPG37jwrb3uk3GjXkUcOnTQ/urr915Uv/o3/wAhVSw751Ocm2u7bMq3EGMq4SeHVKnCM7X5IKLdndarzNzxJ8MfB2veDdQ0rw34jttEuJbz+1obvTv3sUsX/LWLypf+WteT/GGz+LfiO/0vwbpXj+2jk+2XVteS6d5vlX/72L/j5l/5Zf6r/v1XUeCdY8R694juPhzfXtzpsml6l9th1bT4Yv3UX/PKWiz/AOE48N/EGTxHPfW19eazNLbf66Lyvsv/AC1uv+2VdntT582NB03/AIRXVNL0q+gl8y6s5babTov+eXlf63/rl/01lrn/AIb/ABO0rxhpcnhXx/4kl8N65dXkv9pWlppv2mWX97L/AKr/AL9fva0Pif8AE7wd8H/L8ceKvEepWVnLo8unTajF/rYopZYv3sX/AMd/6a1wfxyvP7N8b6X8W/hX5kV5/aX9k3moat5UsV15v737V/11/e1l7P2tYDoNY1jXPip4D1T4j+DvEdjY+JLXWLW2s7S7m8rzbWK683zYv+/UVV/BP9leD/hVqHn65/aVxdWcVzqU0U3l/uv+Wv8Aqv8AW1J4P8E6V8WtBvPhlfeXFql15Umg65aTS/6f/pX+ql/9FVT+GPiqfXpZJ/GMHl6Ppd59m1K08n/SYv8Atl/rfK82tfZAc34Ds7HWPFP/AAtTQ/Ctj4g8Py/ZZJrSW88uWw/e+VLF5Uv/AF1irtPiR4kg8N+LbfxxqvgC+1LwnL/oX9kw2cUssUX/ACyll8rypYqj1jx54Vmv9U0PwP4Htv8AhH5dHl8m7tIfNluv3v8Azy/56/vf/RVRwwz+MPBFxP8A8J/Fpuj6XDF/oksP2n91/wBNZYqQHB+TBqV1efGKD7bqUn2yWSz0O0vP3X7r/llL+6/6a1Y+EvjafxVoN54q8f6Hpv8Aaml+bbabDDZy+VYebFL+6l/6Zf8ATWWWu08KT+Mf7Gj0rw5Y2P8Aotn5mpad5Pl3Pm+V+9ltv+etZcPhyfxV8NNQ13VdK/s3S7Cb7TNdzTf6VF+6l/1vlf63/rlQByfgP+ytY0G40rSrGP7HLN9mmu4ZpYpZf+/X+trQ8N2dj4V8ZXE+q2Pmx6Xo/l2d3NefurWKX/WxS1j+FJoNNlt/7cnlj/5aQxRf6qWWu80fwT4j16w8/wDsqyj0+68r+0opv/Ivm1xnZ7Uk+IV7ofhrRtP8Y/DmD7NHLrEVtZ6TDZxeVFL/AMtaNG8SaVr11qHhX+yr6KS/8r+zZtOmiili8rzftXm/8sv+ev8Ayy/55VxfgP45T+JPHuoeB/8AhFZZLPzv+WP+qtf+WUUte4eGvhLofgnWY/HHxq+xR3nky3v9oRTeX9g/dRfupf8Anr/yy/7+1oZVNi5pHiT4c6PpcfjLVfEdjbap4Xh/4mX9o6bFJ9qll/deVF/01rD8SXnxGs7q48f+DtVj0TR5dBi/t671Cbzf+Wsv7qKL/VSyy+bFVfwH8N9D+KnxLj8R654jtr3R7rUv7WmtLSH/AL9VufFTQPH+vWtvoV9faRpv9lzXX2z+w5vKsf8AWxS/8tf+WvlUUiDl/O8VfHL4c3Hw58Y2MmgSS6l5mmzQw+XF5UX73ypYov8Atl/qvKq5pvhWfUr/AFTwd4cuP+EW8P2sPmabLqH72WW183zf3v7391FF/wBsqkmhn8SaXZ6r4V8RxS65FqUVlDFNef6LLF/0y/56y1H4wvND+G+qXnhXw58OdSudcutH+zaxq3nSyxRRSy/6qX/v1WlTczJPCus654P0HwvrnhzwrbeLdcv9ev73R9cm/wCesUX7qL97+9iiq5DpviPxJo1xffGnXL7SZNGh/s7TbS0vJZf3X+ti/ey/vak1Lw3ffCXRvC//AAiuhR22oedL5Oh3c3+qupZYpfNi/wC2UUtXIdN1zxtqelz6HqtjqXhOXyo5tRm/1th5X+til/561mB1Gg6lrn/CtNL0rStV+06xYfar3/iYTeZ+683yvK83/nl5Vcf8TtH8ceI7Cz8ceFfCukaTqH9seZeXcX/H1LL/AK2KX91/yy/5ZV0Hw9+DOq+FfHniT4m67qtlfR38P2KHzrzy4rCL/nl/11rtNN02f+1NUg0Pwbey6f8AbP3013D+9uv3X/TKg0PI/Hl4PHvgiPSviBq2rXOjxaDdRw/2TN9mlupfN/deV+6/1X7qga9Y+D9e0vQrHwdr9jp+qQ+XqUX9sebLYReV/rfK/wC/X7quw1jw34V1jS7PXNVnvbmz0HzbLzdOh8397/y1/df9df8AlrXm8OpfFTQYtc8K65BJZafdQxR6b4h1CH7Nc+bL/wBNf+uVaGYeJPEnxbh+LWn+HINclsfCeg6Pax2fnf6397F+9/6a/wCtrL1j4kQfDG68af8AIN1vWNG0eL91DD5svmy/uvNl/wCmX72L/nlXqnjH9mPxxoPwvj8OaHPbXPizw5Z/adN/tHzf3Uv+q8r/AMhV53/wquHQbrVPGP2GTUvGHiPytOmhtJvM/eyxf6r91+6/dSxUAZ+vfCvxxefG7R/jF4/+LdlLcXVna/bLS0/0bzf3X+q/dV3GpfEjRLPQbjw5Y2OpW0mqax9i/tbSYfLi+1eV9q8r/rl/36rh9H8EWMPg28n+JvhzUpdUimivbyLzv9O/df8AoqKuo1L4z+DvB/8AY+lWN9Jq9xr00V7qWk6TD/o1h+6/1stz+9/exUGhj+MNS+MUN/pdj4/8AaRqXg+KH7N4qmhhiii/56yxRfuv3XmxVHB428Hal4c8N+Mfhz4cl0jS/O8vUtPmh82KWLyov9b/AN+q7iH4qeFfB+lyfCufXNN1fWL+8/tH/j8ivvtUUUX+q/6ZVj+D9Svvjxo3iTwqfDkumyeF7yWyhl07/l6/1X/TL/nl5X/f2uenUFUpmH4a0G+8K3eoeP8AQ/HFtc2cUNrJDpN3D9m+wfvf+ev/ADy/1tZ//DS3xO1748eHxpV9bX3hvVLP7TN/ZOm/uvNl/dfvZZf9V5vlf6qpNHhvrzxbqll8W9VlttH1SaK203TvJiiiupYvN/8ARVaHhX4e2/gmwuPDljY/ZtUl8q5vIbu88qWKXyv+WX/kWtPakGhNo8F5a3nnfEbTbaP/AISqwjs7SKzitpbXzZYv+/sVZfj3xh4y+HuqaxYzwW2m2f2z/Q7TTpvN/wBV/wAtf8xVh6x8QrHRtex44+FdzL/bOvRfY9ctJv8AVWsXlebF/n/nlWhewfEbUvDmn6HBpUurafLr0v8AZutxQ/vfK/5a/wDfqtAPRPFXjzXIfC/9q6r4Oi1L7Lo/2a8tJYfLuf3sv72682L/AJ5f88v+utGg+G77Xv7c8OX2qxRW/wDoslndzfvfNtfN/wBK82WX/pl/0yrn7L4heI7P4g6x8OYPCl9/Y8UMXnXcsP8Az18rypYv/ItaF5ptjZ3+l/bvFV7FJa6l5epWnnf6r97/AK2WX/VeVQByem/FS+0210/4Y+B/GNjq3hu/166jmm/e20v/AC1l/df9/a4fxV8QtD1LxvrGlfE3xVqWm/YJvMs5tDhiufssUX+qil/df62u08E+D/Cuj6zH4V/4Ry21LUNB1jVJNHu4pv8Aj6tf3X/xqsfWPFXhXTtf/wCE/wDCvw51K5t9evJdJ16byYvK/wCmvm+b/wA8qADQdesde+Jel+N4PB1zc3FrpssXm+T+6+y/62KWWX/nr+9rc8eTeDtB/sfx/wCFfFet22qX9ndf2b4e/eyxfavKl/e+V5v/AE1/1v8A0yrD+D//AAnHg/4mXnhyfwbc6l4bis/7OvP7Qm8uL7V5X/LL/wCNVofFTXvFXjD4e3HhXwb4cudI1y1mi07Tftf7uWWLzf8AWxf9spZaAKfwq8Sf8IH4NuPiNrn/ABMvEmqTRR6xpMMP2n7VFL/y9f8ATL/tlXeePNH8OTeA9D1zxj4j+xWdheeXNDNDLFLFLL/qoov3v72Lyq4Pwf4V+IHgnT7Pw5f6VcxR2GjxXM0Vp5Uv+q/e+b+6r1ybw3oepaNbz+R9ujsIYtWvIdQh8v7L/qovNtvN/wBb/qpaKm4HmesXnhzxVYf258P9ctotU1mb+zrO01uzl8r91/7S/wCWtegaDDodn8Kryx1y+03VrzRv9G8SatpM0ssV15svleb5XlRfvf8AW/var6x8H/7fv9Q1zxH4c+02ejWcUmm6dafuov3v/LW5l/8AjVZ/jDxJ4V+G+g6PD4HsbnSbjXtNuvJ0m7/1X/LL91FLF5sVc/8Ay+N6exxfxD8Ez3nxG0fVR4qubbT4rP8Acww/6TLFLF/y1/e/9sqPG3w30Pw3o3/CzbHXNS1K4tdSi1b+xIv+eX7r/tr5tcfpvxCsfsv/AAkeq+HLnUv+Ec/4l00MX7rzZbr91/3982WKrngOHXPhvf6x8YvEljq8kelzRWX/ABMJv+Pq1il8qKXyv+eXlVoQegaDqXirx5oN5B4j/s221TVNeik0fQ/O8qWK182L/nl/1yi82pNY8ef8I3LqHhyf4SW19/an2WTUvK8ryrW6/wBVL5UX/XKrnxg8K+FdSsNPvvg7rkcfiTVIbqTR7u0h/dSy+VF5sXm1j6DeeP4Tb+I/HE9lbapqmmxRww3dn9ml83yv+WUX+tlopAWNN1PwP/wkfiDQtDvrnw/b2um3/k6TN+9iuopfKli/1sVU/hveaH8YPDn/AAlWhw6lpNxaw3Xk6tDeRfZYv3X/ACyili/1v/TWWj4NaDB/Yuoarrs97q9xLDLc/wBoy/8ALrLFFF5sX7397+68r/yFVf4heG/DnhXwvZ+ONV0q9+zxfvdYtNEh/wBG8ryvK82WKtDM7SH+w/7Gj1Wx8YxW0ml3kst5dyw+V+6i83/ll/y182rnhXxJ8OfFelx+ONcvraLw/wD2bLH/AGj/AGb5Uvm/9Nf+WXleV5v/ACyrxfR/idY6bpfiSx+I3hy5uY4oZdF0fyYfs3lf6qLzZfN/1Uvlf+ja9Y8B6D8Ote+A+n+APCs99F5UMsf2uX97F/11/wC/Xm0Aanw98H/DnQdKk1Wx0q28v+0rqLUvOvPNtrWX/llLFF/01rzv4qeJPB3iTxlceB5/Ctjcxy+V9sllh8uLzf3v72L/AFX/AJFq5qWpeMfhvpel+HPiNodt5fiOb7TDd2n72KWKX/nl/wBNf9VUkPgOeHxFceMfibpUdzJo15F9jtIdSiuft9rL/rfNii/e/wDLWtAOk0G9sZvBEcBvrbRJPsdrbab5sPmy+bFF5UX72Xza4fUrzx/4k+H2n6HcfabKT7ZLcTa3pP8Ayy/7Zf8ATKX/AKZf8tap694kvtBl0vwtrg0j+w5bz+zryX97JdWsvlfuvK8r/VVc0fw3458H39xonh2CW9uPscUmm3fnfaftX/LKWL91/wBcvNrMCvr2j2Pw30b7d4qn/ta38RzxRzXeo+b5str/AMtfNli/8hV0l5/wh2m+B9H8Yn4jeXceTL537nyvstrFF+6i83/prF5UtYfjbU4PGGvWfgfxH4qj0nT7C8itrO0u4f3sXlf9Nf8AlrXWQ+A9K8NaNqHkaVc+ILOwvLqTWJvsf/H1F5X7ryov/IVAGPqWg2Pxg+x+B/sMt9o+vWf7nUItNili+1f63yv+ev8Aqoq4/wCKln4Hhm8J+RfReZ4jvPtuvf2dN+6il8ryov8All/11/e1seFbPQrPwb/wsa+1y58JaPo0Mt7puh2kPmxeb/zy83/nr/0yovfDfwxvPjdb2XhXxXqX/CL+LYYpP+JjZ+VaxeVF5UUUVAGXD4VsdH0uTwP4O+02P9lzWuozatp2sS2199l83/Vf+jaueFdO+Lfir48yX3irw5JpuqX80VzqWueTLJFL5UVanhXUvA//AAncdjpWhy63cXU11ZTQ/vbbyrWL91+9/dfvf3vlf+RaualZ/Fu9v7eCfxHbWX/Eyl8m087zZfsvlVoZmPo+rz/DH9oLWNVgsf7SjuoZfscunTebay2svm+VFLFL/qpf3XlVx/xO1j4mz+DdH8jVdSso9Zm8ub7JDF5UsXm/6qWX/llXoH/CpfEfhvxvZ6V4jsbm5j1TUpbn/iXeb/qvN/df+RfKqx8Q5vFWpfCq3sTod7pEcWsf2jNFNDF5tr/9qoNCSz+HvxGhis/CtjocVt4kl0fy4dRtPKk+yxf6rzf+2sUX/kKuLm1L47/B/wAW6H4c1ax8QatZ2v8Artc87yovN83/AKZV2Fn428R+KrC3g+H9jfXNnpc3lzQ6tD+9liliil/1v/TKXzf+/tU/DepQala+LJ/iNpV9bXkWpeZo+iQ3nmxS/uv9VLWftGBx/wDYPiPR/DlvfarfSalcWs3+mXcMMUcVrFL/AKrzZaNH17+3tCk+HOh/adN1D+0pbab/AEyWX7V/z1/df9+qk8N+D/J8Wx6Vqvji9ls/O/4mWn6T+8i83yq6z4Y/Bi+1jxbeeMZ9Vllj0uGKymm/5axWvm/vf+usv72L/v1XOdBoab4I8Hab8QbODXJ5NJ8QWGm+Z/ZP+siv/wB1/rf+mVXPG2m/DnUvFGoeFfipqupeZrNna3MOkzTfuorWKKX97LLF/rf3sVdx4w8EaV4w1T/hY3hye2i1jVLOKys9Wlm/df8AXKWKuX8SfEKfTfiDJ8Mr74V6vfW9hZxaLeXctn5kt15sX/LKX/VRRRRSy1oZljR/Huh67Lp+q+APFX23T7Wb+zrzSZf9G8qLzf8Anr/y1rqPiRZaH48tI9c+I19Zf8InFZxf2lp+oXn/AB9SxfupYov+Wv8Aqoov/IVV/Dfgn4V+A4tH8HaVocdzZy6lF5032z/j6llrH+MGj6reRR6F4Ag02W8l1KKOb/iZRf6Lpfm/vf3Uv+toA1NN/sOz8W+H9V+C3g62vdLlm8zR5bv/AFUUvlf6r/nr/wAsv3UteqfCD4za5o+s3nj/AMVeFbb+1P8AWQ6dqEMXlReb/wA8v+eX72uHs/hv/bF1Z6FY+OJNNs5byL/iY6dN5sX2WL/llbeV/wAtf+2VeX/CvxV8W9Y0b7d44sbKKS1166tpvE0t5FLbWsUUv+ql8qtDM9A+OWj+T8UdL8VeKoLm5jutSluftdp5UcsV1/zyi/5a/wDLWuX8eTaHrFh/avgDSpbbVPFt59ivJpf3X2CKL/nlXonxa+J3wI8baDpfhzx/qstt/wAIl5uqwy6TZyxyyyxfvZZfNl/1v7r/ANFV4foM3xp+M1hcfE3Q9Vtr3w/dWd1c6Dp8U0UXlf8ATL91F/raAOw8YeKtV8B/D7Q/Cs/iP+zdUlh/1WrfvPKl/exeb/21illqOa8nm0u4n0PSr6T/AIV9/wAec32z91f3UsX72Xyq4fxh4JHhuLR/Eeq+P7m91jzvMh/tGzuvK8qKLyv9V5X/ACy82vVNBs77wrFea5ffadS0fWZv32k3dn/pVh/+9oAy/wDhf3iLwHYf8IdB4HvpY4tN+03l3q0P+qupZZf9VL/7Vrk/hv4Jn8B6D5+reKYrmTVNei1Gzlu5v3tr5UsVU/ip+1pBqfhu88D6todzc3Gl6xa2V5L5PlRXUX73/W/88v8AyLWpo+saH8QtevPCv/COXtlcaXeRRzTf2b/rfNi/1UX+qo9mwNj4ka7448bahJ4j8AQS6vb6pefvvN1LyvKi/wCWX73/AL+1c8bfBnSfh5a+G/EfwW+22PiD+x/MvJpv9Jiil83zf9VL5sX+tqv4Jm/s34faP4x1Xw5rcUdhDL/xI/J/5a/8sv8Apr5X/wAdrQs/2hND8SeKLPwdqtjqXh+88nzLO00/ypP+2Uvm/wDLXzZf/wB1QBzem/EjQ9Nuo77VdKkudQuprq903XIpvN8q68r/AFXlf+0q878N694xh8MR33jHxjZalqn2yK9mtPJ/dWHm/avN83yv+WsteqfAbQbf4kfDS4/4pzVrGTS4bq5m828ijl/1v/PX/W1h+CfhLrnw9v8AUPib8RtDttN1jWdBli03SbTypbbyv3X/ACy/e+bL/rYv9b5v72swOX+JHgPSvB9/H440rwd5sf2OLUYZZbz975sv72WLzYv3vlf9Mq1LP4kfE3WLrT7G+8Hf2JeX9nLHeeTDF/xNP+Wvmxf+Rf8Av7WhrHxUg8K+I9L0O+8ORW0l/Z2v9vSy3kUkVrFF/wC1a5/R9YsfjZHp/iv7dLpvlWcv9m3cM3/LKX/ll5VaU9xVSM/FT+2LrQ9VvvCv2a4i1j/iW2n2P/ll/qpf+2temfEjxJoc1/4k8R+I/FVtY3F//wAhK0tIfK/6ZeV/7S/7ZV538N/CvjH4Mw6XfatfW2vyapN5emxf9df9b/6Kqx8MfCtjpug3njH40+Vrf9qab/xONJhm8yW1upfNl/deV+9ll/e0ezGbHgn4P6rN470v4jaV4qsbnwvpejyx2dp9s/1t1/y1i/79f+iq6DWPEnhXw38PtQ13wPrlzqVxYTfbYdJhh8uWKwll82KKWL97/wAsv3Vcn8JdSn8K2Fv4V8D2OpXP2CG6vYYtbs5baLyoovKi/e/62WX/AFv/AJCrY+G/gPSvAfgjXPibfaV5uoWum/8AE4060vPKltfK/wCWX7r/AFtAGP4qNj4D0bWPFOh6r5uoS+G5ZJru7hikiii82LyvK/7+1wfhsX3iSbS9Dn0q50jT9ZvPL1iKH/VXXmxf+Qqp+G9S0P4haNqHjHxHfS/2fqmsfYrO0lh/56xeb5v/AGy/e16gLPVdG8URweFZ4/MsIYo5oppv3UX/AE18qgDY+Ffgmx8Ky6XpXhyxsZbOWzl/4+/Njlil8397/wBNf/3VSeNvhX4c0e6k1yxvr2W3lmlj17SbS8l8ryvNil83/W/9Mqkm+3eFfFEfiPz5bnT5dBitofKm/ey3Usv+t83/AJ5fuv8AyLXl+vTf8Ipr2oeP9Dvtf+2X9n9mvIopvt1tF5UsX/kKswPWNNhmvL/VLHxVBc215LqUskMN3/qpf+eUtY/xJ1iDR9K8P/8ACR39z+9vPs02rWkMX7r/AJZeVLF/zy/ey1H8TtS1X4by+JPGMH2bX9P1TxJ/od3F/wAutr/zy/7ZVHD4wg+JHhG48Oar4VksfD8U0Umm6tdzf626/wCWX2nzf+WX7qtKe4Enhv8A4WNoPw+0e++Fc9zc/vv+PTUIYorm1tf+WtanhqbxJqWl/Yf+Ejsf7LuprWTQf7Jh8v8Asu183/W/9NZZZf3Vc34Pmn8B6p4wvv8AhP4vEklrN5d5aQwy+bFLF/118r91UnwM+Nnxb8YeA7zw54O8AeH/AO0LXTYo4dRlh8r7LL5sUsUXlf8Af3/lrRU3APjl8PdVs/jJpfiPStVl1LS9Z1KK21iKGH97LL/z1o+MHjyHTZriCbVbm+/suH7FeWkP7qXzYpYov+/XlSxf9+quabps+j+Ev+EVg1yWxvLDzfO1G0825826l/e+bFLF5tU7yz8HeNvC9x8Rtcn/ALNuNU0H7TDaa3N/pV1+9/1vm+VFF+6l/wCeVZrcDc/tLw5oPwquLjQ54rnWNU0eXybu0h83975vleb5v/LX/nlXUaPeD/hWkkGua5LqX9l6bFpOsatd3nlSxf8APX91/wBtfKrxv4G2d94b8eapqvjHxVYxeG4oZY/7P+2SyxS/9cv/AEb/ANsq+gNN+D/g7xhLefB3Sr621bULrw3Lc3l3rk3+lazFF/qv9V/1y/1taTFTueH+FfG2ualf+OIPB2lW39h2GmxWWgxXfmyy/wDPKX/yFL5v/bKib4b+HPhX4Xs/Eeh31zc3lrZy+TNDD/qrr/W+V/21rg/gzNqt5f6fpXh3XI7K30Ga/ubyGa8/0a6/e/8AHr5v/LX/AJ5V6BrGj/FvTdd1C+sdKi1azuryL/ieXf7qx/e/8tfK/wCmVAyx4q1L+3vGWoa5Bfalonm+D4rmGb91JFFa/wDLXzf+2v7r/rlLWh4D1jSviF/bGq+I9DtovtX+k2cM3mxWt/FL/wC1ar3ngPwdpvg3z/GWuyy3mqXlrbTed/yyilu5YpYov3v72Lyv/RVSeNtN8f8AhvxvZ6r4c0PSLL4f+F7Py7P7XqX2bzZf+2v72WX/AJZUAWPDfhvw54P/ALUsfCulRR6p4j83yZvJiliiuv8AW+b/AKr/AJ5f+jar/ELXhptrb6VP4xj0iPVLP7NeRaTNF5v2rzf9bFL/AM8q6DxhoM/ja1s/iN4A8VfZrzWfNjvNJtLPy7r/AFUXm/uv+/X73/pr/wBNa4ez+GOleA9Z1ix8Y+AJZdL0v95Z/a5v3tr5sX/LKKX/AFsXm0AWPG2pX03xGs9K8K6rc215pc0VzDrcM37r97/rYrn/AJ6y/wD22rHhv4qeI9H8eeJPFWuQW0UeqQ2tl/xL/K/dXXm/+1YvN/8AIVaFnoN9o/hLR9KvvB3lXF/psVleSw2cssvmxRfupf8Apr+6rD8BzX3jDWdU/wCEc0rTbKzivIpNe1aWb91LLF5sUX7r/W/8sv8AyFWgGHps3/CwvFt54U+C0Ftpt5azS202natZ/aYpf+Wv2rzZa7jTfB2h+CfFt54x1yfUv7QtYfsX/PtbRSyy/upf+mUXm+b/AN/ax/idoMGg/Z/iN4OMWm6xr15Lbfa/O8r/AJa/63/tlXeeFYbHwH4D0/Svjv4jvtS1i/vLW9mih1iK2+1WsX/LX97/AK2L/wCNVmB5frEPhyz8JafqvhzwdbeII7XUvtM3mzS+VF/01ili/e10mseG/jH4J1681zVfDktz4flh+xTWmrTfabm6tf8Anr5X/LKX/rlWp4w/srwfYafffbo9Ij/dXNnF4ehiufNil/5ZSxRUeG/i1/wjfw50++8R+KvKuNLhl8maa88z7VFLLLLF/wBNf9V+9oAy/wBoTTbHxJ+z7qEHgf8A0GT7ZF/aXmzfupfN/deVLFR42174SaP8PvC+hz2MVtrl/Z/adY8n979luov3X+q/7ZVwfxCh8VeKvFHkaHrkv9l+KJvtsN3d/ura/i/55f8ATKWvQPEfw3gvPHlv438ca5c/bNB0Hy4dWl8q2/tT/lrFL5X/ACy/9q1oZnm/wr8eeP8AxJ8WtH8KzwSSSWGsSyWfjH7H/qovK/1X/kKo/jN8SIPCviO4gg1yW9+1Xksd5p3neZLa/wDTXzZf+WVeqeBPGB17S/7dgGm6JJ9j8zTfO1L91dSy/wDXL/nl/rf+/VcefhL4A1L456hrniOxk+zxaPFbXkX/AE1/6axf+1aC/wDl0amu3l9r2g2c/iPQ762/4lsUkOoXf+tll/5ZeV/z1/dS1y+g+MJ4fC+jwar4jjvdQ0a88z9z/rYrWWX/AMiy1qfE6z0LXtGjt9K8f/2lqEWpeZo81pN5kVh+68ryv+mVXPG2g654V8OaffeDvCstzqn9pWEkN3Fpvl2ssX/PKX/W0Cp0zk9Ys9V8SaDpeleI/HGpR+G7q8l8n7X+8ltf+uv/AEy/exf9+q7TwRo/g7wT4D8UT+P76XVtPimtbLUtQhh/e3/m/wCqi8qtz4V6D4/8eDUJ/iN4Vl0S3sLyXydJ1G88z/rl+9ii8qLzfKl/65VTvLzXLy6t4PEfwz1ax0eX97/xMLOL91dRS/upf+mtBRwfiqafRr+ODVZ7qLR4ofMm1HTofLll/wCeXm10HgPQfEc3gjS/HHhXx/pMVvFrH2bWNWmvPK821/5ZRVYms9D1+10/wRPfX0Ueqebe/wBowzf8esX/AC1/56/9Na6ybwrB4J8OXngfSvA9tqVvLDaxzadDef6Ldfvf3Uv/AKNl/wCmtc50e0Rh/Df+3Jvi1eQaVfxRWes2fmeTqP7qKL/pl/0yr0z4qf8ACRzeLbP4V+Kr6y/se/8A3k00X+t8rzfNi8r/AOO1j/EK8+HPjbxbZ/DnxjPc/wBqS/6bZyxfuorWKL/W+b/0y/55fuqp+CZvCvxO8ZR+MdK+26tqnhzTf7J0e01a88yxli/66xS1lUp1fbGZ1ngj7DrF/pc/w58HeZJf3kv9pahqP/LrLaxVY0fwf4qh8Oax4x8cfCu2ufEkv2r+x7uHyovKl83915sv/TKKWrHgnXtc8bf2h4x+KmlReDtH8Oal5lnDL+9luv8AprL/AMtfNrD0H9q7XPFV19o8Oa7LF4bv7P8A0zT7v97dRf6r/lrF/wCiq6fZsDn/AItQ+P8AWPgFb30HxNtvD+saXeXUl5Dp37v915X+q82vL9Yh+FepaNpfhWxsbm91C1037b9rtPNiiupZf+evlf63za7z45eCYPido1x4O0rw5cxaPFefaf3M32a2uv8AnrF/11/5a1l/s6/DHw58SPiNrFj4x0rUv+Kc/wBC03TtD82OxtYov/SugzOP+MHirx/8JdGuPEdl/wATLR9e/dTRSwxSS2sUsXlSxRS/8sv3UUVHir4/WOg6Db6HpWh3OkaPdaDFJZ2n/LW6/wCev/TL/W17gdH8R+NrWT/ijrGXwvazfvrTVrOX+05YopfN8ryvN8ryv3X/AJCr5/8AjNr2uePPiDp8+q+DorK4i82P+zorPyov+2UX/tKtF7EVUr+EPGOlftI3WoeHPCuhyabJYWf2mGa0mijlv7r/AJaxf9cpfK83yv8AplXonhv4tWN5438L/wBueFbm2/sabzIfNh/5Zf8ATWuT+A/wr8EaD4k1C4n1W502T+x5ZfJtIf3st15vlebF/wBMvK83/v7Xpmj/AAx8f6b/AGpff6Tcx2H7vTYfO/1vm/8APX/prQM8z+Euj+B4dZ/tW+8Kf239q8SXVzNrn2OL/RfNi83/AFX/AG1rvPGHwxHhX4q3HxbsfEcdj4P+x/Z5tJtLPypYvKii/e/uq6TwhZ+K/Ektv4Hg8v8As+1h+0zajaQxfavsv+qii8r/AJ6+VFF+9qPWNAn8VapHofxUgtrnS7+G6spoYtS+zf8AEr/56xf9Nf8Arr5VZ+0YHN6l480rR/hB4g/aM8OWP9pebeRWVnoereb5sVrL/wC1f9bVfwr8N9b1jXo/H/wx+zW1x4y8K+XDDL+6isL/AO1f8tfN/wCWUX73/trVPTbzSvEnijxhpXhX97cXUNrHZw6jZxfZorXyovKliirYm8S+Mfh743j8K6HY3t9Jf6lax2ctp5v7qL7L+9l/7+xS/wDf2gD0Dx54P8HeHP7Usdcnljt/3Ud5qP8AaX7r/Pm1892fwr8c/E6G88Rz+KpbaOLxV+5+1wyyfZbWKKL/AFX/AF1i8quk8E6P8JfiR8L7f4cj7dLqmqfapJobu8ur391L+983yv8A2rXQeD9N/wCEb8L2/hXwr9pluLD7LJNFdw+X5sXlS+bdf+QoovK/56xVmaGXo/wf0OHWdPvhB9m+1WcUniqW7h822l/6Zf8ATKu80H4P+HPCsUnxqg/063/s2WPR9Ph8qT7LL5sXm+V/36il/wC2tcfpvxO/4XN4o0/4V+I/CurfY7qzurm8u5pvs3+q/wCPXzf+2tdZ4P8AiF8JPB+jaxfT+Fb62+wa9fx2en2nlRf6L5X7391/11/55UAcXZ6b8cLy/vPIvYoriw1iK5s/Kh83zYv+uVYfjb4S6VoN1b+FfCvxAl8yXUrW9m86b/Wyy/vf9b/21r2CH4hX1nYaP8TPCv2by/tkXk2kv7qWXyov3VcP4ks/B3iT4oRweFf3WoaNZ+beWk03m/8AXLyvN8qgXsjm/gbN4j/4WhH4Vg0r93YWctzqUt3DF5X+t/49f+2vlRf9/a6ibXtKmsLj4i+fbRebeXVlNpMN5/o1rF/zy8quXm1/xH4D+KFxrmqz+bp+jQxXF5DLN+9lupZfNl83yv8AWxf6quXvPiF/xIdQ/wCEA8K3MWqXXiqW4/smLyvKuvKl/dSyxf62un2Rn7U7jwrr3w58N+HLzwPY6JJFb38MUmm2nk/8tfNlillrU+D/AID8ceFfAf2HXLC2udU866svNi/1v2XzaNN+IX/Cwvh9o9j8XNKi0TXJbyK2m8qz+zSyxXX/ADyruIZvEnw38OXGueFdKiudQih+zw/88pbr/Vf8tf8All/01rIZhwzT6lLcT2PhX7Dp/hzTbXRdB/5a/av3X73/AK6/63/W1XOm+B/hjaR+MdVgi03Q7Cz+26lp13Z/62X/AJZVj3nxgn/4SjR9D1XQ/KktYYv7StIZv9Blupf3v+trtPElnocNreWHkX17/b3lW01pq0P/AB6/9cv+mVZgcvoOg+HNY8zwd8Odb+zWf+rm1G7/AHv2rzYopYv/AN7XD+D9B/aM8LeA9Q1XxHY23iC4utSlsv8AibTebFdRf6rzf+uUX73/AL+1Y+Hvw20qz0uPxVrkH/CP6P4XmlvZruLUpf3sXm+VaxS/89f9VXqn9pQa/pdx4qnvpbaz+x/adNihmil826/dS/uv/wB1WgHjepXvhXR/i14gsfEfiPV9N8L6zo9rJpsP2zzYorr/AJ5V3Hwf0eDQfAf27w55Xl3U11+5tPKi+1Reb/8Aav8AyLXD2fgnSvHnxa1DxlrkGrW1xFr0v2y01byo4vK/5Zfuv/ttXJpvip8N7+TxHpXhyPUvC919qubzSbS8/wBJ82KX/wAheb5Uv/fqWgDuPh7D4x0G7k8Y33l3vhv7HLHqWnTTf62X/plWP8QvjB4A+IWjSaH8Tdc0250ews7WTTYtO03y5f8AlrL/AO1fNqPTfG3ivxJ4y8J+HNK1TTdI0v8As2K5mi+2ebF5v/TWtTUrzw54butP0r4meB7K9uLXzYtN+yQxS/Zf+Wv2T/plF/qvKl/6ZUAcPeaPBqWg6XB4Vn8q3l1KL+zZbv8A55eb5ssv/TX91W5o81joPijUNc+HPjGy1L7foP8AZ032vUv3sstr5sX+q/55VJrHiSw8VaZ/bmh2Oif2hpcPmaPodpD/AKTFLF/rf+mX+qrP+Hvwrn+G+p/25+0L4HsbbXL+HzLO0m837NFL/wBNaKm5oU/hL4P8K+MPDklj8RvDmiabH53mQ/2TqXlfb/Kl/e/9tfN8r/v7XoF58MfDmmeF9YnsdVuYo/3sdnoeozfupfK/5a/9/a5P4qeD/A/hX4aaHP4VsbnTZP8AhNvM8m0s5f8AVS/88opZf+mtYdn8TvHH/DSPiC38VWN9ptvLZ+X4Vlu5v3UsX/XKX/Vf9NaDM6TxJZ+I9Y8G6fY+B549S8P/AGOKP+1tOh8v/SovN8391/zyl82X/v1VP4/eFfH/AIk+H3h+xgt4pLfRtSikvJvO/e38v/LWL/plXcabr3j+HwHqmleFNK0290u6021/s3ztS/07zZZfK83/AFXlRRfvak8E+D9D8N+Ao9c8ca5JfaXdWcsl5p+reV+6/wCWX2rzaDQy/Depa5P4N0fxx4qnl/tS1ml068/s/wDexRRfuvNl8r/nr+6i/wC/Vbnxan1XxVdXGlWJlvrzVLO106aG08qL91/qv3v/AF182tDwf488HfDGXT9DvtKsb7XJbOWTUotJhliil82WX/v15vlSy/vf+Wteb+PPiFquj+PJPi34Ag+zaHa/ZbnWLS7m8yWWKL91L+9/6ZebFQZh4C+IV9o/jLR9D+Jv2m2+yzS/Y5ftn+iy+V+9il/8i1sQ6N4j1O71Dxj8JL6L7HLeRSa9537qWWKWX/W/9cv3tZf9jz+NvG+l2OleDbG2s/C+mxSaDNFDdRW11FFF+9i83/lr/wBdax7PWNU8eeKI/ibpXg6+kt7D7VbQxWl5FJF9l/5ZRS+b/rYv/jtaAdJ8cpb7x54S0vw5P4VuY9Ltde8ubVrT91LFL/zy8r/lr5tYc/hrXYfAnkQTyfZ9Zs/L160u/wB3FaxRS/8Ao3/W/wDfqjwrr+q6bYR33/CY6RLpd/N5v2TVrOWWWLyv+WUv+t/7+10HjzWNc8bWkn27w7LY291qUtt50Nn5sUX/ADy8r97/AKryvNoMzj9H1PVYZdL8VeFfFVzq1v8AbPs3nWmm+VL9g/6a1qePPEmh+NvBvkeKvCupf8Ivawy21nq2nQ/vfKil/wBVLF/yylri/Dc1/N4S1TwBBqv9m3GgzWscP2u88uKWLzf9bFLFF/rZf9V+9rvIYYPHnhzVJ/DnjG+0240uzutOm0+78r/Spf8AVS+V/wBtYovK/wCmUtAGho+g6VD4IuND/wCEquY9LurP7TZ/a/8AW/6r91/5CrD8K+PINS8SXHwP8/8Atv7VDdfY4tQh82WK1/5dfKl/55eVWxps3gfXtA0Of7fpFtcaX5sc2ofbP3sV15X7391/9qqvrHhv/hMPiNH8VNK0O20TULWzijhu7Tyv9F83975X/TKKs6n/AE7LpGHo/wAZvC159n0rxx8OZLKOwm/sXTbvyfLitZYv+mv/AJFq5oPxO8R+CbrVND1zSvsWqeT9nm1a0s/+P/zf+estWPip4q+Dug+CPDfn+CNSuf7e1KWS81G01LyvKurX/rl/y1l/7ZebWPpvxU8Dw6XHquraH4guftU32Lzv9Z9gli/dRfupf9bWgyPwH/wiv/Cy9DsbHXJfD8d1D5esaHLD9piv/Nl/ey/9cpf/AI1XQfFr42aVDdaX4H8K/D+5l0/+zbr7Z/01/dVl2V5pWg2Fv4/1a+ttXjtZornR9ctJvsV9FdS+V5trLF/rf9V/yy/6a1qTeG9V8eeDfEHirQ/s2gWcV59i0eWW8lliupZf9b5UUXm+V/1y/dUAaHirxV/b0Nn448DwfYriKaWS8i/tKX97FF/rYoov+uXlS+b/ANNar+G/2itD8VWtvbz2Opf2PdabLHqVp50vm2F1/wAspay/CusX3/CGfbtDnl0S88R3ktlDDDeeZFLFF5XmyxS/9dfKirh/sd98Mb+4uL6CXUtPtbOW91KbSbz91/01oA9Y+FU2h/D2L+w/GOlalFpejQy20Mt3Z/vfKl/e/wCt/wCWv72WuL+KmsfE34ta9JfeB/t1zp+jQxR2dpoln5flf88pZZf+/tdZ8bNYg162j+EfirxHLZSXXlf8tv8AkKSyxeb+6l/5Zf8AXKrniS8+Knw912z+Dvwrn+zSX/huKS81aX/VWH+q/dRf9/a5zQz/AIwaD4j0f4c6HPqs8WryeKLOKPxh4ntJov8AQPK/deVFWh4C8N/B2zi8P+FYNcvZZItY/tbTbTToYo/NtYv9bLL/AM8opZf+Wv8A0yqn8f8Awr9s+LVn8K/+F0y+H/Dd/DFqP9ned/pV1df9Nf8AllF/5FrD+FcN/wDtO3WsQeONcsdN8P8Aw+hurKz060822uZbrzf3Ussv/PLyov8AVRVovYmXtTsJvjBP8SPHmoeHPHGkyy6PFrEVlZw3ej/Zopf+evlf8tf+2tWLzwH8M7P4jaPZfCTxjc2VxoNn/wATjSdOh/0aW6/5ayy/9cvK/wDIVSfFTxh4O0L4yeE/BGueDrKx/svTZY/9T+6tZYv9VL9pil/55fvf9VXF698cvhX4J1T+ytDg1Ky+3zS3N5qMNn5X9qXXmyxReV/rfNil/wC2VAzY+KnxVn+MH7Rmn/CTwrBfaloelw2t7eXek2fl+VLF+9l82tzwr4V1b4Y+MpNK8K6rbSW8um/8S3Vprz97LLF/rajH/CufElhJ4cg1W5sriK8+06l/wj00ttfS/wCq/wBbWp+yL4D8Y/8ACqvDfx+m1Wy/suwvL+2h0nUP3ssUUv7qL97/AMtf9VWYEniT4tWOm69p+h+f/wAJJqGvab9pvIrSbzIrCWL/AJa+bXN+Cf8AhUms+MvEGt+KvGN9q1xLeRWUP+tklill/wDttdRoWg+KobrVNcn+GWiabJ9s8yz1b7ZLZfavK82WL/tlXD6Do998MfhpJquueHNEvtcutel1GHzZvs1tLdSy/wCqi8r/AFVaCqljwr4ln0HwR4k1yfVY5f8AiZS/2PFND/y6xS/62L/tr+6q5B421zwTa2+h+I7G5i1S/wDK87UPJ/dX91/rf3Uv/TKpPB95oWvaz4wvv+EH0jTfEEvhuK5h/wCWcUUssXlf63/lr/z1/wC/tcn4w17wdN4Xk8ATz/abiwvItRmi/tiW+luv+esUXm/6qKtfajO4+CeveKpvBuoeKr6xj1LWNL0eL/iY6feRebdS/ZYpf9V/z1/exf8AfquH8B694/0bXrP4m/tJ6VFJb3V5dSeTqP8AzC4oovN8ryv+mtR+MPHmqw2Gl+OPAEEdzZywxWX+l+bcxaXL/qv9VF5v/PKWus/sGx/sbWP7Vnj1K3l02LVry01CbzZfN/1v7r/ll5X7qsgD4teG/A/jbwj4f8OW8H9m2d1D5k02hzfvYov+eX7r/ll/01rc8H6brlndW9jpWqxRafdaPayaDqM0373yrWX/AFsX/PL915v73/prXnejw+HPCv8Awlmh2N9ZRWfk/YvDdpNqXmxRWssUX+qi/wCWv73zaw/B/wAQvip4b8W2elXGh31zocWm+Z9ru4Yv3ssv7qL91L+68qKWgDuPidDP4D8uxg0qTSbOXQbW2/ty7s/3t/L/ANMq5v8AtK++EvhLS4J9D1LVrfVIfts2ow/8tbr/AJ5f9cv3vm1Y8e6x4j17x7ceKp9K/wBIv9NludS1a7/1thFF+6ii8qj4J6P448N6Lp/xU8catHr9ndal5c32uHzJYpfK/dRReb/qov3sUtZmhJ8SPEnxA8H+DbfxHPfW32zVNYlj02bQ4f3v2Xyv+etXPDfxU8HfFrxlb+DvDnge+kjtbP7NqUs372WKX/lr/wBcv3vm/wDkWo9e1j4mw3+uaV4jsbH7RLrHmabFd/vfssX/AE7f88pf+mtc34V8N+Mfhv8AFXWPEd9ocVtZyzSxabaad/qv3Uv726l8r/llWns2B9Gal4q+EmveCJPhxe2OkXN5YeVJDqH+qi0v/W//AGqvJ9N0HxVqWjWd9rk8Wm+IJdSiude+yQ/62sPwtoE/jDXtc8R33hX95rMMVtDDLNFFFL5Uv+t/6Zf9cqw/EmvWPhXXrfwr8RvHGtxWd/Z/abOLT4fL/exS+bL5stZgdRo/x++HOsfEbUPg7fWMkWoSw3Wozat5P7r7VFFL/wAsv+eXlRRVxfw98jxtfyeKv+EyjvvFms+V9stLv939l/65V2l5/wAVh4M0P4qeG7/RNI1j7Z5n9o3ej/afNtfKl/deb/1yrQ8H6boYsJPEfhXwroH2iLUvLmlu7zzP9Al/1sUXlV0HL/y8Njxt4PPxI8UW9jpXg6W20/8At61udH/ff8f9r+9/e/8AbKWWWuHs/jB8TfEkMfw58VWMvh/VP7SuraG7mh8yKK183zfKl/5610HhXXvFPjb45+INV/tbTdNjihitrPQ9Qh8z/QIvN83yovN/dfvYv+WVR/tCWeq/D2XWL7wdpWk6lJf6x9phtNP/ANbdSyxfvZf+evm1mbFyz+Hvhyz1T/hONc8uKP8AseKPzoZv3Xmxf8tf+/XlVyfxC8N+KtH+Jclv/at9LpdhNFrUOo+TL/x6/wDLKKuw0f8A4Qfxt4X0fw5BY30UniP7VZabpNpN5f2C/wD3Usssv/f2Lyqz/GHjfVfg/wCA9U0mxvrnW7zxHr39izQ6jrEskVhLFF+6uov+uVAGH4q+JHiPWJbz7dYy30drqV1bTaTFD5f/ADy8qX/prXSeN/iR4x/sHw3/AGHpP27VPJlubzRPO+zS+VFFL5vlf89f+WVR6bpuuQ+MrOD+wov+JNNLZaxNp95/qpYv+eX/AC1liqnrGsTw/F+zg0rQ/wC1ri/83+0odR/d/wBl/wCq8rypZf3v72gDD+DM3iP4kS+IPGPj+++26ff/AGqWzh87yv8ASvK/49ax/Ad54x8YeHLO4uPFUcXiDQdBlj1jQ9R/5a/ZfN+y+V/11+0+V/39roPh74bg02LN94V+zapf3ktzeaHDqUvmxSyy/vfNl/8AItanirUtKs/Hn/CYfDmC2vvEkvlaDZzf6rzZfN8397L/AN/aAOf0288Y/BnwvefGKfwdFbXmqab/AMTjT7uz83ypYv8AVRRVueCbz/hMLrQ9d8Y6rpsdnr3mx6lofnf6VYS+bLdRf5/6a1c+MHiPVfGHhy88OeI55I9P0uGW5vLTT5ovKll/5axeb/yyrg/Dejz/AAT+Mln8TfEeuXOt6fdQxeTDF+98qKWL91F+9/1tAGp8TtN+B+g+KNPn8HQX1zqGl2ctzqUMU37qKW6/df8AXKuo+LXxInvPC+qf254VudSt/J+26PFFeeb5UssUUv2WX/rlWH8SPDfhzx5o2l/EbXNci8Px2s3lww/Y4pZZYvN/dS/89fN/1tdprHwx8OWfiPQ/jFrvmyR3Wm2v9mzQzfaftUXlfvZZZf8Anl+9oAw/hvr3ir4neCI5/GOq21zJLD5d5F53+kxS/upYv/IsUVc38bPBPxUvNZk0r+w5NNj8mKXR/E0Opeb5X/TKL/prLXeeG7Ox8ea9qHgfwBpVtZRxXktt/bnneV9q+1RSxSxeV/0y/wDaVcf4V8E/FS9sNP8AA/jLzZf+EcvItW8K6jNqX+q8qL91/wBMv3v/AJFoA5/w3eeP9N8Zf2rquuW1jHYaPFbf8TD/AFv+t/1X/XXzf/RtbH7S3jDwdo/gfT9D8D33m3Gs6bFZal/aPmxeVFLL+9/dV1E3jbw3oPwWvPip4x8OW1l4glvPMh077Z5Ut/L5X7qL/wBG15v4D8SQeMIrjxV4q8OSeZda9a6jZ6hqE3l/2XL/AKrypZaPZsDU8YeMPHFn4t0/xHY6HY21xLeS6dps0MPmxS/vf9V5X/XWKWtT4e+NtK+IXw+1Dwp4V8K6lHeWHmyalpMUP726lll8qXyoq9E+FdpBoN/qmq/GK+judQ86WPUpobyXyvNl/e/89f8Atl+6rk/CupeHNN8Wf8J/odjc+H9Piml+x6jF5v72LypZf3v/AE1oA0Ne8eT+G9YvLHwrqttFHqnmyQ2mrf8APWX975UX/PKKrHgnR/GOm6XJPodjFpvmwy2V5FN/x7RXUsv7qX/rlF/6Kqx4k8N6Hr3ijUNc8VeI7ax1iLTf3Oo6tD5UXmyy/wCq/dS/8svK/wDRVcf8MfCuuWeqa5Y+IxY30lho8t7qX9nzeZ5Xlfvf3UX/AD1l8qtDM5fQfBP/AAtTxbearqviO20jVPDmsS6deWk0MsttdeV+6/7ZV3Gpab4x1L+x577xH5lnpfm2Wg/ZIf8AW2sv+qll/wCevlS/8tap+I/Ad9oOvaxYwQR6lo9r5V7NpOkzeVdX8sv/AC1l83/Vf9cq0IbPxH8PdUk0rxz4rvbm3v4Yo/B+o+d5sthdfapZZbXzf+uX/LWgqkZ/g/x5qsPxV8PwfE2eKT7f/oWpQ2mm/uv+mstV/Dfwl8caDa65b+B9KisdQtdS/wCJbd3f7u2ltf8AVfvYv+Wv+tlir0TxVqVj4J8EW8/j+fTbmSKby5vJ/wBb5Uv/ACyrPh8VaHoNhp+q2UF9Lp8UMsWm6dL5Ut1/rf8AW+b5X/PXyqCjz/XvgbP4q+Eusa5pWuxx+OPCU0t7Zy6d+9iuopfKiliqxpvxC0rwH8QbP4SaVY6l9ol0e1/t6W7/AHssUvlRfuov+mUX7qus1LWPA/iSK48OeKtDk8Lahpc0Uf2u0m+zfvfN83zf+uXlebXL/E7yPip48jg8V+G77TdHlmtf7N8Q+TLJ/wAsov3v/TKgzK/xO8YWPwxluPhl4r+za3pfk/adSm1Gz8qWw8r97F/39/1VR6l4qvvEmqafBf8Awy/0fVIYra8tIpv9VL5v7qWWL/nrLVez+BtjN8bo54PiNbeJNPtbyW91L7Xpstt9qtfN/dWv+t/z5sVbmg+D/A3hvxvearY2OpRfaofLhlivPK/7+/8ATX/rlQAfE7QYPh78S9L0qCx8y41maLWoYYpvM82XypbWLyov+eX72Wo5vEnj+88R6P4OGq2Vzp9hqUXnWkWsRRfvf+essVc3+1ppviPxta6P44gn/eWE3+h3cVnFFLFL+6/1vlfvZfNl82uw+G+sQfatL8cfGnzY47qb7NqWrWkP/LL/AFX/AKNoNDzv4qWXxG+G/wC4+HNj/wAJJJo2pS3t5DaTf8evm/uv+2v+q/8AIVWP+FkeMfHnwb1iCxvv3l1D9mmi+x+V5Uv+t8r/ANG13Hir4e+KrzVNU0r/AITG+037V9quZvtcMX/HrL/yyl/6axeV/wCRap2er2PgPwHceDvCvhWW5uNLhtf7Y1C782X7Va+b/rf/AGlWYFPR8/E7xbpfxN8R+HPN8P6NZ/8AEh/cy/arqKKXyv8A97XuHgmGDzbP7dq1tJ9q/wBJh0+HTf3sVr+6i/7a/wD22vP/ABXqUGj6X4f0Pw5Y32m28t5FpOmy3epS+VL+6/ey/upf9VVfxJ8MdV8N/FD/AISPxx8TdN8u1h+zf2hN+7l8qKL/AI9f+2v/AD1/6ZUez9qX7U9E8SfDjQ9S8W3vxU8f+Ff7I1C18qyh1H7HLLa38X/LL/v1Xkd74a/tj4v6p4A8DfZo7O/vJb3zoofs0sthaxf6VdXPm/8AkKvQP2ivHnhXWPC/h+CeDW5NP0vUvMvLuWby4oqua9rHw5vb/wD4WN4qsbaO3sNHupNSu7u8/eyxfuoorXzf+eX72X/v7FWZlU/6dnk95+1F8ObPS9U8VeB/DkXiC88L/u4fNhliil/66/uq7jwrDfeNr/w/4j/4RXzP+Xm8m+xxRRWsv+q82L/pl+9l/wC/VeT/ABy+GPg7WJfC8/wI8VWP2P8Atj/UzTS/vZZf+eUVe+Wmj6H8K/hz/wAKdn0rUr7T9e8397F+9ltZYpfK82WX/trWhseX/tOeN9V+DPjzT9K+FfgDy7fVJv8Aifa59j82WvSNN8VWPwx1S3+GWh65psVvrNn5k2kzTfvfK8rzYoorb/v7R8K7z/hD/FFn4An1yTUpIppbm8/tb/VSxf6qL/P/AEyo+IWpaV4JutQ8R+HPA8Wt3H2P/TLTzvLl/wC2Xlf6qKj2hmcv4q+OXirxJ8OPEng7xV4cjl8P6NqUUlnd/vYpZf3X+q/9FVx/w9+LWlfHL4jf2HfaHLpvhvwR+7+1/bPM82X/AJZRV3Hg/Tdcm+CN5PpWhy+Z4jmiks9P8mL/AEX/AFv7rzf+uX/oqs/4tfDewh+Bclj4Ag+w2+l6l/xMvJs/s0vleb+9l/6a0AaHiS88Oalax+FfAE9jc6h4jvIrbyvO/eyxf8tfKl/55Rf/AB2rH7VHwH+GXgmLT/Cuh/Yrbxhf2fl6lqE15FF9ll/55f62uD+Ffhvw5o/9qfEb4ZeVbR6XefZrOW7vJf3sUUXlS+V5X+q82WWX/v7Wppvxm/4XxYah4j+I3gfytPsNY+zTajL/AMuv/XWg0OX/AGe7zxH8JbDWLHVfDl7omn2sN1c6ld3f7yW6/wCWUUsUX/bWWtCzs76z/sO+sfCury+G9UvIo9Bm/e+bf+bL+9ilqn5PjHwH4o8QfFTxV4jkks/sfl+VDN5nm2Hlf6LF5X/TWX/0VVyz+NvxN8B/D2TWzocupXEum+ZDp+uTfvbDzf3v7qL/AJ5fuqDMpj4M2Phv4aafrmhwSy3HhzWJf7S1aWHzYq1Nf8ST/EjWdH0L4c+HLm50/wDseK5vIf8AWyxS2vm+bL5X/bKpPCv/AAtTx78IP+E48R+Ko9E1C683zvD02mxfvb/zZf8ASq6T4e2fj+b4c6pb+I/GMUWoRTRRf2h9j/1sssUsUsX/AFy/0mKs/amhzc3hXwroMtxrnjHXLm91S6825m0+Wb97fyy/6ryq8/8AAeseMNN8SaxBBffYdLl/0b7Xq00XlfupfKilii8397/zyroLPxhBZ2H9q+B9K03Utc8OTf8AE+u5rzyv+2v7qrGseD9K+PHiPR9c8V33m3F1pv2b+z4bz91Ldf8ALL/tl+9l/e/9Mq0MzpPAfhW91LxlpcEGuW1tb2uj3Uc0V3/x86p5X/LXyq5v4e+KtV03Xtc8Rz65JJJFrEtlpunRQ+Z/an72WWKX/v1FLLLXSeJPDfhX4D+X4O8R2F7beJL/AFjy7Oa0h/5CkXlf6rzf+WUVc/o/xO+2eN9D0qfXIrbS9B1KWy1jUZYfLl82X/VSxf8AXLzf/RVAHceNviFfa9YWcE/9kWVv53lzf6Z5Uv8A118r/W/88qj+x/DLxVr1xpWueHNSudH0aaW5s9Ru/wB3FLa/vfK/+215H8ctN0M/FC38R+APH9t4t1iKH7NDqMV5LF5Xlf8A72vUPGHhrXPh74C/4RXQ9Ktv+Eg1mzistS/0OKT7B5Uv+YqAOP8AGHxs0r4e/D7UPA/gfQ/s1nfw+Zpuow/vIopbqX/Wxeb/AJ/dUfBPxVcfD3QLeDxH9mubzWZpbmzlh/1UX/TWWX/ll5tdh/Ztj4PsLyDxjrlzbaPf/wCjfZLub97YS/uv9b5X/PWXzZa4+zstK0fxHqHiOfStSubPw5Z/ubuXTYo5brzf+mtAHoHxshn8B+HNQ+LcHhW503VNU037NDdxeVJLaxebF5X/AH9il/79Vzej2dj9gt/jTfWNzfapL5XnQ2k372L/AKaxRUaD8ZvCusWHh+xn8cW0X9jaPFHZyzTSyRfZYv3v+q/8hVc1Lxt4AsvFGuTjxj5kf/HzeRQw+XL+9oA0PGH7SHgfwf4tt76x8OSXMel+bJ9k06z/AHtr/wBdf+/VU9Bs5/Enw+j+Lfn6bc2d/N9tm8J3flfarX7LL+9li/5a/vf9V/21rL8H/D3wdr3xQ1TxjBfXv2iXyo/3U0UkV1axeV5ssVdJ4rm+I/irXv7V8D2OrX2n6NDFH/aH7qL7VFL+6li8r/nr/wDGqAM/QfjNpXxI8G3nxU8K6rbeH7jS4ZY/7R8n/j/tYpf9VF5v/TLyq4/xLr19N/wi/jHVfHFzY3mqfar3TbSbTf8ASpf3sUXlf9cv9VXaeCfg/wDDnTPEcngDxHcf2bJpd5LHDaahD+6li/5a/wDf391Wh/xaTUvGeueFdVgtv7Q0uz8v9zN5fm+bF5v7r/tlFQBX8Va9PoPjfULG+0O9lj1TQbq5s9Q0mz/55S+VL5v/AE1rL8CfCvVdS+HMnjjz5NSvLW8ludN1aL/VfavKi8rzax5viRPqXi3XLHVfEf8Abeh2tnLqPk+d5f7qX/llXQfDHxhYz/BHS/Efwd8Of2bp+qalFpMNpNeS/wCi3X7qWWWX/wAi+V/11oA6z/hCdV1K10vwrqv2aW8168l/t7+z/wDVWvlV5v8AFrWPAHiSLQ/H+h6r5WoaX/o39kw2fmSyy+b/AMtYv+WX+qrrPir8QtD8NeI/D9jpXhW58u1/0f8A6ZRf89f+utYfxOmsf+F53HiPSriyk0/S9N+0zfuf3sV1LF/y1/66+VFL+6oF7Uw/FXhWea71Dwr4j1yK5uL+H+0dS+1zf8evlReb+6/+NV3Gm3nx+s/DmqeBxocVl4T/AOEbltvDd3D/AMusUUv/AC1/6a1z+saxpXiq18L+MPhl4csb3UP7S/feIbv/AI/rWX/pr/5FrpPgn4w1Xwf8JdU8Kz6rfXOl6XDdR6bFFD5d1F5Usv8ArYv+/VaVKgUjh/h7oMGjw2fg7/j+k0ab+2vEmo2nm/apfNil8ryqJvjB8JP+Ezs/B0HirxJe/wBg6lLZf8ef+tli/wCWX/TX/plXqHwT0248eWtn8RvHEFtHbywy/wDExl03ypfN/wCeUv8Az1/1sVeR+JPBPg7xh4R1zxj8MvA9t4b8Uf8ACSfaf7btP3ksv73/AJZRVmMsfE74PweNvCWl+FdK+I9tFJda9Lq2mxXcPlXMtr5XlSxS/wDPKXza9A07R4NH8Bap8JNV8Halrd5FDa232u0s/Mil82o9H/Z18Kz6DZ/b/tttJpepS6jNd/bPNiv7qWKKKWug1748fDmb4q2+leB4Ln+0PCVn9m1iG08rypf+mUX/ADyoA5vwf4VsZvhzeX/xG1y50jULWz8vWLuaH97a/wDx3zfNi/7+1lzeKvhz4Dl8QeB/hz4xubmzv9HutRhmm/eRfurWX97FWh4k8YX011b2MF9bXOsa9Zy/bLTUP3sv2WXzf+/VcX4P8H/DL4P6XrGueKvEem63/YM0XneTZ+ZdWsUssX7r/pr+683/AFtaAdZ4P0Dwd8Qvh9b6X4x+I1zq/iCXTYrmz8MQ2flSxS/vZf3v/wAdrl9S8K6V4V1Sz8OeFbHV/L8R+VqMOn+d/pUUtrF5Uv8A11/deb+6rQ8SXmleNvi1qnxG8OaV5dno01rHpt3pP7y5i83/AFv73zf3sUUtdBNr3irwrrOj+FL7zLmO11K6j1i01CGKX7VFL5v72X/pr5vlUAXNA8E/8VR/auleOI7nVLC8lkvJdQ/5ZS/88pasax4q0q81nw38JNc8R21t9gh/tGa0u7OXzYpZYv8AVS/+Rf8Av1WHrHxI1XwH8aby+8HT2N7p+lwxSa9dy2f+q/df5/e10mveKtDm+Jej+OP9B8SWevXnl/a5pv8AVXXm+b/7VlqP+vgv3RyfjCax1L4v6xofjie2ufA8vlR/vpoovsssX/XWrHwlvNKs4pPhzYarFc/2DZ/af7Jm/eSy/uv9b/1yo034Y32j6X44n1y4sb3UNZvJZPNmh8yWKWtSH/ij/hTp8Gq6HompXEWmy2037ny4rX/pr5v/AH9qyDl9X8VeAIdHk1Xxxff2lp+qf6Fo8VpNFJcyy/6r7LL/AM8pf3v/AC1qnqX/AAnHxI8R6hB4cvvs3hvw5NFZTaTd+b9pitf+WUvm/wDLX/rrRean44+Hvii31WeeWLWJYYrnR9WhvPNtovssvmxSy20tegTal4x8K3XhfxHpXxOufscumy/bLSGHzJf+2X/kWgCvN4k8OaD8NNU1Xw54Hvb2Owh/s6a786KTypZf/ttfN/jD4qfE2bxRp+ueKr7y/Nmi/df6qKWX/nrX0B4Jhg+wap4P8K/ZvFPhfVNel1H+ybuz/dRS/uvN/wC/X73/AL+1zepWfwk+J0vh/wAK+I9Ktrb+y5rq2vNQlh8uX91/qqr2jAuQ6/fXnhK3sdVgjudL1nzfO+yQy3MtrLF5ssssXlf8sv8A7V/z1rY8H+FfDmjxR+B7HVf+JHrOm/aYZZpv9G83/lrFL/zy/wCmVZ/hu8g+Ev8AbFj4c0rUrnS7rR/tOmw2n7r7L5sssXm/9spfNqn4b8SeG9B8B3kGufZr7R/7Hlks7vT4f3t1L/zyiiqTQ2NY1Lw54P8ABH274m6rc+XLDFZeb5MsksUsssvlebL/AJ/1VYc2mwaD4js9Kn/tKSzutNl87ULTUv3Uvlf6qqegzXupeF9Yg1XXIpZJf+Jjo+iSzS/62XypfN83/prXYeA9Ng03S7c65ffYtQv/AN3Z6d/rPNil/ey/+QoqzA2Ne+DJ+MHw50+x8HeONNuZNLmlk/tHSfNltrqX/Vf62Lzay9H8N6H421m8sf2k/DltbXnhyztZJtR/tL/l6i/5a/8ATX/W1434ws/jv4b0uPwP4AgvdN0O11KKOabyfKluv+ev/bL/AFtd58TvjlffCuwt9cvvAGkf2hLoMv2PT/J8z7fFLLFaxRSy/wDkWjkFUqUTQ0ez1X9pzxRb32q/adS8J2upeXDq3/HtFLdeb+6ll/6ZVofHOH4LfDfUNUHxUvpL6PxHpthotn4e0n97FFL9r83zfK/6Zfuv+/taHg/4b+P9Surfxx4q8VeZo/8AYNrJZ+HtP/0aLzYv3tcnoNnP4q8W6h8cPib4VsZNQtbyWLQdJu/3UsUtr/qpf+mvm+bQM0Phj8DfA/wx8UWf2HSr7VtU1TWJb2GK7hliii/dfuq6QfGzxjD4o1T4V+HPDn2mTyYo5pru8/dRS/8AH1+9/df8tYpYv9b/AM8q4fxt428VTfFrR554P7N1CXR4vO1C0ml8qX/tlWh4P8Varr2sxz6FBLqVvdWd1J9rm/5ay/5ii/7ZUAemaloOu+JNU0vxxqt9pPmRfu/7P/5ay/8AXKsfxH4Pnhl1DxXfaHLpusa95sflQzSySxf+0vKryebTZ/BN/o/hy+8VXOpap5N1Hpvm+bJFa+b+9ll/6a+VUnjzR/ip/wALBt559c1K58L2F5dfbJorz/j1tf8AnlF/5CoA9k8H6brng/wvb+DtV0qWW8i1j/TLuX97F5XlS/vYv8/8taw9N8bWPjbR9U8K2M8Vz4flvLrTtSu5pv3sUsv/ADy/6ZUeD/jZ4q0yLS/EcGh3PlxQy+Tp+t/8sorWL/VS/wDXWuPm+JGrQWuufE3VZ/7NuIvN+2WmkwxeVF5sv+qoAr+PfGHgD4M/BvR9K+HP73/TPL+yXcP7rzf3vmyxS/8ALX/VVofDHxV4Wm+FWuDwdpX9rx38MsdnDND5ct1dS15XrFn4j83xBY6rY217/Zd5Fe6PaQzeb9ltZZf+WX/kWWqejWY8E3V5P4V8Y/abyKH99p803/LXzf8AllQB2HxI13xV8R9Lt4NV0OK2jsPEkv2OW0vP9b/qv3svlVn6PrHir/hY3jC+8VQWUccumxW0Oo6tN5X/AGy8r/tlUfgP4ka54J1m41zVdLj8u/htf+Jh5P8AqvK/5Zf9Nf8A7VUfxI8ND4qeHLe+vprb7PLr3mTWkUP726loA9IvNe13/hV+j+KvIuYrj/RY5vtc3mxReb/rbr/prL/yyrz+z8YeMdS+N15P/Yet/wDCN+HNN+03kN3efZrH/W+b5sv/ACy/1Vdh428VWOsfCCzvvB2k217p8sP777Jef89f9bL/AOiq4/Qde8R+JPBFnpMH+k29hDF/okM37qWKXzYv+2sv+qrnNCv8H/gnY+G/7YOh+JLHV9D16H9zNd3n2byov+ev+q/1VdR8E9H0r4e/Ea38R6r8TdEluJZpfOmu7z/Veb+9tYoov+2UtZfw8/feHLzw5fa5bWVxfw+XZxXcPmxWEX/XKtjXrO4h8Zaf4V8Sarpt7Jdf8gf7X+8i+1RRRf8ALL/llF/8alroMzP1j4heKviR431TxV4j1y5ks7C8lttNtIf9bpf/ADyrg/G3jDwBr1rHpWhwX0sfnSx694hms/3UX+t82KKLyv8All+6rsPiF4k1X4e2F5/YfhWW51DWf3c139j/AHUvlf8ALX/tlWP/AMK9g03QdU8Y2Hjj7NqmvXkX+iQw/upbr/Vfvf8Arr5UtFPcDY/ZX8B+FfDfijw/Y+Kp7K50/S9YlttN1yWHzft8sv8Aqv3UX/LL97Xqmvf2VN8RrifXLDW5PEH2OW5vLSKH91F+982WWWuT8YeNvibpvw+8N/8ACufB1j5mqXkWnTaTLD+6ili/1V15X/XXyv8AyFXWfE3WPEfgnVLeDwrYxalJf3nl6lNDN5Uv/TWXyv8AprWZoSaleeFdS8Zef4c+3f6Bpsuo6ld3cP2mLzfK82Lzf+2v/o2sub/hP/jBa2eueB9D+06Xf6lFJeafDN/rfN/dSyxeb/yy/wCmUtdJoPhvVdfuvt2q+ZLZ+dLe+VND5X/PWKW1l/7+15f4l8SeKv2e/Aej+B/DhudX0+68SfafJ8n/AFX/AF1oMzm9e8H6refHO80rwPfaRLp/9peX9kih8v7BF5XlRf8AXWX/AFtema98PfDmo6X4s1yx/smXWIrP7FNq0Nn5kXm/8sv9VXJ3k8GpfEHxpfWPlxXEWsRf2baafD5XmxSxRfuv/Iv/AJCrn/B/hv4qeG/HmqeDtK0P7Np91DdRzRfbP3Usv/TWtAO0+FXhuDwfYaXpU/2aS8v9Yl03ybTzfN+yxeb/ANNf/aVaHxC0fVfh74cj8D/25qVt/plh52nf8/8A/pX7r/Vf6r/lrVj4e3l/4ki0/wD4QDQ9SstHsNNlkhiu5v3t1L9q/wCev/PX91L/AN/a6TWNH8R+Krq30o/Ea+1KP/WQ3et2f+ti83/Vf9cov/aVBoeP6b595LeeP9DsdS1vXPEc0tz++vIpYov3vm+bF/y1qv418E65488OSeMbGC2ufFEV59tm/wCWn72KL97/AKr/AKZS16RpGs+FbzRdc8K65rljHp8V59ms/sn/ACyi/wCWUUtWPCs3xNm8eef4/wDB1lpul6XD9o/4l0MXmy2EX+q/df8ATXyoqDMz/GH/AArIWul/EbVdKttJj/sfy9eu4of9GurX/llWPoOmj/hPNPsfhzfRx+E/J/c3enTfuopf+mv/AD1/5ZUfG2zvpotP8OQeMZNJ8P6pZxW39nxf62X/AJ5ebL/y1rY0H4kWXwBl1DwdB4VttW/t6H/iQyy/8sov3Vr5v/f3/wBG1oBX0G8+LfiTXo/DmlT6bJ++8u8tNRh8qXzf+eX72tTWPgb4q8VeLY7H/hFfKuLqaW582W8/49ZfK83ypZf+mX+q/wC2tcnN8YP+FexR+ffXOrW/iOb7NDaTXn72KXyv3sUte2ePdYvfh7f+E9UvtVludP1nwrLbTRQzebFFL+683/0VL/36rOp/07FSPL/hX8JfDnwr0bxBofiPxjbeXYfvJpfJliii/wCWssv/AE1rP+AGva54a/ab8YX089tc6fdabFcwzWl59utYv+nXzYv+Wtewa98VPhzoPgO48R64NN8u6h+zabp13Z+VLdS+VXk/wx8B+HLzWbj4O+FfHFzLrlh9lkmhh/1UVr5X7qL97/0yoLqm58ZtH8f69rXhPxH8HdVludDi+1WV5aadN+6tbrzftUXm/wDPL/ll/rf/AN1w+j698U/DcWn+I/FVjYx3mqa9FbzQ/uraL/pr+6/8i+bXeeMPEnj+zsI/Dmlar9m0e18VRR6x537y6tf+WX7rzf8ArrWp4Vs/CvhXRrzwrY67HeyeI/Nuftd3/qv3X/LKWX/llLT9p7Ikj/4Ty/8ADel/Yb6f7bZ6Xpt1ewyzf8/Xmxfuv9b/AM8pZf8Av1LXm+pWeuab4oj8fz+B7KK81TXvs15dw6l5Ustr/wBNa7DwTrPhX45fDrxJ/wAJVYx21vpeveXpssM3/LLyvsEvlf8ATL/j5l/7a15/o+g6Hpvwpk8HfCvxV/wkmuS2fmf6791/rf3X+t/1Vae1A6j4teJPEXg/xHo99pXgfTftF/efYrPUNW/e3VraxebL+68qX97F+9/8hVz+j6P/AGb8ZJNV1XwdbW1vYWcsl5NDZy3NrrMvleb5UXlf62WKsO9+G998WrC80rXPEcVlb6DeRXMOkzab/wAfV1/qpf3v/XWWX/v1XpmsfBnXLz4oaX4c0qxtrb+y4YpIfJ/e23m/uov3v/kWkBX8SeG4NH8JR/8ACK+ALmOP+zfMhm0m883zZfKi/wDRUvm1h+G9H1Xx7LpfxG+Kk/2bWLWG1+2Xek+bFbXUXm+V+9i/5a/8tf8Av7FW58SLyx+GPjz7drmq3OieH7qaWOHyZvM+yy+bL/z1/wCWvlSxVsab42+Ffhvw5o/jG+8DX1zZ+I5orKGa0/dfZfK/e+b/AOQqzMfZmH4w8H+I7zwbHBB4cli+y+b9s1CKaLyr/S/+msv/AD1rzPxJN4Ami0ODwBfX1t5vlajo9pdzfvbXyv3Uv7qL/rlXtHxUvIJrvVDff6TH9sivbO086X/Vf8tZYq5vXviR8CPiFa6f/Ydjc2Xijzvs0OreTF5sUX72Lyv+uXm+VL/21rQ2O01j4keAPCvwwvPFWuQXMmsSwxXN5af2bL9p83/0VXmd5rGlXngPUIPDmq3NlofiPWLWTWNQ1GGX7VFdfuvKtYov+WsVdppsPw5/4Wr/AMVH4jj1KzurPy9Siu5vMill/wBV+6/+Nf8ALWvO/iH8B/GP2+4vvCt7FfR6NqUv/Lby7W/tYpfNi8r/AKa/62n7ID0TxJo8H9qeH7G+gudS+wabL9jmtNN/exS+b/z1/wBV5Xleb/21rh9e+JuleCfGWqT6HY32rx+dFq3huGL/AFv/AC1/e/8AXKug034war4k8UaP4O8D6HLLJqmjyy/2jaTS/urqL91/7V/e1c+EvgnVvCsWnz+P54/Emqf6uz1uLTfNiii82X91L/1ypGZwfgnxV448SeDZNc1zQ/sVxqn2q2h/s791ayy/63zfNrvLybwdZ6Xcarofg7zI4of3P7n7T+9ii8qXyv8AprWfrGvaHoPi3xB4A8R+G7n+z4tBl1Hw3aaTNL5trL5v73yov+mvm1sTeJLHwHdah4x8AWN9qXhu/mikmtIdS/49fK/5a+V/01/5a0/aGhXsvEmuaD9j1XQ9Kvr28/seXUZtJu/9b5Xm/vYvKl/6ZS1n69puh+KodP8AGPg7Q7m2s4vK1aaH/VfZZf8AVf8AbLzf+eVSeCZtc+JA/wCE4sdcsbGOWa/jhhms4o4rXypYpYvN/wCWv+q82rHjbxJ/wgeg2d//AMIrZSSa9N5fm+d/o3m/9NaQEk/gL4V+JPDlv45Pjiyk1DQbOW2m/wCmsUX/ACylrHs/EkHi+wt9K8HeMdI1LUIrOK9hu5ZvKi/1v+qlrH8K6b53gLUNVsfCtjY3lrNLHeafFqX+t/e/8tf/ACFR8PfhvpXg/wAJXmufEa+i0DULWH/j0l82W2li/wDjX72KswO48N6D8VPjBqn/AAjnj+CX+w/J8vR/Ohi/4lflf8vX/TKWtj4wf8I5pA0PXJ9KttSjtZvtOpXc1nFJ/qovKr57/a6+IXxhvPjxp/hXwBqtzHo9/Z2smm/2TN/x9fav3vm/9/fNr0D4Sw+P7z4g+KPt08csejeG/wDiW6fd/vYr+6/1X/o2WnUp/wDLwVOpSOo8b/HK+vfAeh+I5/CslzHdTRedLp37rypZf9VFVP45eD59e0bw/wDEafxHJba5LqUVlDd/Y4pYrqKLyv3X/kX/AMhVXg8K/FTwr430/wCDvxAv7b+y5fKvbzT7Sb/j6v5f9V/1y/65VX/aiGqzePLPxjY+VZaXo1nFLNDDN5XlfvfKii8r/rlWVOmHtTm7zwd448Yarp+q/Hfx/HY6hLNLZaPp3+t/6ZRVufs36lpUPgi80PwPoV9baXa3nlw6jq3/AC1l/wCWv7r/AJZRfupf+/tZ/wAB9O0rxJ4ouLj4jeDf7S83UotRh8mb/v15X/XWtzWIYNB0H+w4NVudJjtYYv3P/LWX/nlF/wBda0qDLF54b8VeG/i/oeueHPEdtFZ2F5F9j1G782WKK1l/1v8ArYv9VVz4Gz+I7OW4+Jt9/ZOt6PrOpXVzN5U0sktr5svmxeV/39ry/WPGEHgnVPEkGq31zfXGswxRw+dN+6sLX/8Ae10nw3PiPQfg3qEEF9bRXGqeJPLvNR87y4rWKXzZf3X/AH9oA7TWPj94/wBY+KFvY299ptj4DsNN/wCJl/of/XX97Xh/iPx54j03x5qkGh/btX0uWaWP/U+bFdS/9cv+eVe6TeG/hzpvgOT4f+FdKtrnVNUhi87VtWmil/dRS+b+6i/5ZVhzfDfQ9M8B/wBh6rPc/bPO8zzZpopIv3v/AFyrMXsjzuz1jVfB9hH4qFhLJp+qQ/YodRms/wDj1l/dfuv+/Xm/9/a5fwr8E/iPqXxGvPH+lTyyaXa6lFcw3f7r/RYpf+etemXng/StY17/AIRzwPY3MVxo1n9t82b/AFUsv+f/AEVXoHiT4n/Cvw34yk8AaTpUtt/ampf6ZL53mebLFF/6KrP2iNPZHhfiTXtV0HxHb2PiPSoo/tV5L532T95LFL/1yrpLz4V33jC1s/8AhHPFWpfuppZNSilhitpbXzf3X/PWWrnjyb4Zal4y0+xFj/aWqXWpS3Omzed5UXm/8sv3v/TKsf4e+Nr7wH481Tw54/8AFV9Jb3U32a8lih/1ssv/ADyrSlTGcv8A2lY/B/4XW/hXwP8A2lqXiD7ZL9shms5fKuov+esUVdp4Dhvte+EGqa3PBL5lhNFe6xaXesfZv3UX/TKpPhjP4c+Kvhf7d4U8R21zrEWm/ZtS+12csUUUsUXmxeV/5FrLh+J19D4XvJ9V0OL+y/sf/E4i1CHzPtUvm+VL5v8A39/9FVpU3Mzc1L4PfE3xUJNc0PxV4b8u6hitof7WvP3sX7r91F+6qx4P+DGq6lov/CR+Kp/7N1i11Ly5prv959glii/5ZebLF+6q5o+g+B/FWl3nxUt/FUeiXFrNFc2dpdw/6N5v/wC6qv4p8SeAPiRdWfiOxnl8QXH7q2m+yfu5fNupf3UtZgbHjDSND8B+N9Pn8VeI7mWS6vJY9HtJpvtNjFFLF+983/nl5tXPjx4b+HOj/D7Q/GVjqtzc6hrOpS3OpQxTeVFFdRS+VFFFF/rf3v8A8drl9Hs/BsPhzxxBquuatc3kU0Wo3kUMP72KWL/ll/zyq5Do998f9L0f4jX2lfvPOlsvsl3D9mitfKlll83zf+Wv/LWgC5qV5qug6/ofxGg1WO5/4mUVlDpPk+VFYebFL5sv+t/e+VWx8PfDfjiGKzg8SWHl6hfzRatN51n5ttYeb/yy/wBb/wBtfK/5ZVh6b4P0r4P6prn/AAkc9lqUms2d1baDqMs3/L1L+6ii/wDIsVXPCupeOJvEeuaV4x1yWXUL/wASRfY4bv8A1UsXlfvZf/RVaAdJrHiTVdNtdcg8Oa5HqXiTVJrW20fTobOXypZf3sXmyxeb/wA8v/aVV/O1zx5daHB4j1zUvD+oaD/xMbybyf3V/wD89fNq5pviWfwfLeeMfFM+mxeJLXUv7Fs/Oh/0q6ill82Lyov+uX/o2j4Sjxx8QvBl5feB9DsbaOL93ptpqF5/pUUUv+t83/41WYHP6lDY+MNeksfhzfS2Vx8Of3l5NqPlW1rL5vm/88v+mX/XX/W0Xmj/APCSS/bvEd9Y3NxL/o1n9km83zZfK82Xyv8AnrVfwrMPBPxbuNKg8Af2tbxWcsnirT4v9bLdSy/vf+uv+qqTxJ4V+HOpazH4q8HeI7ay1CWzlk8K2k3lfZvtXm/8sv8AnlFFQB2E2sar4P8ADkdl4jhl03S/tlr9jiihi8qWKWL91/6Kl/7+1XvNY0rx5qlnpV9Y3Om/2N9q86007yv9P/df9df+mtWPi1eX3xIsP+EHgvorn+1PKuYf+evlRRRS+bF/0y8qKs+80HwrpvhfxBfaHrl9c3F/DFq3kw/8vUv+q8qKg0Dxt+zf4H1L4fWfhz4V/u9QsNSiuby0m/56+V/6Kqv8PfjB4p/4V1b6pfaHHbXkWsS215+58q6li8r/AKa/6qKsf4Yzar4V8Jf8Ks0u+udW1C//AOPzUNO/5ZS/62Xza2NN0Kea1ksdcHl6HdabdW00t3+7uopZZYovK/7+10GZj+MNY+HPxs+F9xqvhWC51uSwhlj+16dN/wC0v9bFXcfDHUvDnw30bS9V8carpvl2v2q2s/8AhJrOLypZZfKll/65ReVFFFF5v/PKvN/Afw9g/Zp0a88OfvL2PxHeebpuuWn/ACyil/55Vsax+z38JPAfw5k1z4jeMf7X1CKz/tbw3od3N9mll/65S/8APX91/qv+mVR7T2RXsiTwT8N/gf428Yx+KvAGhyfaJbO6ubzw9q037qKX/nrF/wBNa5f4neKtc8SfFqTx/od/cy6PoP2X+zftc37qwi/e+b+6/wCmv+t/7a16xZ6lY6bYaH+0Zofw/tr6TXofs32TTpvLll8r/llXHw6b/YPwv8WeMf8ARovC+s6l/ocN3D/rYpbrzYv+2X7391/2ypEm5rGjnxhqmnzwfDm21u3l037bDp8Pm/6V+9illltvN/1Xlfuq2PB/w30PwrrNv4x8D2Om3PiDXoYv7em1GaWSKLyooov9V/zyrL8K3virwH/Y/iPxl4jlufDcVn5dnqEMP/Hray/uvKl/7ayxS/8AXKKsP4Y/EjxHrHhfxB4B8Y65bW1xf69L5N3LD+9ltbr/AFXlf9NfK8qgVUz/AB58AtV8FfFvXPip4V/te5t/J+03nk+Vc2N1+98ryvK8rzYv+ev+trU+JHhuxhv7zwP4UntrnS7qG1jvNO8mKKW1/wCmssVcf4J+JHir9nrQvEHg7w5YyalocV5LbTTajDLLL5UsUv8ApX/f2Kuk17xtY694t/4THw58OYrm4sNStbLWLuaby5fsvlf63yqf8UKf7ouaP8JYfhj4XjsdC1ySK8v7PzdStJv3cVrL9l8qWWX91/01/wDIteR/DHxV4O/Z18ea5pWlQR6leapNF9j/AH3lRRRf88vN/e+b/wBsq9w+OVn4O1jQfGF9BfSW0d/o8UVnLaf63yv+mX+f+WVeb/BPWNC+J3giz0PXNJ03Uri1h+zalq13D5Ustr/qv+/tZUi6pj694q8R+PPGd5fa5YxabHpepeX4k0nT7zyvNlupZZYrqLzfN/e/9Mv3teufD34tT/DHwlceI9V1W5vvD9heRR6xdwwxXMv/AE6y/uv+eX/LX/rlVzx54V8AalFJ4qvvA/2b+1PsEd5d/Y5f+WX7qL/trFFWHo//AAg+seEvEH7Ls+lXNjJFN++hl837TL5v+qli/wA/8ta0JMf4/eA/Dn7Qnxp0f/hHNcuY7zQfKvYZZbyLyv8AprL/AM8v9V5UX/bKrnw316fxV4NuNK8YzxXOnxXkuneTp3m/uv3v72X/AJa/9Mv9V/y1r0TTdB1WbWZLHVvEcd7Jqnhu1toLSGH/AJa+V+9ii/6a15f4b8KweA/hVqnhz4t/bdNkivIvseoRf8tbqKXzbWKX/lr+983yv+/VOnuB0F5Z/Dm88R3HwP0O+1e51DwveRXN5d/bP9bF/rZf3tY9l8DfA/8AZdnY+Dr6+k+wWctz5WrQ/wCkyyy/uvKll83/AJ6/ZvKrj/if4I+Jvhv4l+G9c8OWOrXMcVn5k2rQw/vbqKX97Wh8PfHmleNvh14H8cWPirUrbXL/AFK/0nWP3P72KX97L5X/AF182rAp+D/EkGpX95pXiOfTdEuPO+zTf6H5X2WWKX91L/rf3stHjzWPDln8NNP/AOEc+NOpW3mzRXOm3dpZy/ZYooooov3v73/Wyy+bXSaD8INK16OT4m/Fue5sbj7Z9t+16h+6irL0H4e/8IH4Rj+C3jHVbaKzv7z7F+6m8z7VYXUvmxSxS/8AXWKgC54Dh8Y6bdW/xU0rVdItriLR5ZPskt5FFLdXUX/TL/pr/wBda6A+NoIfBsfhy+8falY6hr2peZqX+t+zWt/L+9liil/e+V5v/XWuf8efDfVfCus6X4c1yxli/wCEXh/fXcM3m+V/9q/e+bWPoPhuebQbjw5qt9qX2O/mlvZopv8AlrL/AM9Yv/RtBjTNz4neGtcilvNc+HMH23WIrOKPyZvN/wCWX+t8qWL/AFVcv4Dhn8beKNY/sqG50T7Vr32K80nVpovN/e/8sopf9VLXQfGDXtW8H/C/UINK1X7Tqmqab+51y0m83zYoov3sXlf9Mov/AEbUfgmaxgsPC/hz+3PtOsaNDFbQ6fF/rbr/AJa+bLWZsdR4Wm8OeD/DmofDn4jaH5V5FN++8n93/wBcpay9f1jVvHn/AAjcGqwebZ3WveXZ6dp2j+ZbS+V/y1lqx4b+JEH9vax4q+Lfg7Uv9AvJZPsmoQ+VL/0yii/7a+bWpZ6D4jmv4/PnsdN1DyZdW0eG0m8q2li8r/VS1oBh6P8AAa+8N+HLy+8R+I7bzJZv9D8mGWLyv9V+9uYv+eX7r/Veb/6KqxoPirwB4k8ZR+ANVsbnV7yL/SZpYbzyrb/rl+9/9FVT+OXjbXNB8OaxfaVrlzY3lrDLZTeV+9ill/df6quP8H6BpXw28Zaf448Of2le2fiOaL7ZDNZ/vftXlf8ALL/v1WYHrms6P4A+EvgjR5/DnmS659j/ALO0e7tJvtMtr5X/AC1rz/xhr3jH4V+MrjxV4xsY/wDiqNYtbbw3NFpv2n7B5UX72WX91F5X/HzXcXnhWfXvG/h/XINV8ryryWSaW7/deVF/zyrm/jZ/ZXhv4g3mueOPiN/bdxFNax6PFDeRRRRSyy/uovK/7ZS+bQB1njbxt4c1L4l/2tBPon2zzrWKz1GGb975UX/PL915stcf8WtA1Wz8W2+h32qy/wDCN3+myyeJJruGL7Vqkt1df8ev/oqsP4neG9K/4SiPVfAHhX+zdcl8qT99N5tjF5UX+q/6ZRVJ8Qvi3qtnrOh+B7/4cyS3F1ef2j+9/exWsV1FLFF/36l82gAvJoPCGjW/kX0ekSWtn9is/wCz9N/1UXlfuv3v/PWKubs9e1WzuvD99B4qtpZL+b/kLTQ+bL5vm/8ALL/v1FUd54kvtB8W2djrn2mOTVLz/Q4f+eUv/PKWug+D81j4kh0/w58afCsum2cusf6HL5P2aKKL/VebFWYGpr3w30P4k23/AAlWreB5Yo7+8lj8Vaj53+qii/exSxf9+q6D4b+D4PiT8L/t3iqx0m51CWa1uYYopvK/5ZfupYq5OHxtquj/ANqaV8OdcttS0vVNSi07TbT7HLJ/y9eVL5v/AGyrqIfEnirwT4Ij1zSrCyvtYtdNi/0TSf8AVeb/AMsv/IVaAcPP4k8HfA3RtU8VZ1L7RLeS+TpMV5/pV1dS+bF+9lr1D9nX4A/E39pa/wDGnxi8D6rbal4b8OWf2bxJaed/qpf+mX/TXyq4/wCKnw387wHp/wARtc8DW2raxql5ayXksM0UsUXlf88vKl/5ZebXP/8ABN/9tfVf2Lv2lrj4c6rBJbfDf4qXnl3n/TrdVzY2p7LB1Kn/AD7NMNTrYrF08Od54V/sPwf4jvNVvr6KO4l02WOb7JN5kXlf8svN/wDtVeB/A2HQ4dU1DxV4j1WTzLqaX/S7v979ll83/W17B+3V+z3rn7N/x3jg8HarF/wi/i2b7bpuoed/x6xSy/va8X+J3g/Q9B8eeH/A8H2aSS61jzJpopvM821/5ZVnl2Jo4vCU6lM0xNP6pi6lMuXnwx8Oab4X1SeDxHJqVxFN5mj6t53+qlill/6Zfvf9bWhZ+JINOl+0T2MdtHFeRajNDd+bJLFLFF+6l/6ZVof2DY+FfC+qarB4ikk1CXyr3QdJl03/AJZeb5Xmy/8AfqpNe17w5D8QdDn1zXNNubzxHpvmTXfky/63ypf3UtdpzlzUvCvhX/hEo/EfwdsZftniPUvM1i00n919li83/P7qtCa81zwp8VbzwbPY217byzRSfZP9V5sUUUX7qL/trVfR/FV98TrW8n+FcElj5VnayfZNJ03zJf3X7r/tl5X/AC1rY0fwr4c0Hw5H44gnkvdY866srzUbSbzbq1i8qXzZZfN/56/uov8AtrQB5/8AH7Tf+Fh6pZjwrfab9s0bUvsV5aRQ+XFdRS/63/trXsGg6xBo+jW//CpPDkVj4g/eyTS+T5flRfupf3vlf89fs1eF+G/FXw58SapqF9B5vl6XeRSeb/y1lli/1v8A2ylr0Cab4qeMLr/hKvB08cUdro8Xnedefvf+Pr/0VQBn/B+8vvBOsyaVPP5VxrPm3M13/rYvK/55eb/yyr0CbQbHXotc+I3j7VtS8Nx+F7yL+zdR+2eZ9qsPKi/deV/y182WL/yLXN+FfiR/Zv8Aanhzxxof9rx2um/67T4Yv3X/AD1/e11ngn4qfDnR/BGoa58TfCsstn9j/s7R5pv3n+lf63/Vf9cv/RVZmhx95oFj8QvHng/XPFXiLVr3T9U161j+yTabF9ltf+eX73/llXcWevWOg3+oeOPip4/tv7Y/tL/U2n7yLzYv+eXlfuv3tYeg6x/b2gWcEE8UdndXl19jlhm8391/yy/df8spfNlqv8SNN+C3w9+LX27Q9Vsrmzlhil1LSZryL/QJZf3sv/tKgzNDx55/jfwlb658Tdctra4i1iKSaa082KWKWX/j1/7ev3VdhZ/GXwr8PYo4NVgl/wCEk1nzY7OK0s/+Qpf/AOt8qq+vaP4H+IdhZ2Oq+HJZLPVLy1ubPULSby7aK6i/56/88ov/AI7UfiT4ewal43t9c8Vz6l/Zejfu9Hhis5ZZftXlfuq0A8f+J3jzXPGHxQ0/w5feFb3TdQ/tKL+3vsn7qK183zf/ACLWp8WtY+FfhzS7fwr4V0qLW49Bh8ub+z/3UsUUsv8ArZf+mXm1ufA2z1zxtfx33iPxHbR2eqTX8cMMsP8Ax9eV/rfNl/5ZeVFLXP8A/CK6Vo/xL8Wa7odjbXNvf6bLpPkw3n7qKXyv9bRT3A6zR/sPwl+H2ofFTxH9uvZNUhl07TZYZv8ASvNlii/5Zf6ryq6jwTo//CK/Y/B3jHxH5eqWujxSWenXf+ky3VrFLFdfuov+eteF2Xxg8VaDLo9jocEt9JYfav7Si1H/AFXlf6L/AKqKu00fWPibqXxgt/FWq/Yr6S1s7WPTYrv/AI+pbWWXzZf/AEVWvsjH2h6JZ/E3wr4P8Jax4jn8K21zqnky+dNF+6vovKli/exVzfjD4teK9N8JeH76+0qS+s5ZvMs4ZvK826+1XX/LX/W/88q5/Uvt0N1/wkdwLaXT/Jura8lmvIvtV1LFL5UXlf8APX915VdodHvtStNL1XVYPs0lrZ/Zv7Pih8z97+6li/7a/vf/AEbWRsF5qOq/ELVLPw5/wh0Wm6fo00X9m3c3+tl8r/W2kv8AmKpPG3w91XxJqlnpXxG8AXOrx2usfadBu5ryLytGl8ryvsvm/wCtl/deb/36rpLPTfDmpaD4fnsdWl+0aX5Umsfuf+PWL/pr/wBNa5v4weJL7xt8S7fw54NsY7G40vUvLhllvP8AWxRS+V5sv/PL/j5ioAz9e/4Sq88O6x8OdD1z/kKWd/8A2DdzXnlyxSyxeV+6l/1VSf6D/pH/AAn+q/2b9l+1WUOh6tD9piupYpYv9Ki/8hV4/wCKtNsdH8R+H9V1XxTLbah9sitvsktnL9l8r/plXrnxOu7HR/h9b+Kv7K1ePUIrO1j037XD/wA9Zf8Aj7/8hf8AoqtBe1NDWP2ivDnjzS7P4ZfDLQ4r2SW8i+2aTaf8tf8Anr/rf+2Vef8Aw9+Cc/xO0HS/GPj/AMR/2RrnhLUvsU13/q7XzYpf3vmxf9Nf+etRn4D6V4Pi0/4t+AfGMmm6pdXkuozTatN5Vr+6/e/9sq7D4kWeq+Nvi3Z+MPA99Jomhy6ldXOsQ/upfNll/e/vYpZf+mtOqM7DxV4P8n4taXrl9PHpujy+bZWc13+782W6l8391/4DVwfx+8Ka5Z+Mre/8Aa5c3PiSWbS7bXof7Sl/55Rfuqr/ABO8beMPipo3h/VtK+0/8I/oOpS/bNOmm/e/9sv+/UVXPBPxI8610/xjpXgCTxJZ/wCs1K70+HzJZfK/5a+bXNSAp3msaVpvjOPwP4x/d3ms6b9m/dXnm/YLWX91/wAtf+Wvmyy1xej/AAA1z4S/FCz0rwPfW0fh/wAOTfbf9Lm/eyyyxfuv3vlfva6zWIfB3xO8cah+0LPYy2V5fwxf6JLZ/wCi2sUX+t/e/wDf2uX0z4V/Eb4teLbjVfDnxG/efbLWTTfOhlji+y/89aX772xodZrHxCn+IXhK38Y+HNK1ex1Cw16KLxVpN3D5d1fxfvYv3UX/AC1/1UX/AMarpPGHir4ZeJPBGqeP/A/wrkl8WWGmy232ub/RpfKii/exf88vN8r/AK61ch+D/j+b4Gahz/bcmjXn+mTfbIormWX97L5Xm/8APX97R4Ws9c0e/wDt2q2Mcdno2mxXM2nf6qXzZf3vlf8ATX/VU/3wGh8H/wBpDw58SNZ1TQ/HGrX2iW91pv8Aa2m2n/Hz5sv/AEyl/wCeX+tqn8Jbyw+JHhzULHxjB/a9nLrEv9gxedFJ5v7r91/yy/6ZVzfir4b+DvHniLUND8AT2Om/2No9r9jlim/0q1/e/wDHrL/5CqP4neMNK+HsWhwa54cktrzw5Dax+dDN5djf/arr7LLF5sX/AC1/exfva6V+9Mz1DWPFWq/2Xp+h/DnQ7aWSKHy7O0u7OLzYq4vQfgD8K9N0G38Vf2t9h+y2ctzeXcMP73/W+VL+9/7ZRfuv9V+6/wCmVc/4q/aQ/wCFhfFa40q+g/sTR9GhlttS1v8A5a+b/qv3ssVYfxC03xVD8Po9K+FcEupWelzRSeVFqX/PWX/47/6NpGVTc6zxToOq+KvAcng7wdqstzod/Z3XnTajZxebf3UX72KL/pl/11rj/DfgOfUvGVn4/wDjh4Vkk0uLTZbaz067ml+1Wvlfuv8AyL5Xm/8AbWu88K/EK+8E/C/T5/FXhy9sZIrz/iZaddw+XLF+6/1tZ/ir4ha5Dqlx4Hn/AOJl++l1bTdWu5v9Glilll82KL/2l/21rQ1WxTs9e+Ivhv4jWfgDw5febpcWmy6j/aOt2f726tfKl/0X91+6l8r/AKa13F54b8calFHqvjjw3FFby3ksd5okM0UUt1L/AMsv9VL+6/deVXi/wN8SatNr2qeI4Nc+2yXX+jQy3f7qWL/Sov8All/39r1jxJ8Tr7Qdf/4QDVtJll1CLXpZNY8QzTf+Qq51uBh+A/8AhHPidFqHhzxjY/2TcWsN1bfZIpvL+yxRf89f+mv73/W1c1LTfCvhX4yWfjCDXLLSbfRoYo/7W/1v2+KWLyov+2sX/TWuD/4XN4O1L4jah9u8HavLqGlzS/bLu08ryvsssUUUv2n/AMhf9+q6DXvCtv4V+F+oeI577zLewm8vzfO82KWKtagFjxV428ceDvGWofDnyI9W0/xHZ/bYdR8nzbXyopfK/e/9+vNqv4b17xTeeHLzxj8R9VtraTwv9qsoYbSzii+1RSxf6ryv+WtYeg+PPDk/wb1CDStDuf7Pl83/AEuXzfNtZf3X72Kug8YaxBoPw51TxHquq3N9b6p9ltvskUMXm+VL/razpUwM/wASeKoPEnwqvJ77XNN1vR9ehikh1vVpvNiiuopfK8qLzZfNil8qtDTfCvjjwTfx2N9odlc2cUP2nQdQm1jzPNl/5ZeV5X7391XP2c37PWveF9P8OD/QrPxHDFbTWl3/AMuF1FF5Uv8Aqv8ArlXcabpvhSbWdD8OWOuRS3lhpsttZ3fnf6NLL5Uv7r/rr5VaVTM//9k=;" vertex="1" parent="WIyWlLk6GJQsqaUBKTNV-1">
          <mxGeometry x="562.5" y="265" width="105" height="105" as="geometry" />
        </mxCell>
      </root>
    </mxGraphModel>
  </diagram>
</mxfile>
